<?xml version="1.0" encoding="UTF-8"?>
<svg version="1.1" xmlns="http://www.w3.org/2000/svg" width="1080" height="1350">
<path d="M0 0 C6.59098952 6.12100385 11.90907335 13.41109724 17.30078125 20.57421875 C18.65450398 22.36491903 20.00866701 24.15528654 21.36328125 25.9453125 C22.0173999 26.810354 22.67151855 27.67539551 23.34545898 28.56665039 C25.81019833 31.80629468 28.3067358 35.02024844 30.81274414 38.22802734 C31.73699839 39.41355971 32.65315993 40.60550641 33.55639648 41.80712891 C39.55703366 49.50966131 47.64951572 54.59307253 57.30078125 56.13671875 C59.52841854 56.22919698 61.7587308 56.26671214 63.98828125 56.26171875 C65.12652344 56.26429688 66.26476562 56.266875 67.4375 56.26953125 C70.34251698 56.16966211 73.12621721 55.96435895 76.0078125 55.6484375 C81.77369024 55.0401787 87.50582093 54.87937383 93.30078125 54.82421875 C94.82445312 54.78071289 94.82445312 54.78071289 96.37890625 54.73632812 C104.95049923 54.66489818 112.34123798 56.35691668 118.98828125 62.01171875 C127.15837417 71.13626178 130.56307211 83.49019891 134.37939453 94.84838867 C138.15777313 106.97196002 138.15777313 106.97196002 146.30078125 116.13671875 C149.33350619 116.47368819 152.3420981 116.57820676 155.390625 116.6953125 C158.60694278 117.18315667 159.99687566 117.87557706 162.30078125 120.13671875 C166.2987988 132.13077139 166.58901589 153.46930892 162.51953125 165.43359375 C160.94771662 167.63010394 159.74468176 168.04996825 157.17578125 168.82421875 C156.45132813 169.05496094 155.726875 169.28570313 154.98046875 169.5234375 C148.61530779 170.98018717 142.30278859 171.31829707 135.80078125 171.32421875 C135.09308594 171.33646484 134.38539063 171.34871094 133.65625 171.36132812 C128.54589727 171.37534189 124.08945606 171.01099577 119.30078125 169.13671875 C117.63671875 166.046875 117.63671875 166.046875 116.67578125 162.19921875 C116.2946156 160.83363431 115.90518947 159.47033042 115.5078125 158.109375 C115.21704834 157.09834717 115.21704834 157.09834717 114.92041016 156.06689453 C112.42374648 148.28965929 107.6578505 142.13153434 102.30078125 136.13671875 C102.30078125 135.47671875 102.30078125 134.81671875 102.30078125 134.13671875 C101.43646484 133.74419922 101.43646484 133.74419922 100.5546875 133.34375 C98.16076875 132.06173805 96.31248322 130.57275163 94.23828125 128.82421875 C89.27373179 124.91595641 84.18437168 122.38948199 78.30078125 120.13671875 C77.49511719 119.81574219 76.68945312 119.49476563 75.859375 119.1640625 C60.40359763 113.96376182 42.7997992 116.55056354 28.30078125 123.13671875 C11.6523794 131.87483022 2.29182301 145.86164127 -3.81640625 163.33203125 C-4.95017783 168.21828577 -5.03863254 172.82466228 -5.01171875 177.82421875 C-5.01115479 178.79866943 -5.01059082 179.77312012 -5.01000977 180.77709961 C-4.92950479 187.0917415 -4.29536774 192.77476729 -2.2578125 198.796875 C-1.52194655 201.87927852 -1.32590013 203.2271454 -2.69921875 206.13671875 C-8.78302917 209.82863914 -15.5870311 211.18469194 -22.49609375 212.43359375 C-24.59518287 212.83405102 -26.69422067 213.23477736 -28.79321289 213.63574219 C-29.87990265 213.83937378 -30.96659241 214.04300537 -32.08621216 214.25280762 C-60.86793761 219.67802927 -88.2377202 227.12966877 -115.890625 236.70410156 C-191.74197477 262.96094675 -191.74197477 262.96094675 -210.69921875 262.13671875 C-210.97894531 261.39808594 -211.25867188 260.65945313 -211.546875 259.8984375 C-218.95994436 241.13931986 -230.13621288 227.53854442 -248.76171875 219.32421875 C-265.50945459 212.80525371 -282.64597886 213.55093959 -299.140625 220.609375 C-315.4418648 228.75037197 -325.53970118 241.25239412 -331.69921875 258.13671875 C-332.11171875 259.25046875 -332.52421875 260.36421875 -332.94921875 261.51171875 C-335.9876711 276.19757176 -334.04433811 289.94266218 -329.69921875 304.13671875 C-333.50134613 307.534825 -336.91792182 309.15592698 -341.76171875 310.69921875 C-342.41712646 310.90828857 -343.07253418 311.1173584 -343.74780273 311.33276367 C-364.31788904 317.78881331 -364.31788904 317.78881331 -369.75390625 315.1328125 C-388.9515926 298.69530852 -394.43293106 264.1357105 -396.53808594 240.44799805 C-397.67808961 224.09585449 -396.47932959 209.36885942 -385.71484375 196.3203125 C-372.55548825 182.06434404 -353.71837227 175.7307166 -335.94628906 169.31347656 C-295.50405556 154.9471215 -295.50405556 154.9471215 -269.18457031 122.45947266 C-266.71525172 116.93556962 -264.95962748 111.23057012 -263.19921875 105.44921875 C-262.42198633 102.97611786 -261.6433442 100.50345955 -260.86328125 98.03125 C-260.49235352 96.84740723 -260.12142578 95.66356445 -259.73925781 94.44384766 C-256.12288975 82.94447635 -252.41957882 72.27891354 -245.69921875 62.13671875 C-245.2403125 61.41226563 -244.78140625 60.6878125 -244.30859375 59.94140625 C-233.67889946 44.36340599 -213.35096093 34.87895024 -196.69921875 27.13671875 C-195.90290039 26.7607959 -195.10658203 26.38487305 -194.28613281 25.99755859 C-148.12215394 4.38418175 -45.2577182 -34.8879886 0 0 Z M-59.16796875 13.203125 C-59.87335785 13.31725235 -60.57874695 13.4313797 -61.30551147 13.54896545 C-63.60475663 13.9247285 -65.9020799 14.31079811 -68.19921875 14.69921875 C-68.98878967 14.83132751 -69.7783606 14.96343628 -70.59185791 15.09954834 C-81.98920722 17.01665831 -93.30360709 19.20254182 -104.57421875 21.76171875 C-106.40436523 22.17659546 -106.40436523 22.17659546 -108.27148438 22.59985352 C-116.49753697 24.51643313 -124.5996306 26.74922835 -132.69921875 29.13671875 C-132.23402832 29.82612549 -131.76883789 30.51553223 -131.28955078 31.22583008 C-123.55018086 42.8074485 -118.52150939 55.30694953 -113.6887207 68.28857422 C-111.36850846 74.49346535 -108.81509841 80.54161754 -106.0690918 86.56835938 C-103.70259469 91.86229089 -102.11902504 97.13601862 -100.71875 102.7578125 C-99.97310377 105.26730079 -99.97310377 105.26730079 -97.92651367 105.85820007 C-95.26932048 106.19047665 -93.59788124 105.76492509 -91.04296875 104.97192383 C-89.65425568 104.54877647 -89.65425568 104.54877647 -88.23748779 104.11708069 C-87.23485901 103.80000656 -86.23223022 103.48293243 -85.19921875 103.15625 C-83.62107391 102.66982277 -83.62107391 102.66982277 -82.01104736 102.17356873 C-78.5703586 101.10943964 -75.13471047 100.02999816 -71.69921875 98.94921875 C-69.33833461 98.21348695 -66.97733138 97.47813719 -64.61621094 96.74316406 C-50.69354973 92.3957789 -36.7972144 87.96657732 -22.94921875 83.38671875 C-22.21413086 83.14523102 -21.47904297 82.90374329 -20.72167969 82.65493774 C-7.68928159 79.15750159 -7.68928159 79.15750159 2.30078125 71.13671875 C3.96465949 56.16181463 -6.11476913 44.42303146 -14.890625 33.37890625 C-22.47713251 24.46510921 -32.93727259 14.68704364 -44.69921875 12.13671875 C-49.65770329 11.98197997 -54.27589828 12.40912241 -59.16796875 13.203125 Z M-217.69921875 66.13671875 C-227.5415166 79.15042368 -230.04356039 93.88713947 -229.89453125 109.8046875 C-229.89170135 110.96551346 -229.88887146 112.12633942 -229.88595581 113.32234192 C-229.87485966 116.98974401 -229.84977504 120.65689185 -229.82421875 124.32421875 C-229.81417529 126.8274704 -229.80505184 129.33072593 -229.796875 131.83398438 C-229.77495504 137.93498096 -229.74158435 144.03583168 -229.69921875 150.13671875 C-228.92151375 149.86282822 -228.92151375 149.86282822 -228.12809753 149.58340454 C-216.45049415 145.47433986 -204.7571365 141.42282749 -193.01171875 137.51171875 C-191.89973618 137.14069534 -191.89973618 137.14069534 -190.76528931 136.76217651 C-176.14671443 131.88983172 -161.46839456 127.21082533 -146.76879883 122.58935547 C-142.82278486 121.34867926 -138.87874252 120.10198887 -134.93695068 118.84796143 C-133.4352915 118.37067276 -131.93304384 117.89523196 -130.43023682 117.42156982 C-128.30508539 116.74972369 -126.18343814 116.06782515 -124.0625 115.3828125 C-122.85505127 114.99665771 -121.64760254 114.61050293 -120.40356445 114.21264648 C-117.56987705 113.43282543 -117.56987705 113.43282543 -116.69921875 111.13671875 C-117.2977683 108.48057201 -117.969882 105.90861919 -118.7265625 103.296875 C-118.95039612 102.5072084 -119.17422974 101.71754181 -119.40484619 100.90394592 C-120.13877455 98.33269271 -120.88607327 95.76563851 -121.63671875 93.19921875 C-122.01577866 91.8951004 -122.01577866 91.8951004 -122.40249634 90.56463623 C-126.05580932 78.04790178 -129.94149283 65.86776192 -135.69921875 54.13671875 C-136.05677246 53.3979248 -136.41432617 52.65913086 -136.78271484 51.89794922 C-139.0272356 47.27826382 -141.34280599 42.70019417 -143.69921875 38.13671875 C-144.36844173 36.80466664 -145.03657115 35.47205406 -145.69921875 34.13671875 C-168.05933056 34.13671875 -201.06872648 51.02445963 -217.69921875 66.13671875 Z " fill="#960C12" transform="translate(840.69921875,636.86328125)"/>
<path d="M0 0 C7.26088374 7.99783679 9.82080959 19.84417982 13 29.9375 C13.3916333 31.16122314 13.7832666 32.38494629 14.18676758 33.64575195 C16.10516257 39.67561894 17.93870663 45.71254327 19.60400391 51.81689453 C22.64822072 62.88052099 27.78630316 69.60510229 35.58984375 77.86254883 C43.13684682 85.97792904 44.89966345 93.57202418 44.765625 104.41796875 C43.56609298 121.72298221 33.47329401 137.79673194 25.25 152.625 C14.01858706 172.9340002 11.51932374 189.73641363 14.0625 212.625 C15.95475556 230.55489698 12.92793471 248.52641576 1.3984375 262.86328125 C-8.27426694 272.20183772 -20.59014292 274.67610597 -33.5703125 274.46875 C-43.31192217 273.92647352 -53.13958709 271.41661678 -60.3125 264.5625 C-64.74038211 257.85742137 -65.83483642 251.60172283 -65.80078125 243.6328125 C-66.29780809 241.01296514 -66.29780809 241.01296514 -68.9296875 239.57421875 C-73.34504198 237.93657633 -77.70227178 236.87352446 -82.3125 235.9375 C-83.31933838 235.73020264 -84.32617676 235.52290527 -85.36352539 235.30932617 C-95.9991184 233.20951213 -106.71233641 231.6263365 -117.4375 230.0625 C-118.30355865 229.93612152 -119.16961731 229.80974304 -120.06192017 229.67953491 C-128.71032453 228.42542983 -137.35859267 227.24170649 -146.04296875 226.265625 C-156.20571379 225.11702624 -166.27807055 223.43183747 -176.36865234 221.77905273 C-208.27292918 215.55288931 -208.27292918 215.55288931 -238.5 223.25 C-241.91414359 226.63711871 -244.68206168 230.49299643 -247.5 234.375 C-253.03694357 241.73386844 -258.51991508 244.69296915 -267.5 246.25 C-279.56211588 247.57610611 -294.38922127 245.17547242 -304.5 238.25 C-308.88556748 233.97407171 -310.34706275 229.4653411 -310.765625 223.40234375 C-310.77088205 221.99739601 -310.76548069 220.59237228 -310.75 219.1875 C-310.76160156 218.17526367 -310.76160156 218.17526367 -310.7734375 217.14257812 C-310.7579019 212.93631344 -310.31858441 208.94800057 -309.60058594 204.8046875 C-308.08022829 195.12105837 -307.40452367 185.36357913 -306.625 175.59765625 C-306.45363294 173.49089291 -306.28191347 171.38415822 -306.10986328 169.27745056 C-305.75069588 164.86756807 -305.39462873 160.45745043 -305.04101562 156.04711914 C-304.59519924 150.48780493 -304.14347353 144.9289921 -303.68966675 139.37032509 C-301.78367142 116.00775025 -299.93426547 92.64700207 -298.5 69.25 C-299.11868958 69.18664963 -299.73737915 69.12329926 -300.37481689 69.05802917 C-301.1860199 68.97209 -301.9972229 68.88615082 -302.83300781 68.79760742 C-304.03947968 68.67164436 -304.03947968 68.67164436 -305.27032471 68.5431366 C-310.89037907 67.80426506 -315.81456693 65.45644289 -319.5 61.125 C-323.31058704 55.64728113 -323.19552357 50.81795553 -322.5 44.25 C-320.39294976 37.64730376 -317.17303137 33.15808827 -311.5 29.25 C-308.74383568 27.87191784 -306.47214908 28.10491034 -303.390625 28.07421875 C-302.16085937 28.05037109 -300.93109375 28.02652344 -299.6640625 28.00195312 C-297.07047587 27.95924436 -294.47667631 27.92785361 -291.8828125 27.90820312 C-283.80633174 27.72694599 -279.40569274 27.27520786 -273.63305664 21.32592773 C-268.73370511 16.03117562 -264.44215986 10.31519254 -260.1875 4.5 C-254.23943901 -3.52610273 -248.08122727 -11.238929 -241.5 -18.75 C-240.31470703 -20.17119141 -240.31470703 -20.17119141 -239.10546875 -21.62109375 C-228.37948193 -34.21088067 -214.08512373 -36.29454324 -198.19262695 -37.73876953 C-139.97665505 -42.32270433 -45.54745054 -40.82401122 0 0 Z M-224.1875 4.6875 C-238.02393198 20.85205056 -252.14841599 51.69016831 -251.5 73.25 C-243.12324439 76.10009435 -234.58295727 77.64125217 -225.875 79.0625 C-225.10004181 79.19005676 -224.32508362 79.31761353 -223.52664185 79.44903564 C-177.58293995 86.96190034 -131.11008844 91.21478712 -84.82129669 96.00946045 C-82.52241146 96.24767766 -80.22357231 96.48633514 -77.92474365 96.72509766 C-69.40033159 97.61000541 -60.87518733 98.48730627 -52.34875488 99.35253906 C-49.76828536 99.61476586 -47.18795914 99.87840722 -44.60778809 100.14355469 C-41.0606386 100.50711327 -37.51288034 100.86396721 -33.96484375 101.21875 C-32.94226974 101.32457397 -31.91969574 101.43039795 -30.86613464 101.53942871 C-24.72202955 102.14417525 -18.67293287 102.37541698 -12.5 102.25 C-6.76905605 81.61171086 -12.32443335 49.00807966 -21.8125 30 C-33.50082702 11.85799549 -59.45283454 7.92203854 -78.875 3.5625 C-94.4796285 0.20180711 -110.25932255 -1.51320755 -126.14257812 -2.90869141 C-135.23254551 -3.74449178 -144.25657516 -5.03745825 -153.28955078 -6.34155273 C-176.58252131 -9.68039438 -205.89104667 -13.46140128 -224.1875 4.6875 Z M-243.5 108.25 C-248.32190816 114.4823163 -249.94067165 120.7966883 -249.3125 128.5703125 C-248.35725056 134.44111637 -245.95568672 138.33665224 -241.5 142.25 C-236.11502281 145.68721948 -230.71341004 146.90136081 -224.4375 145.5625 C-217.56365755 143.568155 -213.07769244 139.51524648 -209.4140625 133.453125 C-207.32368441 128.4147778 -207.73050364 122.13804647 -209.1171875 116.93359375 C-211.52468243 111.49009857 -215.69277205 107.6555311 -220.5 104.25 C-228.56721268 101.56092911 -237.30708422 102.10009058 -243.5 108.25 Z M-76.3046875 133.4140625 C-81.48622655 141.02522273 -82.09832246 147.10582649 -81.5 156.25 C-79.55453105 162.54416424 -74.69235628 166.40179373 -69.125 169.625 C-62.32580408 171.24385617 -56.68592486 170.63475134 -50.5 167.25 C-44.96588328 163.56058885 -42.46056855 159.60532613 -40.5 153.25 C-39.59526519 147.02994821 -41.42294967 141.62837369 -44.5 136.25 C-49.71564318 130.09531478 -54.94670811 127.74672275 -62.9375 126.875 C-68.53544349 127.46425721 -72.63607231 129.01490056 -76.3046875 133.4140625 Z " fill="#960C12" transform="translate(402.5,676.75)"/>
<path d="M0 0 C0.66 0 1.32 0 2 0 C5.13566537 20.087593 8.26525628 40.1761234 11.38763428 60.26578617 C12.83757453 69.59390172 14.28949499 78.92170096 15.74609375 88.2487793 C17.0157747 96.37899481 18.28172356 104.50978118 19.54320908 112.64127249 C20.21117811 116.94611996 20.88100236 121.2506601 21.55529785 125.55452156 C22.19025019 129.60765095 22.8201994 133.66152671 23.44636536 137.71602249 C23.67671292 139.20176227 23.90886704 140.6872233 24.14299011 142.17237282 C24.46321051 144.20545956 24.77681898 146.23946423 25.08886719 148.27381897 C25.35434357 149.97867509 25.35434357 149.97867509 25.62518311 151.71797276 C26.0197163 155.1726428 26.06424026 158.52590414 26 162 C38.98219309 156.10142797 51.9197733 150.11565851 64.81549072 144.03076172 C75.86086542 138.81899653 86.90961616 133.6154907 98 128.5 C98.99644531 128.03722656 99.99289062 127.57445312 101.01953125 127.09765625 C101.92058594 126.68386719 102.82164062 126.27007812 103.75 125.84375 C104.52859375 125.48474609 105.3071875 125.12574219 106.109375 124.75585938 C108 124 108 124 110 124 C108.39458959 137.43122295 105.56387824 150.62895333 102.875 163.875 C102.40198394 166.21997953 101.92932475 168.56503108 101.45703125 170.91015625 C100.30880134 176.60760779 99.15616627 182.30415396 98 188 C102.86249173 188.3912575 107.72514462 188.78043591 112.58795166 189.16775513 C114.31743226 189.30563523 116.04688395 189.44387836 117.77630615 189.58248901 C126.79403979 190.30430113 135.81070432 191.01005796 144.83984375 191.57421875 C145.51127914 191.6168988 146.18271454 191.65957886 146.87449646 191.70355225 C150.00331621 191.90173767 153.13220275 192.09075547 156.26245117 192.26513672 C157.36435791 192.33361816 158.46626465 192.40209961 159.6015625 192.47265625 C160.55369629 192.52687744 161.50583008 192.58109863 162.48681641 192.63696289 C165.04550924 193.00657395 166.77842111 193.70783055 169 195 C165.16216306 198.86276294 161.32089514 202.72207083 157.4765625 206.57836914 C156.17225416 207.88767174 154.86884892 209.19787469 153.56640625 210.5090332 C141.32899629 222.82621156 141.32899629 222.82621156 137 226.49609375 C130.44270624 232.06153533 124.54459305 238.39169982 118.5 244.5 C102.93642982 260.22760279 102.93642982 260.22760279 96 266 C94.66566148 267.14466262 93.33230682 268.29047326 92 269.4375 C91.01 270.283125 90.02 271.12875 89 272 C89.59452279 265.53420904 90.70490257 259.44426079 92.28515625 253.15234375 C92.50570175 252.25504044 92.72624725 251.35773712 92.95347595 250.4332428 C93.65114424 247.59997821 94.35667861 244.76874322 95.0625 241.9375 C95.54023738 240.00338452 96.0174559 238.06914081 96.49414062 236.13476562 C97.65677041 231.42167407 98.8264533 226.71038459 100 222 C99.32715469 222.00547852 98.65430939 222.01095703 97.96107483 222.01660156 C80.61207147 222.15015597 63.33268159 221.70234813 46 221 C46.72500056 216.4243787 48.30121095 212.23486216 49.94140625 207.92578125 C50.22853989 207.16073776 50.51567352 206.39569427 50.81150818 205.60746765 C51.72488839 203.17443224 52.64316403 200.7432907 53.5625 198.3125 C54.48520361 195.87092493 55.40674543 193.42894867 56.32420349 190.98539734 C56.89420949 189.46730366 57.46725192 187.950346 58.04359436 186.43464661 C59.4937481 182.81785604 59.4937481 182.81785604 60 179 C58.92854736 179.52319824 57.85709473 180.04639648 56.75317383 180.58544922 C21.07152127 198.00534811 21.07152127 198.00534811 8.1875 204.1875 C7.35516846 204.5901709 6.52283691 204.9928418 5.6652832 205.40771484 C0.23469948 208 0.23469948 208 -2 208 C-5.46613906 188.79791509 -8.76957498 169.57163035 -11.87890625 150.30859375 C-12.00237993 149.54375042 -12.12585361 148.77890709 -12.25306892 147.99088669 C-13.5053669 140.22856217 -14.75161259 132.4652823 -15.99063396 124.7008276 C-16.46131163 121.75354727 -16.9337936 118.80655768 -17.40652275 115.85960579 C-17.73576742 113.80184389 -18.06214862 111.74364099 -18.38844299 109.68540955 C-18.58622849 108.45206375 -18.78401398 107.21871796 -18.98779297 105.94799805 C-19.15987274 104.86729538 -19.33195251 103.78659271 -19.50924683 102.67314148 C-19.95192671 99.91134158 -19.95192671 99.91134158 -21 97 C-21.19584183 97.51759384 -21.39168365 98.03518768 -21.59346008 98.56846619 C-33.90749552 131.10636482 -46.37562094 163.58126116 -59 196 C-63.38737756 194.37243189 -66.46700583 192.14412386 -69.9375 189.0625 C-74.49682098 185.10947865 -79.11266542 181.26878302 -83.875 177.5625 C-88.77782736 173.74205292 -93.65284055 169.89089578 -98.5 166 C-103.56715162 161.93766786 -108.64750785 157.89287864 -113.75 153.875 C-114.62688477 153.18277344 -114.62688477 153.18277344 -115.52148438 152.4765625 C-117.96712416 150.55478165 -120.41021147 148.72652569 -123 147 C-122.23341531 155.01965518 -120.37421524 162.80784661 -118.62109375 170.65625 C-118.28589948 172.16932209 -117.95103015 173.68246621 -117.61647034 175.19567871 C-116.74018328 179.15502007 -115.85951871 183.11337495 -114.97790527 187.0715332 C-114.07699942 191.12001323 -113.18028349 195.16942092 -112.28320312 199.21875 C-110.52620975 207.14674159 -108.76458569 215.07369484 -107 223 C-110.94240161 224.31413387 -113.54847384 223.16557102 -117.35791016 221.95800781 C-118.47805008 221.61432663 -118.47805008 221.61432663 -119.62081909 221.26370239 C-122.09623654 220.50187194 -124.56757337 219.72759565 -127.0390625 218.953125 C-128.76176556 218.42005981 -130.48470005 217.88774203 -132.20785522 217.35614014 C-136.75410037 215.95125385 -141.29694945 214.53567464 -145.8392334 213.11804199 C-150.43366867 211.68642071 -155.03149666 210.26578386 -159.62890625 208.84375 C-188.1074479 200.02446817 -188.1074479 200.02446817 -197 197 C-196.78115646 197.63147446 -196.56231293 198.26294891 -196.33683777 198.91355896 C-194.04871391 205.51629082 -191.76132981 212.11927862 -189.47436523 218.72241211 C-188.622014 221.18308916 -187.7694774 223.64370201 -186.91674805 226.10424805 C-185.68749432 229.65135905 -184.45891864 233.19870429 -183.23046875 236.74609375 C-182.85222458 237.8370787 -182.47398041 238.92806366 -182.08427429 240.05210876 C-180.01757245 246.02243628 -177.98472378 252.00190668 -176 258 C-180.24841403 256.09586976 -182.65823629 253.16322999 -185.5625 249.625 C-186.63100444 248.3487445 -187.70135389 247.07403165 -188.7734375 245.80078125 C-189.31194336 245.16092285 -189.85044922 244.52106445 -190.40527344 243.86181641 C-192.76121289 241.11129677 -195.21735616 238.4602101 -197.6875 235.8125 C-201.07605384 232.16665597 -204.31902726 228.44376463 -207.4375 224.5625 C-211.28174639 219.78298078 -215.37089045 215.30679656 -219.56054688 210.83398438 C-222.65765465 207.50862723 -225.59614376 204.11289193 -228.4375 200.5625 C-231.94643139 196.18748028 -235.65844505 192.07979091 -239.5 188 C-244.12293021 183.09037644 -248.4660099 178.05521692 -252.68359375 172.7890625 C-256.35343525 168.37040005 -260.29020188 164.20675434 -264.20703125 160.0078125 C-267.5585461 156.41297924 -270.78888309 152.72019641 -274 149 C-275.31158221 147.49919743 -276.6240741 145.99918933 -277.9375 144.5 C-278.95833333 143.33333333 -279.97916667 142.16666667 -281 141 C-277.95498359 140.03758985 -276.050908 139.99874997 -272.98262024 140.84420776 C-272.19181061 141.05700882 -271.40100098 141.26980988 -270.58622742 141.48905945 C-269.72672989 141.73098526 -268.86723236 141.97291107 -267.98168945 142.22216797 C-267.06850952 142.47091171 -266.15532959 142.71965546 -265.21447754 142.97593689 C-262.17814067 143.80549084 -259.14580791 144.64882089 -256.11328125 145.4921875 C-253.97868423 146.07825834 -251.84384807 146.66345881 -249.70878601 147.24783325 C-244.05554824 148.7976278 -238.40558064 150.35903277 -232.75622559 151.9229126 C-227.13815281 153.47614214 -221.51724266 155.01902263 -215.89648438 156.5625 C-207.24290428 158.93993225 -198.59086577 161.3228845 -189.93994141 163.70996094 C-179.39581556 166.61881792 -168.84651292 169.50832497 -158.29296875 172.3828125 C-157.59029688 172.57420681 -156.88762501 172.76560112 -156.16366005 172.96279526 C-152.44268607 173.9761024 -148.7214755 174.98853637 -145 176 C-145.2461203 174.76131165 -145.4922406 173.52262329 -145.74581909 172.24639893 C-148.07226628 160.53646364 -150.3967705 148.8261441 -152.71940422 137.11545181 C-153.91336893 131.09581834 -155.10800254 125.07631928 -156.30419922 119.05712891 C-157.45994095 113.2413737 -158.61388068 107.42526353 -159.76660538 101.60890961 C-160.20530004 99.39699487 -160.64462882 97.1852058 -161.08462143 94.97354889 C-165.51106584 72.71951797 -165.51106584 72.71951797 -167 63 C-162.9389367 64.8992201 -159.79236872 67.56923129 -156.4375 70.5 C-155.81834717 71.03536377 -155.19919434 71.57072754 -154.5612793 72.12231445 C-149.84496717 76.21714883 -145.23714066 80.42020222 -140.63671875 84.64453125 C-138.0274059 86.97551739 -135.3518718 89.18327187 -132.625 91.375 C-127.8293951 95.24154184 -123.33121333 99.34851983 -118.83862305 103.5559082 C-114.62588877 107.47892724 -110.23595547 111.11903719 -105.74609375 114.72265625 C-102.73680948 117.21826469 -99.86061346 119.83765143 -97 122.5 C-92.4745381 126.71140575 -87.79958236 130.65428258 -82.9765625 134.52539062 C-79.7764658 137.18583847 -76.70984671 139.95578483 -73.65625 142.78125 C-72.83495605 143.53776855 -72.83495605 143.53776855 -71.99707031 144.30957031 C-70.66346045 145.53835494 -69.33155058 146.76898416 -68 148 C-59.7660002 130.71786697 -51.65773334 113.39352374 -43.9375 95.875 C-38.61265846 83.79537641 -33.15174094 71.79426947 -27.51416016 59.85745239 C-21.03264441 46.13258492 -14.74896907 32.32164524 -8.49363708 18.49250793 C-5.695338 12.31310784 -2.85270849 6.15447253 0 0 Z " fill="#960C12" transform="translate(534,382)"/>
<path d="M0 0 C11.97866903 9.06651286 20.6937886 20.87936328 23.41015625 35.82421875 C25.327969 53.4217688 22.10444091 68.08245286 11.515625 82.3828125 C3.5755523 92.06115715 -7.3721654 98.17960501 -19.58984375 100.82421875 C-20.38261719 101.00597656 -21.17539062 101.18773437 -21.9921875 101.375 C-36.09999662 103.81469631 -50.61549855 100.49847144 -62.58984375 92.82421875 C-75.37825748 83.12540933 -83.05246349 71.28044913 -86.27734375 55.44921875 C-87.70068582 38.93845073 -84.33367913 24.53408918 -74.51953125 10.9609375 C-56.39130278 -10.4485653 -23.60977556 -15.24078195 0 0 Z " fill="#960C12" transform="translate(597.58984375,867.17578125)"/>
<path d="M0 0 C10.95515845 9.80501059 16.95152552 23.77723019 18.19921875 38.24609375 C18.73244761 54.08067252 13.4598722 67.9524054 2.9765625 79.6640625 C-7.90438131 91.09010176 -21.8315444 96.58586703 -37.5234375 97.0390625 C-52.59518891 96.58618535 -66.05576681 91.289349 -77.03125 80.81640625 C-90.03255408 66.76989929 -92.86160295 51.62244315 -92.20703125 33.17333984 C-91.82190028 27.90954177 -90.27696363 23.39350221 -88.0234375 18.6640625 C-87.6728125 17.88289062 -87.3221875 17.10171875 -86.9609375 16.296875 C-80.01762922 2.36204103 -67.49596747 -6.91753114 -53.09375 -12.01953125 C-33.99266731 -17.40796898 -15.25610672 -11.78701785 0 0 Z " fill="#960C12" transform="translate(935.0234375,774.3359375)"/>
<path d="M0 0 C4.77218268 2.38609134 6.62796452 6.10272532 9.25 10.625 C9.66765625 11.33398438 10.0853125 12.04296875 10.515625 12.7734375 C11.44650101 14.3795264 12.35141051 16.00062669 13.25 17.625 C-3.97301713 39.95113331 -3.97301713 39.95113331 -12.2734375 43.79296875 C-20.48806282 44.53592974 -29.68166357 38.29856696 -36.75 34.625 C-35.16330923 27.30773673 -29.18154441 23.28060949 -23.75 18.625 C-17.80895238 13.40147021 -12.07787614 8.04795832 -6.5625 2.375 C-4.10905525 0.00615679 -3.4353305 -0.46845416 0 0 Z " fill="#960C12" transform="translate(464.75,636.375)"/>
<path d="M0 0 C5.48321626 1.50094369 9.78332299 4.12456124 14.5 7.1875 C15.23347656 7.64447266 15.96695312 8.10144531 16.72265625 8.57226562 C23.97851981 13.25158372 29.35989835 19.13738043 33 27 C32.80720133 30.05516289 32.51514828 31.49970111 30.29760742 33.65332031 C29.21249878 34.35859863 29.21249878 34.35859863 28.10546875 35.078125 C26.91920898 35.85929688 26.91920898 35.85929688 25.70898438 36.65625 C24.87689453 37.1821875 24.04480469 37.708125 23.1875 38.25 C22.36701172 38.79140625 21.54652344 39.3328125 20.70117188 39.890625 C14.05699257 44.20152804 14.05699257 44.20152804 10 45 C7.64905124 39.0780766 5.89787301 33.19870146 4.4375 27 C4.22134033 26.09096924 4.00518066 25.18193848 3.7824707 24.24536133 C1.93251706 16.20872362 0.77781839 8.20772539 0 0 Z " fill="#960C12" transform="translate(460,697)"/>
<path d="M0 0 C8.56973954 6.92872558 17.68306962 15.13419358 21 26 C20.6171875 28.2890625 20.6171875 28.2890625 20 30 C6.49749564 33.43284009 -7.16693111 33.13146528 -21 33 C-21.33 32.34 -21.66 31.68 -22 31 C-6.93673978 9.39260417 -6.93673978 9.39260417 0 0 Z " fill="#960C12" transform="translate(532,673)"/>
<path d="M0 0 C3.73617156 2.0230798 6.48173995 4.67202425 8.6640625 8.28125 C10.46160912 14.39290851 9.20737896 19.59297233 6.6640625 25.28125 C4.11650956 29.05745927 1.45236968 31.75571188 -2.3359375 34.28125 C-3.3259375 34.28125 -4.3159375 34.28125 -5.3359375 34.28125 C-6.73828125 32.33203125 -6.73828125 32.33203125 -8.2734375 29.59375 C-11.66717377 23.9642261 -15.65560411 19.43745891 -20.24780273 14.78637695 C-23.15025832 11.79592561 -25.11482564 9.29241745 -26.3359375 5.28125 C-25.23525754 4.46403283 -24.13024019 3.65265549 -23.0234375 2.84375 C-22.40855469 2.39128906 -21.79367187 1.93882812 -21.16015625 1.47265625 C-15.51499398 -2.21422703 -6.26938712 -1.92904219 0 0 Z " fill="#960C12" transform="translate(526.3359375,740.71875)"/>
<path d="M0 0 C4.63839619 0.09094894 7.21416035 0.80846188 10.4375 4.0625 C11.283125 5.031875 12.12875 6.00125 13 7 C11.72278474 11.99275057 9.82669043 14.57611908 6 18 C1.40693504 16.5140084 -1.43569245 14.14985318 -5 11 C-4.35731563 9.35293447 -3.71076198 7.70737825 -3.0625 6.0625 C-2.70285156 5.14597656 -2.34320313 4.22945312 -1.97265625 3.28515625 C-1 1 -1 1 0 0 Z " fill="#960C12" transform="translate(485,664)"/>
</svg>
