<?xml version="1.0" encoding="UTF-8"?>
<svg version="1.1" xmlns="http://www.w3.org/2000/svg" width="1080" height="1350">
<path d="M0 0 C5.6960294 5.28917015 7.55164602 11.76420567 9.43408203 19.06958008 C9.68504639 20.01038925 9.93601074 20.95119843 10.19458008 21.92051697 C11.01700827 25.01354909 11.82508893 28.11012963 12.6328125 31.20703125 C13.20444207 33.37046305 13.77687293 35.53368327 14.35006714 37.69670105 C15.54789848 42.22501442 16.73920005 46.75497503 17.92529297 51.28637695 C19.44061673 57.0753079 20.96717838 62.86119445 22.49804878 68.64603138 C23.96360914 74.18615222 25.42337435 79.72779512 26.8828125 85.26953125 C27.15931767 86.31742136 27.43582283 87.36531147 27.72070694 88.44495583 C28.50855792 91.43489115 29.29226708 94.42588103 30.07470703 97.41723633 C30.3043515 98.28665863 30.53399597 99.15608093 30.77059937 100.05184937 C32.27054565 105.81017412 33.51694432 111.59135173 34.625 117.4375 C35.39199219 117.14875 36.15898437 116.86 36.94921875 116.5625 C51.79772195 111.59575329 69.11605357 110.9871579 83.625 117.4375 C98.93929169 125.39730797 110.0286193 136.76900129 115.5 153.3125 C120.54339328 169.31107867 120.00931588 185.05722204 113.125 200.4375 C104.7853402 216.24551185 90.3084282 226.54869486 73.5 231.75 C71.54423677 232.32137194 69.58676792 232.88709803 67.625 233.4375 C67.625 237.63162764 68.46834917 241.15711749 69.54931641 245.16162109 C69.7542572 245.93641312 69.959198 246.71120514 70.17034912 247.50947571 C70.85101838 250.07791358 71.53874141 252.64440646 72.2265625 255.2109375 C72.70584605 257.01328774 73.18471079 258.81574939 73.66317749 260.61831665 C74.92890493 265.38188354 76.20069525 270.14381211 77.47363281 274.90545654 C78.49441517 278.72769262 79.51108113 282.55101708 80.52743912 286.37443161 C81.75917171 291.00778203 82.99286128 295.64061095 84.2265625 300.2734375 C84.46635078 301.17445946 84.70613907 302.07548141 84.95319366 303.00380707 C87.15368004 311.26817689 89.35459134 319.53100983 91.67480469 327.76269531 C91.96277924 328.78900055 92.25075378 329.81530579 92.54745483 330.87271118 C93.0469967 332.64116711 93.55392825 334.40756619 94.07095337 336.17098999 C95.68051629 341.86438138 96.56462253 346.9153553 94.4375 352.625 C91.83495401 356.66343343 89.18380664 358.91789779 84.625 360.4375 C75.05439013 361.23115825 65.46019348 359.56928327 55.99560547 358.31030273 C54.23529108 358.08145098 52.47489222 357.85324826 50.7144165 357.62564087 C46.9430198 357.13680847 43.17220845 356.64375389 39.40179062 356.14742851 C33.4346287 355.36228484 27.46600607 354.58867259 21.49710083 353.81690979 C6.67763715 351.89908989 -8.14015743 349.96848654 -22.95703125 348.03076172 C-34.48687965 346.52291883 -46.0172707 345.01958557 -57.5496453 343.53116947 C-63.4784821 342.76545297 -69.4059366 341.98999711 -75.33253121 341.20712459 C-79.02282766 340.72188645 -82.71423224 340.2455406 -86.40599823 339.77162552 C-88.11202699 339.55080611 -89.81759058 339.32635646 -91.52261734 339.097929 C-103.45323793 337.34868243 -103.45323793 337.34868243 -115.375 338.4375 C-116.0733666 338.59177239 -116.77173321 338.74604479 -117.49126244 338.9049921 C-119.73551244 339.44547764 -121.95612489 340.04416417 -124.18017578 340.66235352 C-125.00905304 340.88683167 -125.8379303 341.11130981 -126.69192505 341.34259033 C-128.47523258 341.82638519 -130.25772656 342.3131872 -132.03946304 342.80273628 C-134.86315785 343.57817233 -137.6891228 344.34477054 -140.51583862 345.1091156 C-147.53075435 347.00762475 -154.5421804 348.91886809 -161.5526123 350.8338623 C-167.4908334 352.45593039 -173.43083231 354.07111515 -179.37365341 355.67625237 C-182.15126188 356.42946097 -184.92595093 357.19282407 -187.70071411 357.95643616 C-189.40986611 358.41885079 -191.11915858 358.88074668 -192.82861328 359.34204102 C-193.59347046 359.55553696 -194.35832764 359.7690329 -195.1463623 359.98899841 C-200.21267804 361.34014345 -205.30904433 362.41906773 -210.44921875 360.7734375 C-210.98160156 360.45632813 -211.51398438 360.13921875 -212.0625 359.8125 C-212.87267578 359.36003906 -212.87267578 359.36003906 -213.69921875 358.8984375 C-218.68696135 354.55014908 -220.34333603 349.08460386 -221.92675781 342.8972168 C-222.15260748 342.0524368 -222.37845715 341.2076568 -222.61115074 340.33727741 C-223.36071986 337.52311189 -224.09430809 334.7050291 -224.828125 331.88671875 C-225.36163221 329.87212318 -225.8961933 327.85780644 -226.43173218 325.84375 C-227.87526008 320.4045432 -229.30545618 314.96191134 -230.73334503 309.51858139 C-232.22363571 303.84663102 -233.72592455 298.17786476 -235.22802734 292.5090332 C-235.83945994 290.20116004 -236.45087954 287.89328343 -237.06228638 285.58540344 C-237.36710056 284.4349032 -237.67191475 283.28440296 -237.98596573 282.09903908 C-238.91967103 278.57256739 -239.85182975 275.04568987 -240.78366089 271.51872253 C-244.95535914 255.73724283 -249.18565292 239.97246601 -253.4609375 224.21875 C-254.02337828 222.144522 -254.58579714 220.07028806 -255.14819336 217.99604797 C-257.28912591 210.10253817 -259.43117088 202.20934002 -261.5826416 194.31869507 C-262.82340493 189.76777373 -264.05919361 185.21552931 -265.29143143 180.66229248 C-265.7411008 179.00469266 -266.19271515 177.34761899 -266.6464653 175.69113159 C-267.26489417 173.4330194 -267.87661095 171.17318776 -268.48681641 168.9128418 C-268.82951569 167.65416794 -269.17221497 166.39549408 -269.52529907 165.09867859 C-272.12679891 153.88937517 -272.12679891 153.88937517 -270.25 149.1875 C-270.02054688 148.56359375 -269.79109375 147.9396875 -269.5546875 147.296875 C-266.7384939 142.85810629 -262.62606049 140.89300796 -257.72338867 139.48193359 C-256.5741391 139.15070496 -255.42488953 138.81947632 -254.24081421 138.47821045 C-247.6396584 136.67979286 -241.00382743 135.0192792 -234.3646183 133.36818314 C-228.95813146 132.01516676 -223.56268667 130.61855068 -218.16549397 129.22901344 C-213.46651066 128.02175548 -208.76458027 126.83045696 -204.05297852 125.67333984 C-175.5666126 119.21762118 -175.5666126 119.21762118 -151.90560913 102.94647217 C-149.73757826 100.80908897 -147.34207431 99.05769228 -144.875 97.28125 C-144.12347656 96.72179687 -143.37195313 96.16234375 -142.59765625 95.5859375 C-141.86417969 95.04195312 -141.13070312 94.49796875 -140.375 93.9375 C-133.98598251 89.17314686 -127.65105315 84.34967588 -121.375 79.4375 C-114.267023 73.87418938 -107.07013809 68.44079534 -99.8359375 63.04296875 C-94.29905037 58.90315995 -88.81906508 54.69849086 -83.375 50.4375 C-76.267023 44.87418938 -69.07013809 39.44079534 -61.8359375 34.04296875 C-56.29903812 29.90315079 -50.81943946 25.6980253 -45.375 21.4375 C-38.77121827 16.27720828 -32.12656339 11.17435066 -25.4375 6.125 C-24.57833984 5.47208984 -23.71917969 4.81917969 -22.83398438 4.14648438 C-22.03412109 3.54513672 -21.23425781 2.94378906 -20.41015625 2.32421875 C-19.34873413 1.52310669 -19.34873413 1.52310669 -18.26586914 0.70581055 C-12.86349447 -2.91786104 -5.71106977 -2.64401378 0 0 Z M-18.375 38.4375 C-18.83648437 38.79875977 -19.29796875 39.16001953 -19.7734375 39.53222656 C-35.18033699 51.58218797 -35.18033699 51.58218797 -42.90942383 57.35668945 C-44.2567952 58.36539327 -45.59914993 59.38083449 -46.9362793 60.40307617 C-49.66036457 62.47700526 -52.27869638 64.38310147 -55.265625 66.0703125 C-58.58970344 68.03259106 -60.77803865 69.60203915 -62.00927734 73.38769531 C-63.32726809 79.00935391 -63.89361425 84.69379091 -64.375 90.4375 C-64.50986816 91.79621216 -64.50986816 91.79621216 -64.64746094 93.18237305 C-71.90427822 169.96647266 -48.05345446 255.21244968 0.625 315.4375 C1.24947021 316.44224365 1.87394043 317.4469873 2.51733398 318.48217773 C6.37732037 323.06724662 12.01150748 322.945129 17.63671875 323.5546875 C18.80129105 323.70157013 19.96586334 323.84845276 21.16572571 323.99978638 C24.87877366 324.46210645 28.59500753 324.88756131 32.3125 325.3125 C34.82646501 325.62000876 37.34014252 325.92987777 39.85351562 326.2421875 C50.20858948 327.76043803 50.20858948 327.76043803 60.625 328.4375 C57.32367005 313.63051831 53.3474161 299.00797326 49.38507462 284.36730576 C48.39923424 280.72179746 47.41679347 277.07537361 46.43432617 273.42895508 C46.23138474 272.6757495 46.02844332 271.92254393 45.81935215 271.14651394 C45.4018336 269.59685206 44.98433203 268.0471856 44.56684685 266.49751472 C43.92285291 264.10744715 43.2785349 261.71746712 42.63417053 259.32749939 C37.78334017 241.33189043 32.97023492 223.32621076 28.15790939 205.32027435 C26.95201467 200.80864921 25.74563476 196.29715381 24.53930664 191.78564453 C20.26354698 175.79418292 15.98938038 159.80229602 11.7169981 143.80993176 C9.64372014 136.04933914 7.56988747 128.28889488 5.49572468 120.5285387 C4.26933788 115.93992177 3.04326492 111.35122154 1.81802368 106.76229858 C-0.61018824 97.66839883 -3.04252042 88.5756405 -5.48547268 79.48568821 C-6.77357976 74.68962066 -8.05173002 69.89101539 -9.32346916 65.09058285 C-10.15174629 61.96990084 -10.98653816 58.85098711 -11.82289505 55.73246193 C-12.21373133 54.26943553 -12.60175875 52.80565558 -12.98682785 51.34110069 C-13.51204476 49.34490253 -14.04699918 47.35156953 -14.58447266 45.35864258 C-14.88342438 44.23396072 -15.1823761 43.10927887 -15.49038696 41.95051575 C-16.10159376 39.28454124 -16.10159376 39.28454124 -18.375 38.4375 Z M-99.21484375 100.2265625 C-100.02187744 100.83169678 -100.82891113 101.43683105 -101.66040039 102.06030273 C-102.53559326 102.72102783 -103.41078613 103.38175293 -104.3125 104.0625 C-105.6571936 105.07389038 -105.6571936 105.07389038 -107.02905273 106.10571289 C-113.79807443 111.21120687 -120.49809087 116.40097465 -127.17504883 121.62597656 C-132.81572716 126.03062941 -138.53673747 130.29670587 -144.375 134.4375 C-143.80262562 139.66523542 -142.94849046 144.56921254 -141.59106445 149.66357422 C-141.41124212 150.34419576 -141.23141979 151.0248173 -141.0461483 151.72606373 C-140.44853216 153.98280139 -139.84344712 156.2374637 -139.23828125 158.4921875 C-138.80578167 160.11884653 -138.37373071 161.7456249 -137.9420929 163.37251282 C-136.77338497 167.77195872 -135.59807128 172.16961519 -134.42145538 176.56695175 C-133.19119334 181.1690623 -131.96690221 185.77276129 -130.74169922 190.3762207 C-127.6287771 202.06580643 -124.50298347 213.75193696 -121.375 225.4375 C-120.84165406 227.43035878 -120.30830852 229.42321767 -119.77496338 231.41607666 C-112.99126904 256.76092934 -106.1904578 282.10117109 -99.375 307.4375 C-92.3890614 308.93045791 -85.41394568 310.05058699 -78.328125 310.9453125 C-77.31329041 311.07565887 -76.29845581 311.20600525 -75.25286865 311.34030151 C-73.12534589 311.61257414 -70.99759504 311.88306996 -68.86962891 312.15185547 C-65.61939209 312.56320974 -62.3702333 312.98242027 -59.12109375 313.40234375 C-57.04433082 313.66713753 -54.96750981 313.93147634 -52.890625 314.1953125 C-51.92489563 314.32028107 -50.95916626 314.44524963 -49.96417236 314.57400513 C-45.40209448 315.14496041 -40.98430305 315.59024681 -36.375 315.4375 C-39.41166851 309.69773642 -42.5620143 304.09586218 -46.0625 298.625 C-83.17382744 238.61068191 -95.2167425 166.83593187 -94.375 97.4375 C-96.26503716 97.4375 -97.76666953 99.1389289 -99.21484375 100.2265625 Z M42.625 146.4375 C45.56601556 159.37860873 48.90496995 172.19167316 52.375 185 C52.88696709 186.89771948 53.39868719 188.79550561 53.91015625 190.69335938 C55.14560293 195.27550986 56.38434853 199.85675614 57.625 204.4375 C69.75658364 202.23162338 78.28283409 198.84330348 85.625 188.4375 C89.96528341 181.32060431 89.73635221 172.31614782 87.93359375 164.40234375 C85.00185422 155.48445823 81.03653439 150.47711467 72.75 146.0625 C62.76666092 141.49903741 52.80188753 141.34905623 42.625 146.4375 Z M-181.19165039 149.89038086 C-182.38621353 150.2074852 -183.58077667 150.52458954 -184.8115387 150.8513031 C-186.11528319 151.20150614 -187.41898811 151.55185657 -188.72265625 151.90234375 C-190.05872184 152.2589355 -191.39485873 152.61526016 -192.73106384 152.97132874 C-195.53007873 153.71805742 -198.32839815 154.46732238 -201.1262207 155.21850586 C-204.71543115 156.18205571 -208.30601164 157.14037664 -211.89708805 158.09694576 C-214.65556609 158.83214912 -217.41344887 159.56956419 -220.17114067 160.30771065 C-221.49510262 160.66191802 -222.81921561 161.01556135 -224.1434803 161.36863518 C-225.99214825 161.86199679 -227.83996777 162.35853421 -229.68774414 162.85522461 C-230.74014786 163.13724228 -231.79255157 163.41925995 -232.87684631 163.70982361 C-235.34492765 164.34778428 -235.34492765 164.34778428 -237.375 165.4375 C-236.75595944 170.32612203 -235.81364097 174.95214334 -234.54345703 179.72460938 C-234.35888097 180.42251052 -234.1743049 181.12041166 -233.98413563 181.83946133 C-233.37084341 184.15442275 -232.75185118 186.4678192 -232.1328125 188.78125 C-231.69217348 190.43965367 -231.25187932 192.09814901 -230.81190491 193.75672913 C-229.62562828 198.22442968 -228.43432698 202.69077594 -227.24193954 207.15684891 C-226.00154539 211.80561495 -224.76536183 216.45550064 -223.52856445 221.10522461 C-221.23794997 229.71364837 -218.94277484 238.32084922 -216.64563274 246.92753315 C-214.92469539 253.37580346 -213.20595198 259.82465458 -211.48876953 266.27392578 C-209.05740726 275.40516486 -206.62257651 284.5354738 -204.18550873 293.66519165 C-203.56194176 296.00209209 -202.93901257 298.33916176 -202.31622314 300.67626953 C-201.34447136 304.3222317 -200.37050366 307.96759463 -199.39474297 311.61248589 C-199.03898724 312.94270541 -198.68396645 314.27312174 -198.32972908 315.60374641 C-197.84968949 317.40637382 -197.36670281 319.20821566 -196.88354492 321.01000977 C-196.61458908 322.01653091 -196.34563324 323.02305206 -196.06852722 324.06007385 C-195.45522339 326.42608906 -195.45522339 326.42608906 -194.375 328.4375 C-180.6423933 325.09644479 -167.01137749 321.39858906 -153.375 317.6875 C-151.13545635 317.07928095 -148.89587329 316.471207 -146.65625 315.86328125 C-141.22871183 314.38969089 -135.80166032 312.91431967 -130.375 311.4375 C-129.08562807 306.9893556 -129.75847587 303.94452182 -130.96362305 299.5168457 C-131.14632342 298.83373825 -131.3290238 298.1506308 -131.51726055 297.44682312 C-132.13007764 295.16604374 -132.75839453 292.8898331 -133.38671875 290.61328125 C-133.82807626 288.98294041 -134.26845227 287.35233359 -134.70791626 285.72148132 C-135.8991924 281.3112985 -137.10378275 276.90485207 -138.31082535 272.4989624 C-139.56609262 267.90830268 -140.80928997 263.31437853 -142.0534668 258.72070312 C-143.85456739 252.07518379 -145.65977935 245.43080532 -147.47010899 238.78779411 C-150.51504131 227.61433499 -153.53799022 216.43511244 -156.54603386 205.25166893 C-158.37248582 198.46141528 -160.20120285 191.67177075 -162.02939224 184.88198471 C-162.46928496 183.248041 -162.90908091 181.61407124 -163.34878159 179.98007584 C-164.5977397 175.33900291 -165.84864926 170.69846618 -167.1028862 166.05881691 C-167.48106923 164.65848004 -167.85849818 163.25793928 -168.2351265 161.85718346 C-168.74632161 159.95633814 -169.26040642 158.05627064 -169.7746582 156.15625 C-170.06137894 155.09341797 -170.34809967 154.03058594 -170.64350891 152.93554688 C-171.28571967 150.46786469 -171.28571967 150.46786469 -172.375 148.4375 C-175.6072908 148.4375 -178.06943806 149.05669722 -181.19165039 149.89038086 Z " fill="#960C12" transform="translate(444.375,758.5625)"/>
<path d="M0 0 C0.71800781 -0.02835937 1.43601562 -0.05671875 2.17578125 -0.0859375 C8.05511776 0.99300761 12.96954158 5.20026612 17.5625 8.8125 C18.7054212 9.70482168 19.84866673 10.59672806 20.9921875 11.48828125 C21.59256836 11.95830566 22.19294922 12.42833008 22.81152344 12.91259766 C26.08571317 15.46496576 29.38766547 17.98093334 32.6875 20.5 C33.74590088 21.30908813 33.74590088 21.30908813 34.82568359 22.13452148 C41.50737012 27.24156659 48.19806977 32.3367734 54.88867188 37.43212891 C61.00965342 42.09440319 67.12395529 46.76530262 73.234375 51.44140625 C78.87961687 55.76022851 84.53278482 60.06859118 90.1875 64.375 C97.20925464 69.72249234 104.22516351 75.07748677 111.234375 80.44140625 C117.76797575 85.43985645 124.3116044 90.42510927 130.85766602 95.40722656 C135.10823787 98.64329252 139.354754 101.88431536 143.58984375 105.140625 C144.35683594 105.72972656 145.12382813 106.31882812 145.9140625 106.92578125 C147.33848206 108.02052066 148.76175071 109.11676004 150.18359375 110.21484375 C150.82296875 110.70597656 151.46234375 111.19710937 152.12109375 111.703125 C152.66822021 112.1249707 153.21534668 112.54681641 153.77905273 112.98144531 C154.40884033 113.44131836 155.03862793 113.90119141 155.6875 114.375 C156.54894119 115.01370529 157.41038239 115.65241058 158.29792786 116.31047058 C162.11584634 118.6358983 165.53379791 119.71606799 169.82910156 120.80102539 C170.62346115 121.01136917 171.41782074 121.22171295 172.23625183 121.43843079 C174.84754931 122.12713917 177.46268271 122.799877 180.078125 123.47265625 C181.9067458 123.95196129 183.73509073 124.43231996 185.56317139 124.91368103 C190.37032698 126.17671119 195.18083041 127.42647714 199.99224854 128.67315674 C205.81461654 130.18416108 211.63319107 131.70969037 217.45205307 133.23412991 C221.98486351 134.42150961 226.51825981 135.60644049 231.05377197 136.78346252 C257.9324423 143.76838054 257.9324423 143.76838054 261.82029724 150.269104 C265.44679069 159.07560048 261.09399847 169.59530996 258.68359375 178.265625 C258.25204614 179.85457523 257.82166891 181.44384372 257.3923645 183.03340149 C256.46811261 186.44633311 255.53613869 189.85702244 254.59793091 193.2661438 C253.10577514 198.68838524 251.63037864 204.11509534 250.15795898 209.54272461 C248.60946434 215.24805758 247.05995245 220.95310179 245.50471497 226.65660095 C241.74605807 240.44382892 238.03396572 254.24300028 234.3515625 268.05078125 C234.09408548 269.01595295 233.83660847 269.98112465 233.57132912 270.97554398 C231.79648484 277.62924479 230.02314809 284.28334701 228.25 290.9375 C225.32364402 301.91917969 222.39322539 312.89965022 219.43275547 323.87219048 C218.1503583 328.63172973 216.89553069 333.39767922 215.65185547 338.16748047 C215.04841879 340.43341936 214.44445921 342.6992191 213.83984375 344.96484375 C213.58828018 345.95617813 213.33671661 346.94751251 213.07752991 347.96888733 C211.41259517 354.11367011 209.53005314 359.04671806 203.82208252 362.5052948 C194.49533618 366.30534456 183.16970779 361.72294531 173.98828125 359.140625 C172.38358238 358.70053272 170.7785279 358.26173527 169.17314148 357.82415771 C164.96573879 356.67391479 160.76302881 355.50739624 156.56121826 354.33691406 C151.4965088 352.9291317 146.42665568 351.54001889 141.35740185 350.14870834 C137.40372153 349.06328423 133.45086846 347.97515764 129.50056458 346.87750244 C128.76217346 346.67304504 128.02378235 346.46858765 127.26301575 346.25793457 C125.29061904 345.71165324 123.31872473 345.16355879 121.34687805 344.61529541 C120.65191821 344.43547276 119.95695837 344.25565012 119.24093914 344.0703783 C117.2326511 343.52346105 115.24160726 342.91319645 113.25885487 342.27992535 C102.31653448 338.94902698 93.14929369 339.52050549 81.93969727 341.13989258 C80.11979282 341.37998154 78.29953253 341.6173859 76.47895813 341.8523407 C72.59154502 342.35983871 68.70730115 342.88595426 64.8244648 343.42734718 C58.67906582 344.28418375 52.52848543 345.09866637 46.37669373 345.90812683 C36.648907 347.19321856 26.92522784 348.50687972 17.20290941 349.83264798 C-0.21868284 352.20746298 -17.64657085 354.53534979 -35.07629925 356.84961623 C-41.18548605 357.66195956 -47.29270344 358.48748495 -53.39860046 359.32418597 C-57.19707032 359.84293922 -60.99666401 360.35308307 -64.79655647 360.86129951 C-66.55261344 361.09813569 -68.30817157 361.33870638 -70.06315613 361.58336258 C-90.38314523 364.41244322 -90.38314523 364.41244322 -97.6875 360.625 C-101.0261673 357.76328517 -103.10722629 355.76443342 -103.4970274 351.22705841 C-103.54205075 345.24149509 -102.79137475 340.01627873 -101.1887207 334.26367188 C-100.96266647 333.41330353 -100.73661224 332.56293518 -100.50370789 331.6867981 C-99.76038487 328.90245452 -98.99953477 326.12323948 -98.23828125 323.34375 C-97.71110468 321.38362861 -97.18501631 319.42321426 -96.65995789 317.46252441 C-95.27719538 312.31096682 -93.8794004 307.16360556 -92.47845459 302.01696777 C-91.07064339 296.83415257 -89.67771254 291.64734414 -88.28320312 286.4609375 C-83.69366537 269.41342283 -79.0586577 252.37962269 -74.3125 235.375 C-74.99272217 235.3037793 -75.67294434 235.23255859 -76.3737793 235.15917969 C-90.22173272 233.54550286 -104.36820275 225.36868787 -113.375 214.875 C-119.49826427 206.87973185 -124.64671368 197.36971789 -126.3125 187.375 C-126.44398438 186.66859375 -126.57546875 185.9621875 -126.7109375 185.234375 C-129.20006661 168.52955296 -123.84440447 151.00279213 -114.3125 137.375 C-104.68906709 125.69589994 -90.44378346 117.25494734 -75.3125 115.375 C-63.71842637 114.4596784 -53.47219406 116.51157335 -42.3125 119.375 C-42.18953049 118.22210983 -42.06656097 117.06921967 -41.93986511 115.88139343 C-41.39701552 111.56294418 -40.42072714 107.4657936 -39.2746582 103.27270508 C-39.06957138 102.50547623 -38.86448456 101.73824738 -38.65318298 100.94776917 C-37.97837014 98.42860636 -37.29594709 95.91157626 -36.61328125 93.39453125 C-36.13541837 91.61792615 -35.65798378 89.8412058 -35.18095398 88.06437683 C-34.17963092 84.33898965 -33.17483596 80.61456353 -32.16723633 76.89086914 C-30.89283638 72.18106011 -29.62442798 67.46966594 -28.35817146 62.75766182 C-25.97599733 53.89313852 -23.57894548 45.03284855 -21.16145515 36.17788887 C-19.90043306 31.55424007 -18.66225468 26.92537919 -17.44287109 22.29052734 C-16.93515163 20.40576779 -16.42691963 18.52114615 -15.91796875 16.63671875 C-15.71706131 15.84554153 -15.51615387 15.05436432 -15.30915833 14.23921204 C-13.74021603 8.54450123 -11.27000567 4.33159075 -6.26953125 1.0234375 C-4.0940397 0.30261595 -2.29202654 0.04071095 0 0 Z M8.6875 40.375 C8.3980954 41.45824554 8.1086908 42.54149109 7.81051636 43.65756226 C-16.66121679 135.25371006 -16.66121679 135.25371006 -28.01669312 177.54827881 C-31.35565443 189.98485909 -34.69184527 202.42218324 -38.02809429 214.85949135 C-39.36600621 219.84706506 -40.7041372 224.83457988 -42.0425415 229.82202148 C-45.47906264 242.62830835 -48.91352668 255.43514289 -52.34372139 268.24312592 C-53.88043717 273.98083644 -55.41811967 279.71828363 -56.95825195 285.45507812 C-58.40010687 290.82592934 -59.83928768 296.19748995 -61.27643394 301.56960297 C-61.8085961 303.55697502 -62.34173133 305.54408679 -62.87589455 307.53092194 C-63.60974642 310.26113107 -64.34009138 312.99225517 -65.06958008 315.72363281 C-65.28394714 316.51786652 -65.49831421 317.31210022 -65.71917725 318.13040161 C-66.80055437 322.19498446 -67.70255246 326.20611553 -68.3125 330.375 C-58.14086575 329.73231234 -48.05318218 328.6005492 -37.94384766 327.328125 C-36.17594405 327.10767014 -34.40736393 326.89258016 -32.63818359 326.68261719 C-30.04891247 326.37531071 -27.46195434 326.05273303 -24.875 325.7265625 C-24.08851074 325.63581451 -23.30202148 325.54506653 -22.49169922 325.4515686 C-17.1314295 324.75002883 -13.38345599 323.56989629 -9.55834961 319.51586914 C-8.76956421 318.47354126 -8.76956421 318.47354126 -7.96484375 317.41015625 C-7.36559082 316.62036377 -6.76633789 315.83057129 -6.14892578 315.0168457 C-5.20895752 313.74006958 -5.20895752 313.74006958 -4.25 312.4375 C-3.59241699 311.5508667 -2.93483398 310.6642334 -2.25732422 309.75073242 C4.37639257 300.66165806 10.16713484 291.17051975 15.6875 281.375 C16.08630371 280.67906738 16.48510742 279.98313477 16.89599609 279.26611328 C47.46413884 225.63847757 62.51839407 157.78160316 56.6875 96.375 C56.59984375 95.45090332 56.5121875 94.52680664 56.421875 93.57470703 C56.12809019 90.69049397 55.79219654 87.81481423 55.4375 84.9375 C55.34049805 84.05449219 55.24349609 83.17148437 55.14355469 82.26171875 C54.37518307 76.70347 53.23390831 73.99552459 48.6875 70.375 C47.22570312 69.1684375 47.22570312 69.1684375 45.734375 67.9375 C44.63838455 67.07952852 43.53926214 66.22554705 42.4375 65.375 C41.83977783 64.91005127 41.24205566 64.44510254 40.6262207 63.96606445 C38.64973905 62.43167386 36.66869586 60.9032974 34.6875 59.375 C33.97319824 58.82118652 33.25889648 58.26737305 32.52294922 57.69677734 C30.30991624 55.98149379 28.09313307 54.27118181 25.875 52.5625 C25.19469727 52.03591797 24.51439453 51.50933594 23.81347656 50.96679688 C20.26278926 48.24500371 16.66179809 45.65525986 12.9309082 43.18481445 C12.13264114 42.65539749 11.33437408 42.12598053 10.51191711 41.58052063 C9.90985947 41.18269882 9.30780182 40.78487701 8.6875 40.375 Z M86.6875 100.375 C86.67291748 101.50067383 86.65833496 102.62634766 86.64331055 103.78613281 C85.58717721 179.46571702 70.86195417 253.57491892 27.6875 317.375 C30.97720911 318.4715697 32.59731703 318.30159212 35.99755859 317.86181641 C37.0823349 317.7248233 38.16711121 317.5878302 39.28475952 317.44668579 C40.45664825 317.2915451 41.62853699 317.13640442 42.8359375 316.9765625 C44.04061676 316.82214691 45.24529602 316.66773132 46.48648071 316.50863647 C49.03729356 316.18046281 51.58769062 315.84904372 54.13769531 315.51464844 C58.03888115 315.00309707 61.94114995 314.50063657 65.84375 314 C68.32038109 313.68021824 70.7969459 313.35992268 73.2734375 313.0390625 C74.44127777 312.88797028 75.60911804 312.73687805 76.81234741 312.58120728 C77.90342804 312.43790985 78.99450867 312.29461243 80.11865234 312.14697266 C81.07556976 312.02182281 82.03248718 311.89667297 83.0184021 311.76773071 C85.59749006 311.38824405 88.13667615 310.91048671 90.6875 310.375 C94.76322014 296.26589698 98.68173023 282.12271225 102.46875 267.93359375 C103.00550175 265.92815695 103.54242745 263.92276671 104.07951355 261.91741943 C105.78439998 255.54970681 107.48605977 249.18113414 109.1875 242.8125 C111.22805949 235.17656921 113.26914848 227.5407801 115.31110191 219.90522194 C115.88685352 217.75227968 116.46251825 215.59931419 117.03809547 213.4463253 C120.32935416 201.13742369 123.63701913 188.83348539 127.00419235 176.54511833 C127.8575168 173.42975635 128.70768211 170.31353149 129.55859375 167.19750977 C130.73456164 162.89300963 131.92242687 158.59204098 133.1171875 154.29272461 C133.62417122 152.43876869 134.13071711 150.58469295 134.63671875 148.73046875 C134.86554245 147.92172302 135.09436615 147.11297729 135.3301239 146.27972412 C136.68718934 141.29037381 136.68718934 141.29037381 135.6875 136.375 C133.41453113 134.44043098 131.1782679 132.71778528 128.75 131 C127.28651683 129.93530103 125.82432622 128.86882362 124.36328125 127.80078125 C123.21400146 126.96474365 123.21400146 126.96474365 122.04150391 126.11181641 C118.11368417 123.21381707 114.27872087 120.19877198 110.4375 117.1875 C105.22672356 113.12173485 100.01608633 109.05652514 94.75 105.0625 C93.83347656 104.36511719 92.91695312 103.66773438 91.97265625 102.94921875 C89.69222456 101.22225428 89.69222456 101.22225428 86.6875 100.375 Z M-89.3125 154.375 C-95.00030921 162.31052177 -98.53480704 170.38969173 -97.3125 180.375 C-95.12840772 189.73311802 -90.34076689 197.00552909 -82.3125 202.375 C-76.24056223 205.13139198 -71.9407499 206.70064998 -65.3125 205.375 C-57.8875 177.16 -57.8875 177.16 -50.3125 148.375 C-64.58454436 144.80698891 -78.28426342 142.57735157 -89.3125 154.375 Z M164.6875 150.375 C162.44775423 156.09343243 160.65420605 161.79377534 159.09057617 167.72949219 C158.84903903 168.63314168 158.60750189 169.53679117 158.35864544 170.46782398 C157.56212611 173.45151096 156.77130682 176.43667764 155.98046875 179.421875 C155.41720917 181.53590071 154.85357233 183.64982593 154.2895813 185.76365662 C152.78908939 191.39117581 151.29335042 197.01994782 149.79855728 202.648983 C148.26260299 208.42989484 146.72246214 214.20969053 145.18237305 219.98950195 C144.57001811 222.28773379 143.95766763 224.58596682 143.34532166 226.88420105 C143.04415876 228.01448416 142.74299587 229.14476727 142.43270683 230.30930138 C141.52577326 233.7138879 140.61939719 237.11862243 139.71315002 240.52339172 C136.42514976 252.87390478 133.12445999 265.22079318 129.7890625 277.55859375 C129.44923843 278.81614471 129.10941437 280.07369568 128.7592926 281.36935425 C127.27500771 286.85822034 125.78703648 292.34606631 124.2956543 297.83300781 C123.79730816 299.6738132 123.29901287 301.51463236 122.80078125 303.35546875 C122.58028107 304.16189316 122.35978088 304.96831757 122.13259888 305.79917908 C121.06563027 309.53359183 121.06563027 309.53359183 120.6875 313.375 C128.70055842 315.59754491 136.71511439 317.81457106 144.73163986 320.02457428 C148.45401063 321.05094716 152.17583734 322.07921078 155.89648438 323.11181641 C159.48733337 324.10832351 163.07952714 325.09983626 166.6727066 326.08790588 C168.0431141 326.46568877 169.4130281 326.84526658 170.78243256 327.22666931 C172.70096895 327.76068426 174.62144306 328.28772274 176.54199219 328.81445312 C177.63453308 329.1164563 178.72707397 329.41845947 179.85272217 329.72961426 C182.8529804 330.52299118 182.8529804 330.52299118 186.6875 330.375 C191.28974463 313.26720745 195.88726648 296.15815105 200.48001099 279.04780579 C200.93344947 277.35853018 201.38688984 275.66925508 201.84033203 273.97998047 C202.06930742 273.12693801 202.29828281 272.27389555 202.53419685 271.39500332 C204.27672457 264.90382245 206.02076721 258.41304941 207.76513672 251.92236328 C210.13355479 243.10928946 212.49933435 234.29551112 214.86250782 225.48102951 C216.15070138 220.67642877 217.43999714 215.87213005 218.73196411 211.06854248 C219.95944997 206.50451178 221.18387615 201.93967079 222.4060688 197.37421989 C222.85780968 195.68884852 223.31063046 194.00376616 223.76463127 192.31900215 C225.99318443 184.04651118 228.14966886 175.81042511 229.6875 167.375 C221.3605931 165.15702257 213.03333524 162.94036909 204.70562077 160.72542572 C200.83913514 159.69700171 196.97277399 158.66811446 193.10668945 157.63818359 C189.37875485 156.64507406 185.65050363 155.6531617 181.92202568 154.66209412 C180.49649038 154.28294386 179.07107155 153.90335542 177.64576912 153.52333069 C175.65615707 152.99292408 173.66614416 152.46404854 171.67602539 151.93554688 C170.54129288 151.6335437 169.40656036 151.33154053 168.23744202 151.02038574 C165.96431927 150.33410643 165.96431927 150.33410643 164.6875 150.375 Z " fill="#960C12" transform="translate(644.3125,309.625)"/>
<path d="M0 0 C5.32865718 4.32053285 8.04456636 8.72268925 9.98828125 15.2421875 C10.20316696 15.92177521 10.41805267 16.60136292 10.63945007 17.30154419 C11.31459169 19.44714348 11.97004116 21.59816469 12.625 23.75 C13.0826895 25.21655057 13.54166225 26.68270131 14.00195312 28.1484375 C15.12033002 31.71946042 16.22114601 35.29561309 17.3125 38.875 C21.49598244 36.16058423 24.80906982 33.48446591 28.1875 29.8125 C32.47085345 25.46502449 35.3231146 23.13083887 41.3125 21.875 C47.96627142 22.24932807 53.32071116 24.22034335 59.41796875 26.8125 C60.37786209 27.21146484 61.33775543 27.61042969 62.32673645 28.02148438 C65.38843746 29.29677089 68.44417226 30.58571306 71.5 31.875 C73.50158413 32.71051993 75.50353468 33.54516263 77.50585938 34.37890625 C81.4814041 36.03639367 85.45046458 37.70822716 89.41552734 39.390625 C93.36476868 41.0643889 97.32817181 42.69510202 101.30712891 44.296875 C103.20084752 45.07291383 105.09456501 45.84895538 106.98828125 46.625 C107.85599655 46.9653125 108.72371185 47.305625 109.61772156 47.65625 C115.00982952 49.89158515 118.01900043 52.01415368 121.3125 56.875 C123.02054763 61.99914288 122.86120435 66.22879451 120.625 71.125 C118.71446114 74.5786664 117.0727074 76.38840638 113.3125 77.875 C107.73264932 79.13154595 103.83330092 78.48696893 98.60546875 76.45703125 C97.87603561 76.18655472 97.14660248 75.91607819 96.39506531 75.6374054 C86.48730524 71.90497035 76.78273299 67.65605594 67.06665039 63.45678711 C64.58450512 62.38628619 62.09907455 61.32371487 59.61328125 60.26171875 C58.86637527 59.93572189 58.1194693 59.60972504 57.34992981 59.27384949 C53.35799964 57.57123646 49.68857461 56.23593458 45.3125 55.875 C43.37968055 56.99994787 43.37968055 56.99994787 41.9375 58.875 C39.54752831 61.52702999 37.16550073 63.94418986 34.4375 66.25 C30.56074635 69.57723323 27.01778994 73.16855421 23.48828125 76.859375 C19.10104069 80.92367685 15.30335749 82.56512806 9.3125 82.875 C4.00612022 82.13024494 1.23938355 80.39727171 -2.16479492 76.2734375 C-5.38719398 71.1977844 -6.84721526 65.34261578 -8.5625 59.625 C-8.96726453 58.33286707 -9.37350413 57.04119524 -9.78125 55.75 C-12.6875 46.37882653 -12.6875 46.37882653 -12.6875 42.875 C-18.94084954 48.10739451 -24.64971447 53.77992134 -30.31860352 59.63110352 C-30.93920654 60.26330811 -31.55980957 60.8955127 -32.19921875 61.546875 C-32.75053467 62.1150293 -33.30185059 62.68318359 -33.86987305 63.26855469 C-38.91473576 67.72727822 -42.73851262 68.34011119 -49.29501343 68.1640625 C-55.38525871 67.64513295 -61.239125 66.28889349 -67.17578125 64.875 C-68.53184434 64.55755379 -69.88798094 64.24042143 -71.2441864 63.92358398 C-74.06438633 63.26075482 -76.88163092 62.58670025 -79.69750977 61.90576172 C-83.28608494 61.04006757 -86.88269977 60.21493676 -90.48293781 59.39932251 C-93.27880493 58.75910059 -96.06766851 58.0916878 -98.85533714 57.41674805 C-100.81569898 56.94885674 -102.78251032 56.5082532 -104.74934387 56.06835938 C-111.69251899 54.33718294 -116.08281054 52.60468324 -120.53239441 46.87890625 C-122.57511139 43.33514943 -122.81850683 41.0017151 -122.6875 36.875 C-120.99317349 30.99469034 -118.52713805 28.30307696 -113.6875 24.875 C-106.33523813 22.42424604 -99.47165255 24.68862563 -92.20703125 26.53515625 C-89.9694048 27.08660378 -87.73177447 27.6380356 -85.49414062 28.18945312 C-81.98447542 29.06495972 -78.47561448 29.94361534 -74.96704102 30.82348633 C-71.56971543 31.67252119 -68.16979143 32.51046543 -64.76953125 33.34765625 C-63.71844681 33.61530289 -62.66736237 33.88294952 -61.58442688 34.15870667 C-60.60628525 34.39903122 -59.62814362 34.63935577 -58.62036133 34.88696289 C-57.76211258 35.10236221 -56.90386383 35.31776154 -56.01960754 35.53968811 C-53.47418809 35.90567012 -52.06937659 35.82507929 -49.6875 34.875 C-47.88139513 33.48062118 -47.88139513 33.48062118 -46.19165039 31.67211914 C-45.52738541 30.99794449 -44.86312042 30.32376984 -44.1787262 29.62916565 C-43.47134811 28.89689255 -42.76397003 28.16461945 -42.03515625 27.41015625 C-41.29800888 26.66164902 -40.56086151 25.91314178 -39.80137634 25.14195251 C-36.64664611 21.93815097 -33.50984454 18.7169977 -30.37133789 15.49731445 C-28.07791343 13.1496528 -25.77556545 10.81100859 -23.47265625 8.47265625 C-22.7673024 7.74240738 -22.06194855 7.01215851 -21.33522034 6.25978088 C-20.66780319 5.58245407 -20.00038605 4.90512726 -19.31274414 4.20727539 C-18.44148643 3.31245201 -18.44148643 3.31245201 -17.55262756 2.39955139 C-12.45181855 -1.76983929 -5.9958124 -2.50987496 0 0 Z " fill="#960C12" transform="translate(677.6875,980.125)"/>
<path d="M0 0 C4.64425866 2.49413891 8.31375022 4.94125067 10 10 C10.94941871 16.65794895 10.1032741 21.03875296 6.0859375 26.4140625 C5.05339844 27.69410156 5.05339844 27.69410156 4 29 C3.11678906 30.11166273 2.23400893 31.2236678 1.3515625 32.3359375 C-0.15839407 34.23085448 -1.67285857 36.1216579 -3.19677734 38.00537109 C-6.8590836 42.53491862 -10.40013368 47.13794291 -13.875 51.8125 C-18.34357962 57.81174098 -22.86170479 63.76952768 -27.4375 69.6875 C-28.01677246 70.44200439 -28.59604492 71.19650879 -29.19287109 71.97387695 C-38.03626714 83.37097407 -38.03626714 83.37097407 -44 85 C-53.08640309 85.45660317 -62.31049303 82.34409536 -71 80 C-70.74605469 80.98097656 -70.49210938 81.96195313 -70.23046875 82.97265625 C-62.23586938 114.17185303 -62.23586938 114.17185303 -65.1875 122.25 C-67.81438033 126.23561154 -70.46941592 128.48980531 -75 130 C-81.51298356 130.41856417 -86.83116472 129.20176841 -93.046875 127.33984375 C-93.98049866 127.07111954 -94.91412231 126.80239532 -95.8760376 126.52552795 C-98.83703757 125.67285649 -101.793843 124.806802 -104.75 123.9375 C-108.6582775 122.78943953 -112.57005612 121.65460874 -116.484375 120.52734375 C-117.37920593 120.25969711 -118.27403687 119.99205048 -119.19598389 119.71629333 C-120.4481369 119.3558065 -120.4481369 119.3558065 -121.72558594 118.98803711 C-122.82190338 118.66493813 -122.82190338 118.66493813 -123.94036865 118.33531189 C-126.29856897 117.95139241 -127.75769931 118.21079218 -130 119 C-131.92283539 120.42105254 -131.92283539 120.42105254 -133.7578125 122.24609375 C-134.81270874 123.24781616 -134.81270874 123.24781616 -135.88891602 124.26977539 C-136.62682373 124.98512451 -137.36473145 125.70047363 -138.125 126.4375 C-138.88546631 127.16380615 -139.64593262 127.8901123 -140.42944336 128.63842773 C-145.31352863 133.31868447 -150.10852886 138.07936452 -154.86328125 142.890625 C-158.1051117 146.0909695 -161.51903679 149.06433789 -165 152 C-165.58007812 152.49628906 -166.16015625 152.99257813 -166.7578125 153.50390625 C-171.83689254 157.81008281 -174.64933349 158.35020331 -181.234375 158.28125 C-186.14610532 157.781752 -188.71554103 155.45572017 -191.875 151.875 C-193.53202073 147.64039148 -193.85431429 143.47337798 -193 139 C-190.08919201 133.72732052 -186.0121269 129.74020745 -181.75 125.5625 C-181.07469238 124.8936377 -180.39938477 124.22477539 -179.70361328 123.53564453 C-175.94361034 119.83369712 -172.12133688 116.26820095 -168.0859375 112.8671875 C-165.10329059 110.19732754 -162.31412274 107.34558103 -159.5 104.5 C-155.35807342 100.31603242 -151.2054185 96.21806521 -146.69140625 92.4296875 C-145.5832636 91.49301265 -144.50529854 90.51914515 -143.46484375 89.5078125 C-139.62613062 85.88406731 -136.15446169 84.88274022 -131 85 C-126.35749468 85.82361131 -121.85265042 87.04985462 -117.3125 88.3125 C-116.10271484 88.63412109 -114.89292969 88.95574219 -113.64648438 89.28710938 C-108.64354624 90.63394789 -103.78231878 91.9905992 -99 94 C-99.22252441 93.04746338 -99.44504883 92.09492676 -99.67431641 91.11352539 C-100.50254965 87.54504459 -101.3051806 83.97119174 -102.10058594 80.39526367 C-102.44692292 78.85464454 -102.79998963 77.31552101 -103.16015625 75.77807617 C-106.92601012 59.66335983 -106.92601012 59.66335983 -104 52 C-101.4890873 48.64717454 -99.04717782 46.34905927 -95 45 C-86.54650391 44.35381653 -78.81209826 46.49992961 -70.6875 48.5625 C-68.00644528 49.24125205 -65.32264869 49.90724974 -62.63671875 50.56640625 C-61.45811279 50.86490479 -60.27950684 51.16340332 -59.06518555 51.47094727 C-56.16265775 51.97192518 -54.66741192 52.16415913 -52 51 C-50.1491032 48.95396072 -48.51300989 46.95511429 -46.875 44.75 C-46.39490479 44.12101807 -45.91480957 43.49203613 -45.42016602 42.84399414 C-44.42425254 41.53797196 -43.4325024 40.22876508 -42.44482422 38.91650391 C-40.70306373 36.60612542 -38.93560727 34.31642305 -37.16601562 32.02734375 C-34.23681237 28.23661012 -31.3256316 24.43243695 -28.43359375 20.61328125 C-11.52409361 -1.66058988 -11.52409361 -1.66058988 0 0 Z " fill="#960C12" transform="translate(696,679)"/>
<path d="M0 0 C1.33224609 0.01160156 1.33224609 0.01160156 2.69140625 0.0234375 C9.011182 1.40785495 12.25772752 5.37772362 15.84638977 10.41539001 C23.22846902 20.73602073 32.22786282 32.94952112 44.4375 37.625 C58.63887201 39.45857931 74.19257811 33.32807701 87.2585907 28.29676819 C93.71625422 25.85893152 99.52207511 24.7696417 106.4375 25.625 C110.25728202 27.39847022 111.92086877 28.88449523 114.3125 32.3125 C116.15569551 37.73968678 116.04621822 42.36404662 114.5625 47.875 C108.71728535 55.43939543 97.66997439 57.13491065 88.8359375 59.17578125 C87.55949371 59.47945114 86.28304993 59.78312103 84.96792603 60.09599304 C82.28541488 60.73310076 79.60109233 61.36164231 76.91503906 61.98364258 C73.49120427 62.77697637 70.07224471 63.58938313 66.65436363 64.40794086 C63.36288341 65.19398725 60.06809572 65.9656609 56.7734375 66.73828125 C55.55554535 67.02882889 54.3376532 67.31937653 53.08285522 67.61872864 C38.78836385 70.90687409 38.78836385 70.90687409 33.109375 68.734375 C23.64803186 62.04220546 15.88159237 53.44037255 8.4375 44.625 C7.7775 44.295 7.1175 43.965 6.4375 43.625 C6.18484375 44.85863281 5.9321875 46.09226562 5.671875 47.36328125 C4.34926146 53.29067825 2.55864255 59.03838264 0.6875 64.8125 C0.36523438 65.86630859 0.04296875 66.92011719 -0.2890625 68.00585938 C-2.36206063 74.38153387 -4.27404326 78.41827304 -9.5625 82.625 C-14.33050525 84.21433508 -18.90044548 84.70072781 -23.66015625 82.77734375 C-30.40923388 78.65220658 -35.74615079 72.61941689 -41.23046875 66.99609375 C-44.82788972 63.31920553 -48.61990157 59.92592145 -52.5625 56.625 C-64.79097498 61.10338024 -76.84246338 65.9593351 -88.875 70.9375 C-91.51813772 72.02902647 -94.16157467 73.11981786 -96.8054657 74.20951843 C-98.43307953 74.88054723 -100.06022852 75.55270494 -101.68684387 76.22615051 C-107.43267867 78.59790544 -112.26760336 80.48502383 -118.5625 79.625 C-122.86992759 77.38845106 -126.20288378 74.89046009 -128.5625 70.625 C-129.35035742 65.36725759 -129.21040995 61.05040189 -127 56.1875 C-122.35381456 51.30304864 -116.10129735 48.85747005 -109.953125 46.33984375 C-109.23661774 46.04195953 -108.52011047 45.74407532 -107.78189087 45.43716431 C-105.46084738 44.47380486 -103.13698673 43.51751867 -100.8125 42.5625 C-99.19932952 41.89783124 -97.58621152 41.23303511 -95.97314453 40.56811523 C-93.52834531 39.56057856 -91.08332244 38.55361333 -88.63735962 37.54890442 C-84.2238219 35.73358409 -79.82281705 33.89338906 -75.43786621 32.01005554 C-73.58700804 31.21588508 -71.73251012 30.4302142 -69.87792969 29.64477539 C-67.65147121 28.70170623 -65.43032101 27.74596238 -63.21582031 26.77514648 C-56.96805211 24.15918243 -51.36402964 22.37734155 -44.5625 23.625 C-39.39579448 26.20197411 -35.35352765 30.4177086 -31.1875 34.375 C-30.54683594 34.97699219 -29.90617187 35.57898438 -29.24609375 36.19921875 C-27.68126378 37.67062603 -26.12136836 39.14727821 -24.5625 40.625 C-24.07221313 39.12718994 -24.07221313 39.12718994 -23.57202148 37.59912109 C-22.34396705 33.86771073 -21.08640774 30.14679634 -19.82006836 26.42822266 C-19.27788895 24.82282927 -18.743561 23.21476059 -18.2175293 21.60400391 C-17.45630961 19.27785483 -16.66658879 16.96305645 -15.87109375 14.6484375 C-15.53155922 13.57932632 -15.53155922 13.57932632 -15.18516541 12.48861694 C-12.76121981 5.61020608 -7.80684623 -0.29545561 0 0 Z " fill="#960C12" transform="translate(409.5625,532.375)"/>
<path d="M0 0 C3.63306094 2.80736527 5.95798716 5.79804631 8.59375 9.515625 C9.64158108 10.95302578 10.69112968 12.38917574 11.7421875 13.82421875 C12.28713867 14.57171387 12.83208984 15.31920898 13.39355469 16.08935547 C16.26387413 19.97442599 19.24156015 23.77470412 22.21875 27.578125 C28.92664771 36.15660056 28.92664771 36.15660056 32.1328125 40.3828125 C32.59413574 40.98971924 33.05545898 41.59662598 33.53076172 42.22192383 C34.75777738 43.83976839 35.98061051 45.46078272 37.203125 47.08203125 C38.88505284 49.45654126 38.88505284 49.45654126 41.09375 50.390625 C43.58088795 49.89900337 45.99417513 49.3374214 48.4453125 48.703125 C49.95172805 48.33034558 51.45824176 47.95796268 52.96484375 47.5859375 C55.33590392 46.9920718 57.70570956 46.39396149 60.07373047 45.78808594 C62.36136488 45.20574411 64.6528265 44.64101735 66.9453125 44.078125 C67.98952866 43.80319214 67.98952866 43.80319214 69.05484009 43.52270508 C75.28014328 42.01205161 80.56048742 42.10009501 86.40625 45.078125 C89.52115532 47.75839237 90.77160001 49.49762781 92.09375 53.390625 C92.6485707 61.56162078 90.89741632 69.01130596 89.09375 76.953125 C88.80382322 78.2608764 88.51475407 79.56881824 88.2265625 80.87695312 C87.52401036 84.05014694 86.81288148 87.22115502 86.09375 90.390625 C93.53635099 89.00280517 100.77248836 87.19189173 108.03710938 85.0703125 C114.5892077 83.2583742 120.87613823 81.76750953 127.16796875 84.94140625 C130.86750333 88.03834641 134.41632823 91.24759071 137.90625 94.578125 C138.61330078 95.24650391 139.32035156 95.91488281 140.04882812 96.60351562 C144.5040097 100.82959696 148.86989477 105.13345359 153.1796875 109.5078125 C154.96733875 111.26627761 156.80583508 112.89575237 158.71875 114.515625 C162.96864902 118.17813961 166.97120842 122.0823617 170.96875 126.015625 C171.63600098 126.66160645 172.30325195 127.30758789 172.99072266 127.97314453 C176.89034911 131.84482383 179.91142865 134.89613241 180.2109375 140.63671875 C179.63635985 145.83571979 178.65793265 149.34479605 175.09375 153.390625 C171.32571459 155.95974005 167.82331337 157.08742269 163.2109375 156.84375 C154.52641504 154.98506992 148.09874795 146.59489409 142.1640625 140.5 C139.26644953 137.5336062 136.21980928 134.81438506 133.0546875 132.13671875 C129.76077605 129.20369401 126.7368765 126.00060368 123.68359375 122.8203125 C122.82894531 122.01851563 121.97429687 121.21671875 121.09375 120.390625 C120.37944572 119.69458412 120.37944572 119.69458412 119.65071106 118.98448181 C117.13251312 116.83037389 115.28474512 115.37532472 111.88450623 115.41900635 C109.31715609 115.96941267 106.88306376 116.70136382 104.390625 117.52734375 C103.47218811 117.80077103 102.55375122 118.0741983 101.60748291 118.35591125 C98.67602236 119.2330888 95.76023197 120.15247575 92.84375 121.078125 C89.94024919 121.97981982 87.03448995 122.87166719 84.12286377 123.7467804 C82.31558166 124.29196671 80.51295732 124.85295056 78.7164917 125.43278503 C72.22388107 127.42047266 64.25498292 129.36052836 57.8427124 126.32499695 C54.48500426 124.12965725 52.64795925 122.11132005 51.09375 118.390625 C49.99435976 109.26354435 52.04425577 100.48483885 54.09375 91.640625 C54.37992187 90.35929687 54.66609375 89.07796875 54.9609375 87.7578125 C55.66059414 84.63267949 56.37167826 81.51064064 57.09375 78.390625 C55.91039062 78.679375 54.72703125 78.968125 53.5078125 79.265625 C32.67208137 84.21832656 32.67208137 84.21832656 26.5546875 81.09375 C19.24766114 76.03682382 14.18389574 67.96295175 8.94360352 60.89648438 C5.02246629 55.60889948 1.01920318 50.3922178 -3.03125 45.203125 C-3.6190625 44.44797607 -4.206875 43.69282715 -4.8125 42.91479492 C-7.48705534 39.48093153 -10.16986322 36.05435983 -12.875 32.64453125 C-24.31471776 18.16131268 -24.31471776 18.16131268 -24.03125 10.828125 C-23.17648337 5.83766931 -20.76721282 2.58247483 -16.90625 -0.609375 C-11.14609953 -3.6146709 -5.56378232 -3.08101924 0 0 Z " fill="#960C12" transform="translate(397.90625,234.609375)"/>
<path d="M0 0 C1.31002935 0.63000422 2.62083916 1.25838783 3.93237305 1.88525391 C6.71624408 3.21777467 9.49623653 4.55796363 12.27392578 5.90332031 C18.91090456 9.1108156 25.59072868 12.22747759 32.26519775 15.35595703 C35.03915983 16.65724305 37.81130269 17.96235641 40.58258057 19.26934814 C41.90604184 19.89259785 43.23037264 20.51400477 44.55560303 21.13348389 C48.13864638 22.81119073 51.69808469 24.52646492 55.23974609 26.29003906 C56.38838387 26.85327377 56.38838387 26.85327377 57.56022644 27.42788696 C59.03396708 28.15120415 60.50252344 28.88521378 61.96479797 29.63143921 C64.88405127 31.05230944 67.11326502 32.01716928 70.39013672 31.90722656 C72.87249393 30.89953163 74.28998126 29.83270401 76.18359375 27.9453125 C76.81716797 27.33042969 77.45074219 26.71554687 78.10351562 26.08203125 C78.74998047 25.43621094 79.39644531 24.79039062 80.0625 24.125 C89.83500253 14.42111083 89.83500253 14.42111083 97.5625 13.5625 C101.92773823 13.78699797 105.37822163 15.04492438 108.625 18 C114.28572929 25.81087981 118.41014376 34.99944893 122.76806641 43.5859375 C123.59158645 45.19968427 124.42368694 46.80908005 125.26416016 48.4140625 C134.53133767 66.11938181 134.53133767 66.11938181 132.625 74 C130.24869824 79.1328118 126.86335367 82.05212479 121.625 84 C116.39075346 84.64280221 112.98796671 83.97053052 108.625 81 C103.96327057 75.73971376 100.76715585 69.801135 97.75 63.5 C97.14671875 62.26636719 97.14671875 62.26636719 96.53125 61.0078125 C95.55495061 59.00872327 94.58639882 57.00628584 93.625 55 C90.2188918 56.61528166 87.78088683 58.50017785 85 61.0625 C80.24146786 65.43370975 77.5954541 66.60991479 71.10791016 66.53613281 C63.46790554 65.36008836 56.65751885 61.30805042 49.8125 57.875 C48.12141947 57.0470662 46.42918215 56.22149133 44.73583984 55.39819336 C41.31725377 53.73431161 37.90336863 52.06134561 34.49267578 50.38134766 C28.2325213 47.30703965 21.91927247 44.35067296 15.59216309 41.41723633 C13.76222207 40.56817086 11.93411025 39.71528054 10.10644531 38.86132812 C4.29120103 36.14892863 -1.53612992 33.4673799 -7.38671875 30.83203125 C-8.49354004 30.33179443 -9.60036133 29.83155762 -10.74072266 29.31616211 C-12.80125448 28.38723899 -14.86454512 27.4643996 -16.93115234 26.54907227 C-22.66584935 23.96374141 -27.57371098 21.67087683 -31.1875 16.3125 C-33.19792861 10.70446229 -33.37363726 6.117111 -30.8125 0.6875 C-21.07357204 -10.05029237 -11.54019956 -5.67567878 0 0 Z " fill="#960C12" transform="translate(360.375,407)"/>
<path d="M0 0 C3.90863741 1.95431871 6.98579156 4.07759409 9 8 C10.28358522 12.6971778 10.50037513 16.72257491 8.5625 21.25 C3.15368934 30.08080569 -9.66951359 33.76855622 -18.75 38 C-20.36639003 38.75759327 -21.98259888 39.51557321 -23.59863281 40.27392578 C-27.64338175 42.17019481 -31.69108743 44.06004208 -35.74023438 45.94689941 C-37.83764762 46.92434021 -39.93455164 47.9028628 -42.03125 48.88183594 C-50.01203901 52.60697365 -58.00272017 56.31040791 -66 60 C-67.14678223 60.52948242 -68.29356445 61.05896484 -69.47509766 61.60449219 C-72.83649719 63.1553272 -76.19917045 64.7033557 -79.5625 66.25 C-80.57473633 66.71647949 -81.58697266 67.18295898 -82.62988281 67.66357422 C-83.55768555 68.08912598 -84.48548828 68.51467773 -85.44140625 68.953125 C-86.25295166 69.32598633 -87.06449707 69.69884766 -87.90063477 70.08300781 C-92.18325268 71.9536338 -95.32902742 72.52736787 -100 72 C-105.99800316 68.93741535 -110.95134491 64.38974456 -116 60 C-116.33733154 60.6705542 -116.67466309 61.3411084 -117.0222168 62.03198242 C-118.56725804 65.08902297 -120.12719299 68.13822476 -121.6875 71.1875 C-122.48317383 72.77014648 -122.48317383 72.77014648 -123.29492188 74.38476562 C-129.7364471 86.91214903 -129.7364471 86.91214903 -136 89 C-140.88156423 89.51252223 -144.85085989 89.51072894 -149.375 87.5 C-152.6123586 84.41680134 -154.95806199 81.39769697 -156 77 C-155.65299277 70.18727938 -153.53647064 65.23084552 -150.44921875 59.20703125 C-149.99400345 58.29797531 -149.53878815 57.38891937 -149.06977844 56.45231628 C-148.10958077 54.54094464 -147.14358343 52.63247667 -146.17211914 50.72680664 C-144.69004542 47.81749665 -143.22745914 44.89901435 -141.76757812 41.97851562 C-140.82925592 40.11661713 -139.88983957 38.25526955 -138.94921875 36.39453125 C-138.295868 35.09283745 -138.295868 35.09283745 -137.62931824 33.7648468 C-132.28261024 23.31689052 -132.28261024 23.31689052 -126.75 20.125 C-122.47694119 18.84308236 -119.23721436 18.55063509 -115 20 C-109.7376329 23.06784806 -105.51798259 27.06134218 -101.125 31.25 C-100.43664062 31.8996875 -99.74828125 32.549375 -99.0390625 33.21875 C-97.35564778 34.80864168 -95.67611622 36.4024218 -94 38 C-86.8080681 35.84012269 -80.25403849 32.85589287 -73.52722168 29.53326416 C-70.33548539 27.95751511 -67.13427034 26.4012382 -63.93359375 24.84375 C-63.27718903 24.52391144 -62.6207843 24.20407288 -61.94448853 23.87454224 C-53.92029254 19.97376676 -45.82627002 16.22556741 -37.71777344 12.50366211 C-32.72487669 10.20948384 -27.7519083 7.90464236 -22.85546875 5.41015625 C-8.29300821 -1.96832306 -8.29300821 -1.96832306 0 0 Z " fill="#960C12" transform="translate(743,848)"/>
</svg>
