<?xml version="1.0" encoding="UTF-8"?>
<svg version="1.1" xmlns="http://www.w3.org/2000/svg" width="1080" height="1350">
<path d="M0 0 C2.75569447 2.18159145 4.43588747 3.87177494 6 7 C6.15320381 8.39301984 6.27395626 9.78972825 6.375 11.1875 C6.81110113 15.57664689 8.17626667 18.9725889 10 23 C11.4338556 28.73542239 12.0389987 36.1256915 10.49121094 41.8972168 C9.97333768 44.11413645 9.93083073 45.95950665 10.0078125 48.23046875 C10.02457031 49.03419922 10.04132812 49.83792969 10.05859375 50.66601562 C10.10235653 52.32771394 10.15424597 53.98922104 10.21484375 55.65039062 C10.34051735 62.83092318 9.2167967 68.89820307 4.984375 74.8203125 C4.24703125 75.58085937 3.5096875 76.34140625 2.75 77.125 C1.55117187 78.38570312 1.55117187 78.38570312 0.328125 79.671875 C-1.59514459 81.59514459 -3.54061681 83.48886478 -5.5 85.375 C-9.39808123 89.19224545 -12.46465508 93.57098053 -15.68359375 97.9609375 C-17.81972167 100.76347969 -20.04834468 103.35030182 -22.4375 105.9375 C-36.10989519 120.08961761 -36.10989519 120.08961761 -41.3125 138 C-41.27898438 139.30839844 -41.24546875 140.61679687 -41.2109375 141.96484375 C-40.97111884 147.09622138 -40.55345011 152.2144054 -40.11328125 157.33203125 C-39.99995382 161.00149526 -40.50091721 164.14372293 -41.125 167.75 C-42.03707926 177.21416361 -36.09550787 184.1990712 -31.28515625 191.87158203 C-25.19677993 201.95487701 -25.2863604 212.59346535 -26 224 C-26.33 224.99 -26.66 225.98 -27 227 C-26.72230092 229.3406065 -26.39460023 231.67624308 -26 234 C-26.66 234 -27.32 234 -28 234 C-27.46375 235.0725 -26.9275 236.145 -26.375 237.25 C-26.01535156 237.97574219 -25.65570312 238.70148438 -25.28515625 239.44921875 C-24.35493487 241.2955244 -23.40134987 243.13012007 -22.43359375 244.95703125 C-19.61611073 250.35437824 -17.27863422 254.87004713 -17 261 C-18.32 261 -19.64 261 -21 261 C-20.67 261.66 -20.34 262.32 -20 263 C-19.960008 264.99960012 -19.95653201 267.00047242 -20 269 C-20.99 268.67 -21.98 268.34 -23 268 C-22.938125 268.9075 -22.87625 269.815 -22.8125 270.75 C-23.02550084 274.44201456 -23.80188381 275.18641127 -26 278 C-27.72437658 283.61251417 -26.14473596 286.77103944 -23.5625 291.6875 C-20 298.67 -20 298.67 -20 302 C-20.99 302.495 -20.99 302.495 -22 303 C-21.34 303.99 -20.68 304.98 -20 306 C-19.296875 308.375 -19.296875 308.375 -18.75 311 C-18.46382812 312.299375 -18.46382812 312.299375 -18.171875 313.625 C-18 316 -18 316 -20 319 C-19.484375 319.680625 -18.96875 320.36125 -18.4375 321.0625 C-16.59866221 324.82012506 -17.33638928 326.94460114 -18 331 C-17.14209817 333.21771064 -17.14209817 333.21771064 -16 335 C-16 335.99 -16 336.98 -16 338 C-16.99 338 -17.98 338 -19 338 C-18.67 338.9075 -18.34 339.815 -18 340.75 C-17 344 -17 344 -17 348 C-17.66 348 -18.32 348 -19 348 C-18.61328125 348.58007812 -18.2265625 349.16015625 -17.828125 349.7578125 C-14.88541667 354.171875 -11.94270833 358.5859375 -9 363 C-9.33 363.66 -9.66 364.32 -10 365 C-11.32 364.67 -12.64 364.34 -14 364 C-13.3503125 365.22976563 -13.3503125 365.22976563 -12.6875 366.484375 C-12.130625 367.56203125 -11.57375 368.6396875 -11 369.75 C-10.443125 370.81734375 -9.88625 371.8846875 -9.3125 372.984375 C-8 376 -8 376 -8 380 C-9.32 379.67 -10.64 379.34 -12 379 C-11.566875 380.134375 -11.13375 381.26875 -10.6875 382.4375 C-10.12432142 383.95808218 -9.5618595 385.47892992 -9 387 C-8.71382812 387.74378906 -8.42765625 388.48757813 -8.1328125 389.25390625 C-6.25286788 394.40137366 -5.7012406 398.52274428 -6 404 C-6.99 403.34 -7.98 402.68 -9 402 C-9 408.27 -9 414.54 -9 421 C-10.32 420.67 -11.64 420.34 -13 420 C-13.33 424.29 -13.66 428.58 -14 433 C-14.99 433 -15.98 433 -17 433 C-17.66 436.96 -18.32 440.92 -19 445 C-20.32 445.33 -21.64 445.66 -23 446 C-23 448.64 -23 451.28 -23 454 C-24.32 453.67 -25.64 453.34 -27 453 C-27 458.28 -27 463.56 -27 469 C-31.26511313 467.29395475 -33.61418999 465.90212286 -37 463 C-37.33 465.97 -37.66 468.94 -38 472 C-39.98 471.34 -41.96 470.68 -44 470 C-43.67 472.97 -43.34 475.94 -43 479 C-43.66 479 -44.32 479 -45 479 C-44.855625 479.60328125 -44.71125 480.2065625 -44.5625 480.828125 C-44.376875 481.62734375 -44.19125 482.4265625 -44 483.25 C-43.814375 484.03890625 -43.62875 484.8278125 -43.4375 485.640625 C-43 488 -43 488 -43 492 C-45.64 492 -48.28 492 -51 492 C-50.67 492.66 -50.34 493.32 -50 494 C-49.86584528 496.6723621 -49.95681459 499.32250488 -50 502 C-51.32 502.33 -52.64 502.66 -54 503 C-53.67 506.3 -53.34 509.6 -53 513 C-53.99 513 -54.98 513 -56 513 C-56 516.63 -56 520.26 -56 524 C-56.99 524.33 -57.98 524.66 -59 525 C-59 528.3 -59 531.6 -59 535 C-60.32 535.33 -61.64 535.66 -63 536 C-62.938125 537.8871875 -62.938125 537.8871875 -62.875 539.8125 C-62.7609626 543.29064073 -62.94074319 543.91111478 -65 547 C-65.66 546.67 -66.32 546.34 -67 546 C-67.33 548.31 -67.66 550.62 -68 553 C-68.99 552.67 -69.98 552.34 -71 552 C-71.66 553.65 -72.32 555.3 -73 557 C-74.32 556.67 -75.64 556.34 -77 556 C-77.33 558.64 -77.66 561.28 -78 564 C-78.99 564 -79.98 564 -81 564 C-81.33 563.67 -81.66 563.34 -82 563 C-82.66 565.31 -83.32 567.62 -84 570 C-84.99 569.67 -85.98 569.34 -87 569 C-87.99 571.31 -88.98 573.62 -90 576 C-90.99 575.67 -91.98 575.34 -93 575 C-93.66 576.65 -94.32 578.3 -95 580 C-95.99 579.67 -96.98 579.34 -98 579 C-102.47151241 583.47151241 -102.97572351 587.67198114 -103.6875 593.6875 C-103.80633545 594.61868652 -103.9251709 595.54987305 -104.04760742 596.50927734 C-104.39333851 599.33719889 -104.7051117 602.16635492 -105 605 C-105.08411133 605.8029248 -105.16822266 606.60584961 -105.25488281 607.43310547 C-106.64772692 621.76958236 -107.57351343 641.59469609 -100 654.375 C-95.19892644 658.57593937 -89.93305458 659.42405474 -83.77734375 660.6328125 C-72.69941782 662.8872676 -66.21770927 666.78672477 -59.3125 675.75390625 C-57.86121315 678.23750727 -57.22887622 680.13427894 -57 683 C-59 685 -59 685 -62.125 685.125 C-63.07375 685.08375 -64.0225 685.0425 -65 685 C-65.33 686.65 -65.66 688.3 -66 690 C-66.94637329 690.08302368 -66.94637329 690.08302368 -67.91186523 690.16772461 C-70.7541768 690.4196812 -73.59582219 690.67849769 -76.4375 690.9375 C-77.92733398 691.06801758 -77.92733398 691.06801758 -79.44726562 691.20117188 C-80.39150391 691.28818359 -81.33574219 691.37519531 -82.30859375 691.46484375 C-83.18314209 691.543396 -84.05769043 691.62194824 -84.95874023 691.70288086 C-86.99014456 691.79085048 -86.99014456 691.79085048 -88 693 C-91.39922303 692.59209324 -94.75588327 692.04394101 -98.125 691.4375 C-101.62179826 691.0427002 -104.86389495 691.00534248 -108.375 691.0625 C-116.49909454 691.1091902 -122.91196724 690.80372849 -129 685 C-130.58203125 681.984375 -130.58203125 681.984375 -131.8125 678.75 C-132.44091797 677.13351562 -132.44091797 677.13351562 -133.08203125 675.484375 C-133.38496094 674.66453125 -133.68789063 673.8446875 -134 673 C-133.74488595 675.44009082 -133.47167322 677.87577058 -133.1875 680.3125 C-133.11724609 681.00279297 -133.04699219 681.69308594 -132.97460938 682.40429688 C-132.64933589 685.09756133 -132.36533852 687.42219511 -130.8984375 689.7421875 C-127.8938514 691.73288035 -124.68325882 693.26481625 -121.4375 694.8125 C-112.65373034 699.11701833 -104.4318354 703.83754274 -96.4375 709.5 C-94.91962891 710.56734375 -94.91962891 710.56734375 -93.37109375 711.65625 C-90.55717222 714.43772104 -90.22885111 716.11511288 -90 720 C-90.99 720.66 -91.98 721.32 -93 722 C-93.70381157 723.98723268 -94.3711811 725.98777953 -95 728 C-98.01334248 731.01334248 -101.04446039 731.1497674 -105.1875 731.1875 C-109.97222043 731.1477598 -114.38977817 730.22067339 -119 729 C-119.33 730.32 -119.66 731.64 -120 733 C-126.48493907 732.36422166 -126.48493907 732.36422166 -129.1875 730.453125 C-133.69838234 728.12250246 -138.17872429 728.90133854 -143.14257812 729.20507812 C-149.85157205 729.43720365 -154.8693693 727.80545317 -159.91796875 723.28125 C-169.69679801 709.56080033 -172.62068063 692.64277662 -173.73046875 676.125 C-174.12853705 672.98660644 -175.34910516 670.66683012 -177 668 C-177.515625 667.13375 -178.03125 666.2675 -178.5625 665.375 C-179.39447085 664.00043947 -180.24550215 662.63635518 -181.14453125 661.3046875 C-182.40033356 657.92147579 -181.71278987 655.27673924 -181.125 651.75 C-180.81949219 649.85507813 -180.81949219 649.85507813 -180.5078125 647.921875 C-180.34023438 646.95765625 -180.17265625 645.9934375 -180 645 C-181.32 645.33 -182.64 645.66 -184 646 C-183.67 643.69 -183.34 641.38 -183 639 C-184.32 639 -185.64 639 -187 639 C-187 637.02 -187 635.04 -187 633 C-188.98 632.67 -190.96 632.34 -193 632 C-193 630.35 -193 628.7 -193 627 C-193.94875 627.061875 -194.8975 627.12375 -195.875 627.1875 C-196.90625 627.125625 -197.9375 627.06375 -199 627 C-199.66 626.01 -200.32 625.02 -201 624 C-200.67 623.34 -200.34 622.68 -200 622 C-201.6396875 622.061875 -201.6396875 622.061875 -203.3125 622.125 C-207 622 -207 622 -210 620 C-210.33 625.61 -210.66 631.22 -211 637 C-213 636 -215 635 -217 634 C-217 638.62 -217 643.24 -217 648 C-218.65 646.68 -220.3 645.36 -222 644 C-222.33 648.95 -222.66 653.9 -223 659 C-223.66 659 -224.32 659 -225 659 C-226.87577309 656.45349592 -228.38325812 653.72293369 -230 651 C-230.33 654.3 -230.66 657.6 -231 661 C-237.15581323 659.06501208 -239.29212944 655.0892341 -243 650 C-243.33 654.29 -243.66 658.58 -244 663 C-246.97 661.35 -249.94 659.7 -253 658 C-253 660.64 -253 663.28 -253 666 C-255.92879371 665.37240135 -258.36095629 664.41377341 -261 663 C-258.42881444 670.10857185 -254.37337534 676.75108311 -248 681 C-248 681.66 -248 682.32 -248 683 C-256.94562683 681.17774268 -264.58447987 677.2689222 -272 672 C-270.02 675.63 -268.04 679.26 -266 683 C-272.64584719 682.65021857 -275.83664827 681.19522328 -281 677 C-280.67 679.97 -280.34 682.94 -280 686 C-287.75 685.125 -287.75 685.125 -290 684 C-289.81312728 685.93044874 -289.81312728 685.93044874 -289 688 C-287.1750951 689.41609295 -287.1750951 689.41609295 -284.8515625 690.47265625 C-284.01109375 690.89740234 -283.170625 691.32214844 -282.3046875 691.75976562 C-281.42039062 692.18966797 -280.53609375 692.61957031 -279.625 693.0625 C-277.88549469 693.92329932 -276.14840719 694.78900605 -274.4140625 695.66015625 C-273.25318115 696.22682007 -273.25318115 696.22682007 -272.06884766 696.80493164 C-268.48383899 698.87580932 -266.77104114 700.9534737 -265.39453125 704.8359375 C-265.00297852 705.93808594 -265.00297852 705.93808594 -264.60351562 707.0625 C-264.34248047 707.825625 -264.08144531 708.58875 -263.8125 709.375 C-263.40354492 710.50808594 -263.40354492 710.50808594 -262.98632812 711.6640625 C-261.64394478 715.51290096 -260.5130155 718.86462347 -261 723 C-262 724 -262 724 -265.0625 724.0625 C-266.031875 724.041875 -267.00125 724.02125 -268 724 C-267.95875 724.78375 -267.9175 725.5675 -267.875 726.375 C-268 729 -268 729 -270 731 C-273.98260429 731.56894347 -276.39956264 730.3425457 -279.953125 728.66796875 C-283.85833213 727.39355955 -287.94200782 727.7795457 -292 728 C-292 728.99 -292 729.98 -292 731 C-295.65429155 732.3365233 -297.4834816 731.6072534 -301 730.125 C-306.62636851 728.12193077 -311.66015961 727.61014615 -317.5625 727.4375 C-331.06219176 727.02907593 -344.00048322 724.83890411 -357.109375 721.62890625 C-361.37571118 720.70068987 -365.64825373 720.2848773 -370 720 C-370 720.99 -370 721.98 -370 723 C-370.94875 722.79375 -371.8975 722.5875 -372.875 722.375 C-373.90625 722.25125 -374.9375 722.1275 -376 722 C-376.66 722.66 -377.32 723.32 -378 724 C-381.3 722.35 -384.6 720.7 -388 719 C-388.33 720.32 -388.66 721.64 -389 723 C-392.63 721.35 -396.26 719.7 -400 718 C-399.67 719.32 -399.34 720.64 -399 722 C-402.99881788 721.38479725 -405.80358226 719.39731331 -409 717 C-409 716.34 -409 715.68 -409 715 C-409.66 715 -410.32 715 -411 715 C-410.67 716.65 -410.34 718.3 -410 720 C-414.30067708 719.09985829 -416.3884892 717.90171303 -418.875 714.375 C-419.926875 712.704375 -419.926875 712.704375 -421 711 C-421.99 713.31 -422.98 715.62 -424 718 C-424.99 717.34 -425.98 716.68 -427 716 C-427.6875 712.375 -427.6875 712.375 -428 709 C-428.66 709 -429.32 709 -430 709 C-430 709.66 -430 710.32 -430 711 C-435.5825192 714.32575612 -439.49686791 715.46450943 -446 715 C-445.67 714.21625 -445.34 713.4325 -445 712.625 C-443.88133489 710.15667503 -443.88133489 710.15667503 -444 708 C-445.134375 708.474375 -446.26875 708.94875 -447.4375 709.4375 C-451.91298952 711.1348234 -456.24712186 711.68094105 -461 712 C-460.236875 711.2575 -459.47375 710.515 -458.6875 709.75 C-456.5606298 707.5736677 -454.7440044 705.47832204 -453 703 C-454.093125 703.350625 -455.18625 703.70125 -456.3125 704.0625 C-461.519811 705.36432775 -466.78209666 705.25600581 -472 704 C-473.82421875 702.44921875 -473.82421875 702.44921875 -475 701 C-474.01 700.34 -473.02 699.68 -472 699 C-474.31 698.67 -476.62 698.34 -479 698 C-479 696.68 -479 695.36 -479 694 C-477 692.25 -477 692.25 -475 691 C-475.66 690.67 -476.32 690.34 -477 690 C-477 689.34 -477 688.68 -477 688 C-475.98679687 687.62488281 -474.97359375 687.24976563 -473.9296875 686.86328125 C-472.57788977 686.34696962 -471.2263403 685.83000766 -469.875 685.3125 C-469.20984375 685.06822266 -468.5446875 684.82394531 -467.859375 684.57226562 C-463.09871518 682.72867677 -459.76985457 680.44689195 -456 677 C-458.21475098 674.78524902 -463.96196189 675.59539505 -467.09765625 675.48242188 C-470.86746432 675.30045482 -472.79364292 675.13757139 -476 673 C-475.67 672.67 -475.34 672.34 -475 672 C-475.9446814 672.01571045 -475.9446814 672.01571045 -476.90844727 672.03173828 C-479.79309006 672.0736023 -482.67766866 672.09942201 -485.5625 672.125 C-486.55314453 672.14175781 -487.54378906 672.15851562 -488.56445312 672.17578125 C-494.12728491 672.21274359 -498.74843075 671.87082551 -504 670 C-503.67 669.34 -503.34 668.68 -503 668 C-502.01 668 -501.02 668 -500 668 C-500 667.34 -500 666.68 -500 666 C-501.299375 665.773125 -502.59875 665.54625 -503.9375 665.3125 C-507.83752204 664.55086135 -511.53873382 663.51781471 -515.31103516 662.27441406 C-523.97576219 659.46297543 -532.52612553 658.16148735 -541.5625 657.0625 C-552.58035715 655.68035669 -561.96408464 653.8059313 -572 649 C-572.72622559 648.65291992 -573.45245117 648.30583984 -574.20068359 647.94824219 C-578.84432625 645.71325001 -583.43523706 643.39164441 -588 641 C-588 640.67 -588 640.34 -588 640 C-586.90300781 639.80664062 -585.80601562 639.61328125 -584.67578125 639.4140625 C-583.22130418 639.15131825 -581.76687983 638.88828199 -580.3125 638.625 C-579.59126953 638.49867188 -578.87003906 638.37234375 -578.12695312 638.2421875 C-574.17840538 637.52099156 -570.72193636 636.54242408 -567 635 C-566.01 635 -565.02 635 -564 635 C-564 634.34 -564 633.68 -564 633 C-564.556875 632.938125 -565.11375 632.87625 -565.6875 632.8125 C-568 632 -568 632 -573 627 C-565.08 627 -557.16 627 -549 627 C-549.66 626.01 -550.32 625.02 -551 624 C-549.03177114 622.03177114 -545.65191291 622.33751619 -543 622 C-543.75796875 621.38511719 -543.75796875 621.38511719 -544.53125 620.7578125 C-545.50578125 619.94957031 -545.50578125 619.94957031 -546.5 619.125 C-547.1496875 618.59132813 -547.799375 618.05765625 -548.46875 617.5078125 C-549.22671875 616.76144531 -549.22671875 616.76144531 -550 616 C-550 615.34 -550 614.68 -550 614 C-533.1070615 613.81548975 -533.1070615 613.81548975 -526 615 C-526.33 613.35 -526.66 611.7 -527 610 C-521.57342622 610.54265738 -517.74541763 612.46365609 -513 615 C-514.32 611.04 -515.64 607.08 -517 603 C-510.25 604.125 -510.25 604.125 -506.625 607.5625 C-505.93664062 608.20316406 -505.24828125 608.84382812 -504.5390625 609.50390625 C-504.03117187 609.99761719 -503.52328125 610.49132812 -503 611 C-502.67 609.68 -502.34 608.36 -502 607 C-498.75791433 607.35049575 -497.38472296 607.56221181 -495.1875 610.0625 C-494.795625 610.701875 -494.40375 611.34125 -494 612 C-492.68 610.68 -491.36 609.36 -490 608 C-488.5 609.375 -488.5 609.375 -487 611 C-487 611.66 -487 612.32 -487 613 C-486.34 613 -485.68 613 -485 613 C-484.67 612.01 -484.34 611.02 -484 610 C-482.0625 610.3125 -482.0625 610.3125 -480 611 C-479.505 612.485 -479.505 612.485 -479 614 C-477.8553125 613.2265625 -477.8553125 613.2265625 -476.6875 612.4375 C-475.800625 611.963125 -474.91375 611.48875 -474 611 C-473.01 611.33 -472.02 611.66 -471 612 C-469.8125 614.5625 -469.8125 614.5625 -469 617 C-468.236875 616.773125 -467.47375 616.54625 -466.6875 616.3125 C-465.3571875 616.1578125 -465.3571875 616.1578125 -464 616 C-462.1875 617.4375 -462.1875 617.4375 -461 619 C-460.01 618.01 -459.02 617.02 -458 616 C-456.02 618.97 -456.02 618.97 -454 622 C-453.38511719 621.02546875 -453.38511719 621.02546875 -452.7578125 620.03125 C-452.21898437 619.1959375 -451.68015625 618.360625 -451.125 617.5 C-450.59132813 616.6646875 -450.05765625 615.829375 -449.5078125 614.96875 C-449.01023437 614.3190625 -448.51265625 613.669375 -448 613 C-447.34 613 -446.68 613 -446 613 C-445.94392578 614.13888672 -445.94392578 614.13888672 -445.88671875 615.30078125 C-445.82097656 616.29464844 -445.75523437 617.28851562 -445.6875 618.3125 C-445.62949219 619.29863281 -445.57148438 620.28476562 -445.51171875 621.30078125 C-444.95377187 624.24384457 -444.31459868 625.18182999 -442 627 C-441.67 625.68 -441.34 624.36 -441 623 C-438.05265643 624.0105178 -435.98849898 625.00943674 -433.5625 627 C-430.77153211 629.1783164 -428.3563514 629.96585597 -425 631 C-425.04640625 630.08347656 -425.0928125 629.16695312 -425.140625 628.22265625 C-426.11770961 598.27501286 -419.92267873 569.41833232 -408.7421875 541.8359375 C-406.45382557 536.18610467 -404.34574753 530.49524612 -402.3125 524.75 C-395.86547693 506.92923943 -386.32987831 491.62190823 -374.59667969 476.82543945 C-371.78817196 473.21520455 -369.536684 469.52471429 -367.375 465.5 C-361.71706682 455.21702204 -354.22660252 446.21012157 -347 437 C-345.99146477 435.70238432 -344.98357123 434.40426943 -343.9765625 433.10546875 C-337.12235072 424.29291074 -330.06474931 415.64398322 -323 407 C-322.17242187 405.98679687 -321.34484375 404.97359375 -320.4921875 403.9296875 C-314.6331544 396.76411043 -314.6331544 396.76411043 -311.94140625 393.515625 C-297.17428674 375.6325078 -283.11084522 357.08764083 -269.62890625 338.21875 C-268.59582771 336.81158306 -267.52366653 335.43166079 -266.40234375 334.09375 C-262.61113244 329.51714709 -260.62229571 324.8141826 -258.52416992 319.26928711 C-251.42653914 300.87843714 -240.93712782 285.99526971 -227.46069336 271.79150391 C-219.55435428 263.45711781 -213.14068983 255.83385968 -209 245 C-208.60296875 243.99453125 -208.2059375 242.9890625 -207.796875 241.953125 C-204.36432096 232.52446391 -202.52172754 222.91517232 -200.59326172 213.08300781 C-198.80973586 204.51802768 -196.0710208 196.8582816 -192.6875 188.8125 C-187.81655509 176.96532652 -186.9277437 166.2237064 -187.11010742 153.59106445 C-187.20956044 145.73330607 -186.56315449 138.80569456 -184.72387695 131.15942383 C-183.75957247 126.95063316 -183.38191833 122.79634168 -183.0625 118.5 C-182.42972641 111.23155534 -181.06876414 104.80944961 -178.70703125 97.8828125 C-177.94361788 94.77011046 -178.27412283 93.06824674 -179 90 C-177.37757059 84.52430075 -174.91678665 81.7818194 -170.81640625 77.9296875 C-168.21235524 75.16323331 -166.53555468 72.03179179 -164.66015625 68.74609375 C-161.51123386 63.53740566 -157.75283442 58.78289561 -154 54 C-153.04867187 52.76056641 -153.04867187 52.76056641 -152.078125 51.49609375 C-147.86189441 46.28177317 -147.86189441 46.28177317 -143.75 44.9375 C-141 45 -141 45 -138 46 C-135.86410791 44.68711046 -135.86410791 44.68711046 -133.625 42.8125 C-127.79544339 38.53805835 -121.92531048 36.81215127 -115 35 C-113.20586159 34.487746 -111.41393076 33.96765425 -109.625 33.4375 C-108.82449219 33.20289063 -108.02398438 32.96828125 -107.19921875 32.7265625 C-104.72503163 31.95915376 -104.72503163 31.95915376 -101.4375 30.3125 C-97.08430818 28.65037221 -93.59319522 28.02432128 -89 29 C-86.39024414 30.43455524 -84.02996676 31.99279429 -81.65234375 33.78515625 C-75.98337797 36.38169286 -69.44669331 33.74762654 -63.875 31.75 C-46.89622935 25.39574315 -31.1571316 14.3116843 -16.24609375 4.1171875 C-10.98810961 0.66538112 -6.36879118 -1.72095541 0 0 Z " fill="#960C12" transform="translate(692,309)"/>
<path d="M0 0 C21.99958355 18.5734189 36.24176751 42.14043773 38.875 71.25 C39.64374771 82.73049961 38.85433461 94.05549806 37.33740234 105.44042969 C37.25269015 106.08586589 37.16797796 106.7313021 37.08069873 107.39629698 C34.38091112 127.8832646 31.00103345 148.2745801 27.72074795 168.67455792 C26.76702719 174.61266917 25.81891985 180.5516769 24.87017822 186.49058533 C23.25387919 196.60383623 21.63445075 206.71658145 20.01263428 216.82894897 C17.48885918 232.5654047 14.97050415 248.30272515 12.45361328 264.0402832 C12.14117585 265.99386535 12.14117585 265.99386535 11.82242656 267.9869138 C10.98268994 273.23764152 10.14297245 278.48837229 9.30333889 283.73911649 C8.25806913 290.27574556 7.21258185 296.8123397 6.1666069 303.34885597 C1.09408253 335.04820184 -3.95965366 366.75033367 -8.95520544 398.46190691 C-9.35549208 401.00269717 -9.75596406 403.54345815 -10.15649796 406.08420944 C-12.42342793 420.46475664 -14.68858625 434.84557461 -16.94033623 449.22850746 C-17.87363824 455.18856904 -18.8113386 461.14792993 -19.75058746 467.10705757 C-20.12200342 469.46923695 -20.49176861 471.83167666 -20.85964203 474.19441032 C-27.07628687 514.11985756 -27.07628687 514.11985756 -41.125 525.25 C-51.21608575 531.35936215 -61.82419463 533.26380485 -73.42578125 530.44921875 C-83.52956001 526.63573027 -92.05835775 519.65016615 -96.78731823 509.82553864 C-98.42109841 505.45854771 -99.27053793 501.15934205 -100.09040833 496.58044434 C-100.2609856 495.65537504 -100.43156288 494.73030574 -100.60730916 493.77720404 C-102.30998617 484.44438311 -103.82873745 475.08395435 -105.3034668 465.71289062 C-105.5986684 463.85308078 -105.89415986 461.99331692 -106.18991184 460.13359451 C-106.98782978 455.11107094 -107.78177368 450.08792656 -108.57501125 445.06466198 C-109.42790136 439.66855245 -110.28470241 434.2730638 -111.14105225 428.87750244 C-112.79669756 418.44219532 -114.44906363 408.00637176 -116.1002003 397.57035041 C-118.20058393 384.29554881 -120.30437037 371.02128695 -122.40844727 357.74707031 C-122.59932132 356.54287587 -122.79019537 355.33868142 -122.98685348 354.09799623 C-123.75958399 349.223006 -124.53231924 344.34801651 -125.30510539 339.4730351 C-126.2745401 333.35741994 -127.24379873 327.24177697 -128.21269035 321.12607574 C-133.09357243 290.31771945 -137.99220652 259.51230643 -142.92577171 228.71234131 C-143.81547493 223.15778244 -144.70426564 217.60307784 -145.59284973 212.04833984 C-146.02192697 209.36632865 -146.45101379 206.684319 -146.88010347 204.0023098 C-147.15999936 202.25282123 -147.43988578 200.50333114 -147.71976244 198.75383949 C-149.32416434 188.72552281 -150.93191032 178.69775521 -152.54509294 168.67084718 C-153.54208144 162.47213472 -154.5350108 156.27278035 -155.52488101 150.07292724 C-156.08456913 146.5684102 -156.64598811 143.06419814 -157.21282196 139.56082916 C-170.52990578 57.12666999 -170.52990578 57.12666999 -146.57421875 22.53125 C-142.55231818 17.00093244 -137.94965996 12.0815425 -133.125 7.25 C-132.33480469 6.44820313 -131.54460938 5.64640625 -130.73046875 4.8203125 C-95.59658931 -28.85693844 -37.78870228 -29.00343073 0 0 Z " fill="#960C12" transform="translate(933.125,321.75)"/>
<path d="M0 0 C0.99 0.70125 1.98 1.4025 3 2.125 C14.26673429 11.91670222 22.02577458 27.32659795 23.16845703 42.19140625 C24.10218335 61.16284984 19.81877172 78.990823 6.875 93.4375 C-5.15745544 106.11485432 -20.65388785 112.77976484 -38 114 C-56.91415485 114.1874751 -73.42527412 107.05184755 -87 94 C-99.43110794 80.19853371 -104.6252321 64.31124207 -104.30859375 45.96484375 C-102.80542547 26.65198551 -93.90032281 11.31081162 -79.25 -1.25 C-55.09348367 -19.73141512 -23.81436418 -17.37931903 0 0 Z " fill="#960C12" transform="translate(910,909)"/>
</svg>
