<?xml version="1.0" encoding="UTF-8"?>
<svg version="1.1" xmlns="http://www.w3.org/2000/svg" width="1080" height="1350">
<path d="M0 0 C8.66798039 7.39042358 15.33489085 16.94009308 16.33203125 28.5625 C16.35652344 29.60535156 16.38101563 30.64820313 16.40625 31.72265625 C16.44363281 32.74230469 16.48101563 33.76195312 16.51953125 34.8125 C15.27109692 46.46073592 9.95228755 56.97540443 5.01123047 67.4380188 C3.81884329 69.96289615 2.63665 72.49232756 1.45703125 75.02319336 C-0.17734869 78.52875121 -1.81503412 82.03273325 -3.45507812 85.53564453 C-6.95807273 93.02715781 -10.41437826 100.53998581 -13.8572998 108.05926514 C-14.88657508 110.30473342 -15.92016352 112.54817963 -16.95410156 114.79150391 C-17.58421455 116.16558458 -18.21410957 117.53976523 -18.84375 118.9140625 C-19.38902344 120.1007251 -19.93429687 121.2873877 -20.49609375 122.51000977 C-21.81157315 125.56526533 -22.9086277 128.61366918 -23.90625 131.78515625 C-16.79292492 123.54043937 -9.76547014 115.24361169 -2.90625 106.78515625 C-1.407105 104.95112371 0.09290322 103.11779644 1.59375 101.28515625 C2.33625 100.37765625 3.07875 99.47015625 3.84375 98.53515625 C19.59375 79.28515625 19.59375 79.28515625 21.86328125 76.51171875 C23.29874935 74.75697841 24.73368796 73.0018047 26.16796875 71.24609375 C31.40580163 64.83676775 36.66552219 58.44572429 41.92919922 52.05761719 C45.96225964 47.16196943 49.98666763 42.25949587 54 37.34765625 C57.01327364 33.6597691 60.03236433 29.97664695 63.05078125 26.29296875 C64.42483513 24.60627164 65.76846419 22.89437445 67.08203125 21.16015625 C72.39203684 14.89125645 81.01056512 10.06731661 89.09375 8.78515625 C103.06528487 7.77586065 114.00389911 9.56444717 125.125 18.83203125 C133.33960849 26.98144443 137.19006485 37.0359194 137.34375 48.47265625 C137.21314442 59.85908792 134.01176103 66.89057064 127.09375 75.78515625 C126.70155273 76.29530273 126.30935547 76.80544922 125.90527344 77.33105469 C120.05228102 84.93949005 113.99943242 92.38576925 107.93115234 99.82275391 C104.43913235 104.10846178 100.99598437 108.42790872 97.59375 112.78515625 C93.65179641 117.83362313 89.64327423 122.82258565 85.59375 127.78515625 C81.38844853 132.94263674 77.21142274 138.1198544 73.09375 143.34765625 C72.66126953 143.89486328 72.22878906 144.44207031 71.78320312 145.00585938 C68.76636801 148.85102987 65.91304138 152.79283828 63.09375 156.78515625 C64.30998047 155.64240234 64.30998047 155.64240234 65.55078125 154.4765625 C71.67512735 148.75442338 77.87494315 143.2463432 84.4140625 137.99609375 C87.22628315 135.67580675 89.91172263 133.25444491 92.59375 130.78515625 C97.04243912 126.69034013 101.63645325 122.85210103 106.35546875 119.07421875 C109.17196911 116.71976909 111.77091675 114.21446168 114.40625 111.66015625 C124.94436554 101.92682475 136.53892351 98.16780119 150.6875 98.4453125 C160.37670574 98.94683711 169.38186159 103.8932555 176.09375 110.78515625 C184.1925711 121.58358438 186.99666748 131.34361113 186.09375 144.78515625 C183.68446611 159.57241239 173.06742212 169.56070843 162.2265625 178.87109375 C159.75442964 181.08967453 157.42812822 183.42222294 155.09375 185.78515625 C152.19783042 188.71633816 149.29132429 191.54918799 146.15625 194.22265625 C142.80449927 197.0868796 139.68818244 200.14849341 136.59375 203.28515625 C132.90380412 207.02545963 129.11871302 210.56754975 125.12109375 213.9765625 C121.77631946 216.96043629 118.68039843 220.19135357 115.53125 223.37890625 C112.84091094 226.03475378 110.02801475 228.48651057 107.15625 230.94140625 C103.81085836 233.93198362 100.70860273 237.16177706 97.55859375 240.35546875 C94.74909584 243.12489458 91.81822248 245.69467599 88.78515625 248.21484375 C86.94871258 249.91980993 85.53895621 251.74330527 84.09375 253.78515625 C93.98373071 248.8913074 103.84644544 243.95839299 113.59375 238.78515625 C122.55985527 234.02883836 131.61828115 229.47005811 140.71484375 224.96899414 C142.40322294 224.12878984 144.08774418 223.28081303 145.76953125 222.42749023 C146.65125 221.98091064 147.53296875 221.53433105 148.44140625 221.07421875 C149.2394165 220.66768066 150.03742676 220.26114258 150.85961914 219.84228516 C159.83363577 215.59602879 169.86819286 215.53227891 179.28125 218.41015625 C190.60573971 222.63835998 198.79492858 229.47459015 203.96875 240.47265625 C208.63815328 251.15662203 208.0830392 261.89268712 204.34765625 272.8125 C199.21757967 284.97445726 187.81082819 292.35134198 176.78125 298.72265625 C174.55154165 300.03553881 172.32239575 301.34937695 170.09375 302.6640625 C169.52029343 303.00058838 168.94683685 303.33711426 168.35600281 303.68383789 C162.54354666 307.09583067 156.78262735 310.59058323 151.02676392 314.09695435 C148.67770589 315.52777821 146.32713119 316.95610138 143.97663879 318.38456726 C142.19828672 319.46541021 140.42016885 320.54663759 138.64208984 321.62792969 C133.37662378 324.82956745 128.10858618 328.02696948 122.84072876 331.22467041 C119.92496261 332.99465685 117.00936488 334.76492065 114.09375 336.53515625 C112.92708414 337.24349091 111.76041747 337.95182424 110.59375 338.66015625 C110.01625 339.01078125 109.43875 339.36140625 108.84375 339.72265625 C107.09375 340.78515625 105.34375 341.84765625 103.59375 342.91015625 C102.72753777 343.43607109 102.72753777 343.43607109 101.84382629 343.97261047 C100.67690596 344.68109746 99.50998498 345.38958338 98.34306335 346.09806824 C95.43027253 347.86654203 92.51749284 349.63503415 89.60473633 351.40356445 C84.30851367 354.6192324 79.01221074 357.83476772 73.71548462 361.04960632 C71.92324346 362.13742347 70.13105198 363.22532242 68.33886719 364.31323242 C65.97642316 365.74729599 63.61376477 367.18100554 61.25097656 368.61450195 C55.85062584 371.89161647 50.45358113 375.17391335 45.06640625 378.47265625 C27.07209606 389.48557572 8.95567932 400.23499786 -9.61743164 410.24658203 C-16.46475674 413.95383801 -23.19638166 417.83525706 -29.90625 421.78515625 C-38.44944928 426.81299513 -47.06923751 431.65603604 -55.79077148 436.36694336 C-66.59900105 442.21562899 -77.42651549 448.14358187 -87.87109375 454.625 C-89.90625 455.78515625 -89.90625 455.78515625 -91.90625 455.78515625 C-92.01727051 456.99872803 -92.12829102 458.2122998 -92.24267578 459.46264648 C-93.48100714 472.82525023 -94.87218604 486.16724443 -96.40087891 499.49975586 C-96.6562221 501.7472021 -96.9061502 503.99526966 -97.15087891 506.24389648 C-99.27721984 525.75694707 -101.08968729 540.58095121 -116.61425781 553.98120117 C-120.5486437 557.07783276 -124.82404807 559.54124772 -129.15625 562.03515625 C-130.91258929 563.05926079 -132.66783933 564.08523618 -134.421875 565.11328125 C-135.18790039 565.55575195 -135.95392578 565.99822266 -136.74316406 566.45410156 C-137.45698242 566.89334961 -138.17080078 567.33259766 -138.90625 567.78515625 C-139.64907227 568.20635742 -140.39189453 568.62755859 -141.15722656 569.06152344 C-143.17800624 570.71734725 -143.17800624 570.71734725 -143.38867188 573.61328125 C-143.3819043 575.30710937 -143.3819043 575.30710937 -143.375 577.03515625 C-143.38917969 578.28425781 -143.40335938 579.53335938 -143.41796875 580.8203125 C-143.41024861 583.43229194 -143.40243835 586.04427112 -143.39453125 588.65625 C-143.51061487 598.96658648 -144.71777457 608.28492142 -152.03125 616.09765625 C-152.71445312 616.85691406 -153.39765625 617.61617187 -154.1015625 618.3984375 C-163.01933594 625.98723913 -174.46452075 630.85175218 -184.80297852 636.24804688 C-202.909605 645.56288351 -202.909605 645.56288351 -219.09375 657.78515625 C-220.27497286 658.82803476 -221.45726825 659.8696997 -222.640625 660.91015625 C-223.19943359 661.40515625 -223.75824219 661.90015625 -224.33398438 662.41015625 C-227.2140732 664.92889231 -230.21372448 667.29065346 -233.22265625 669.65234375 C-235.31957005 671.31888659 -237.38065379 673.01104283 -239.43359375 674.73046875 C-256.25390043 688.71247018 -271.57123083 693.92036587 -293.49335766 692.41378975 C-294.89739392 692.32780291 -296.30254685 692.25848119 -297.70821857 692.20557976 C-302.90785727 692.0098118 -307.98498705 691.52340893 -313.14701843 690.86209106 C-326.03453845 689.59245118 -337.41371858 689.1653386 -347.94625098 697.5835613 C-354.10653614 702.86321342 -359.64688735 708.78293845 -365.14044023 714.73920965 C-368.1727775 717.98859885 -371.30301504 721.14105143 -374.42326355 724.30569458 C-380.29429435 730.28868906 -386.0770633 736.34959377 -391.83032674 742.44568837 C-399.02782499 750.06364244 -406.33432729 757.57444366 -413.64257812 765.0859375 C-421.09849322 772.75418899 -428.5437579 780.43092397 -435.91841125 788.17745972 C-437.04571544 789.35932748 -438.17305425 790.54116221 -439.3004303 791.72296143 C-441.38654029 793.91022798 -443.46550447 796.10397506 -445.54055786 798.30172729 C-446.46658182 799.27365556 -447.39285148 800.24534982 -448.31941223 801.21676636 C-449.11353925 802.05559797 -449.90766626 802.89442959 -450.72585773 803.75868034 C-455.30454242 808.01415049 -459.197252 808.23557165 -465.27734375 808.08984375 C-469.01345701 807.65683211 -470.55683457 806.72192554 -472.90625 803.78515625 C-475.18355406 799.8713105 -476.34104909 796.30579293 -475.53125 791.78515625 C-472.65063547 783.32538937 -464.02418589 776.7623761 -457.84985352 770.61523438 C-456.53158821 769.29675003 -456.53158821 769.29675003 -455.18669128 767.95162964 C-452.80055263 765.56606407 -450.41223285 763.18272407 -448.02287412 760.80038643 C-445.51734142 758.30114854 -443.01468209 755.79903655 -440.51170349 753.29724121 C-435.78237114 748.57100423 -431.05049783 743.84731991 -426.31768316 739.12457037 C-420.92506321 733.74316755 -415.53531728 728.35889013 -410.1457988 722.97438145 C-399.06912123 711.9081276 -387.98887916 700.8454499 -376.90625 689.78515625 C-389.18957127 686.31734091 -402.6420388 684.24890892 -414.90625 688.78515625 C-423.545188 693.63253498 -430.61373127 700.69621084 -437.54296875 707.68359375 C-438.25118263 708.39750574 -438.25118263 708.39750574 -438.97370386 709.12584019 C-444.86065032 715.09245091 -450.56848417 721.21747287 -456.22188008 727.40483212 C-461.58226124 733.26331883 -467.07687992 738.9911588 -472.57226562 744.72265625 C-478.17710672 750.57548804 -483.76627185 756.43940554 -489.27653503 762.38168335 C-490.52298546 763.72365028 -490.52298546 763.72365028 -491.7946167 765.09272766 C-493.3459425 766.76681405 -494.89267076 768.44517684 -496.43397522 770.12849426 C-497.11521454 770.86334549 -497.79645386 771.59819672 -498.49833679 772.35531616 C-499.08778422 772.9972611 -499.67723166 773.63920605 -500.28454113 774.30060387 C-502.77679919 776.58207849 -504.89632855 776.78440746 -508.21875 777.03515625 C-513.38540254 776.68487472 -516.3595482 775.08764198 -520.28125 771.78515625 C-522.7298078 767.26474185 -523.26765381 762.75976448 -521.90625 757.78515625 C-516.69590747 750.61322062 -509.72886787 744.49012598 -503.45353699 738.25727844 C-501.52473237 736.34139156 -499.59920397 734.42226352 -497.67443848 732.50231934 C-492.89622561 727.73738217 -488.11255184 722.9779397 -483.32904053 718.21832275 C-479.27589716 714.1850015 -475.22487108 710.14957551 -471.17655945 706.11140442 C-469.29152224 704.23278708 -467.40346902 702.35723877 -465.51525879 700.48181152 C-460.26753058 695.25631952 -455.09098973 690.03911952 -450.28607178 684.39651489 C-446.8466222 680.37991876 -443.01657783 676.71090231 -439.28125 672.97265625 C-438.44851563 672.12767578 -437.61578125 671.28269531 -436.7578125 670.41210938 C-435.94828125 669.60064453 -435.13875 668.78917969 -434.3046875 667.953125 C-433.57942871 667.22375732 -432.85416992 666.49438965 -432.10693359 665.74291992 C-426.73548747 660.96439468 -422.95189393 660.36674449 -415.99414062 660.55883789 C-415.11614052 660.57136376 -414.23814041 660.58388964 -413.33353424 660.59679508 C-410.52379586 660.64237479 -407.71538218 660.71150506 -404.90625 660.78515625 C-403.11287465 660.82560541 -401.319499 660.86604134 -399.52612305 660.90646362 C-393.84981326 661.04489882 -388.17505711 661.22440889 -382.5 661.40625 C-380.39848593 661.47136543 -378.29696391 661.53622467 -376.19543457 661.60084534 C-370.70885447 661.77031247 -365.22239995 661.94355668 -359.73596191 662.11755371 C-355.32393656 662.25681953 -350.91182795 662.39332432 -346.49971008 662.52962303 C-342.18263085 662.66314751 -337.86559406 662.7980216 -333.54855347 662.93278885 C-330.39967594 663.03048442 -327.25074578 663.12632894 -324.10180664 663.22201538 C-315.37283146 663.49070343 -306.6481348 663.77472376 -297.92578125 664.21142578 C-296.63224731 664.27233902 -295.33871338 664.33325226 -294.00598145 664.39601135 C-291.74306944 664.50654245 -289.4807416 664.63052048 -287.21960449 664.77281189 C-277.87060128 665.22092268 -270.19594192 663.48992474 -262.84375 657.47265625 C-262.31410645 657.04605713 -261.78446289 656.61945801 -261.23876953 656.17993164 C-259.44814446 654.73034135 -257.67749668 653.2583455 -255.90625 651.78515625 C-254.4995073 650.63312554 -253.0919192 649.48212655 -251.68359375 648.33203125 C-246.33112338 643.94959559 -241.0024037 639.53883332 -235.6953125 635.1015625 C-234.77492188 634.33714844 -233.85453125 633.57273437 -232.90625 632.78515625 C-231.7615625 631.82609375 -231.7615625 631.82609375 -230.59375 630.84765625 C-223.55390962 625.44498805 -216.11749013 621.17317642 -208.21875 617.16015625 C-206.19974882 616.11868277 -204.18154137 615.07566935 -202.1640625 614.03125 C-201.13700195 613.49999512 -200.10994141 612.96874023 -199.05175781 612.42138672 C-193.87680295 609.72947835 -188.72885827 606.98971268 -183.59375 604.22265625 C-182.65120361 603.72233887 -181.70865723 603.22202148 -180.73754883 602.70654297 C-179.8689624 602.23619629 -179.00037598 601.76584961 -178.10546875 601.28125 C-177.34065186 600.87060303 -176.57583496 600.45995605 -175.7878418 600.03686523 C-173.30240114 598.3834522 -172.08823392 596.68305804 -171.4921875 593.7421875 C-171.42257812 593.03449219 -171.35296875 592.32679688 -171.28125 591.59765625 C-171.1575 590.33953125 -171.03375 589.08140625 -170.90625 587.78515625 C-171.50072433 587.96087662 -172.09519867 588.13659698 -172.70768738 588.31764221 C-187.44364042 592.66509329 -202.20889279 596.88384551 -217.04760742 600.86743164 C-219.18655785 601.44428462 -221.32390666 602.02710506 -223.4597168 602.61547852 C-226.62202477 603.48621745 -229.78876442 604.33873446 -232.95703125 605.1875 C-233.89678299 605.44989975 -234.83653473 605.7122995 -235.80476379 605.98265076 C-242.89369777 607.84908374 -251.14530956 609.74397939 -257.90625 606.22265625 C-261.31136262 602.07267524 -263.25868212 598.14389154 -262.90625 592.72265625 C-262.08125756 588.45744534 -260.52710611 585.28144874 -256.90625 582.78515625 C-248.4283363 579.53043024 -239.41674755 577.57867377 -230.61267662 575.39549255 C-226.22261699 574.29976078 -221.84244869 573.16487287 -217.46039104 572.03765106 C-213.65278376 571.06047524 -209.84271999 570.09669791 -206.0246582 569.16113281 C-182.35572495 563.48983826 -182.35572495 563.48983826 -162.35488892 550.08056641 C-158.99083628 547.07234407 -154.99959916 544.87125937 -151.15625 542.53515625 C-149.55812779 541.53981024 -147.96047156 540.54371569 -146.36328125 539.546875 C-144.22024396 538.21792691 -142.0764194 536.89028686 -139.93115234 535.56494141 C-138.22725816 534.50541908 -136.535012 533.42722828 -134.84375 532.34765625 C-133.92464844 531.77144531 -133.00554688 531.19523438 -132.05859375 530.6015625 C-128.29955265 527.42923199 -127.66801818 523.26609005 -127.0546875 518.546875 C-126.92578125 517.56138672 -126.796875 516.57589844 -126.6640625 515.56054688 C-126.47457031 514.03204102 -126.47457031 514.03204102 -126.28125 512.47265625 C-126.1471875 511.46525391 -126.013125 510.45785156 -125.875 509.41992188 C-125.16060118 503.82501277 -124.75802802 498.42432902 -124.90625 492.78515625 C-125.43734375 493.41164063 -125.9684375 494.038125 -126.515625 494.68359375 C-127.22203125 495.50085938 -127.9284375 496.318125 -128.65625 497.16015625 C-129.35234375 497.97226562 -130.0484375 498.784375 -130.765625 499.62109375 C-133.77391444 502.66232067 -135.71213753 503.68986856 -140.0203886 504.03365803 C-149.33805235 503.95965767 -158.50986115 503.30166221 -167.77075195 502.2722168 C-169.29359515 502.10894071 -170.81651125 501.94634336 -172.3394928 501.78436279 C-176.42676333 501.34748969 -180.5128741 500.90057594 -184.59878182 500.45115638 C-188.02549199 500.07522922 -191.45274933 499.70442941 -194.88001508 499.33360702 C-202.96711345 498.45854909 -211.05329606 497.57537534 -219.13891602 496.68676758 C-227.45453199 495.773006 -235.77146022 494.87201132 -244.0891574 493.97740906 C-251.26229099 493.20551436 -258.43459578 492.42623708 -265.60627908 491.64098197 C-269.87605041 491.17350757 -274.14606109 490.70863666 -278.4168644 490.25067711 C-282.42919253 489.8200648 -286.44039842 489.38016166 -290.45094872 488.93330383 C-291.91544233 488.77164042 -293.38028848 488.61313167 -294.84550476 488.45815468 C-307.52403483 487.11376848 -320.2321116 485.61835304 -328.953125 475.3828125 C-337.09635304 464.19428637 -337.46071432 453.52546263 -335.83203125 440.15234375 C-335.70692673 439.07566437 -335.5818222 437.99898499 -335.45292664 436.88967896 C-335.18672545 434.62843975 -334.9149796 432.367847 -334.63793945 430.10791016 C-334.21934388 426.66504078 -333.8284591 423.21976048 -333.43945312 419.7734375 C-333.17615071 417.56620621 -332.91123137 415.35916707 -332.64453125 413.15234375 C-332.47392937 411.62080154 -332.47392937 411.62080154 -332.29988098 410.05831909 C-331.4313799 403.22496383 -329.99464969 397.2698881 -325.29296875 391.96484375 C-324.45185547 391.31902344 -324.45185547 391.31902344 -323.59375 390.66015625 C-319.40125141 387.24346581 -315.46583449 383.6169258 -311.53125 379.91015625 C-306.31205929 375.00844088 -301.04522424 370.18108743 -295.6640625 365.45703125 C-293.81702567 363.88995109 -293.81702567 363.88995109 -292.90625 361.78515625 C-302.65844627 360.08125208 -312.4120333 358.38556793 -322.167449 356.70018768 C-326.69786887 355.91723431 -331.22777311 355.13152237 -335.7565918 354.33935547 C-340.13210503 353.57411133 -344.50884953 352.81631057 -348.88652229 352.06352234 C-350.5514062 351.77590839 -352.21583978 351.48567428 -353.87978935 351.19270325 C-367.59582113 348.78050294 -379.7767264 346.73292517 -392.390625 354.26953125 C-397.24839276 358.05523992 -400.0092484 362.48164603 -402.62890625 367.97265625 C-402.96984818 368.67094543 -403.3107901 369.36923462 -403.6620636 370.08868408 C-404.38425722 371.5693234 -405.10318238 373.05156086 -405.81903076 374.53527832 C-406.87943137 376.72965812 -407.95132803 378.91797336 -409.02783203 381.10449219 C-411.22807629 385.57575119 -413.41289135 390.05441486 -415.59375 394.53515625 C-415.98498047 395.33840332 -416.37621094 396.14165039 -416.77929688 396.96923828 C-421.75665268 407.19621205 -426.64931271 417.4535754 -431.40625 427.78515625 C-432.43957856 430.00675497 -433.47344583 432.22810318 -434.5078125 434.44921875 C-436.35049385 438.40794018 -438.17500406 442.37292698 -439.96777344 446.35449219 C-441.83039692 450.48803823 -443.72983562 454.60321251 -445.64868164 458.7109375 C-446.38736153 460.30835864 -447.11405425 461.91139405 -447.8269043 463.52050781 C-453.01387681 475.20450701 -459.31413635 483.05973848 -469.112854 491.26275635 C-472.00558 493.71836893 -474.76142351 496.3179476 -477.53125 498.91015625 C-478.59816926 499.89538644 -479.66578127 500.87986747 -480.734375 501.86328125 C-481.25837891 502.34603516 -481.78238281 502.82878906 -482.32226562 503.32617188 C-483.37825521 504.29882812 -484.43424479 505.27148438 -485.49023438 506.24414062 C-491.81475462 512.07078966 -498.12335312 517.91362039 -504.40625 523.78515625 C-511.7381121 530.63697827 -519.10909957 537.44548748 -526.49023438 544.24414062 C-532.81475462 550.07078966 -539.12335312 555.91362039 -545.40625 561.78515625 C-552.7381121 568.63697827 -560.10909957 575.44548748 -567.49023438 582.24414062 C-573.81475462 588.07078966 -580.12335312 593.91362039 -586.40625 599.78515625 C-592.68461745 605.65245923 -598.98889377 611.49078961 -605.30908203 617.31298828 C-607.48442676 619.31808286 -609.65717797 621.32597722 -611.82983398 623.33398438 C-613.44774244 624.82825407 -615.06756139 626.32043183 -616.6875 627.8125 C-618.88399856 629.83689486 -621.0698478 631.87207999 -623.25 633.9140625 C-624.32289819 634.91278027 -625.39581417 635.91147892 -626.46875 636.91015625 C-627.41878906 637.79960938 -628.36882812 638.6890625 -629.34765625 639.60546875 C-633.95170267 643.52769456 -637.37795054 644.33951837 -643.359375 644.2421875 C-647.57329744 643.48600817 -650.28341076 641.08175235 -652.90625 637.78515625 C-654.57786918 632.7702987 -654.77799246 628.56654301 -652.46875 623.84765625 C-647.79063495 618.25673826 -642.62064834 613.25645093 -637.12109375 608.48046875 C-632.88231447 604.79343345 -628.79355456 600.96412778 -624.71875 597.09765625 C-619.59773278 592.25773168 -614.46725543 587.4304368 -609.28125 582.66015625 C-604.63757187 578.38826283 -600.01558688 574.09408828 -595.40625 569.78515625 C-588.07451093 562.93320378 -580.70339932 556.12482399 -573.32226562 549.32617188 C-566.35556264 542.90789324 -559.41300108 536.4648524 -552.49267578 529.99658203 C-547.95164508 525.75447235 -543.39083663 521.53450453 -538.8203125 517.32421875 C-534.66653843 513.49464168 -530.53370863 509.64306656 -526.40625 505.78515625 C-521.22926042 500.94625579 -516.03476783 496.12728574 -510.82250977 491.32641602 C-506.07146758 486.94658299 -501.34762774 482.53793436 -496.6328125 478.11914062 C-495.77623047 477.31766602 -495.77623047 477.31766602 -494.90234375 476.5 C-493.98763306 475.62686157 -493.98763306 475.62686157 -493.05444336 474.73608398 C-491.46334152 473.29109082 -489.80670321 471.91755941 -488.11938477 470.58618164 C-478.54135225 462.69105557 -474.06937851 453.50320973 -468.96875 442.34765625 C-468.09473321 440.49135841 -467.21823632 438.63622642 -466.33935547 436.78222656 C-464.20281323 432.25868262 -462.09706322 427.7217861 -460.00653076 423.17681885 C-458.5136819 419.93183728 -457.00857887 416.69264024 -455.50390625 413.453125 C-454.02270483 410.25713797 -452.54294927 407.06052191 -451.06762695 403.86181641 C-446.17702125 393.28882947 -441.18417044 382.76504578 -436.12322998 372.27258301 C-435.15766471 370.26512319 -434.19727333 368.25516522 -433.24249268 366.24255371 C-423.57785289 345.89249051 -413.96875835 332.99851954 -392.90625 323.78515625 C-379.61665735 319.48620254 -366.45728969 320.63342141 -352.9548645 323.07449341 C-350.31179455 323.5522291 -347.66542369 324.0057992 -345.01733398 324.45483398 C-339.85363589 325.33523224 -334.6942276 326.2388004 -329.53533936 327.14691162 C-318.90596218 329.01629047 -308.27326608 330.86630152 -297.63681221 332.69498253 C-293.20485508 333.45798721 -288.77557566 334.23469767 -284.34785557 335.02190113 C-281.56147833 335.514738 -278.77331531 335.99682515 -275.98460197 336.47624779 C-274.0452659 336.81312796 -272.10823177 337.16317543 -270.17127991 337.51350403 C-269.00753342 337.71151108 -267.84378693 337.90951813 -266.64477539 338.11352539 C-265.62863663 338.292267 -264.61249786 338.47100861 -263.56556702 338.65516663 C-260.59700844 338.80027223 -259.38891638 338.34344243 -256.90625 336.78515625 C-255.854375 336.18703125 -254.8025 335.58890625 -253.71875 334.97265625 C-251.59304332 333.11960854 -250.96752714 332.0939784 -250.41311646 329.29988098 C-249.87281773 320.33263284 -249.83263108 311.40621083 -249.88652992 302.4273262 C-250.09325083 255.67648027 -247.54466013 210.09110793 -240.46875 163.84765625 C-240.29713097 162.72571743 -240.12551193 161.60377861 -239.94869232 160.44784164 C-238.09790688 148.40562945 -236.17534096 136.37597167 -234.1604681 124.36011887 C-233.440688 120.05925186 -232.74150899 115.75662895 -232.08078003 111.44625854 C-231.94792823 110.58295897 -231.81507643 109.7196594 -231.67819881 108.83019924 C-231.42952414 107.20457961 -231.18413906 105.57845173 -230.94278049 103.95172977 C-229.17331657 92.39969706 -224.61752519 83.12207463 -215.29296875 75.70703125 C-205.75361442 69.28449566 -196.41251683 66.51618754 -184.90625 67.78515625 C-176.74261103 69.45950631 -169.97755967 72.01095322 -163.90625 77.78515625 C-163.21789062 78.43355469 -162.52953125 79.08195312 -161.8203125 79.75 C-153.78569784 88.00862808 -150.33370207 97.41350548 -149.90625 108.78515625 C-150.12042015 114.48715397 -150.59853355 120.15957813 -151.0859375 125.84375 C-151.22017236 127.48131344 -151.35371567 129.1189337 -151.48660278 130.75660706 C-151.76532167 134.1685456 -152.04995711 137.57991777 -152.33935547 140.9909668 C-152.71021339 145.36383788 -153.06976236 149.73754545 -153.42539787 154.11167812 C-153.70020463 157.48419792 -153.97905864 160.85637255 -154.25934219 164.22844124 C-154.39331987 165.84193209 -154.52647078 167.45549181 -154.65877914 169.06912041 C-154.84403686 171.3165243 -155.03429003 173.56344759 -155.22607422 175.81030273 C-155.33345917 177.0880809 -155.44084412 178.36585907 -155.55148315 179.68235779 C-155.90625 182.78515625 -155.90625 182.78515625 -156.90625 185.78515625 C-152.28625 186.11515625 -147.66625 186.44515625 -142.90625 186.78515625 C-131.3920294 163.08477552 -131.3920294 163.08477552 -119.9909668 139.32983398 C-116.3197648 131.6367827 -112.61583992 123.95973985 -108.90625 116.28515625 C-104.72150338 107.62707922 -100.54879567 98.9635321 -96.40625 90.28515625 C-91.69372184 80.41336517 -86.9419624 70.56072394 -82.18115234 60.7121582 C-78.7933431 53.70248746 -75.41828223 46.68688683 -72.05932617 39.66333008 C-70.57344412 36.56075897 -69.08051927 33.46166907 -67.5859375 30.36328125 C-65.91861609 26.90626621 -64.27696433 23.43973149 -62.6640625 19.95703125 C-56.60330939 7.04022258 -49.37882366 -0.76280024 -35.8125 -6.02734375 C-23.94320025 -9.52976007 -9.93665135 -7.32648025 0 0 Z M-33.90625 23.78515625 C-35.43621587 26.10238611 -36.5069737 28.03224874 -37.59375 30.53515625 C-38.26676957 31.97724459 -38.94135026 33.41860502 -39.6171875 34.859375 C-39.9790918 35.64618652 -40.34099609 36.43299805 -40.71386719 37.24365234 C-42.4633074 40.97249603 -44.32798345 44.6406495 -46.1862793 48.31616211 C-51.60451105 59.03436884 -56.83799363 69.83447486 -61.99609375 80.6796875 C-65.25049293 87.52010858 -68.54669719 94.34023276 -71.84375 101.16015625 C-78.22140716 114.35724401 -84.56935567 127.5684476 -90.90625 140.78515625 C-94.90259902 149.12024564 -98.9014383 157.45412913 -102.90625 165.78515625 C-103.19238159 166.380401 -103.47851318 166.97564575 -103.77331543 167.58892822 C-107.62475161 175.59982078 -111.48912798 183.60422769 -115.36865234 191.6015625 C-116.72354691 194.40686977 -118.06239887 197.21899625 -119.39453125 200.03515625 C-120.0855213 201.47285636 -120.77688505 202.91037696 -121.46875 204.34765625 C-122.02691406 205.52457031 -122.58507812 206.70148438 -123.16015625 207.9140625 C-125.10024049 211.10413391 -126.73778954 212.81771989 -129.90625 214.78515625 C-132.80078125 215.39453125 -132.80078125 215.39453125 -135.71875 215.53515625 C-136.69457031 215.591875 -137.67039062 215.64859375 -138.67578125 215.70703125 C-139.77986328 215.74570312 -139.77986328 215.74570312 -140.90625 215.78515625 C-140.21402344 217.04392578 -140.21402344 217.04392578 -139.5078125 218.328125 C-121.05529175 252.19697979 -106.24987457 288.54496571 -112.21875 327.84765625 C-112.33637695 328.64486084 -112.45400391 329.44206543 -112.57519531 330.26342773 C-113.54631998 336.13053576 -115.03156565 341.92603114 -119.90625 345.78515625 C-123.97497744 347.14139873 -127.65646964 347.45122063 -131.90625 346.78515625 C-134.9798047 345.07974702 -137.31204136 342.97357354 -138.90625 339.78515625 C-139.37209636 333.83748997 -138.88693687 328.09286703 -137.90625 322.22265625 C-132.29716509 288.0473032 -148.78846435 251.21702854 -167.828125 223.625 C-170.99111764 219.30263976 -174.27397912 215.08111441 -177.609375 210.890625 C-182.44745484 204.34934359 -184.57263222 200.49881393 -183.81640625 192.26953125 C-183.72613914 190.99381256 -183.72613914 190.99381256 -183.63404846 189.69232178 C-183.41584522 186.72086433 -183.16184322 183.75362291 -182.90625 180.78515625 C-182.7163912 178.42389983 -182.52747297 176.06256766 -182.33935547 173.70117188 C-181.59000118 164.44968107 -180.79546911 155.2021034 -179.98754883 145.95556641 C-178.34983858 128.13661095 -178.34983858 128.13661095 -177.50390625 110.26953125 C-177.47949463 109.12709961 -177.45508301 107.98466797 -177.42993164 106.80761719 C-178.03686459 102.95634608 -179.47999551 100.80514673 -181.90625 97.78515625 C-185.66724739 95.58532759 -188.11031704 94.78515625 -192.46875 94.78515625 C-196.59432214 95.98532269 -199.41455382 97.27732191 -201.90625 100.78515625 C-206.04622953 111.76004042 -206.78002983 124.42663162 -208.4453125 135.953125 C-208.77444791 138.20134974 -209.10407674 140.44950229 -209.43417358 142.69758606 C-210.12188955 147.38957992 -210.80570835 152.08211807 -211.48632812 156.77514648 C-212.35639509 162.77429748 -213.23307727 168.77245647 -214.11228371 174.77027416 C-214.95464716 180.51840534 -215.79391925 186.26698651 -216.6328125 192.015625 C-216.87113737 193.64653108 -216.87113737 193.64653108 -217.11427689 195.31038475 C-217.56566225 198.40353976 -218.01487471 201.49700224 -218.46337891 204.59057617 C-218.59533157 205.49314148 -218.72728424 206.39570679 -218.86323547 207.32562256 C-220.13619577 216.13836459 -221.04935874 224.77648906 -221.1875 233.68505859 C-221.20554687 234.63121033 -221.22359375 235.57736206 -221.2421875 236.55218506 C-221.28057195 238.59328254 -221.31705267 240.63441655 -221.35180664 242.67557907 C-221.4071595 245.92447619 -221.46761267 249.17324488 -221.52929688 252.42202759 C-221.65957131 259.33465622 -221.78309995 266.24739764 -221.90625 273.16015625 C-222.04929699 281.14508399 -222.19520602 289.12994832 -222.34594727 297.11473465 C-222.40460095 300.28204453 -222.45927874 303.4494053 -222.51367188 306.61679077 C-222.61608097 312.3404445 -222.74955205 318.06274354 -222.90625 323.78515625 C-222.92952614 324.701742 -222.95280228 325.61832775 -222.97678375 326.56268883 C-223.05014247 329.19316034 -223.14479472 331.82192763 -223.24707031 334.45141602 C-223.26726227 335.22790937 -223.28745422 336.00440273 -223.30825806 336.80442619 C-223.50964209 341.23357875 -224.13019743 344.08117251 -226.953125 347.5390625 C-228.86914063 349.23876953 -228.86914063 349.23876953 -230.90625 350.78515625 C-231.56302734 351.36378418 -232.21980469 351.94241211 -232.89648438 352.53857422 C-234.9394978 354.32793482 -237.03303359 356.02953469 -239.15625 357.72265625 C-240.27604248 358.62987427 -240.27604248 358.62987427 -241.41845703 359.55541992 C-242.90271942 360.75747695 -244.38914484 361.95686905 -245.87792969 363.15332031 C-248.52667734 365.28430603 -251.1541963 367.43998967 -253.78125 369.59765625 C-255.48945998 370.99364054 -257.19779103 372.38947669 -258.90625 373.78515625 C-260.73970036 375.28501321 -262.57303171 376.78501565 -264.40625 378.28515625 C-267.0852492 380.47740771 -269.76449208 382.66935093 -272.4453125 384.859375 C-278.19018273 389.55420098 -283.9255395 394.26056006 -289.65625 398.97265625 C-290.36539551 399.55490967 -291.07454102 400.13716309 -291.80517578 400.73706055 C-293.18738317 401.87444473 -294.55976048 403.02388896 -295.92163086 404.18554688 C-297.90625 405.78515625 -297.90625 405.78515625 -299.89282227 406.97851562 C-303.43153508 409.28763277 -304.69595642 411.01543713 -305.82666016 415.15405273 C-306.57845655 419.38117865 -306.9600814 423.63699459 -307.34375 427.91015625 C-307.50183957 429.37139033 -307.66262667 430.83233521 -307.82617188 432.29296875 C-308.5203896 438.72877754 -309.02888593 445.18227908 -309.25390625 451.65234375 C-309.28621338 452.57901855 -309.31852051 453.50569336 -309.35180664 454.46044922 C-309.11689592 456.87770472 -309.11689592 456.87770472 -307.29811096 458.36546326 C-304.21914213 460.19299025 -301.75090186 460.44415983 -298.19091797 460.82495117 C-297.51770162 460.900474 -296.84448526 460.97599682 -296.15086842 461.05380821 C-293.90119162 461.30309923 -291.65002616 461.53429114 -289.3984375 461.765625 C-287.78884566 461.94037898 -286.17937623 462.11626353 -284.57002258 462.29319763 C-280.21469673 462.76883673 -275.85785452 463.22891625 -271.5005455 463.68598175 C-266.95819243 464.16484725 -262.41727893 464.65698296 -257.8762207 465.14794922 C-251.29830778 465.85790563 -244.71989535 466.56291434 -238.14086628 467.26245117 C-227.03752622 468.44353783 -215.93835998 469.65921478 -204.84094238 470.89462471 C-199.71182338 471.46495231 -194.58221943 472.03089948 -189.45261002 472.59679699 C-185.37343583 473.04697865 -181.29448889 473.49903147 -177.21600342 473.95541382 C-173.39696044 474.3824115 -169.57721672 474.80247731 -165.7568264 475.21724129 C-164.36020731 475.37005624 -162.96385512 475.52533367 -161.56780434 475.68325615 C-159.6685717 475.89776798 -157.76826463 476.102703 -155.86791992 476.30712891 C-154.80651291 476.42432281 -153.7451059 476.54151672 -152.65153503 476.66226196 C-150.05940651 476.77830011 -148.31182099 476.72160532 -145.90625 475.78515625 C-143.94385651 473.76660994 -142.17657439 471.77339623 -140.40625 469.59765625 C-139.33744564 468.31753626 -138.26842915 467.03759336 -137.19921875 465.7578125 C-136.65442871 465.0992627 -136.10963867 464.44071289 -135.54833984 463.76220703 C-132.97073827 460.65881459 -130.34519571 457.5972055 -127.71875 454.53515625 C-127.26886719 454.00639893 -126.81898438 453.4776416 -126.35546875 452.93286133 C-125.42243942 451.84038395 -124.4830086 450.75334946 -123.53808594 449.67114258 C-122.31325036 448.2555449 -121.11198152 446.8195002 -119.92285156 445.3737793 C-114.59099986 439.09116354 -109.2378744 435.02569691 -102.03125 431.09765625 C-100.99895264 430.51516113 -99.96665527 429.93266602 -98.90307617 429.33251953 C-95.58106337 427.46430734 -92.24481549 425.62359874 -88.90625 423.78515625 C-86.62826287 422.51677981 -84.35092166 421.24724264 -82.07421875 419.9765625 C-77.51392223 417.43523185 -72.94820499 414.90401045 -68.37890625 412.37890625 C-61.75563262 408.71177198 -55.17858626 404.96795286 -48.61206055 401.20043945 C-42.26510141 397.5590614 -35.90282566 393.94578563 -29.53125 390.34765625 C-28.57516846 389.80737793 -27.61908691 389.26709961 -26.6340332 388.71044922 C-21.79705856 385.97818691 -16.95719163 383.25119765 -12.11328125 380.53125 C10.58575741 367.77132175 32.86021705 354.33336199 55.09375 340.78515625 C57.0637232 339.58580792 59.03377086 338.38658189 61.00390625 337.1875 C63.79304406 335.48992172 66.58211805 333.79223972 69.37084961 332.09399414 C77.54100671 327.1191 85.71771412 322.1550246 93.89501953 317.19189453 C102.72177992 311.83441806 111.54489915 306.47100805 120.36230469 301.09814453 C125.59597428 297.91009936 130.83437232 294.73002496 136.078125 291.55859375 C142.00411056 287.97442984 147.92172004 284.37677152 153.83398438 280.77001953 C155.92645757 279.49591774 158.02131244 278.22571454 160.11914062 276.96044922 C162.78490438 275.35152944 165.44049553 273.7270949 168.09375 272.09765625 C168.85848633 271.64116699 169.62322266 271.18467773 170.41113281 270.71435547 C174.81779168 267.97922289 177.59839253 265.48304864 180.09375 260.78515625 C180.81489693 255.82727112 180.01725818 252.43075775 177.34765625 248.30078125 C175.18208163 245.68320196 173.33499212 244.76364444 170.09375 243.78515625 C161.36865646 243.80285421 154.92562874 247.572525 147.40625 251.66015625 C146.11563915 252.34762646 144.8241224 253.0333985 143.53173828 253.7175293 C141.57705923 254.75237822 139.62291765 255.78808938 137.67156982 256.82920837 C131.98959784 259.85908418 126.24303436 262.74780622 120.46875 265.59765625 C113.10495418 269.25055759 105.81412583 273.01795326 98.55615234 276.8762207 C91.7896362 280.45605737 84.94838425 283.87765593 78.09375 287.28515625 C69.7942014 291.41099184 61.54941727 295.61389739 53.36865234 299.9699707 C45.42833498 304.17791429 37.37859964 308.16369455 29.3269043 312.15332031 C22.67225117 315.4600665 16.12368074 318.86172351 9.70703125 322.61328125 C5.03156887 324.70990115 1.29777806 325.15248684 -3.59375 323.66015625 C-7.22919294 321.60235836 -8.94315036 320.47578358 -10.90625 316.78515625 C-11.81386929 312.53984023 -11.97872827 308.67511796 -9.7890625 304.81640625 C-7.94758016 302.65426778 -5.96843399 300.73951362 -3.90625 298.78515625 C-2.87656274 297.74186678 -1.85080898 296.69468659 -0.828125 295.64453125 C4.29495133 290.40829611 9.48100941 285.33013878 15.0703125 280.58984375 C18.19013096 277.80730296 21.09108693 274.808316 24.02563477 271.83374023 C27.24773526 268.58482149 30.58733303 265.56056704 34.06640625 262.59375 C37.41118054 259.60987621 40.50710157 256.37895893 43.65625 253.19140625 C46.34658906 250.53555872 49.15948525 248.08380193 52.03125 245.62890625 C54.48299689 243.43719312 56.78260573 241.12448521 59.09375 238.78515625 C62.61481323 235.22115323 66.22561008 231.88211457 70.03125 228.62890625 C72.48299689 226.43719312 74.78260573 224.12448521 77.09375 221.78515625 C79.98966958 218.85397434 82.89617571 216.02112451 86.03125 213.34765625 C89.89913808 210.04237008 93.4529607 206.45520629 97.02270508 202.83666992 C100.26723701 199.5651143 103.62983678 196.5155965 107.1328125 193.52734375 C109.38006885 191.53077735 111.48269927 189.42502679 113.59375 187.28515625 C116.30178565 184.54015083 119.03544249 181.91244715 121.96875 179.41015625 C125.33932765 176.52300806 128.47878521 173.44268247 131.59375 170.28515625 C134.64712286 167.19023384 137.71698732 164.16581308 141.03125 161.34765625 C144.65735437 158.2417207 148.07404159 154.95199351 151.46875 151.59765625 C151.99331787 151.085979 152.51788574 150.57430176 153.05834961 150.04711914 C156.86951483 146.24590312 158.87390101 143.76379715 159.46875 138.41015625 C158.95168151 133.41182755 156.99115179 130.45438947 153.2421875 127.15625 C150.03891513 125.11197982 147.54304211 125.06300167 143.8046875 125.18359375 C138.4818856 126.36473423 134.97148114 130.14409415 131.09375 133.78515625 C129.44908178 135.26561829 127.8032454 136.7447836 126.15625 138.22265625 C125.33125 138.97546875 124.50625 139.72828125 123.65625 140.50390625 C121.04849475 142.82544446 118.37333856 145.0304598 115.65625 147.22265625 C110.882347 151.08340762 106.35986572 155.159527 101.84375 159.31640625 C98.28190771 162.51396921 94.56809167 165.49903968 90.84375 168.50390625 C88.01275422 170.85234593 85.29991402 173.29425527 82.59375 175.78515625 C78.14647888 179.87866716 73.54657537 183.70958124 68.84375 187.50390625 C66.01275422 189.85234593 63.29991402 192.29425527 60.59375 194.78515625 C56.14647888 198.87866716 51.54657537 202.70958124 46.84375 206.50390625 C44.01275422 208.85234593 41.29991402 211.29425527 38.59375 213.78515625 C34.14647888 217.87866716 29.54657537 221.70958124 24.84375 225.50390625 C22.01275422 227.85234593 19.29991402 230.29425527 16.59375 232.78515625 C12.14647888 236.87866716 7.54657537 240.70958124 2.84375 244.50390625 C0.01275422 246.85234593 -2.70008598 249.29425527 -5.40625 251.78515625 C-9.84765445 255.87326716 -14.43806623 259.70217416 -19.140625 263.484375 C-22.07724206 265.92740812 -24.86352932 268.49187999 -27.65625 271.09765625 C-36.74252809 279.396629 -36.74252809 279.396629 -43.46875 280.22265625 C-47.34367447 279.72948405 -49.67536427 278.98803288 -52.90625 276.78515625 C-55.51612671 273.04433297 -56.56991985 269.50609301 -56.38623047 264.90625 C-54.75246945 257.68645563 -47.89029857 251.13345767 -43.21875 245.59765625 C-41.97529449 244.10652523 -40.7331222 242.61432327 -39.4921875 241.12109375 C-38.88342773 240.38858398 -38.27466797 239.65607422 -37.64746094 238.90136719 C-35.16216871 235.88082414 -32.7462685 232.80919114 -30.34375 229.72265625 C-26.4248579 224.69296543 -22.43828371 219.72461908 -18.40625 214.78515625 C-14.35642933 209.82283381 -10.34819806 204.83361605 -6.40625 199.78515625 C-1.9242489 194.04504957 2.65331557 188.38822379 7.2578125 182.74609375 C10.74905083 178.46064007 14.19193888 174.14186172 17.59375 169.78515625 C22.0757511 164.04504957 26.65331557 158.38822379 31.2578125 152.74609375 C34.74905083 148.46064007 38.19193888 144.14186172 41.59375 139.78515625 C46.0757511 134.04504957 50.65331557 128.38822379 55.2578125 122.74609375 C58.74905083 118.46064007 62.19193888 114.14186172 65.59375 109.78515625 C69.53570046 104.73669338 73.54405922 99.74758731 77.59375 94.78515625 C82.11569114 89.24283879 86.58111645 83.66224653 90.98242188 78.02368164 C93.41175333 74.91454642 95.86097186 71.82375291 98.33984375 68.75390625 C98.8824585 68.08109619 99.42507324 67.40828613 99.98413086 66.71508789 C101.02789447 65.42308806 102.0741343 64.13308324 103.12329102 62.84545898 C108.99282284 55.72587825 108.99282284 55.72587825 110.4453125 46.77734375 C109.67701022 42.42363084 107.1631962 39.70182442 103.90625 36.91015625 C99.83969568 35.28353452 96.40404097 34.92459469 92.09375 35.78515625 C85.7214188 39.79736478 81.58505901 46.09690776 77.05078125 52.00390625 C74.18774115 55.70845764 71.16768742 59.25502841 68.09375 62.78515625 C64.12484283 67.35460075 60.29996428 72.00018795 56.59375 76.78515625 C52.41307828 82.18268054 48.04984601 87.38070635 43.57421875 92.53515625 C40.12432255 96.52883453 36.8252413 100.6133301 33.59375 104.78515625 C29.36335114 110.24400668 24.95830059 115.51707765 20.44018555 120.73950195 C15.88705623 126.00463716 11.47801492 131.37869477 7.09375 136.78515625 C5.594605 138.61918879 4.09459678 140.45251606 2.59375 142.28515625 C0.40149854 144.96415545 -1.79044468 147.64339833 -3.98046875 150.32421875 C-9.22192112 156.73797378 -14.48516142 163.13352978 -19.75268555 169.52587891 C-22.97739546 173.44007557 -26.19741366 177.35792372 -29.40625 181.28515625 C-33.22745454 185.96185435 -37.06562666 190.62440773 -40.90625 195.28515625 C-46.25312573 201.77418662 -51.58681329 208.27360472 -56.90625 214.78515625 C-59.15047174 217.52853063 -61.39488875 220.2714042 -63.65234375 223.00390625 C-65.20009181 224.91377908 -66.71158618 226.85343125 -68.19140625 228.81640625 C-72.63900647 234.61430705 -75.58469958 238.36808198 -82.90625 239.78515625 C-86.9034464 239.58529643 -90.63183473 239.21064904 -93.90625 236.78515625 C-96.52211804 232.46897399 -96.39265689 227.67734859 -95.90625 222.78515625 C-95.03607787 219.8041954 -93.77050055 217.09696342 -92.40625 214.3125 C-92.0445874 213.53841293 -91.6829248 212.76432587 -91.31030273 211.96678162 C-90.55724012 210.35688591 -89.79734501 208.75016914 -89.03076172 207.14666748 C-87.63307949 204.21148928 -86.28534182 201.25508038 -84.93943787 198.29589844 C-83.62050094 195.39923389 -82.28689452 192.50941192 -80.95388794 189.61920166 C-79.10089511 185.60144209 -77.25183976 181.58187015 -75.40234375 177.5625 C-75.02524765 176.74322021 -74.64815155 175.92394043 -74.2596283 175.07983398 C-70.80701914 167.57599818 -67.37429657 160.06315365 -63.9447937 152.54873657 C-57.94525087 139.40331673 -51.90720114 126.27621673 -45.84375 113.16015625 C-39.53254669 99.50715979 -33.2516186 85.84102567 -27.05786133 72.13427734 C-26.46314038 70.81864557 -25.86833409 69.50305236 -25.2734375 68.1875 C-24.98758286 67.55533569 -24.70172821 66.92317139 -24.4072113 66.27185059 C-22.56966051 62.21886942 -20.69146308 58.18696161 -18.7890625 54.1640625 C-18.31855469 53.15996338 -17.84804688 52.15586426 -17.36328125 51.12133789 C-16.51474164 49.31461416 -15.65638797 47.51244399 -14.78515625 45.71655273 C-12.20719267 40.19739769 -9.63563768 33.88774775 -11.52612305 27.78369141 C-13.73851586 23.38641027 -16.3179633 21.34517373 -20.90625 19.78515625 C-26.09328894 19.01261854 -29.82411331 20.65514218 -33.90625 23.78515625 Z " fill="#960C12" transform="translate(762.90625,275.21484375)"/>
</svg>
