<?xml version="1.0" encoding="UTF-8"?>
<svg version="1.1" xmlns="http://www.w3.org/2000/svg" width="1080" height="1350">
<path d="M0 0 C1.71407043 -0.0076664 1.71407043 -0.0076664 3.46276855 -0.01548767 C7.21961791 -0.02932482 10.97628257 -0.02843116 14.7331543 -0.02612305 C17.3595537 -0.03001344 19.98595249 -0.03434882 22.61235046 -0.03910828 C28.11056133 -0.04730003 33.60872076 -0.04642784 39.10693359 -0.04101562 C45.43433624 -0.03498227 51.76151616 -0.0472783 58.08888084 -0.06858569 C64.20832317 -0.08842428 70.32766246 -0.09136372 76.44713402 -0.08785057 C79.03572296 -0.08836185 81.62431561 -0.09356305 84.2128849 -0.10366249 C87.8426154 -0.11608602 91.47183928 -0.10919915 95.1015625 -0.09765625 C96.15701767 -0.10529999 97.21247284 -0.11294373 98.2999115 -0.12081909 C112.29583178 -0.02311376 123.52791199 3.93677734 133.93237305 13.3996582 C173.58836907 56.08427445 168.62713048 136.21003903 168.44049072 190.13439941 C168.42964849 194.07819891 168.4300844 198.02196464 168.43044853 201.96577644 C168.43033398 213.73611057 168.37323314 225.50501614 168.24487305 237.2746582 C168.2377253 237.98809135 168.23057755 238.70152451 168.2232132 239.43657684 C168.17872801 243.61698246 168.09556884 247.79477983 167.9831543 251.97387695 C167.96311592 253.39540825 167.96311592 253.39540825 167.94267273 254.84565735 C167.67042977 262.39496716 165.54668054 269.73260332 159.99487305 275.1496582 C154.15825831 280.49059441 148.39761932 281.61303985 140.6394043 281.57543945 C138.24487305 281.2746582 138.24487305 281.2746582 133.24487305 279.2746582 C133.24487305 223.8346582 133.24487305 168.3946582 133.24487305 111.2746582 C131.26487305 111.2746582 129.28487305 111.2746582 127.24487305 111.2746582 C127.24677165 112.13130121 127.24867025 112.98794422 127.25062639 113.8705461 C127.36253443 164.65035497 127.44831477 215.43015074 127.50019969 266.21005826 C127.50645317 272.30825194 127.51292479 278.40644537 127.51953125 284.50463867 C127.52149858 286.3256874 127.52149858 286.3256874 127.52350565 288.183525 C127.54525787 307.83693076 127.58467844 327.49026334 127.63063703 347.14362571 C127.67740668 367.31214041 127.70516954 387.4806168 127.71531552 407.64918351 C127.72217359 420.0927142 127.7438286 432.53603803 127.78445538 444.97950503 C127.81089996 453.5142752 127.81887012 462.04893854 127.81237993 470.5837467 C127.80917976 475.50677296 127.81406028 480.42943792 127.84090042 485.35239983 C127.86532057 489.86455024 127.86640404 494.37609807 127.84936752 498.88827685 C127.84726349 500.51567884 127.8535318 502.1431192 127.86928896 503.77044627 C127.98706063 516.69059359 125.87595519 527.59914259 116.63549805 537.2980957 C106.66707836 545.53995904 95.70118228 547.3091343 83.24487305 546.2746582 C73.42048402 544.4706761 66.30051615 538.63180168 60.3581543 530.7824707 C54.68836724 521.96890342 53.94537975 513.31057189 54.00436401 503.01805115 C54.00265516 501.91596929 54.00094631 500.81388744 53.99918568 499.67840916 C53.99590361 496.00266138 54.00687345 492.32709802 54.01782227 488.65136719 C54.01838666 486.00967499 54.01815724 483.36799394 54.01693726 480.7263031 C54.01589123 475.04770961 54.02213826 469.36916226 54.03341293 463.69058037 C54.04970331 455.48042567 54.05487955 447.27029316 54.05738892 439.06012405 C54.06176048 425.73798673 54.07505493 412.41587398 54.09399414 399.09375 C54.11236691 386.15657677 54.12651657 373.21941022 54.13500977 360.28222656 C54.13553521 359.48407626 54.13606066 358.68592596 54.13660203 357.86358928 C54.1392122 353.85929393 54.1417396 349.85499854 54.14422584 345.85070312 C54.16494155 312.6586701 54.2003016 279.46666786 54.24487305 246.2746582 C50.28487305 246.2746582 46.32487305 246.2746582 42.24487305 246.2746582 C42.24763843 247.63448948 42.2504038 248.99432076 42.25325298 250.39535904 C42.3182833 282.70434723 42.36772298 315.01331932 42.39806904 347.32235815 C42.40182097 351.30255203 42.40570396 355.28274578 42.40966797 359.26293945 C42.4104549 360.05529526 42.41124183 360.84765106 42.41205261 361.66401765 C42.42509213 374.47905434 42.44873793 387.2940505 42.47633144 400.10906318 C42.50442615 413.26698299 42.52105789 426.42488162 42.52713853 439.58283019 C42.53124655 447.69628605 42.54420239 455.8096273 42.56862245 463.92304787 C42.58641545 470.15358084 42.58822842 476.38402716 42.58419609 482.61458206 C42.58501947 485.16383951 42.59096077 487.71310141 42.60248947 490.26233292 C42.61749668 493.75278422 42.61379637 497.24275197 42.6056366 500.73321533 C42.61437512 501.73325348 42.62311365 502.73329163 42.63211697 503.76363397 C42.55980522 515.27023068 40.10443276 526.63302173 32.3425293 535.4309082 C24.56924394 542.9652318 15.97443034 546.71255394 5.11987305 546.8371582 C-5.24173401 546.64448621 -13.08453014 543.13872694 -20.75512695 536.2746582 C-33.42127096 523.03278038 -32.06697611 506.25593904 -32.10913086 489.11547852 C-32.12167713 486.86908049 -32.13497221 484.62268654 -32.1489563 482.376297 C-32.19080085 475.0351545 -32.21172348 467.6940122 -32.23168945 460.3527832 C-32.23979032 457.81982125 -32.24802433 455.28685972 -32.25638962 452.75389862 C-32.2900763 442.22268624 -32.3193563 431.6914782 -32.3338871 421.1602211 C-32.33770614 418.43681076 -32.34154697 415.71340045 -32.34545898 412.98999023 C-32.34642646 412.31319614 -32.34739395 411.63640205 -32.34839074 410.93909904 C-32.36502265 399.95445801 -32.41577232 388.97025025 -32.48062034 377.98579875 C-32.54676807 366.6886849 -32.58211822 355.39178358 -32.58917558 344.09445071 C-32.59387879 337.75881535 -32.61183008 331.42386866 -32.66209793 325.08841705 C-32.70857623 319.13564641 -32.71716113 313.18402025 -32.69657516 307.23111534 C-32.69558252 305.0473799 -32.70828073 302.86358878 -32.73568726 300.6800251 C-32.77103062 297.6973553 -32.75697437 294.71881634 -32.73062134 291.73614502 C-32.75255983 290.87301107 -32.77449832 290.00987711 -32.79710162 289.12058759 C-32.71724405 285.37543755 -32.53217024 283.15296732 -29.99465251 280.28475523 C-27.8465023 278.44894028 -27.8465023 278.44894028 -25.70886934 276.88831687 C-21.80744224 273.66600276 -20.31519267 268.95485536 -18.75512695 264.2746582 C-18.67061816 262.84663953 -18.64171303 261.41493779 -18.64833069 259.98443604 C-18.64984634 259.10796921 -18.651362 258.23150238 -18.65292358 257.32847595 C-18.65966095 256.36873367 -18.66639832 255.40899139 -18.67333984 254.42016602 C-18.6764064 253.40638382 -18.67947296 252.39260162 -18.68263245 251.34809875 C-18.68979934 249.13826975 -18.69919542 246.92844713 -18.71052742 244.71863556 C-18.72797116 241.18975908 -18.73823919 237.6609284 -18.7464447 234.13201904 C-18.77081171 224.09407193 -18.8056777 214.0561845 -18.85107422 204.01831055 C-19.14059294 137.64628786 -19.14059294 137.64628786 -14.75512695 111.2746582 C-16.73512695 111.2746582 -18.71512695 111.2746582 -20.75512695 111.2746582 C-21.07150727 115.52437815 -21.38244327 119.77448184 -21.69262695 124.0246582 C-21.77963867 125.19254883 -21.86665039 126.36043945 -21.95629883 127.5637207 C-22.18925973 130.77340428 -22.41039964 133.98353688 -22.61914062 137.19488525 C-22.70909739 138.57068267 -22.801827 139.94630186 -22.89746094 141.32171631 C-24.01274614 157.71211923 -23.90879105 174.12501741 -23.88549805 190.54418945 C-23.87983022 194.57087596 -23.88314056 198.59749572 -23.88898087 202.62417984 C-23.89370869 206.57278329 -23.8923513 210.52136759 -23.88793945 214.4699707 C-23.88713631 215.23857674 -23.88633316 216.00718277 -23.88550568 216.7990799 C-23.86459233 227.92097511 -23.62219447 239.01238195 -22.92874146 250.1164856 C-22.45197057 259.02490014 -23.22379067 266.42092174 -28.97387695 273.48168945 C-34.09510663 278.63661143 -39.75004847 281.36807378 -47.00512695 281.5246582 C-54.68014114 281.41123435 -60.31197428 278.71781088 -65.75512695 273.2746582 C-93.22535251 230.56024789 -73.69258012 120.00515521 -63.17358398 71.20703125 C-57.49678334 46.44431428 -48.98256619 19.58416283 -26.65356445 4.8918457 C-18.25246141 0.37332415 -9.35252298 -0.02182712 0 0 Z " fill="#960C12" transform="translate(304.755126953125,548.725341796875)"/>
<path d="M0 0 C1.71286957 3.02271101 1.41977863 5.48085305 1.0625 8.875 C-0.0234375 11.0234375 -0.0234375 11.0234375 -1.9375 12.875 C-5.125 13.66796875 -5.125 13.66796875 -8.9375 14.0625 C-10.79375 14.26939453 -10.79375 14.26939453 -12.6875 14.48046875 C-14.1038504 14.61534267 -15.52056278 14.74643738 -16.9375 14.875 C-17.91203125 14.96475098 -18.8865625 15.05450195 -19.890625 15.14697266 C-22.57267794 15.39239769 -25.25496448 15.63491554 -27.9375 15.875 C-27.92178955 16.52984375 -27.9060791 17.1846875 -27.88989258 17.859375 C-27.82702066 20.86449331 -27.78834512 23.86947263 -27.75 26.875 C-27.71229492 28.41994141 -27.71229492 28.41994141 -27.67382812 29.99609375 C-27.61309956 36.35235021 -28.09257651 41.14536387 -30.9375 46.875 C-33.91077426 48.85718284 -34.9728682 49.11592109 -38.34532166 49.54524231 C-40.91531764 50.08760983 -42.47561624 50.41828158 -44.35617256 52.27780724 C-45.54354106 54.18541347 -46.49088471 56.10166359 -47.41235352 58.15112305 C-47.96563324 59.27586281 -47.96563324 59.27586281 -48.53009033 60.42332458 C-49.73888687 62.89779736 -50.90151588 65.3913186 -52.06640625 67.88671875 C-52.90541908 69.61749744 -53.7478361 71.34662967 -54.5934906 73.07417297 C-56.81241681 77.62401118 -58.99540239 82.19007726 -61.16809082 86.762146 C-64.64137577 94.06476659 -68.15312893 101.3483923 -71.69383049 108.61853981 C-72.91834601 111.15151738 -74.11797796 113.69521002 -75.31581116 116.2408905 C-79.89153076 125.80350815 -83.89420468 132.34024236 -93.25 137.8125 C-99.94683095 139.74209536 -106.28942766 139.94408191 -112.8125 137.25 C-123.10452068 131.49039542 -130.82666595 120.28369252 -138.03515625 111.1796875 C-139.88947542 108.93318174 -141.8655595 106.91924292 -143.9375 104.875 C-140.02873419 131.7585942 -136.04661047 158.63043575 -131.9855957 185.49145508 C-131.25296994 190.3379197 -130.52307247 195.18479148 -129.79372692 200.03175068 C-129.22284805 203.82280711 -128.65023271 207.61359972 -128.0771122 211.40431786 C-127.80657132 213.19558528 -127.53665192 214.9869467 -127.26738548 216.77840614 C-126.89647431 219.24488504 -126.52313628 221.7109847 -126.14916992 224.17700195 C-126.04063187 224.90237152 -125.93209381 225.62774109 -125.82026672 226.37509155 C-125.26485979 230.09976225 -125.26485979 230.09976225 -124.40987611 233.76302701 C-123.84855282 236.27267898 -123.80953437 238.56408319 -123.80607224 241.13658428 C-123.80223109 242.20840063 -123.79838995 243.28021697 -123.7944324 244.3845126 C-123.79529888 245.56124329 -123.79616537 246.73797397 -123.79705811 247.95036316 C-123.79408698 249.20108134 -123.79111586 250.45179952 -123.7880547 251.74041826 C-123.7799874 255.21429261 -123.77819528 258.6881463 -123.77745724 262.16202891 C-123.77560619 265.90791098 -123.76805856 269.65378233 -123.76132202 273.3996582 C-123.74773974 281.59191165 -123.74171405 289.7841602 -123.73731136 297.97642303 C-123.73454857 303.09226253 -123.73031113 308.20810014 -123.72580719 313.32393837 C-123.71361429 327.48952586 -123.70331526 341.65511184 -123.6999321 355.82070446 C-123.69960275 357.18068263 -123.69960275 357.18068263 -123.69926675 358.5681351 C-123.69904847 359.4769526 -123.69883019 360.3857701 -123.6986053 361.32212752 C-123.69816183 363.16372629 -123.69771527 365.00532506 -123.69726562 366.84692383 C-123.69693348 368.21716773 -123.69693348 368.21716773 -123.69659463 369.61509333 C-123.69264741 384.41389402 -123.6751958 399.21264546 -123.6519061 414.01142713 C-123.62818529 429.20687593 -123.6157299 444.40230003 -123.61456418 459.59776765 C-123.61364779 468.1287198 -123.60790463 476.65960776 -123.58974457 485.19054222 C-123.57433369 492.45560717 -123.56922891 499.72058811 -123.57748267 506.9856663 C-123.58138579 510.69108495 -123.58047627 514.39633448 -123.56642532 518.10173225 C-123.55131692 522.12284948 -123.55956295 526.14358666 -123.57000732 530.16471863 C-123.55792272 531.91308424 -123.55792272 531.91308424 -123.54559398 533.69677037 C-123.61775588 545.57644561 -127.07845149 554.71892474 -135.0625 563.5625 C-142.31831427 570.54662079 -152.09224669 573.21139227 -161.89282227 573.26000977 C-171.31616274 573.05185239 -179.41026467 569.34378369 -186.19140625 562.81640625 C-194.89505501 553.13919499 -197.407533 543.20517571 -197.29826355 530.38424683 C-197.30082682 529.26905989 -197.3033901 528.15387295 -197.30603105 527.00489247 C-197.31094861 523.29070937 -197.29450908 519.57693824 -197.27807617 515.86279297 C-197.27722946 513.1913919 -197.27757399 510.5200156 -197.27940369 507.84861755 C-197.28097194 502.10890359 -197.27160987 496.36929244 -197.25469017 490.62960434 C-197.2302436 482.3311352 -197.22248913 474.03271545 -197.2187262 465.7342142 C-197.21217056 452.26841936 -197.19223356 438.80267922 -197.16381836 425.33691406 C-197.13625476 412.26107048 -197.11503246 399.18524179 -197.10229492 386.109375 C-197.10150675 385.30252643 -197.10071858 384.49567787 -197.09990653 383.66437934 C-197.09599124 379.61640247 -197.09220015 375.56842549 -197.08847082 371.52044845 C-197.05740257 337.97192558 -197.00436703 304.42347043 -196.9375 270.875 C-201.2275 271.205 -205.5175 271.535 -209.9375 271.875 C-209.93381283 273.26667546 -209.93012566 274.65835093 -209.92632675 276.09219837 C-209.8396383 309.15039729 -209.77370942 342.20857134 -209.73323868 375.26685889 C-209.72823604 379.33846928 -209.72305873 383.41007943 -209.71777344 387.48168945 C-209.7167242 388.29225126 -209.71567495 389.10281306 -209.71459392 389.93793734 C-209.69720316 403.05112565 -209.66567282 416.1642436 -209.62888882 429.27739022 C-209.59144235 442.73927667 -209.56925632 456.20112635 -209.56114602 469.66306275 C-209.55566592 477.96542148 -209.53837666 486.2675813 -209.50583413 494.56987878 C-209.48464046 500.26816382 -209.47831089 505.96634649 -209.48349449 511.66466806 C-209.48604879 514.94914277 -209.48000978 518.23319905 -209.4606781 521.51762772 C-209.44070094 525.08736869 -209.44558996 528.65626691 -209.45648193 532.22602844 C-209.44483057 533.25232512 -209.4331792 534.2786218 -209.42117476 535.33601838 C-209.50609512 545.67234786 -212.55945335 555.40216046 -219.9375 562.875 C-229.14586058 570.67151654 -237.4061675 573.5208466 -249.4375 573.22265625 C-259.93714947 572.17972232 -268.05570871 567.18363167 -275.1875 559.625 C-280.58048861 553.01234367 -283.09008476 544.44069645 -283.03426552 535.99164391 C-283.03048948 535.02907374 -283.02671344 534.06650357 -283.02282298 533.07476461 C-283.01356929 532.02459272 -283.0043156 530.97442082 -282.99478149 529.89242554 C-282.98913598 528.76969069 -282.98349047 527.64695585 -282.97767389 526.49019873 C-282.96473707 524.0251514 -282.94947286 521.56011549 -282.93220711 519.09509468 C-282.90417565 515.07818441 -282.88187692 511.06128245 -282.86177063 507.04432678 C-282.85467702 505.6353004 -282.84758287 504.22627401 -282.8404882 502.81724763 C-282.83692383 502.10637389 -282.83335947 501.39550015 -282.82968709 500.66308478 C-282.81835769 498.45018396 -282.80636576 496.23728751 -282.79423738 494.02439094 C-282.73544778 483.13994601 -282.70154758 472.25558423 -282.68173218 461.3710022 C-282.68025785 460.57760285 -282.67878353 459.7842035 -282.67726453 458.96676175 C-282.66372495 451.58363479 -282.65183223 444.20050557 -282.64111447 436.81737399 C-282.63368261 431.74738832 -282.62537659 426.67740471 -282.61621094 421.60742188 C-282.61470139 420.76594922 -282.61319185 419.92447656 -282.61163656 419.05750473 C-282.58927464 407.32528692 -282.53343165 395.59364606 -282.45090351 383.86170402 C-282.30845216 363.58211348 -282.23814852 343.30352383 -282.2890625 323.0234375 C-282.29087088 322.23108605 -282.29267926 321.43873461 -282.29454243 320.62237251 C-282.43430316 264.68945007 -286.85520635 210.69431872 -298.00085032 155.72378194 C-298.9375 151.07474461 -298.9375 151.07474461 -298.9375 148.875 C-289.53947746 150.6285975 -280.69247332 153.9962379 -271.71850586 157.2097168 C-269.61550886 157.96056461 -267.50918153 158.70141645 -265.40234375 159.44140625 C-263.54017212 160.10571655 -263.54017212 160.10571655 -261.64038086 160.78344727 C-252.85828003 163.37227649 -244.69895182 163.40340691 -236.22265625 159.68359375 C-225.23232558 153.61825337 -221.01886844 143.45021231 -216 132.4375 C-215.34228281 131.01276495 -214.68381942 129.58837418 -214.0246582 128.16430664 C-211.98154004 123.74092485 -209.95769465 119.30888851 -207.9375 114.875 C-207.62558716 114.19127319 -207.31367432 113.50754639 -206.99230957 112.80310059 C-204.25199426 106.79619867 -201.51649342 100.78714349 -198.79760742 94.77050781 C-195.29824986 87.03191177 -191.75661113 79.31482608 -188.16796875 71.6171875 C-187.35258517 69.86468112 -186.53723676 68.11215839 -185.72192383 66.35961914 C-184.53465408 63.80811889 -183.34544416 61.25763888 -182.14901733 58.7104187 C-172.57833798 39.75617911 -172.57833798 39.75617911 -168.83984375 19.23046875 C-168.84306641 18.38935547 -168.84628906 17.54824219 -168.84960938 16.68164062 C-168.85798828 15.81732422 -168.86636719 14.95300781 -168.875 14.0625 C-168.88176758 12.73702148 -168.88176758 12.73702148 -168.88867188 11.38476562 C-168.90040134 9.21481441 -168.91833505 7.04489828 -168.9375 4.875 C-164.68908597 6.77913024 -162.27926371 9.71177001 -159.375 13.25 C-158.30649556 14.5262555 -157.23614611 15.80096835 -156.1640625 17.07421875 C-155.35630371 18.03400635 -155.35630371 18.03400635 -154.53222656 19.01318359 C-152.17628784 21.76370237 -149.72015904 24.41480513 -147.25 27.0625 C-143.88086115 30.68704803 -140.65823053 34.3873854 -137.5625 38.25 C-133.51747838 43.28090503 -129.18073403 47.96700478 -124.75463867 52.65893555 C-120.53756438 57.15561547 -116.63628419 61.80765057 -112.83984375 66.66796875 C-111.0218582 68.77713063 -109.22850938 70.30854147 -106.9375 71.875 C-106.52090874 70.55629662 -106.52090874 70.55629662 -106.09590149 69.21095276 C-105.03851347 66.16589756 -103.82912294 63.38614881 -102.40307617 60.49975586 C-101.89882614 59.4752684 -101.39457611 58.45078094 -100.87504578 57.39524841 C-100.33233536 56.30446487 -99.78962494 55.21368134 -99.23046875 54.08984375 C-98.66805984 52.95599747 -98.10565094 51.82215118 -97.52619934 50.65394592 C-96.33726188 48.26158872 -95.14644858 45.87026494 -93.95288086 43.48022461 C-92.43035513 40.42978386 -90.92087162 37.3730862 -89.41446972 34.31465816 C-87.96620997 31.38111564 -86.50364421 28.45471896 -85.04296875 25.52734375 C-84.50633102 24.43453598 -83.9696933 23.34172821 -83.41679382 22.21580505 C-79.10855642 13.65030156 -74.46633516 7.1502818 -64.98046875 3.84448242 C-59.79165681 2.4388679 -54.46146782 2.05599203 -49.125 1.55078125 C-47.43346802 1.38499825 -47.43346802 1.38499825 -45.70776367 1.21586609 C-43.33120945 0.98493897 -40.9543268 0.75737004 -38.57714844 0.53295898 C-34.94871006 0.18856401 -31.32207729 -0.17165725 -27.6953125 -0.53320312 C-25.38030054 -0.7561678 -23.06519896 -0.97820425 -20.75 -1.19921875 C-19.13097778 -1.36160286 -19.13097778 -1.36160286 -17.47924805 -1.52726746 C-4.66258258 -2.70730601 -4.66258258 -2.70730601 0 0 Z " fill="#960C12" transform="translate(846.9375,521.125)"/>
<path d="M0 0 C0.86756983 -0.00367669 1.73513965 -0.00735338 2.62899947 -0.01114148 C5.54147031 -0.02217083 8.45390545 -0.02602088 11.36639404 -0.02983093 C13.45250054 -0.03609609 15.53860592 -0.04274294 17.62471008 -0.04974365 C24.47967757 -0.0707781 31.33464526 -0.08114463 38.18963623 -0.09111023 C40.54951743 -0.09515784 42.90939852 -0.09927477 45.26927948 -0.10346031 C56.35485883 -0.12250965 67.44043153 -0.13674192 78.5260241 -0.14507228 C91.32349676 -0.15484784 104.12079661 -0.1811769 116.91820836 -0.22157317 C126.80962879 -0.25172541 136.70099966 -0.26654027 146.59246516 -0.26985329 C152.50045485 -0.27220455 158.40825985 -0.2811753 164.31620026 -0.30631447 C169.87466224 -0.32958477 175.43281779 -0.33383246 180.99131584 -0.32355309 C183.02946682 -0.32305738 185.06763283 -0.32938786 187.10573769 -0.34310913 C189.89255433 -0.36081879 192.6782701 -0.35372639 195.46508789 -0.34057617 C196.66919906 -0.35703004 196.66919906 -0.35703004 197.8976357 -0.37381631 C204.07777138 -0.30361597 209.39241653 1.29314638 214.01718926 5.55908412 C219.56555138 11.8555732 219.78747208 17.49298815 219.79290771 25.50190735 C219.80123123 26.54317276 219.80955475 27.58443817 219.81813049 28.65725708 C219.84221669 32.09794357 219.85100107 35.53844042 219.85760498 38.97920227 C219.86657239 41.37427833 219.87569425 43.76935381 219.88496399 46.16442871 C219.90145282 51.18546408 219.90915392 56.20643278 219.91204834 61.22749329 C219.91743173 67.65353978 219.95511147 74.07895756 220.0007925 80.50482655 C220.03057089 85.45230382 220.03777208 90.39962985 220.03877449 95.34718895 C220.04297523 97.71582099 220.05540353 100.08445355 220.07629204 102.45299721 C220.10322082 105.77054889 220.09837537 109.08664503 220.08587646 112.4042511 C220.1081279 113.86414459 220.1081279 113.86414459 220.13082886 115.35353088 C220.06124778 121.85650844 218.63325833 126.09527722 214.48651123 131.14717102 C209.98757134 135.42116392 205.69165683 137.42919096 199.47088623 137.31797791 C198.48466278 137.30601883 197.49843933 137.29405975 196.48233032 137.28173828 C195.41121002 137.25876175 194.34008972 137.23578522 193.23651123 137.21211243 C190.87860599 137.17965921 188.52069554 137.14758272 186.16278076 137.11582947 C184.91321594 137.09568409 183.66365112 137.07553871 182.3762207 137.05478287 C175.72322602 136.95891555 169.06972804 136.93314349 162.41619873 136.89717102 C153.96488001 136.85069541 145.51561899 136.7832145 137.06561279 136.62275696 C130.89098755 136.50572583 124.71874037 136.44758378 118.54297256 136.45406282 C115.28505299 136.45531475 112.03439419 136.420457 108.77752686 136.33142471 C90.04368716 135.84026228 79.53409929 139.35812216 65.7275238 152.15070724 C62.19976788 155.29349948 58.36252109 157.95623439 54.48651123 160.64717102 C47.91397527 165.3410244 41.46081467 170.17372713 35.04901123 175.08467102 C28.05569423 180.43440335 21.05031398 185.76569099 13.98651123 191.02217102 C13.20348633 191.61119202 12.42046143 192.20021301 11.6137085 192.80708313 C8.02958588 195.46139049 4.79684641 197.79591515 0.48651123 199.14717102 C10.19936785 186.11149503 20.23243163 173.32672008 30.31072998 160.57295227 C30.7800293 159.97796936 31.24932861 159.38298645 31.73284912 158.76997375 C33.01681296 157.14222502 34.30237979 155.51574107 35.58807373 153.88935852 C39.63938882 148.70744387 43.5510191 143.41716748 47.48651123 138.14717102 C46.80048325 138.14130478 46.11445526 138.13543854 45.40763855 138.12939453 C38.25324062 138.0653518 31.09928797 137.98090341 23.94525146 137.88471985 C21.27691712 137.84988202 18.60887733 137.82346776 15.94036865 137.80073547 C12.0999798 137.76711687 8.26022621 137.71479461 4.42010498 137.65888977 C3.23130234 137.65249985 2.04249969 137.64610992 0.81767273 137.63952637 C-6.91455683 137.50294916 -12.24522023 136.96976658 -18.26348877 131.77217102 C-24.41766014 124.59230442 -24.66361643 118.43228297 -24.67462158 109.34321594 C-24.67958649 108.36047195 -24.68455139 107.37772797 -24.68966675 106.36520386 C-24.70425226 103.119342 -24.71108417 99.873529 -24.71661377 96.62763977 C-24.72236793 94.36708577 -24.72812563 92.10653177 -24.73388672 89.84597778 C-24.74438625 85.10742465 -24.75023586 80.36888844 -24.75372314 75.63032532 C-24.75920743 69.56765417 -24.78323868 63.50520765 -24.8116951 57.44260693 C-24.83034593 52.77308504 -24.83552838 48.10361703 -24.83705902 43.43406105 C-24.84008024 41.19941797 -24.84809077 38.96477571 -24.8612442 36.7301693 C-24.87835648 33.59971022 -24.87641169 30.46979696 -24.86993408 27.33930969 C-24.87914886 26.42215179 -24.88836365 25.5049939 -24.89785767 24.56004333 C-24.84681669 16.6597214 -23.20062135 10.0015722 -17.51348877 4.14717102 C-11.80197071 0.14910838 -6.81751135 -0.00154854 0 0 Z M34.48651123 57.14717102 C31.24411441 60.17810718 29.72693376 62.32071859 28.48651123 66.58467102 C28.48651123 72.04268699 29.99449822 75.61483333 33.79901123 79.52217102 C37.47926383 81.74744003 40.21561381 82.60398598 44.50604248 81.74092102 C48.23500071 80.57864832 50.25650684 79.38867563 52.98651123 76.52217102 C54.912705 72.18823503 55.28075818 68.81232681 54.48651123 64.14717102 C53.00962691 60.67970348 51.79670324 58.86044157 48.46307373 57.04560852 C43.29783075 55.01829472 39.64176792 54.66868223 34.48651123 57.14717102 Z M90.48651123 57.14717102 C87.16550593 60.17939325 85.27941772 62.74400945 84.48651123 67.14717102 C84.48651123 71.55384896 85.02146522 73.5317702 87.48651123 77.14717102 C90.92279018 80.58344997 93.59581454 82.04935709 98.48651123 82.14717102 C103.13336231 80.6249267 106.33551976 78.90412239 109.48651123 75.14717102 C111.21240908 71.69537533 110.84695088 67.92851063 110.48651123 64.14717102 C108.74347391 59.92718592 106.57944692 58.09618801 102.48651123 56.14717102 C98.0158526 54.61773517 94.81794749 55.36818827 90.48651123 57.14717102 Z M146.48651123 57.14717102 C143.16550593 60.17939325 141.27941772 62.74400945 140.48651123 67.14717102 C140.48651123 71.55384896 141.02146522 73.5317702 143.48651123 77.14717102 C146.92279018 80.58344997 149.59581454 82.04935709 154.48651123 82.14717102 C159.13336231 80.6249267 162.33551976 78.90412239 165.48651123 75.14717102 C167.21240908 71.69537533 166.84695088 67.92851063 166.48651123 64.14717102 C164.74347391 59.92718592 162.57944692 58.09618801 158.48651123 56.14717102 C154.0158526 54.61773517 150.81794749 55.36818827 146.48651123 57.14717102 Z " fill="#960C12" transform="translate(627.5134887695313,254.8528289794922)"/>
<path d="M0 0 C4.99127183 4.3889381 5.23986388 10.13990858 6.140625 16.37109375 C6.31253357 17.48500992 6.48444214 18.59892609 6.66156006 19.74659729 C7.02185842 22.10490355 7.37439861 24.46440633 7.71972656 26.82495117 C8.24396172 30.39636354 8.79567636 33.96268995 9.3515625 37.52929688 C13.22857191 62.89878172 10.61084099 79.12735123 -0.3125 102.25 C-1.1219398 103.98032271 -1.93035438 105.71112535 -2.73779297 107.44238281 C-3.96918652 110.08263007 -5.20104139 112.72264454 -6.43591309 115.36126709 C-9.91726078 122.80204344 -13.33327287 130.2710698 -16.72106934 137.75482178 C-17.62343374 139.74654291 -18.52857581 141.73697856 -19.43457031 143.72705078 C-22.37485161 150.18903051 -25.29789401 156.65801184 -28.18725586 163.14294434 C-29.62326116 166.36117213 -31.06852981 169.57519484 -32.51507568 172.78869629 C-33.20402533 174.32541411 -33.88876114 175.86402926 -34.56890869 177.40466309 C-39.20453436 187.90082306 -43.17239302 196.78670775 -54 202 C-60.12521037 204.37104918 -66.83753573 203.05597168 -72.828125 201.0078125 C-73.47495239 200.79035873 -74.12177979 200.57290497 -74.78820801 200.34886169 C-76.94644748 199.61961752 -79.09811633 198.8727728 -81.25 198.125 C-82.79170727 197.59804265 -84.33370864 197.07194509 -85.87597656 196.54663086 C-89.30917375 195.37443115 -92.73929146 194.19365264 -96.16796875 193.00830078 C-101.47982666 191.17448322 -106.80118245 189.36946436 -112.12408447 187.56799316 C-116.83439333 185.9718715 -121.54126994 184.36579654 -126.24743652 182.75750732 C-128.57203527 181.96439892 -130.89763222 181.1742099 -133.22424316 180.38702393 C-136.52276699 179.2692099 -139.81648304 178.13818692 -143.109375 177.00390625 C-144.09135864 176.67402206 -145.07334229 176.34413788 -146.08508301 176.0042572 C-155.46300693 172.74499495 -162.98241796 168.8506857 -168 160 C-170.66114182 153.79475687 -170.40668413 147.20763345 -168.28100586 140.84936523 C-167.33334097 138.59414627 -166.31126667 136.39154491 -165.25 134.1875 C-164.86166992 133.35726318 -164.47333984 132.52702637 -164.07324219 131.67163086 C-163.20691355 129.81969403 -162.33588361 127.96995144 -161.4609375 126.12207031 C-160.12916266 123.27602474 -158.82844999 120.41770565 -157.54180908 117.55101013 C-156.40197862 115.0125726 -155.25248359 112.47856839 -154.10192871 109.94497681 C-153.53808977 108.69908181 -152.97757053 107.45167864 -152.42053223 106.20272827 C-151.62972054 104.43365917 -150.82290322 102.67177212 -150.015625 100.91015625 C-149.55446289 99.89058838 -149.09330078 98.87102051 -148.61816406 97.82055664 C-146.80185871 94.6546279 -144.64928704 92.49095127 -142 90 C-141.56558594 89.36578125 -141.13117187 88.7315625 -140.68359375 88.078125 C-139 87 -139 87 -135.41015625 87.546875 C-133.95723741 87.93429758 -132.50813898 88.33624 -131.0625 88.75 C-110.7710233 93.98141302 -92.35059489 91.92852604 -73.8125 81.8125 C-63.76245563 75.62167267 -56.3319864 67.88279646 -50 58 C-47.9375 54.875 -47.9375 54.875 -46 53 C-42.75 52.6875 -42.75 52.6875 -40 53 C-47.78115342 72.68709886 -56.64887079 91.88148471 -65.57861328 111.06713867 C-69.87745053 120.31556943 -74.05627097 129.5938805 -78 139 C-81.95178662 138.49529381 -85.65463786 137.95528698 -89.40234375 136.58984375 C-90.14677734 136.32236328 -90.89121094 136.05488281 -91.65820312 135.77929688 C-92.41037109 135.50150391 -93.16253906 135.22371094 -93.9375 134.9375 C-94.71673828 134.65583984 -95.49597656 134.37417969 -96.29882812 134.08398438 C-98.20140125 133.39532294 -100.10101725 132.69850097 -102 132 C-102.99 134.97 -102.99 134.97 -104 138 C-97.73753275 140.61577256 -91.39323943 142.97705804 -85 145.25 C-84.245979 145.52021973 -83.49195801 145.79043945 -82.71508789 146.06884766 C-78.95004144 147.49237003 -78.95004144 147.49237003 -75 148 C-67.95558353 133.01047763 -61.06241047 117.96470303 -54.375 102.8125 C-48.1774837 88.77324387 -41.78408076 74.83381458 -35.29949951 60.92504883 C-28.70196471 46.76675193 -22.28191283 32.53721494 -15.98632812 18.2421875 C-15.67103149 17.52717575 -15.35573486 16.812164 -15.03088379 16.07548523 C-14.45050889 14.75829189 -13.87152225 13.44048545 -13.29431152 12.12190247 C-7.55899156 -0.90707899 -7.55899156 -0.90707899 0 0 Z " fill="#960C12" transform="translate(659,474)"/>
<path d="M0 0 C1.38296811 1.17525997 2.73734295 2.38492113 4.0625 3.625 C4.80757812 4.31722656 5.55265625 5.00945312 6.3203125 5.72265625 C19.49942294 19.10280397 24.58595432 36.29797214 24.48486328 54.69165039 C23.98714025 72.85528808 16.6479389 87.44125369 4.265625 100.5234375 C-8.82893249 112.89051958 -26.40147456 119.04587443 -44.24609375 118.7734375 C-58.70137591 117.97619407 -71.21803955 113.01764587 -82.9375 104.625 C-83.57171875 104.17640625 -84.2059375 103.7278125 -84.859375 103.265625 C-98.23109218 92.83813912 -105.79410299 76.09343371 -107.9375 59.625 C-109.37672496 40.55526926 -104.24224604 23.70447735 -92.625 8.625 C-68.54284097 -18.87979465 -28.66943824 -21.04087468 0 0 Z M-54.9375 59.625 C-59.83206042 65.06340047 -60.30160455 69.30308515 -60.20703125 76.421875 C-59.51192372 84.6825732 -56.29727036 90.05660556 -50.03515625 95.34765625 C-46.95177484 97.22524605 -44.39558953 97.96983682 -40.83984375 97.12890625 C-36.22259174 94.91666423 -33.55141637 92.74286126 -31.5625 87.95703125 C-29.61725677 80.69884244 -30.47160751 73.7305286 -33.54296875 66.92578125 C-36.74868398 61.63680011 -40.7216662 58.30101709 -46.625 56.5 C-50.45275902 56.64444374 -51.97848106 57.22579545 -54.9375 59.625 Z " fill="#960C12" transform="translate(589.9375,442.375)"/>
<path d="M0 0 C0.8359375 2.0390625 0.8359375 2.0390625 1.375 4.625 C2.80897858 9.93603179 4.63567985 13.55784791 9 17 C15.23160583 20.46543096 21.26890696 22.3199352 28.32421875 20.3515625 C30.57288887 19.62011103 32.78550785 18.82828873 35 18 C35.99 17.67 36.98 17.34 38 17 C38.75205962 35.57865793 34.34350661 52.65976792 21.5625 66.5625 C9.74193568 78.80537166 -5.28503823 87.61879181 -22.6484375 88.43359375 C-24.55714957 88.45692081 -26.46625352 88.45781782 -28.375 88.4375 C-29.38087158 88.42992676 -30.38674316 88.42235352 -31.4230957 88.41455078 C-39.27933224 88.24088327 -45.75608581 87.19848205 -53 84 C-54.51400391 83.36384766 -54.51400391 83.36384766 -56.05859375 82.71484375 C-73.16283645 74.89264868 -84.35088946 61.41129266 -91 44 C-95.19027149 32.68309252 -95.58488532 18.78868288 -93 7 C-88.55291355 6.56911927 -84.10548654 6.14199629 -79.65771484 5.71826172 C-78.14654947 5.57377168 -76.63547968 5.42827824 -75.12451172 5.28173828 C-72.94523441 5.07056243 -70.76563214 4.86306841 -68.5859375 4.65625 C-67.2767334 4.53056641 -65.9675293 4.40488281 -64.61865234 4.27539062 C-61.39269223 4.02988509 -58.23315392 3.94749953 -55 4 C-54.79697266 4.94359375 -54.79697266 4.94359375 -54.58984375 5.90625 C-52.89362514 12.65049645 -50.53236952 17.62439865 -45 22 C-38.46288965 25.58454842 -32.24185856 27.03677272 -25 25 C-19.40671167 23.18012494 -15.61751366 20.33393651 -12.25390625 15.50390625 C-9.81673236 10.63715092 -8.92594815 5.32826301 -8 0 C-5.01130104 -0.96065324 -2.90744598 -1.34856005 0 0 Z M-54 48 C-54.66 48.99 -55.32 49.98 -56 51 C-53.55757391 52.81882794 -51.84683311 54.06678399 -49 55 C-46.65895003 54.60061942 -44.7603606 53.87390877 -42.6015625 52.89453125 C-35.86711865 50.57893419 -28.4171153 50.85844931 -21.37109375 50.90234375 C-20.49598648 50.9037587 -19.62087921 50.90517365 -18.71925354 50.90663147 C-15.95863238 50.91217281 -13.19809612 50.92471388 -10.4375 50.9375 C-8.55143347 50.9425226 -6.66536566 50.94708417 -4.77929688 50.95117188 C-0.18616583 50.96212293 4.40690275 50.97934616 9 51 C10.35439668 48.29120665 10.06501451 45.99066732 10 43 C-22.82143546 39.738337 -22.82143546 39.738337 -54 48 Z " fill="#960C12" transform="translate(381,445)"/>
<path d="M0 0 C1.9453125 1.59375 1.9453125 1.59375 4.5078125 4.21875 C4.5078125 4.87875 4.5078125 5.53875 4.5078125 6.21875 C3.92773438 6.42628906 3.34765625 6.63382812 2.75 6.84765625 C-3.17494325 9.1843913 -6.99524713 11.84596745 -10.4921875 17.21875 C-10.9046875 18.3325 -11.3171875 19.44625 -11.7421875 20.59375 C-13.4921875 23.21875 -13.4921875 23.21875 -15.68359375 24.09375 C-18.53939088 24.63852203 -20.63669863 24.79434461 -23.4921875 24.21875 C-25.35916846 22.43642927 -26.51857705 20.55161542 -27.88671875 18.3671875 C-31.36749989 13.70920787 -36.64561781 11.6717956 -42.265625 10.77734375 C-49.4983448 10.4633181 -55.8156299 11.96034165 -61.3125 16.83203125 C-64.60541532 20.41924093 -65.99563438 23.56763187 -67.4921875 28.21875 C-71.4751812 28.65141727 -75.45873823 29.07843625 -79.44287109 29.50048828 C-80.7949206 29.64448784 -82.14681378 29.78996391 -83.49853516 29.93701172 C-90.51942663 30.69981367 -97.42599269 31.43506209 -104.4921875 31.21875 C-98.37219088 13.69503297 -87.0640302 0.62733175 -70.4921875 -7.78125 C-46.33528709 -18.18984119 -21.22241533 -15.16837209 0 0 Z " fill="#960C12" transform="translate(394.4921875,414.78125)"/>
<path d="M0 0 C5.68949554 2.88794351 7.91362118 7.50258229 9.86328125 13.3515625 C10.45193704 19.35585159 9.1560592 23.42848407 5.86328125 28.3515625 C2.53349224 31.68135151 -0.52526171 33.39446764 -5.13671875 34.3515625 C-10.61183718 34.3515625 -15.90242977 34.10193274 -20.13671875 30.3515625 C-24.9073913 25.07731896 -25.87689059 20.14521367 -25.55859375 13.125 C-24.77774721 7.99165702 -22.31045541 5.41078826 -18.57421875 2.0390625 C-13.27223962 -1.63153844 -6.11042805 -1.85435294 0 0 Z " fill="#960C12" transform="translate(357.13671875,431.6484375)"/>
<path d="M0 0 C4.70310898 2.69127249 8.12979964 5.85503807 9.70703125 11.12890625 C10.44657889 16.42129403 10.41908309 20.65002934 8.08203125 25.50390625 C3.81056266 30.22500311 0.15708642 33.85831369 -6.48046875 34.37890625 C-12.29515593 33.99761529 -17.18158509 32.78350088 -21.16796875 28.31640625 C-24.85017958 22.79309001 -25.71700178 18.71510192 -24.76171875 12.234375 C-23.47591687 6.45898157 -19.82642376 3.5289975 -15.29296875 0.12890625 C-10.27434464 -1.54396845 -5.01336757 -1.90456724 0 0 Z " fill="#960C12" transform="translate(411.29296875,426.87109375)"/>
</svg>
