<?xml version="1.0" encoding="UTF-8"?>
<svg version="1.1" xmlns="http://www.w3.org/2000/svg" width="1080" height="1350">
<path d="M0 0 C13.40038649 10.14249436 22.52780568 24.77507224 24.8671875 41.484375 C25.50305892 47.37009472 25.65995549 53.26762503 25.7421875 59.18359375 C25.76466553 60.24618408 25.78714355 61.30877441 25.81030273 62.40356445 C25.79052086 68.82861467 25.09547233 73.86355772 21.3046875 79.18359375 C16.17958982 83.94261302 12.89114599 84.47872856 6.06640625 84.3984375 C1.0788941 84.0104415 -1.66548353 82.29692236 -5.0078125 78.68359375 C-7.44897112 75.06706246 -7.82432973 72.32272962 -7.90625 68.0625 C-7.65968691 48.33294445 -7.65968691 48.33294445 -15.71484375 30.94140625 C-22.40539368 25.00304832 -29.96926147 22.21891197 -38.875 22.73046875 C-46.28836881 23.92153632 -52.73474085 27.52725361 -57.6953125 33.18359375 C-61.70409239 39.60495243 -62.84850462 45.26108747 -62.90063477 52.78588867 C-62.91053436 53.6641481 -62.92043396 54.54240753 -62.93063354 55.44728088 C-62.96224369 58.35284725 -62.98700411 61.25842997 -63.01171875 64.1640625 C-63.03228869 66.17760139 -63.05328518 68.19113597 -63.07469177 70.20466614 C-63.12990827 75.50646472 -63.17931945 80.80830224 -63.22753906 86.11016846 C-63.27775713 91.51944447 -63.33344161 96.92866388 -63.38867188 102.33789062 C-63.4962483 112.95307665 -63.59769446 123.56831181 -63.6953125 134.18359375 C-62.54258095 134.16693916 -62.54258095 134.16693916 -61.36656189 134.14994812 C-54.05736684 134.04897795 -46.74851879 133.97324483 -39.43880367 133.92453289 C-35.68244662 133.89864589 -31.92667471 133.86364189 -28.1706543 133.80639648 C-24.5330859 133.75131528 -20.89607342 133.72201701 -17.25811958 133.70920753 C-15.88325836 133.70010168 -14.50842103 133.68232863 -13.13380241 133.65494347 C1.01169958 133.38483027 13.76421166 136.2172179 24.3046875 146.18359375 C25.2328125 147.04984375 26.1609375 147.91609375 27.1171875 148.80859375 C37.59225085 160.18151968 40.93662989 172.17558919 40.61669922 187.30389404 C40.23846175 195.33537114 38.29316379 203.00968753 36.3671875 210.78515625 C35.96185889 212.48536938 35.55832973 214.18601238 35.15649414 215.88705444 C34.10895873 220.30040157 33.03756855 224.70759442 31.96057129 229.11383057 C30.85987931 233.63613204 29.78258262 238.16399858 28.703125 242.69140625 C26.59277824 251.527637 24.45711049 260.3575252 22.3046875 269.18359375 C23.04846397 268.76258392 23.04846397 268.76258392 23.80726624 268.33306885 C42.06647933 258.02277554 42.06647933 258.02277554 49.7421875 254.93359375 C50.88880859 254.46083008 50.88880859 254.46083008 52.05859375 253.97851562 C73.87710701 245.18359375 73.87710701 245.18359375 81.3046875 245.18359375 C81.43423828 244.11044922 81.43423828 244.11044922 81.56640625 243.015625 C84.7212857 220.64203035 96.68949709 202.90489996 114.3046875 189.18359375 C131.90198452 176.8114327 149.93872405 173.96514839 170.8984375 174.11328125 C172.3004537 174.11893683 173.70247211 174.12406767 175.10449219 174.12866211 C178.50461497 174.14182954 181.90462173 174.1602756 185.3046875 174.18359375 C185.29580505 172.93824356 185.28692261 171.69289337 185.277771 170.4098053 C185.19656696 158.65445989 185.13666523 146.89917165 185.09743881 135.14360905 C185.07659391 129.10042157 185.04833238 123.05746113 185.00292969 117.0144043 C184.9593622 111.17887081 184.9355271 105.34355525 184.92517853 99.50787163 C184.91780678 97.28519703 184.90341152 95.06253391 184.88176727 92.83995247 C184.85258897 89.71864481 184.8487376 86.59822947 184.85058594 83.47680664 C184.83620483 82.56473953 184.82182373 81.65267242 184.80700684 80.71296692 C184.85469351 73.23559128 187.11557857 67.75103052 190.9921875 61.43359375 C196.63243544 55.94578494 203.30684762 53.07085044 211.12895203 53.04315186 C212.09748611 53.03744171 213.0660202 53.03173157 214.06390381 53.02584839 C215.12006897 53.02473053 216.17623413 53.02361267 217.2644043 53.02246094 C218.38194595 53.01749603 219.49948761 53.01253113 220.65089417 53.00741577 C224.35190444 52.9927988 228.05287184 52.98599236 231.75390625 52.98046875 C234.32737733 52.97471627 236.9008484 52.96895855 239.47431946 52.9631958 C244.18368654 52.95402979 248.89303651 52.94772939 253.60241097 52.94469905 C260.517019 52.94022444 267.43142876 52.92270207 274.34597653 52.89369845 C280.3484753 52.86940141 286.35088091 52.86175101 292.35343361 52.8600235 C294.89985037 52.85700152 297.44626639 52.84898839 299.99265099 52.83583832 C303.56125139 52.81872709 307.12937292 52.82067096 310.69799805 52.82714844 C311.74404205 52.81793365 312.79008606 52.80871887 313.86782837 52.79922485 C321.76962181 52.8440089 329.4940256 53.88035172 335.6171875 59.30859375 C336.23207031 59.82679688 336.84695313 60.345 337.48046875 60.87890625 C342.74797511 67.5337858 343.88810545 74.28311752 343.75878906 82.56860352 C343.75937317 83.56478195 343.75995728 84.56096039 343.76055908 85.58732605 C343.75779259 88.85024981 343.72676812 92.11223762 343.6953125 95.375 C343.68784502 97.648997 343.68215449 99.92300047 343.67816162 102.19700623 C343.66294534 108.15982062 343.6236978 114.12224054 343.5793457 120.0848999 C343.53830661 126.17829046 343.52013217 132.27174523 343.5 138.36523438 C343.45719987 150.30486009 343.38899699 162.24419401 343.3046875 174.18359375 C344.77353142 174.17475662 344.77353142 174.17475662 346.27204895 174.16574097 C349.94765541 174.14518981 353.62325692 174.13239434 357.29890442 174.12179565 C358.88177854 174.11618088 360.46464694 174.1085364 362.04750061 174.09872437 C389.00425647 173.93595294 410.62448383 179.94431431 430.4765625 199.1953125 C444.11637457 213.12661309 452.40947711 233.26750275 452.43840027 252.74241638 C452.44266525 254.04474213 452.44693024 255.34706787 452.45132446 256.68885803 C452.450975 258.11996463 452.4505135 259.5510712 452.44995117 260.98217773 C452.45294539 262.49878014 452.45634852 264.01538178 452.46012878 265.53198242 C452.46894506 269.64147429 452.47130587 273.75094532 452.47194457 277.86044574 C452.47265628 280.42979889 452.47479287 282.99914677 452.47744179 285.56849861 C452.4866865 294.53728699 452.49077766 303.50606053 452.48999023 312.47485352 C452.48938928 320.82728585 452.49994678 329.17965363 452.5157339 337.53206962 C452.52881819 344.71101225 452.53417378 351.88993379 452.53353482 359.06888825 C452.53328015 363.35311757 452.53611459 367.63728947 452.54671288 371.92150688 C452.55640912 375.95083282 452.55646259 379.98004659 452.54919624 384.00937653 C452.54815239 385.48515805 452.55050147 386.96094661 452.5565567 388.43671608 C452.5643073 390.45705893 452.55841867 392.47744019 452.55192566 394.49778748 C452.55274281 396.19095423 452.55274281 396.19095423 452.55357647 397.91832638 C452.27146932 401.61939549 451.4315945 404.65579902 450.3046875 408.18359375 C451.9134375 408.09078125 451.9134375 408.09078125 453.5546875 407.99609375 C466.56279077 408.06491969 477.77269783 413.54497776 487.1171875 422.30859375 C498.21853781 433.94915251 501.47087343 448.01496592 501.43840027 463.64419556 C501.4417986 464.86469748 501.4417986 464.86469748 501.44526559 466.10985601 C501.45155826 468.81625338 501.45077928 471.52260006 501.44995117 474.22900391 C501.45294568 476.17788762 501.45634888 478.12677073 501.46012878 480.07565308 C501.46894479 485.35694584 501.47130593 490.63822239 501.47194457 495.91952181 C501.47265661 499.22430749 501.47479387 502.52908908 501.47744179 505.83387375 C501.48668833 517.37834687 501.49077767 528.92280846 501.48999023 540.46728516 C501.48939011 551.20309823 501.4999309 561.93886094 501.5157339 572.67466128 C501.52884251 581.9114854 501.53417272 591.14829313 501.53353482 600.38512647 C501.53328075 605.89300583 501.53608163 611.40084044 501.54671288 616.90871048 C501.55644949 622.09454977 501.55643516 627.28030206 501.54919624 632.46614456 C501.54815718 634.35986459 501.55047254 636.25359019 501.5565567 638.14730072 C501.63613378 664.65172805 497.04713202 688.13671301 477.94921875 707.5703125 C477.07652344 708.43269531 476.20382812 709.29507813 475.3046875 710.18359375 C474.64855469 710.85003906 473.99242187 711.51648437 473.31640625 712.203125 C452.90361909 731.566861 425.74610725 732.49249374 399.27905273 732.43756104 C396.85141373 732.43986818 394.42377543 732.4430464 391.99613857 732.44701552 C386.73799224 732.45360416 381.47988331 732.45404296 376.22173691 732.4489212 C368.40240907 732.44132557 360.58311565 732.44523958 352.76378801 732.45133782 C338.79479609 732.46184736 324.8258225 732.46096528 310.85682884 732.45517999 C298.63207949 732.45014216 286.40733685 732.44883861 274.18258667 732.45122528 C272.96464076 732.45145444 272.96464076 732.45145444 271.72208988 732.45168822 C268.42578319 732.45231093 265.1294765 732.45294774 261.83316981 732.45360775 C230.93265251 732.4597211 200.03214686 732.45418621 169.13163136 732.44341395 C141.6987506 732.43392326 114.26588841 732.43477254 86.83300781 732.44433594 C55.98778149 732.45505306 25.14256546 732.45928748 -5.70266247 732.45311141 C-8.99284553 732.45247001 -12.2830286 732.45184433 -15.57321167 732.45122528 C-16.78833712 732.45098805 -16.78833712 732.45098805 -18.02801055 732.45074602 C-30.24288918 732.44847432 -42.45776035 732.45112557 -54.67263794 732.45618439 C-68.5662089 732.46190986 -82.4597587 732.4604584 -96.35332704 732.4496229 C-104.12206931 732.44376341 -111.89076574 732.44334802 -119.65950679 732.45091525 C-125.46861327 732.45594803 -131.27767269 732.45046384 -137.08677185 732.4409661 C-139.43045031 732.43873875 -141.77413494 732.43985335 -144.11780941 732.44471768 C-172.0223679 732.49817473 -197.3047412 729.34977772 -218.0078125 708.97265625 C-232.7185056 693.70603579 -242.05758197 674.33652999 -241.95600891 652.92407227 C-241.95983446 652.04870347 -241.96366001 651.17333467 -241.96760148 650.27143955 C-241.97783534 647.36839678 -241.9739578 644.46555535 -241.9699707 641.5625 C-241.97432243 639.46890075 -241.97950712 637.37530308 -241.98545837 635.28170776 C-241.99880815 629.61650185 -241.99943166 623.95136282 -241.99689507 618.28614426 C-241.9958229 613.549544 -242.0007149 608.81295713 -242.0055005 604.07635975 C-242.0165812 592.90018009 -242.01704079 581.72403405 -242.01098633 570.54785156 C-242.00494338 559.03140741 -242.01726907 547.51508533 -242.0385564 535.99866199 C-242.05618532 526.09604268 -242.06217182 516.19346218 -242.05891865 506.29082775 C-242.05710815 500.38290776 -242.05971911 494.47507492 -242.07363319 488.56716919 C-242.0862283 483.01193034 -242.08425139 477.45688166 -242.07122231 471.90164566 C-242.06886088 469.86756449 -242.0715756 467.83346987 -242.07984543 465.79940414 C-242.15410796 446.10818622 -242.15410796 446.10818622 -238.6953125 438.18359375 C-238.26992187 437.17167969 -237.84453125 436.15976562 -237.40625 435.1171875 C-231.2571861 423.62814706 -221.84156842 414.35312881 -209.15614319 410.39039612 C-201.83204827 408.42813619 -195.14768974 407.77714336 -187.5859375 407.890625 C-185.94670319 407.89699226 -185.94670319 407.89699226 -184.27435303 407.90348816 C-180.83107401 407.92009606 -177.38841047 407.95771373 -173.9453125 407.99609375 C-171.59115437 408.01116373 -169.23698694 408.02484805 -166.8828125 408.03710938 C-161.15344073 408.06994061 -155.42442061 408.1199573 -149.6953125 408.18359375 C-149.91689026 407.31135666 -150.13846802 406.43911957 -150.36676025 405.54045105 C-156.45324466 381.52502987 -162.20495006 357.44291777 -167.79411316 333.30735779 C-169.84010082 324.47471445 -171.89214869 315.64347754 -173.9453125 306.8125 C-174.17832817 305.80978436 -174.41134384 304.80706871 -174.65142059 303.77396774 C-178.03566195 289.21751933 -181.47254513 274.6743117 -184.9500351 260.13986778 C-185.68961145 257.04727686 -186.4277487 253.95434626 -187.16534424 250.86128235 C-187.4053352 249.85500258 -187.64532616 248.84872282 -187.89258957 247.81194973 C-188.37166192 245.80312893 -188.8506891 243.79429737 -189.32966995 241.78545475 C-190.72141614 235.95279038 -192.12286065 230.12256112 -193.53124237 224.29389286 C-194.40508437 220.66743101 -195.26977409 217.03882995 -196.13214111 213.4096241 C-196.53066649 211.74106948 -196.93300877 210.07342063 -197.33966064 208.40682793 C-201.71837263 190.4473358 -204.44052901 173.44628968 -194.4140625 156.7109375 C-186.01623803 144.36231833 -175.269295 137.41075716 -160.6953125 134.18359375 C-155.59837398 133.69819965 -150.53920102 133.71211737 -145.42578125 133.79296875 C-144.00947377 133.80045321 -142.59315576 133.80613567 -141.17683411 133.81011963 C-137.49581996 133.82520319 -133.81546349 133.86432881 -130.13470459 133.90893555 C-126.36007579 133.95026771 -122.585338 133.96821058 -118.81054688 133.98828125 C-111.43850616 134.03084574 -104.06700238 134.09887879 -96.6953125 134.18359375 C-96.70419495 133.05179184 -96.71307739 131.91998993 -96.722229 130.75389099 C-96.80370192 120.03055078 -96.86346244 109.30727426 -96.90256119 98.5836935 C-96.92333875 93.07202074 -96.95147467 87.56060003 -96.99707031 82.04907227 C-97.04088132 76.71924971 -97.06452332 71.38966792 -97.07482147 66.05967903 C-97.08215007 64.037336 -97.09645898 62.01500451 -97.11823273 59.99276543 C-97.33539277 38.96684742 -94.049452 22.28829485 -79.0078125 6.43359375 C-57.33959807 -14.64899326 -24.88670101 -16.77147242 0 0 Z M218.3046875 86.18359375 C218.3046875 115.22359375 218.3046875 144.26359375 218.3046875 174.18359375 C248.6646875 174.18359375 279.0246875 174.18359375 310.3046875 174.18359375 C310.3046875 145.14359375 310.3046875 116.10359375 310.3046875 86.18359375 C279.9446875 86.18359375 249.5846875 86.18359375 218.3046875 86.18359375 Z M-166.1953125 173.74609375 C-169.88718535 182.2066357 -167.2316669 191.72565127 -165.13525391 200.34350586 C-164.8614751 201.51187611 -164.58769629 202.68024635 -164.30562115 203.88402176 C-163.55485028 207.07716211 -162.79327621 210.26748484 -162.02680039 213.45688415 C-161.21127922 216.86230498 -160.41010619 220.27110144 -159.60722351 223.67951965 C-158.06000679 230.23804103 -156.5001176 236.79348021 -154.93551618 243.34787351 C-153.14007232 250.87126715 -151.35682178 258.39753264 -149.57462084 265.9240725 C-147.27101109 275.65210801 -144.96502945 285.37957382 -142.65098572 295.10513306 C-138.87696187 310.96810098 -135.1248644 326.83573386 -131.42851257 342.71702766 C-130.18520899 348.05611574 -128.93671787 353.39399341 -127.68854141 358.73194408 C-126.76168746 362.69778316 -125.83797112 366.66429759 -124.92144775 370.63253784 C-124.08710203 374.24408519 -123.24355065 377.85335179 -122.39252663 381.46100426 C-121.95518605 383.32589567 -121.5279492 385.19314795 -121.10124207 387.0605011 C-118.74080354 398.29506103 -118.74080354 398.29506103 -111.50756836 406.65917969 C-107.30416644 408.69159994 -103.29251979 408.69348976 -98.69921875 408.57421875 C-97.86567368 408.56855896 -97.0321286 408.56289917 -96.17332458 408.55706787 C-93.53421418 408.5348357 -90.8965063 408.4846668 -88.2578125 408.43359375 C-86.45900411 408.41351162 -84.66017424 408.39526386 -82.86132812 408.37890625 C-78.47212317 408.33501446 -74.08395489 408.26608106 -69.6953125 408.18359375 C-69.54497559 407.52053223 -69.39463867 406.8574707 -69.23974609 406.17431641 C-61.17578146 370.88913781 -48.73961158 336.34564563 -23.21386719 309.58178711 C-20.06377457 305.78119375 -19.18657893 301.79775878 -18.14453125 297.05078125 C-17.92845718 296.13358307 -17.71238312 295.21638489 -17.48976135 294.27139282 C-16.77118207 291.20399038 -16.07690093 288.13162285 -15.3828125 285.05859375 C-14.87947613 282.88310517 -14.3745526 280.70798328 -13.86816406 278.53320312 C-13.04736425 275.00339546 -12.22887724 271.47312825 -11.41714478 267.94122314 C-9.30486205 258.75396451 -7.12331859 249.58474934 -4.91460609 240.42023087 C-3.80142504 235.79623986 -2.69529615 231.17055666 -1.58907223 226.54489708 C-0.68019994 222.74591173 0.23185754 218.9477542 1.15127563 215.15130615 C2.02514873 211.54075948 2.88771599 207.92768009 3.74238777 204.31254196 C4.21114604 202.34214586 4.6912519 200.37446006 5.17173767 198.40689087 C8.2085436 186.26391708 8.2085436 186.26391708 5.8046875 174.30859375 C3.08641955 170.50439311 -0.2841665 168.57075524 -4.6953125 167.18359375 C-9.57270844 166.60760456 -14.43399049 166.63566547 -19.33789062 166.66601562 C-20.81376331 166.66058825 -22.28963057 166.65346215 -23.76548767 166.64477539 C-27.75522961 166.62661197 -31.74455565 166.6335804 -35.73430443 166.64629173 C-39.91992648 166.65645579 -44.10551417 166.64701663 -48.2911377 166.64074707 C-55.3186682 166.63348054 -62.34603026 166.64303216 -69.37353516 166.66210938 C-77.4852519 166.68387628 -85.59656641 166.6768242 -93.70827341 166.65480375 C-100.68688083 166.63662131 -107.66536753 166.63410529 -114.64399099 166.64455843 C-118.80586427 166.65077777 -122.96754882 166.65167216 -127.12940979 166.63841248 C-131.04319036 166.626813 -134.95645499 166.63495368 -138.87018013 166.6579895 C-140.3019939 166.66325485 -141.73385148 166.6618002 -143.16564751 166.65293884 C-152.43344578 166.60089169 -159.41593526 166.79723208 -166.1953125 173.74609375 Z M124.13671875 225.02734375 C120.65879176 229.12076741 117.3046875 233.6959098 117.3046875 239.18359375 C118.47149048 239.1976123 118.47149048 239.1976123 119.66186523 239.21191406 C174.68991138 240.03582022 223.54155568 255.37058791 265.3046875 292.18359375 C266.14773438 292.90417969 266.99078125 293.62476563 267.859375 294.3671875 C272.81079943 298.64341769 277.15372597 303.13271674 281.3046875 308.18359375 C281.73652344 308.69776855 282.16835938 309.21194336 282.61328125 309.74169922 C306.13168265 337.79328842 319.54999968 369.39318502 327.67553711 404.83300781 C328.07885919 407.12451085 328.07885919 407.12451085 329.3046875 408.18359375 C331.69600591 408.29983513 334.05885089 408.35157519 336.45141602 408.3605957 C337.5735273 408.3704525 337.5735273 408.3704525 338.7183075 408.38050842 C341.20673718 408.40029852 343.69510617 408.41192058 346.18359375 408.421875 C347.03323133 408.42595053 347.88286892 408.43002605 348.7582531 408.43422508 C353.26078933 408.45511658 357.76329486 408.46940125 362.26586914 408.47875977 C366.90734318 408.48979186 371.5483335 408.52414547 376.18963718 408.56393147 C379.7645707 408.59015049 383.33939035 408.59845659 386.91441154 408.60204124 C388.62435079 408.60689865 390.33428524 408.61848847 392.04413033 408.63707924 C404.41046765 409.13487076 404.41046765 409.13487076 415.3046875 404.18359375 C420.04504567 397.03299271 419.86966818 390.3224717 419.80639648 381.95581055 C419.81018493 380.52421539 419.8156893 379.09262392 419.82276917 377.66104126 C419.8366765 373.7909078 419.82558587 369.92122132 419.80905795 366.05111289 C419.79514848 361.98701919 419.80167453 357.9229499 419.80519104 353.85884094 C419.80788945 347.03220472 419.79445266 340.20574467 419.77124023 333.37915039 C419.74466479 325.509526 419.7428746 317.64019666 419.7546286 309.7705428 C419.76544681 302.17582059 419.75918565 294.58120411 419.74507332 286.98649025 C419.73934524 283.76626876 419.73937107 280.54612547 419.74413872 277.32590294 C419.74894726 273.52462338 419.73864833 269.72366247 419.71718407 265.92244339 C419.71166718 264.53543103 419.71110338 263.14838772 419.71613693 261.76137352 C419.76728108 245.63339283 416.02097566 232.32304309 404.75390625 220.44140625 C393.02950147 209.63326277 378.66968318 207.01959458 363.29949951 207.04988098 C362.4393525 207.04761542 361.57920548 207.04534987 360.6929934 207.04301566 C357.83535401 207.03672881 354.97776269 207.03750158 352.12011719 207.03833008 C350.06109049 207.03533526 348.00206435 207.03193199 345.94303894 207.02815247 C340.36642758 207.01934099 334.78983157 207.01697555 329.21321392 207.01633668 C325.72433756 207.01562455 322.23546506 207.01348713 318.74658966 207.01083946 C306.56136325 207.0015954 294.37614777 206.99750339 282.19091797 206.99829102 C270.85464992 206.99889152 259.51842949 206.98834262 248.18217349 206.97254735 C238.43069955 206.95944718 228.67924112 206.95410816 218.92775846 206.95474643 C213.11196545 206.95500069 207.2962148 206.95218917 201.4804306 206.94156837 C196.00731108 206.93184568 190.53427404 206.93183671 185.0611515 206.93908501 C183.06058188 206.94012568 181.06000701 206.93779893 179.05944633 206.93172455 C157.13747032 206.86951059 140.03854721 208.7177761 124.13671875 225.02734375 Z M10.3046875 321.18359375 C9.17546875 322.21806641 9.17546875 322.21806641 8.0234375 323.2734375 C-21.49307051 351.13231554 -38.55432636 393.71166214 -39.8984375 433.91015625 C-40.68425927 483.09158748 -22.8806289 527.03099048 11.1171875 562.30859375 C42.95539564 593.2957806 86.7628722 610.72880244 131.14160156 610.48388672 C179.01010424 609.34611289 221.70822094 589.09320496 254.61010742 554.78686523 C284.18325549 523.15545531 299.60458374 480.17642872 298.58984375 437.08984375 C297.93667013 420.6921796 295.51252979 404.75563066 290.3046875 389.18359375 C289.96630859 388.16410645 289.96630859 388.16410645 289.62109375 387.12402344 C275.12754945 344.31893709 244.36094709 309.51931792 204.12988281 289.07861328 C138.85566176 256.96485954 62.01680708 271.37265504 10.3046875 321.18359375 Z M-206.0703125 447.74609375 C-208.99982495 452.14036243 -208.84368738 456.14592167 -208.84248352 461.23947144 C-208.84616021 462.06999059 -208.8498369 462.90050974 -208.853625 463.75619614 C-208.86467056 466.54954712 -208.86850724 469.34286091 -208.87231445 472.13623047 C-208.8785787 474.1352602 -208.88522547 476.13428876 -208.89222717 478.13331604 C-208.91328356 484.70996284 -208.92363454 491.2866099 -208.93359375 497.86328125 C-208.93764143 500.12863299 -208.94175836 502.3939846 -208.94594383 504.65933609 C-208.96500299 515.30763553 -208.97922962 525.95592803 -208.9875558 536.60424125 C-208.9973159 548.88323277 -209.02360039 561.16204343 -209.06405669 573.44097126 C-209.09426785 582.93754853 -209.10902963 592.43407413 -209.11233681 601.93069851 C-209.1146826 607.59909213 -209.12358099 613.2672927 -209.14879799 618.93563461 C-209.17216955 624.27577607 -209.17627545 629.61559867 -209.16603661 634.95577812 C-209.16554326 636.90797553 -209.17180393 638.8601891 -209.18559265 640.81233788 C-209.29798362 657.67836137 -207.22407447 671.56439247 -195.4765625 684.65625 C-179.28090176 700.40495257 -159.1614665 699.48153847 -138.12451172 699.43756104 C-135.72192223 699.43986741 -133.31933345 699.44304512 -130.91674614 699.44701552 C-125.70718782 699.45361112 -120.49766723 699.45403775 -115.28810883 699.4489212 C-107.5411055 699.44133332 -99.79413698 699.44523559 -92.04713386 699.45133782 C-78.20826991 699.46185332 -64.36942446 699.46096289 -50.53055876 699.45517999 C-38.41976425 699.4501442 -26.3089765 699.44883766 -14.19818115 699.45122528 C-12.99207077 699.45145444 -12.99207077 699.45145444 -11.76159452 699.45168822 C-8.4974044 699.45231092 -5.23321429 699.45294772 -1.96902417 699.45360775 C28.63684822 699.45972251 59.24270886 699.45418396 89.84857944 699.44341395 C117.02601239 699.43392311 144.20342659 699.43477238 171.38085938 699.44433594 C201.93159968 699.45505067 232.48232959 699.45928881 263.03307152 699.45311141 C266.29123306 699.45247 269.54939461 699.45184432 272.80755615 699.45122528 C274.01087502 699.45098805 274.01087502 699.45098805 275.23850335 699.45074602 C287.34017778 699.44847334 299.44184468 699.45112742 311.54351807 699.45618439 C325.3069066 699.46190715 339.07027377 699.46046417 352.83365965 699.4496229 C360.53171524 699.44375886 368.22972457 699.44335464 375.92777894 699.45091525 C381.6807966 699.45594129 387.43376663 699.45047325 393.18677688 699.4409661 C395.51029124 699.43873563 397.83381181 699.43986041 400.15732217 699.44471768 C421.16069151 699.48525011 439.13905997 699.11107058 455.1875 683.5625 C458.60072699 679.72734274 461.01570689 675.75807383 463.3046875 671.18359375 C463.67202751 670.4592706 464.03936752 669.73494745 464.41783905 668.98867512 C468.46676786 659.60759397 467.8670904 649.95481284 467.82226562 639.9362793 C467.82769274 637.8951518 467.83481869 635.85402822 467.84350586 633.81291199 C467.86166614 628.29670889 467.85470337 622.78080664 467.84198952 617.26459861 C467.83183088 611.48317922 467.8412625 605.70178482 467.84753418 599.92036438 C467.85479932 590.21891676 467.84524954 580.51759118 467.82617188 570.81616211 C467.8043747 559.60232979 467.8114798 548.38878807 467.8334775 537.1749627 C467.85162715 527.53648507 467.85419284 517.8980949 467.84372282 508.25960571 C467.83748948 502.50719137 467.83664862 496.7549137 467.84986877 491.00250816 C467.86142131 485.59903779 467.85341221 480.19594271 467.83029175 474.79251289 C467.82500283 472.80997211 467.82652154 470.82739974 467.83534241 468.84487152 C467.84627339 466.13868281 467.83256438 463.4336969 467.81262207 460.72758484 C467.82154496 459.94324796 467.83046784 459.15891108 467.83966112 458.35080642 C467.76516975 453.13969795 466.58359672 450.20523218 463.3046875 446.18359375 C458.99255752 442.29215938 455.9909857 441.05752065 450.23640442 441.06333923 C449.18892532 441.06196457 448.14144623 441.0605899 447.06222534 441.05917358 C445.91351959 441.06276886 444.76481384 441.06636414 443.58129883 441.07006836 C442.371418 441.06992233 441.16153717 441.06977631 439.91499329 441.06962585 C436.59707059 441.07020356 433.27920994 441.07522235 429.96129823 441.08219981 C426.49395063 441.0884468 423.02660223 441.08903822 419.55924988 441.09022522 C412.99322146 441.09333456 406.42720968 441.10154261 399.86118859 441.11157471 C392.38605194 441.12274815 384.9109145 441.1282494 377.43577158 441.13327014 C362.05873392 441.14372554 346.68171285 441.16131732 331.3046875 441.18359375 C331.22755524 442.27566635 331.22755524 442.27566635 331.14886475 443.38980103 C330.90871155 446.75111359 330.6614239 450.11186675 330.4140625 453.47265625 C330.33333496 454.61742432 330.25260742 455.76219238 330.16943359 456.94165039 C326.35502937 508.18181373 302.54496283 556.76139879 264.3046875 591.18359375 C259.78927946 595.04938881 255.06800928 598.63153172 250.3046875 602.18359375 C249.74555664 602.60882324 249.18642578 603.03405273 248.61035156 603.47216797 C220.30992553 624.95769281 186.43031463 637.06179272 151.3046875 641.18359375 C150.24507812 641.31507813 149.18546875 641.4465625 148.09375 641.58203125 C145.15943437 641.886148 142.25256643 642.06466954 139.3046875 642.18359375 C138.63663086 642.2108252 137.96857422 642.23805664 137.28027344 642.26611328 C103.47709608 643.44116907 69.51166803 636.44026343 39.3046875 621.18359375 C38.62019531 620.84457031 37.93570313 620.50554687 37.23046875 620.15625 C-8.39714563 597.46710842 -44.08125924 556.28248184 -60.6953125 508.18359375 C-60.97455566 507.37889648 -61.25379883 506.57419922 -61.54150391 505.74511719 C-67.43071831 488.39290571 -70.39738437 470.68797963 -71.8046875 452.44921875 C-71.89218262 451.35754395 -71.97967773 450.26586914 -72.06982422 449.14111328 C-72.28188764 446.48886807 -72.49033686 443.83639449 -72.6953125 441.18359375 C-88.74197041 441.09006573 -104.78853962 441.01957322 -120.8354044 440.97634506 C-128.28660264 440.95573809 -135.73763131 440.92765345 -143.1887207 440.88183594 C-149.68468385 440.84191071 -156.18052416 440.81614737 -162.6766066 440.80723977 C-166.11486168 440.80203455 -169.55276542 440.78984008 -172.99090767 440.76067352 C-176.83327847 440.72834356 -180.67530858 440.72763799 -184.51782227 440.72949219 C-185.65214691 440.71511108 -186.78647156 440.70072998 -187.95516968 440.68591309 C-195.8306042 440.72703866 -200.54847943 441.78832649 -206.0703125 447.74609375 Z " fill="#960C12" transform="translate(410.6953125,314.81640625)"/>
<path d="M0 0 C2.03204999 0.02152647 4.06058216 0.00001177 6.0925293 -0.02539062 C24.37797718 -0.06412981 39.27615312 6.10305511 52.30151367 18.79101562 C64.0276718 30.80946802 70.30096162 46.32783873 70.40307617 63.14648438 C70.10369423 80.43676376 64.08680861 95.59763702 51.85229492 107.83007812 C41.9469086 117.06527593 31.53191082 123.13716451 17.96557617 124.52148438 C17.99699707 125.54918945 17.99699707 125.54918945 18.02905273 126.59765625 C18.11283016 129.7387796 18.16443031 132.87966701 18.21557617 136.02148438 C18.2490918 137.09914063 18.28260742 138.17679688 18.31713867 139.28710938 C18.41537893 147.34281065 17.40449714 152.78779875 11.77807617 158.89648438 C7.36242527 161.44774934 2.91976586 163.02882285 -2.21801758 162.14648438 C-7.48069712 160.39557398 -11.27842032 157.47985133 -14.15007019 152.64193726 C-15.13664423 150.27638611 -15.29383966 148.58716013 -15.30908203 146.03173828 C-15.32338005 144.70983994 -15.32338005 144.70983994 -15.33796692 143.36123657 C-15.33705551 142.41638397 -15.3361441 141.47153137 -15.33520508 140.49804688 C-15.3394902 139.51911469 -15.34377533 138.5401825 -15.34819031 137.53158569 C-15.35392919 135.46214572 -15.35443712 133.39268557 -15.35009766 131.32324219 C-15.34694234 128.16501219 -15.37038657 125.00772328 -15.39575195 121.84960938 C-15.39802552 119.83658972 -15.39872818 117.82356755 -15.39770508 115.81054688 C-15.40691483 114.86974274 -15.41612457 113.9289386 -15.4256134 112.95962524 C-15.38886273 107.72284724 -14.98579272 104.03636828 -12.03442383 99.52148438 C-6.28088485 93.89580182 -1.3203044 92.38059997 6.59057617 92.27148438 C15.41270953 91.73059248 23.28304604 88.79405366 29.46557617 82.27148438 C34.7222028 75.19525622 37.25604983 67.28872297 35.96557617 58.52148438 C33.87727014 49.68634349 30.0461892 43.48165803 22.91088867 37.91992188 C16.31829406 34.05082536 9.41117849 34.03635902 1.96557617 33.95898438 C0.95696533 33.94416016 -0.05164551 33.92933594 -1.09082031 33.9140625 C-12.45219502 34.06907841 -22.57986592 37.84063809 -31.03442383 45.52148438 C-33.23478571 48.29056724 -35.23871481 51.14247365 -37.24145508 54.05664062 C-40.5799499 58.64616183 -43.98643278 60.54164719 -49.47192383 61.45898438 C-54.79303597 61.80717795 -58.58472697 60.51773848 -62.76489258 57.11132812 C-66.56078596 53.297402 -68.18265886 49.63676112 -68.37817383 44.25195312 C-66.89671071 32.48442223 -57.2534295 22.71527293 -48.52270508 15.42382812 C-33.91314486 4.71956098 -17.9475616 -0.22507493 0 0 Z " fill="#960C12" transform="translate(539.034423828125,642.478515625)"/>
<path d="M0 0 C7.36865945 4.05965645 11.28828016 9.60051709 13.62890625 17.59765625 C14.38302055 24.95027069 13.64870911 30.60844446 9.87890625 37.03515625 C5.07397847 42.42277117 0.21009502 46.55266631 -7.13671875 47.37109375 C-15.39600427 47.47084358 -21.89726986 46.91847994 -28.15625 41.1640625 C-34.52238735 34.24889483 -35.86692933 28.18440757 -35.55078125 18.83984375 C-34.9029663 13.10373687 -33.09029734 9.21490698 -29.12109375 5.03515625 C-20.28865162 -1.64737361 -10.5602428 -4.58677213 0 0 Z " fill="#960C12" transform="translate(551.12109375,837.96484375)"/>
</svg>
