<?xml version="1.0" encoding="UTF-8"?>
<svg version="1.1" xmlns="http://www.w3.org/2000/svg" width="1080" height="1350">
<path d="M0 0 C1.31266846 0.61609131 1.31266846 0.61609131 2.65185547 1.24462891 C32.99050519 15.59609914 61.37509367 34.35392428 87 56 C87.7462841 56.62324409 87.7462841 56.62324409 88.50764465 57.25907898 C97.08533865 64.42430854 105.22395067 71.90471155 113.09741211 79.83666992 C114.82248477 81.57254731 116.55811991 83.2973509 118.29492188 85.02148438 C124.98991645 91.70857789 131.11465727 98.58269756 137 106 C137.93458811 107.10199053 138.8759654 108.19831212 139.828125 109.28515625 C147.50400725 118.08765992 154.3200691 127.42635985 161 137 C161.67893311 137.97090576 161.67893311 137.97090576 162.37158203 138.96142578 C210.0862878 207.64962859 233.18673971 290.03805642 233.25 373.25 C233.25101212 374.47456909 233.25101212 374.47456909 233.25204468 375.72387695 C233.17805558 432.82962931 219.66643053 490.49934775 195 542 C194.33750244 543.40113037 194.33750244 543.40113037 193.66162109 544.83056641 C184.87915353 563.30933989 174.79669113 581.26465755 163 598 C162.54189941 598.65355469 162.08379883 599.30710937 161.61181641 599.98046875 C151.89638543 613.79852187 141.65174778 627.16328581 130.1953125 639.59375 C128.3588622 641.60665638 126.57802679 643.65019645 124.80078125 645.71484375 C120.74625153 650.35926101 116.43157658 654.71554533 112.0625 659.0625 C110.92264648 660.2081543 110.92264648 660.2081543 109.75976562 661.37695312 C105.00269688 666.12589707 100.10127042 670.62546006 95 675 C93.95178437 675.92556727 92.90483221 676.85256814 91.859375 677.78125 C42.69136101 720.98854902 -18.35680212 751.2751752 -82 766 C-83.4842749 766.35118896 -83.4842749 766.35118896 -84.99853516 766.70947266 C-114.25747844 773.55689508 -143.94139142 776.23279588 -173.9375 776.25 C-175.52928574 776.25101212 -175.52928574 776.25101212 -177.15322876 776.25204468 C-236.1278808 776.19272575 -294.70971153 763.47290674 -348 738 C-348.9075 737.57428711 -349.815 737.14857422 -350.75 736.70996094 C-372.94656407 726.25748411 -394.38099919 713.75148841 -414 699 C-414.58910156 698.55962402 -415.17820312 698.11924805 -415.78515625 697.66552734 C-419.56541556 694.82927574 -423.29435371 691.93343429 -427 689 C-427.93199219 688.26265625 -428.86398437 687.5253125 -429.82421875 686.765625 C-435.76163186 681.98859077 -441.40737705 676.96459704 -446.98046875 671.7734375 C-449.223184 669.69029351 -451.51859764 667.67938487 -453.8359375 665.6796875 C-458.20620725 661.86923071 -462.34059397 657.85110034 -466.4375 653.75 C-467.18249756 653.00492188 -467.92749512 652.25984375 -468.69506836 651.4921875 C-473.38044579 646.75818002 -477.77509037 641.96312145 -481.84765625 636.6875 C-483.75942046 634.30039695 -485.74399433 632.04593938 -487.79296875 629.77734375 C-491.86899377 625.21765869 -495.60069721 620.46750314 -499.25 615.5625 C-499.89404785 614.69923096 -500.5380957 613.83596191 -501.20166016 612.9465332 C-510.91903698 599.8145215 -519.89798689 586.18669689 -528 572 C-528.45342773 571.20674316 -528.90685547 570.41348633 -529.37402344 569.59619141 C-558.84827606 517.64708283 -576.59224448 459.59707768 -581 400 C-581.05639648 399.30841797 -581.11279297 398.61683594 -581.17089844 397.90429688 C-586.50402024 330.81425568 -574.39054909 263.3862042 -547 202 C-546.57493164 201.04673828 -546.14986328 200.09347656 -545.71191406 199.11132812 C-527.8791729 159.5814143 -503.01761234 123.52315897 -473.5625 91.78515625 C-471.2658475 89.28894705 -469.03329601 86.7509579 -466.8125 84.1875 C-463.77687979 80.75083241 -460.55456296 77.75983526 -457.0546875 74.8046875 C-454.81871624 72.84077358 -452.76190269 70.75846042 -450.6875 68.625 C-446.64119204 64.53019177 -442.35276274 60.89425017 -437.859375 57.30078125 C-435.00366655 55.00295027 -432.22332687 52.63180501 -429.4375 50.25 C-355.52519202 -11.28009144 -257.79773593 -40.98660534 0 0 Z M-431.4453125 330.79296875 C-442.67577816 345.11829871 -446.30162352 359.06079269 -445 377 C-442.79260891 392.87837625 -434.40374878 404.90150342 -422.5234375 415.1328125 C-410.31921456 424.31579458 -394.99764372 428.18306598 -379.875 426.4375 C-367.90138067 424.29115787 -358.33053516 419.76793346 -349 412 C-348.35417969 411.46761719 -347.70835937 410.93523437 -347.04296875 410.38671875 C-336.77513921 401.04600701 -330.53421232 387.52497317 -329.66015625 373.7578125 C-329.06812201 357.08962827 -333.80075986 342.24724784 -344.6796875 329.3828125 C-356.34437079 317.40392898 -370.71155196 311.16522512 -387.3125 310.6875 C-404.38651176 311.02817864 -420.1356838 317.8754216 -431.4453125 330.79296875 Z M-218.96875 332.12109375 C-229.67492142 344.91684688 -233.28437749 359.65629638 -232 376 C-229.21785947 391.83923185 -222.26966402 404.59593238 -209.7421875 414.84765625 C-202.09570636 420.2056744 -193.23761586 424.41537973 -184 426 C-183.26652344 426.1340625 -182.53304687 426.268125 -181.77734375 426.40625 C-167.82641784 428.40248005 -153.40051885 424.49903337 -141.75 416.75 C-130.2841863 408.08570389 -120.65004601 396.58370003 -117.40234375 382.234375 C-115.11707042 363.86343986 -117.77587501 347.60947395 -128.89453125 332.41015625 C-138.87752754 320.38981378 -152.58787617 313.193109 -168 311 C-188.26089364 309.17711724 -205.36041019 317.45972764 -218.96875 332.12109375 Z M-6 332 C-15.09965487 343.75099316 -20.30148023 358.06396498 -19 373 C-16.80764577 389.70979236 -10.2026019 403.21924829 2.6875 414.25 C10.40659186 420.12554912 19.4469246 424.27731427 29 426 C29.73089844 426.13277344 30.46179688 426.26554687 31.21484375 426.40234375 C45.30956134 428.43545536 59.8136708 424.43494838 71.5 416.5 C74.96920606 413.90228532 78.08947182 411.22517987 81 408 C81.54140625 407.46246094 82.0828125 406.92492187 82.640625 406.37109375 C92.84815432 395.74194909 96.83707426 381.43522033 97 367 C95.9120027 350.11589375 88.90778247 336.39987781 76.8125 324.6875 C65.53867831 315.27630972 50.89981554 310.20617294 36.234375 310.65234375 C19.25518147 312.47740199 5.47581788 319.25382784 -6 332 Z " fill="#960C12" transform="translate(714,306)"/>
</svg>
