<?xml version="1.0" encoding="UTF-8"?>
<svg version="1.1" xmlns="http://www.w3.org/2000/svg" width="1080" height="1350">
<path d="M0 0 C2.50275936 2.19560253 4.84717343 4.41025741 7.140625 6.82421875 C7.65657227 7.35257324 8.17251953 7.88092773 8.70410156 8.42529297 C13.73276972 13.82167006 17.32732785 19.82374609 20.96069336 26.21826172 C22.80159246 29.45698307 24.67251833 32.67835783 26.5390625 35.90234375 C26.92128967 36.56431763 27.30351685 37.2262915 27.69732666 37.9083252 C31.57527223 44.61040677 35.59881463 51.22014953 39.640625 57.82421875 C45.77697494 67.86616123 51.77665816 77.9799227 57.703125 88.14697266 C62.92312406 97.09725597 68.24045967 105.98156054 73.640625 114.82421875 C79.44595374 124.33142604 85.15024253 133.89107129 90.765625 143.51171875 C96.55550676 153.43076878 102.40551925 163.31032592 108.32983398 173.14990234 C113.53026686 181.79194924 118.6838692 190.46117227 123.828125 199.13671875 C128.912905 207.71096306 134.00104107 216.28265871 139.140625 224.82421875 C144.69587798 234.0565861 150.19148319 243.32403986 155.68667603 252.59222412 C160.57160887 260.83033149 165.47239545 269.05823352 170.41162109 277.26391602 C172.81909842 281.26523534 175.2167341 285.27240075 177.61328125 289.28027344 C178.96600047 291.53336395 180.33246653 293.77733673 181.703125 296.01953125 C191.31842371 311.96257601 194.58177992 328.86269011 190.3046875 347.0703125 C186.70426576 358.68106852 180.94444311 368.39636441 172.140625 376.82421875 C171.23957031 377.77167969 171.23957031 377.77167969 170.3203125 378.73828125 C166.26433787 382.72402255 161.79182194 385.21728498 156.703125 387.63671875 C156.09452637 387.92699951 155.48592773 388.21728027 154.85888672 388.51635742 C145.26941431 392.82996533 135.98402254 393.11525712 125.62394714 393.08491516 C124.15630106 393.08793922 122.68865655 393.09182998 121.2210148 393.09650773 C117.20552865 393.10676374 113.19013203 393.10461203 109.17463863 393.10032713 C104.83709372 393.09785553 100.49957013 393.10687949 96.16203308 393.11436462 C87.67084364 393.12710182 79.17968583 393.12890652 70.68848845 393.12656436 C63.78472127 393.12477986 56.88096368 393.12653368 49.97719765 393.1307888 C48.99385313 393.13138399 48.01050861 393.13197918 46.99736578 393.13259241 C44.99955636 393.13380419 43.00174694 393.13501832 41.00393752 393.13623478 C22.27594021 393.14710666 3.54796092 393.14494956 -15.1800374 393.13884994 C-32.30120975 393.13368174 -49.42232518 393.14493429 -66.54348627 393.16394816 C-84.13586758 393.1833351 -101.72822198 393.19158101 -119.32061404 393.1878249 C-129.19241279 393.18591408 -139.06416312 393.18838882 -148.93595314 393.20253944 C-157.34046878 393.21446516 -165.74490618 393.21584481 -174.14942292 393.20374928 C-178.43446179 393.19786881 -182.71935764 393.19673804 -187.0043869 393.20875168 C-190.93319495 393.21963825 -194.86174103 393.21647439 -198.79053696 393.20248999 C-200.20568058 393.19985066 -201.62084492 393.20218542 -203.03596816 393.21022586 C-221.32233679 393.30684698 -236.07303492 388.51903221 -249.16796875 375.61328125 C-261.22991765 363.11367093 -267.72357356 348.8404515 -268.234375 331.32421875 C-267.55343791 309.66518144 -255.98675876 293.07592678 -245.08068848 275.14614868 C-241.23312427 268.81105057 -237.46382001 262.42994743 -233.69052124 256.05044556 C-226.93068437 244.62441762 -220.09808983 233.24666746 -213.1831665 221.91390991 C-207.44590583 212.5048491 -201.84628787 203.02116651 -196.29632568 193.50064087 C-191.076516 184.55061791 -185.7590921 175.66677092 -180.359375 166.82421875 C-174.64274108 157.45983419 -169.01691659 148.04857174 -163.484375 138.57421875 C-163.13763733 137.98048462 -162.79089966 137.38675049 -162.43365479 136.77502441 C-162.0857489 136.17927612 -161.73784302 135.58352783 -161.37939453 134.96972656 C-156.03344809 125.8165364 -150.64808375 116.68749882 -145.234375 107.57421875 C-144.63184906 106.55986755 -144.63184906 106.55986755 -144.01715088 105.52502441 C-138.23022803 95.78602116 -132.41286566 86.06561523 -126.57519531 76.35693359 C-120.55907134 66.34353004 -114.59829439 56.29745369 -108.64257812 46.24804688 C-104.77498558 39.72331236 -100.89938926 33.20344199 -97.00390625 26.6953125 C-96.63866852 26.08372284 -96.27343079 25.47213318 -95.89712524 24.8420105 C-85.77908894 7.96494666 -73.50712579 -5.53495689 -53.984375 -10.67578125 C-35.19687872 -15.06142696 -15.54713634 -11.83026631 0 0 Z M-63.859375 91.82421875 C-73.76145245 106.80901149 -68.24421709 129.63101953 -66.8125 146.41015625 C-66.59774148 148.96406916 -66.38312404 151.51799394 -66.16864014 154.07192993 C-65.71959313 159.39588233 -65.26483941 164.71931111 -64.80664062 170.04248047 C-64.2794586 176.16950162 -63.7691304 182.2977738 -63.26636243 188.42684209 C-62.77815807 194.36752754 -62.2726015 200.3066564 -61.76070404 206.24534988 C-61.54674213 208.75421153 -61.33785171 211.26351131 -61.13425446 213.77323532 C-60.84813587 217.28175407 -60.5421901 220.78802167 -60.23144531 224.29443359 C-60.11275589 225.82982788 -60.11275589 225.82982788 -59.9916687 227.39624023 C-59.29583947 234.89995443 -57.9506151 243.44104912 -52.109375 248.76171875 C-46.21286289 252.50373605 -40.96351411 254.59921574 -33.859375 253.82421875 C-28.0454013 251.88622752 -22.70910851 249.30530196 -19.75795364 243.75141239 C-17.09413874 237.29290986 -16.02955816 231.34197093 -15.48730469 224.40209961 C-15.38918488 223.30628571 -15.29106506 222.2104718 -15.18997192 221.08145142 C-14.87192548 217.48512247 -14.57616513 213.88735616 -14.28125 210.2890625 C-14.06391325 207.76565295 -13.84540812 205.24234379 -13.62579346 202.71913147 C-13.16930943 197.43696856 -12.722805 192.15410722 -12.28515625 186.87036133 C-11.78286687 180.80718453 -11.26487533 174.74551953 -10.73757243 168.68447012 C-10.2263173 162.80647887 -9.72373285 156.92778095 -9.22544098 151.04867744 C-9.01501364 148.57014319 -8.8029295 146.09174897 -8.58907318 143.61350822 C-4.56539906 115.13667593 -4.56539906 115.13667593 -14.109375 89.51171875 C-20.72925199 82.52485497 -27.55204138 79.566258 -37.046875 78.44921875 C-48.19424553 79.54568143 -56.52908936 83.23932653 -63.859375 91.82421875 Z M-60.94140625 289.34375 C-66.03506475 295.93127169 -67.56648183 302.61314366 -67.23828125 310.87109375 C-66.16458679 319.23926914 -62.37230181 326.41680719 -55.859375 331.82421875 C-48.41225918 336.29248824 -41.09833223 338.74269905 -32.421875 337.19921875 C-23.07995194 334.7670974 -16.69852725 329.92380643 -11.60546875 321.83203125 C-7.82422493 314.63844545 -7.75886099 306.93322752 -9.44921875 299.0859375 C-12.0527796 291.37123876 -17.32491641 285.57754794 -24.24609375 281.375 C-37.68233388 275.2086096 -51.16978677 278.74197524 -60.94140625 289.34375 Z " fill="#960C12" transform="translate(732.859375,588.17578125)"/>
<path d="M0 0 C1.24129229 -0.00384115 2.48258457 -0.00768229 3.76149178 -0.01163983 C5.12579987 -0.01085974 6.49010792 -0.00998098 7.85441589 -0.00901413 C9.31407181 -0.01160012 10.77372703 -0.01461393 12.23338127 -0.01801753 C16.23616889 -0.02606348 20.23893856 -0.02787576 24.24173331 -0.028615 C28.56232414 -0.03046978 32.88290574 -0.03801931 37.20349121 -0.04475021 C46.64799625 -0.05831754 56.09249703 -0.06435592 65.53701019 -0.06876087 C71.43836558 -0.07152632 77.33971933 -0.07576426 83.24107361 -0.08026505 C99.59167884 -0.09245623 115.94228277 -0.10275545 132.29289246 -0.10614014 C133.33887517 -0.1063597 134.38485789 -0.10657927 135.46253705 -0.10680549 C136.510975 -0.10702377 137.55941294 -0.10724204 138.63962173 -0.10746694 C140.76403554 -0.1079104 142.88844935 -0.10835696 145.01286316 -0.10880661 C146.06663824 -0.10902804 147.12041331 -0.10924947 148.20612097 -0.10947761 C165.27042533 -0.11342328 182.33468693 -0.13087095 199.39897478 -0.15416613 C216.93367294 -0.17790952 234.46834967 -0.19034337 252.00306416 -0.19150805 C261.84201703 -0.1924232 271.6809142 -0.19813491 281.51985168 -0.21632767 C289.90017023 -0.23176909 298.28041584 -0.23682538 306.66074592 -0.22858956 C310.93196983 -0.22469718 315.20304707 -0.22554317 319.4742527 -0.23964691 C323.39403925 -0.25247116 327.3135702 -0.25111448 331.23335683 -0.2390562 C332.64188677 -0.23711382 334.05043536 -0.24010907 335.45893919 -0.24890056 C359.88368741 -0.39154568 384.41291259 7.48768693 402.63639832 24.13142776 C403.13881042 24.58614456 403.64122253 25.04086136 404.15885925 25.50935745 C424.06522295 43.74191279 435.5300253 67.11870896 437.63639832 94.13142776 C437.76650022 98.65417527 437.75316001 103.17353352 437.73405457 107.69783401 C437.73263962 108.97247009 437.73122467 110.24710617 437.72976685 111.56036758 C437.72514339 114.91894344 437.71618756 118.27744894 437.70506287 121.6360054 C437.6947606 125.07522861 437.6902505 128.51445914 437.68522644 131.95369339 C437.6742402 138.67962398 437.65753434 145.40552182 437.63639832 152.13142776 C436.98450027 152.26783676 436.33260223 152.40424576 435.66094971 152.54478836 C432.66334879 153.17516837 429.66746985 153.81339924 426.67155457 154.45174026 C425.13368286 154.77332108 425.13368286 154.77332108 423.56474304 155.10139847 C412.11810403 157.55278238 401.82443037 161.49549865 391.38273621 166.7451973 C390.73331306 167.07085175 390.08388992 167.3965062 389.41478729 167.73202896 C387.82160896 168.53106734 386.22895138 169.3311439 384.63639832 170.13142776 C384.62426804 168.81503563 384.62426804 168.81503563 384.6118927 167.47204971 C384.53362571 159.1607341 384.44624085 150.84957344 384.34887123 142.53845882 C384.29913934 138.26666509 384.25280928 133.99489336 384.21452332 129.7229805 C384.17737607 125.59259291 384.13094068 121.46240052 384.07833481 117.33218193 C384.0599459 115.76434475 384.04478218 114.19646599 384.03305435 112.62856483 C383.89224898 94.43828448 381.71802845 79.80000865 368.79264832 66.19002151 C358.15323817 56.09566312 345.18696372 53.8388968 331.06999207 53.81258011 C329.83012039 53.80253448 328.59024872 53.79248886 327.31280518 53.78213882 C323.93525116 53.75665707 320.55786295 53.73973528 317.18025208 53.7267108 C313.64214878 53.71101284 310.1041291 53.6842441 306.56608582 53.65867996 C299.87630764 53.6120096 293.18651352 53.57520892 286.49665642 53.54200709 C278.87624966 53.50370239 271.25592712 53.45431428 263.63559151 53.40402293 C247.96925477 53.30087788 232.30287069 53.21156119 216.63639832 53.13142776 C216.18190559 54.52887978 216.18190559 54.52887978 215.7182312 55.95456314 C214.64714439 59.0998713 213.34898175 61.91819605 211.84342957 64.87752151 C211.29839783 65.95550003 210.75336609 67.03347855 210.19181824 68.14412308 C209.61665466 69.27430862 209.04149109 70.40449417 208.44889832 71.56892776 C207.27326468 73.90558686 206.09877884 76.24282381 204.92546082 78.58064651 C204.35988464 79.70648148 203.79430847 80.83231644 203.21159363 81.99226761 C201.22788755 85.94553679 199.24644048 89.89801227 197.32389832 93.88142776 C196.7915155 94.96939651 196.25913269 96.05736526 195.71061707 97.17830276 C194.17508949 101.39960766 193.97556083 104.4191363 195.60124207 108.63142776 C198.58811573 112.30052401 202.25632751 114.5666034 206.19889832 117.13142776 C207.92814105 118.28431122 209.65597254 119.43931385 211.38249207 120.59627151 C212.2601825 121.18263382 213.13787292 121.76899612 214.04216003 122.37312698 C218.76621003 125.57495345 223.36580402 128.94584137 227.9752655 132.30940628 C231.74273658 135.0535058 235.52745387 137.76205996 239.36686707 140.40486526 C240.13563171 140.93652298 240.90439636 141.46818069 241.69645691 142.01594925 C243.14892777 143.01737643 244.60598107 144.01220509 246.06852722 144.99885941 C250.3527042 147.96147848 253.60157442 150.87232832 256.63639832 155.13142776 C257.33571541 159.07303319 257.52024181 161.36374077 255.73796082 164.92830276 C251.43217364 171.03469185 245.85813681 176.37276662 240.74577332 181.80720901 C237.88052582 184.85728372 235.10864123 187.97500732 232.37467957 191.14314651 C230.16383342 193.67195704 227.90043388 196.1501534 225.63639832 198.63142776 C222.79115603 201.75049788 219.96440251 204.87898168 217.19889832 208.06892776 C214.23755646 211.47832134 211.194598 214.80911084 208.13639832 218.13142776 C202.66557753 224.07072125 202.66557753 224.07072125 197.33952332 230.13924026 C196.06153331 231.63413683 194.75436357 233.10416821 193.43327332 234.56111526 C188.7349867 239.74847414 188.7349867 239.74847414 186.76139832 246.25642776 C188.40965602 253.55585475 193.50980993 258.19632347 198.76042175 263.25691605 C200.56123517 265.05632331 202.22280575 266.9135381 203.87858582 268.84627151 C206.34331537 271.68559293 208.85869154 274.45242376 211.46061707 277.16658401 C212.09676941 277.83109573 212.73292175 278.49560745 213.38835144 279.18025589 C214.68630136 280.53059531 215.98844479 281.87691557 217.29460144 283.21931839 C226.40917362 292.77986352 226.40917362 292.77986352 226.88639832 299.81892776 C226.16349827 303.48033046 224.54876289 306.02201312 222.44889832 309.08064651 C221.72734558 310.14098099 221.00579285 311.20131546 220.26237488 312.29378128 C219.8495929 312.89602524 219.43681091 313.4982692 219.01152039 314.11876297 C216.90210675 317.20615619 214.81684885 320.30973691 212.7283783 323.41131973 C210.89095568 326.13957464 209.05114856 328.86620682 207.21061707 331.59236526 C206.5807489 332.52532425 205.95088074 333.45828323 205.30192566 334.4195137 C204.03213196 336.30009015 202.76227591 338.18062449 201.49235535 340.06111526 C200.23914342 341.91705163 198.98617212 343.7731505 197.73344421 345.6294136 C196.49719167 347.4611074 195.26029953 349.29236968 194.02275085 351.12318802 C191.06126542 355.50997618 188.11843051 359.90714068 185.21647644 364.3335762 C184.67734619 365.15308762 184.13821594 365.97259903 183.58274841 366.81694412 C182.58066798 368.34298497 181.58333505 369.87215926 180.59190369 371.40513992 C174.47102973 380.71411206 174.47102973 380.71411206 169.63639832 383.13142776 C165.52978326 383.400714 162.67030353 383.52201418 158.82389832 382.06892776 C155.93088485 379.50654441 154.54193629 376.83550723 153.63639832 373.13142776 C153.67221137 369.79251969 154.32957063 366.64283686 155.01139832 363.38142776 C155.19476746 362.41712845 155.3781366 361.45282913 155.56706238 360.45930862 C156.2309762 357.0110596 156.93100787 353.57143237 157.63639832 350.13142776 C157.9331741 348.67655855 158.22971248 347.22164088 158.52604675 345.76668167 C158.68082489 345.00721237 158.83560303 344.24774307 158.99507141 343.46525955 C159.47408728 341.11110132 159.95099957 338.75652269 160.42790222 336.40193558 C161.05582996 333.30351839 161.69752358 330.20841314 162.34880066 327.1148262 C162.64800269 325.66337232 162.94700234 324.21187669 163.24577332 322.76033401 C163.51357605 321.48230911 163.78137878 320.20428421 164.05729675 318.88753128 C164.88127928 313.54310834 165.55117937 308.88962398 162.98405457 303.95564651 C160.52359045 300.99572046 157.96296725 298.48677006 155.07389832 295.94392776 C150.8790878 292.20400736 146.83327801 288.3833546 142.88639832 284.38142776 C139.90647472 281.36749649 136.92564656 278.44165359 133.69889832 275.69392776 C129.59867054 272.19989383 125.85738445 268.38656683 122.08049011 264.55159378 C118.5995896 261.0362564 115.00718134 257.74826464 111.15983582 254.63142776 C108.19799382 251.71515257 107.68806592 249.57811772 107.20671082 245.41658401 C107.35180756 240.27040694 109.73206028 236.76327693 112.51139832 232.56892776 C113.0102655 231.78590286 113.50913269 231.00287796 114.02311707 230.19612503 C115.54068475 227.82732673 117.08360141 225.47724943 118.63639832 223.13142776 C119.07371277 222.46627151 119.51102722 221.80111526 119.96159363 221.11580276 C121.99263474 218.03180623 124.04341484 214.96187258 126.10905457 211.90095901 C130.23348261 205.77632026 134.20654877 199.55253035 138.20573425 193.34578323 C139.70041804 191.03233922 141.20266877 188.72395363 142.70671082 186.41658401 C143.20759216 185.64685257 143.70847351 184.87712112 144.22453308 184.08406448 C145.18438168 182.60940389 146.145731 181.13571866 147.10881042 179.66316605 C147.54201599 178.9965596 147.97522156 178.32995316 148.42155457 177.64314651 C148.80190857 177.06008743 149.18226257 176.47702835 149.57414246 175.87630081 C152.27966024 171.43218782 153.27931665 168.45846537 152.63639832 163.13142776 C149.14392595 158.19292463 145.30569089 155.28729787 140.19108582 152.15877151 C138.66654336 151.19890811 137.14282068 150.23774179 135.61979675 149.27547073 C134.81199768 148.76828506 134.00419861 148.2610994 133.17192078 147.73854446 C125.89823889 143.12819066 118.74903515 138.32077096 111.5743866 133.55842972 C109.67587321 132.30005906 107.77543319 131.04459097 105.87321472 129.79182816 C103.08410065 127.95461478 100.30106659 126.10851348 97.51921082 124.26033401 C96.66932587 123.70302094 95.81944092 123.14570786 94.94380188 122.5715065 C94.15802765 122.04673218 93.37225342 121.52195786 92.56266785 120.98128128 C91.87447968 120.52592499 91.1862915 120.0705687 90.47724915 119.60141373 C87.60754381 117.30985024 85.84150086 115.43533375 85.2600708 111.73898697 C85.36728353 104.77716508 86.38079806 98.38771287 88.00749207 91.62752151 C88.24927689 90.58241913 88.49106171 89.53731674 88.74017334 88.46054459 C89.50683222 85.16059285 90.29038109 81.86491231 91.07389832 78.56892776 C91.59643314 76.32372927 92.1179272 74.07828829 92.63835144 71.83259964 C94.54671313 63.65209151 94.54671313 63.65209151 95.5131073 59.590168 C95.70630051 58.77507263 95.89949371 57.95997726 96.09854126 57.12018204 C96.63639832 55.13142776 96.63639832 55.13142776 97.63639832 53.13142776 C85.21354474 53.19285578 72.79089749 53.27011693 60.36826801 53.36714268 C54.59885387 53.41171623 48.82950824 53.45100065 43.0599823 53.47786331 C37.4836636 53.50402658 31.90761038 53.54451989 26.33145714 53.59461403 C24.21263642 53.61119509 22.09376987 53.62276355 19.97489357 53.62904167 C0.75653316 53.69170289 -14.46898419 54.94862495 -29.07063293 68.69002151 C-39.07774673 79.34495528 -41.98417649 93.00631584 -41.86480713 107.23093033 C-41.87034153 108.48313808 -41.87587592 109.73534584 -41.88157803 111.02549928 C-41.89618991 114.46200211 -41.88623793 117.89804004 -41.87184131 121.33452713 C-41.8606532 125.05578439 -41.87269977 128.77698055 -41.88168335 132.4982338 C-41.89556446 139.77238602 -41.88809795 147.04636379 -41.87300777 154.32050759 C-41.85608547 162.80299003 -41.85936572 171.28542977 -41.86310185 179.76792388 C-41.86897094 194.90873958 -41.85484578 210.04947193 -41.83015442 225.19026566 C-41.80623221 239.86119586 -41.79915305 254.53201476 -41.80964661 269.20296097 C-41.82107136 285.20432328 -41.82296697 301.2056342 -41.80854851 317.2069959 C-41.80702277 318.91513311 -41.80550242 320.62327033 -41.8039875 322.33140755 C-41.80322969 323.1717019 -41.80247187 324.01199626 -41.8016911 324.87775408 C-41.79696064 330.78186489 -41.79879087 336.68595265 -41.8030529 342.5900631 C-41.8079937 349.79043134 -41.80193232 356.99069462 -41.78215861 364.19103891 C-41.77232788 367.86042404 -41.76713551 371.5296498 -41.77505112 375.19904327 C-41.78347505 379.18581456 -41.76844945 383.1721656 -41.75128174 387.15890884 C-41.75729178 388.30571737 -41.76330183 389.45252589 -41.769494 390.63408619 C-41.65499987 405.30944041 -37.69903128 417.19746963 -27.66047668 427.99080276 C-15.80322413 439.0414395 -2.15960285 441.26968437 13.425354 441.28964615 C14.26200496 441.29458413 15.09865591 441.2995221 15.96065992 441.30460972 C18.73806894 441.31985395 21.51545509 441.32830951 24.29289246 441.33675003 C26.29419655 441.34633886 28.29549866 441.35634952 30.29679871 441.36674881 C35.71136959 441.39369508 41.12594909 441.41476005 46.54054952 441.4347508 C52.2060141 441.45667402 57.8714524 441.48403161 63.53689575 441.51080704 C74.25699493 441.56064846 84.97710875 441.6056189 95.69723648 441.6488294 C107.90521095 441.698275 120.11315905 441.7531659 132.32110798 441.80850899 C157.42618014 441.92219773 182.53127761 442.02906514 207.63639832 442.13142776 C206.35267752 444.37958871 205.06876578 446.62764024 203.78474426 448.87562943 C203.42306939 449.50907084 203.06139452 450.14251225 202.6887598 450.79514885 C200.26367701 455.04039121 197.82041796 459.27338763 195.34733582 463.49080276 C194.8196611 464.39104172 194.8196611 464.39104172 194.28132629 465.30946732 C193.55435225 466.54932972 192.82701161 467.78897726 192.09928894 469.02840042 C191.00390143 470.89419738 189.90991216 472.76080897 188.81608582 474.62752151 C184.76812251 481.52917779 184.76812251 481.52917779 183.70372868 483.22529316 C182.54586436 485.17656273 182.54586436 485.17656273 181.71597195 487.62648296 C180.35859558 490.76622271 179.13220481 492.77030543 176.63639832 495.13142776 C170.99002023 496.65957223 165.42256687 496.42793958 159.60978699 496.31428909 C157.85324602 496.31638071 156.09670564 496.32283512 154.3401947 496.3333168 C149.57209224 496.34900069 144.80640206 496.30252129 140.03870559 496.24416184 C135.03523015 496.19268617 130.03177313 496.19573243 125.02807617 496.19214249 C116.6136517 496.17830638 108.20013386 496.12714734 99.78605652 496.05061722 C89.03066612 495.95295366 78.27595166 495.91451931 67.52016735 495.89594364 C58.23318283 495.87958542 48.94634066 495.83734779 39.65946794 495.79021239 C36.69661001 495.77604149 33.73375188 495.76500524 30.77087975 495.75427055 C26.08310913 495.73547823 21.39570184 495.70047642 16.70812988 495.65368462 C15.00115329 495.63871687 13.29412683 495.62845471 11.58709145 495.62362671 C-18.52471167 495.5257207 -45.63644244 486.52745138 -67.40266418 465.21736526 C-86.49691503 445.7059128 -95.52335052 420.20573901 -95.50404358 393.31807327 C-95.5070147 392.02410614 -95.50998582 390.730139 -95.51304698 389.39696074 C-95.52108559 385.81603091 -95.5229048 382.23512117 -95.52364445 378.65418339 C-95.52550052 374.78758397 -95.53305071 370.92099483 -95.53977966 367.0544014 C-95.5533419 358.60366647 -95.55938461 350.1529363 -95.56379032 341.70219231 C-95.56655671 336.42062276 -95.57079482 331.13905504 -95.57529449 325.85748672 C-95.58748515 311.22083781 -95.59778438 296.58419035 -95.60116959 281.94753647 C-95.60138915 281.01135537 -95.60160872 280.07517427 -95.60183494 279.11062405 C-95.60205322 278.17225917 -95.60227149 277.2338943 -95.60249639 276.26709414 C-95.60293984 274.36575222 -95.60338641 272.4644103 -95.60383606 270.56306839 C-95.60405749 269.61994606 -95.60427892 268.67682373 -95.60450706 267.70512193 C-95.60845209 252.43527634 -95.62589803 237.16547854 -95.64919558 221.8956514 C-95.67294761 206.20061323 -95.68537321 190.50559901 -95.6865375 174.81054258 C-95.68745218 166.00557697 -95.69315196 157.20067364 -95.71135712 148.39572525 C-95.72681027 140.89558144 -95.73184801 133.39551915 -95.72361901 125.89536244 C-95.71973068 122.0737412 -95.72055232 118.25228387 -95.73467636 114.43068314 C-95.74989765 110.27388947 -95.74149504 106.11745994 -95.73109436 101.9606514 C-95.73915076 100.7717973 -95.74720717 99.5829432 -95.75550771 98.35806322 C-95.59469786 70.70327339 -83.76399022 46.69419639 -64.60188293 27.34236526 C-58.66427683 21.73509673 -52.46723403 17.14858884 -45.36360168 13.13142776 C-44.31688293 12.53459183 -43.27016418 11.93775589 -42.19172668 11.32283401 C-29.28356074 4.40774511 -14.71896662 0.01718516 0 0 Z " fill="#960C12" transform="translate(247.3636016845703,368.8685722351074)"/>
</svg>
