<?xml version="1.0" encoding="UTF-8"?>
<svg version="1.1" xmlns="http://www.w3.org/2000/svg" width="1080" height="1350">
<path d="M0 0 C0.71080102 -0.00350607 1.42160205 -0.00701215 2.1539425 -0.01062447 C4.54194905 -0.01994764 6.92971223 -0.01501283 9.317729 -0.01015663 C11.04463611 -0.01389243 12.77154153 -0.01849367 14.49844426 -0.02388728 C19.24898137 -0.03614138 23.99944818 -0.03585397 28.7499975 -0.03349853 C33.87145762 -0.03309097 38.99289502 -0.04412366 44.1143446 -0.05361366 C54.15014516 -0.0702378 64.18592222 -0.07572385 74.2217354 -0.07683842 C82.37801633 -0.07778821 90.53428949 -0.08189508 98.69056797 -0.08823967 C121.80693026 -0.10585586 144.92327397 -0.11507794 168.03964303 -0.11357872 C169.90957654 -0.11345885 169.90957654 -0.11345885 171.81728649 -0.11333656 C173.06542809 -0.1132548 174.31356969 -0.11317304 175.59953376 -0.1130888 C195.83083789 -0.11227577 216.0620676 -0.13141674 236.2933502 -0.1596133 C257.05866031 -0.18832615 277.8239341 -0.20215447 298.58926457 -0.20042574 C310.25064943 -0.19976129 321.91195625 -0.20527766 333.57332325 -0.22678185 C343.50162567 -0.24497259 353.4298147 -0.2493583 363.35812656 -0.235763 C368.42442342 -0.22922275 373.49050261 -0.22915431 378.55677891 -0.2464695 C383.19490824 -0.26215847 387.83264654 -0.25937935 392.47076609 -0.24190123 C394.14840774 -0.23882213 395.82607827 -0.24249793 397.50368587 -0.25362138 C413.85478336 -0.35485522 413.85478336 -0.35485522 419.86342907 4.25726891 C424.07872541 10.43945647 423.27340235 17.60753296 423.22419262 24.8549099 C423.22550177 26.246886 423.22813022 27.63886138 423.23196012 29.03083283 C423.2386555 32.84604143 423.2266856 36.66099649 423.21162593 40.4761728 C423.1986561 44.59401577 423.2030557 48.71184473 423.20533276 52.82970238 C423.20690489 59.96090576 423.19750193 67.09202673 423.18061924 74.22320938 C423.15622572 84.53365629 423.14842361 94.84406338 423.14465526 105.15453602 C423.13809134 121.88305746 423.11813176 138.61153498 423.08974743 155.34003258 C423.06220535 171.58905378 423.04097249 187.83806305 423.02822399 204.08710289 C423.02743582 205.08889434 423.02664765 206.09068579 423.0258356 207.12283456 C423.02192045 212.14858798 423.01812933 217.17434149 423.01439989 222.20009506 C422.98330581 263.88585022 422.93047159 305.57155705 422.86342907 347.25726891 C423.73855648 347.31808144 424.61368389 347.37889397 425.51533031 347.4415493 C426.67265163 347.5255146 427.82997295 347.6094799 429.02236462 347.69598961 C430.16561703 347.77742714 431.30886944 347.85886467 432.48676586 347.94277 C437.31688635 348.39264241 441.95573945 349.35448116 446.67592907 350.44476891 C448.1373634 350.77033775 448.1373634 350.77033775 449.62832165 351.10248375 C455.78865931 352.49354362 461.90731574 354.02187726 468.02163219 355.60150719 C485.94239726 360.22035041 503.37434706 362.65072662 521.86342907 363.25726891 C521.55405407 362.49414391 521.24467907 361.73101891 520.92592907 360.94476891 C518.16916495 353.9717773 517.60152609 346.7200965 519.66421032 339.42523766 C524.75137432 328.04467489 536.85315709 322.68892205 547.17592907 316.75726891 C548.43084033 316.03001478 549.68539947 315.30215269 550.93960094 314.57367516 C553.39435025 313.14882027 555.85173713 311.72868731 558.31118298 310.31195641 C560.66465169 308.95447983 563.01022198 307.5847568 565.34926891 306.20258141 C566.41999645 305.57094078 567.49072399 304.93930016 568.59389782 304.28851891 C569.54031139 303.72713219 570.48672497 303.16574547 571.46181774 302.58734703 C577.25897404 299.37672311 583.99274115 299.18886136 590.33999157 300.94086266 C600.33665187 305.08037319 605.29499094 311.8715513 610.42592907 321.13226891 C611.65604455 323.29653223 612.88652345 325.46058904 614.11733532 327.62445641 C615.04956921 329.27912926 615.04956921 329.27912926 616.0006361 330.96722984 C618.90341855 336.09408388 621.88504172 341.17409861 624.86342907 346.25726891 C626.03052131 348.25702059 627.19718689 350.25702135 628.36342907 352.25726891 C629.22967907 353.74226891 629.22967907 353.74226891 630.11342907 355.25726891 C635.36342906 364.25726889 635.36342906 364.25726889 637.11269665 367.2560482 C638.28176426 369.26014082 639.45087246 371.26420975 640.62002087 373.26825523 C643.50028303 378.20544686 646.37988572 383.14302046 649.25796032 388.08148766 C655.25074709 398.36269064 661.25483908 408.63713985 667.27538586 418.90210533 C670.47243464 424.35322012 673.66813847 429.80512338 676.86342907 435.25726891 C677.83989391 436.92330162 677.83989391 436.92330162 678.83608532 438.62299156 C682.86007386 445.49248534 686.87264993 452.36842397 690.86342907 459.25726891 C691.3384486 460.07662926 691.81346813 460.89598961 692.30288219 461.74017906 C693.57999854 463.95032536 694.84867542 466.16503032 696.11342907 468.38226891 C696.65193493 469.31389854 696.65193493 469.31389854 697.20131969 470.26434898 C700.96476346 476.91811013 703.01700141 482.79961154 701.39858532 490.45648766 C697.85138553 502.81921356 687.93236116 507.5998452 677.48842907 513.56976891 C675.30971259 514.83276245 673.13348521 516.09996629 670.95746899 517.36760521 C669.53573376 518.19555411 668.11314487 519.02203897 666.68967724 519.84700584 C660.86681401 523.22828956 655.14751031 526.75627207 649.54360485 530.49091148 C642.75982091 534.88985118 635.51043864 536.41788054 627.60171032 534.79242516 C620.39265384 532.72395224 616.03953455 528.43517227 610.86342907 523.25726891 C609.99202282 524.22406578 609.12061657 525.19086266 608.22280407 526.18695641 C607.02091084 527.5031864 605.81768891 528.81820385 604.61342907 530.13226891 C603.98605846 530.82264244 603.35868786 531.51301598 602.71230602 532.22430992 C598.75448741 536.49412884 594.80864729 539.85692327 590.05092907 543.19476891 C586.37515108 546.10819928 585.04818505 547.40966802 584.03921032 552.03851891 C583.8475977 554.81409858 583.86463837 557.57029013 583.90249157 560.35101891 C583.80837538 569.76263809 579.40070043 577.66862409 572.86342907 584.25726891 C564.52229301 591.00399312 556.48806493 593.70009994 545.86342907 594.25726891 C545.62108532 595.12609703 545.37874157 595.99492516 545.12905407 596.89008141 C541.72332569 608.60054745 536.90136814 616.56172464 526.14858532 622.84320641 C520.34702615 625.65854928 515.29325754 626.94104783 508.86342907 627.25726891 C508.98717907 628.95883141 508.98717907 628.95883141 509.11342907 630.69476891 C509.03432287 639.69705415 504.08373214 645.79323918 498.08608532 652.09320641 C491.55230818 658.45473986 483.84578535 661.43042661 474.73842907 661.44476891 C472.82030407 661.35195641 472.82030407 661.35195641 470.86342907 661.25726891 C470.82217907 662.35039391 470.78092907 663.44351891 470.73842907 664.56976891 C469.54247114 673.70106935 464.12177559 680.90596213 457.15249157 686.60492516 C447.12183933 693.84548129 437.00307106 695.20715959 424.86342907 693.25726891 C423.18723906 692.61492221 421.51872209 691.95169475 419.86342907 691.25726891 C419.86895983 692.25395057 419.86895983 692.25395057 419.87460232 693.27076721 C419.96297797 709.44583578 420.02915056 725.62082778 420.07067776 741.79608154 C420.09129431 749.61835595 420.1193974 757.4404691 420.16518688 765.26264 C420.20508262 772.0812457 420.23086848 778.89973459 420.23978305 785.71845376 C420.24499324 789.32825581 420.25721963 792.93772374 420.2863493 796.54741859 C420.31862115 800.57927013 420.31938674 804.61054251 420.31753063 808.64252281 C420.33191174 809.83654716 420.34629284 811.03057152 420.36110973 812.26077843 C420.30897724 822.70961912 420.30897724 822.70961912 415.86342907 827.25726891 C411.3310766 829.71114413 406.98930823 829.53917629 401.97212601 829.51453781 C401.07162794 829.51804389 400.17112987 829.52154996 399.24334398 829.52516228 C396.21007436 829.53450495 393.17699552 829.52954556 390.14371777 829.52469444 C387.95340805 829.52842924 385.76309968 829.53303008 383.57279342 829.53842509 C377.54142296 829.5506913 371.5101078 829.55039037 365.4787277 829.54803634 C358.97897218 829.54762909 352.47923462 829.55865842 345.97948742 829.56815147 C333.24123021 829.58521721 320.50298878 829.5902878 307.76472134 829.59137623 C297.41448769 829.59229484 287.06426005 829.59640906 276.71402836 829.60277748 C273.73618872 829.60457252 270.75834907 829.60635215 267.78050941 829.60812724 C266.67010862 829.60879038 266.67010862 829.60879038 265.53727548 829.60946692 C244.71226315 829.62177698 223.88725291 829.62966787 203.06223679 829.62878036 C202.27691938 829.62874921 201.49160197 829.62871805 200.68248707 829.62868595 C196.70204131 829.62851973 192.72159555 829.62832165 188.74114979 829.62811653 C187.95059771 829.62807664 187.16004563 829.62803675 186.34553743 829.62799565 C184.74684884 829.62791478 183.14816026 829.62783118 181.54947167 829.62774487 C156.66931888 829.62651901 131.78922057 829.64153833 106.90908337 829.66889 C78.96641881 829.69959565 51.02379006 829.71682345 23.08110756 829.71496356 C20.10295355 829.71481429 17.12479955 829.71471688 14.14664555 829.71465492 C13.41332968 829.71463161 12.68001382 829.71460831 11.92447626 829.71458429 C0.11238566 829.71452269 -11.69965771 829.72730611 -23.51173426 829.74451945 C-35.37760862 829.76145388 -47.24340789 829.76312308 -59.10928779 829.75030081 C-65.54034961 829.74374984 -71.97123985 829.74373066 -78.40228558 829.76100731 C-84.28500004 829.77664882 -90.16740562 829.77396608 -96.05011214 829.75643905 C-98.18262733 829.75334942 -100.31516508 829.75707463 -102.4476537 829.7681592 C-105.33862287 829.78219564 -108.22849585 829.77176056 -111.11942673 829.75504684 C-111.95414284 829.7649832 -112.78885895 829.77491956 -113.64886948 829.78515702 C-118.91137082 829.72050003 -122.06463564 828.8946256 -126.13657093 825.25726891 C-130.07536217 819.88144296 -129.55501528 814.07852691 -129.51409435 807.68725586 C-129.51845468 806.50930985 -129.522815 805.33136385 -129.52730745 804.11772251 C-129.53638245 800.84187732 -129.53199314 797.56636604 -129.52197359 794.29053368 C-129.51437241 790.72902285 -129.52413969 787.16755303 -129.53170359 783.60604799 C-129.54254923 777.36193751 -129.5422035 771.11790482 -129.53456211 764.87379074 C-129.52322993 755.58858929 -129.52900795 746.30345364 -129.53818703 737.01825266 C-129.55399921 720.43581081 -129.55260904 703.8534036 -129.5439503 687.27095844 C-129.53640937 672.7583082 -129.53443083 658.24567067 -129.53801823 643.73301888 C-129.53824738 642.7710813 -129.53847654 641.80914372 -129.53871264 640.81805652 C-129.53964663 636.91340594 -129.54060182 633.00875537 -129.54159193 629.10410481 C-129.55077344 592.45877276 -129.54244166 555.81346279 -129.52630124 519.16813415 C-129.5120662 486.60115422 -129.51333588 454.03420947 -129.52768421 421.46722984 C-129.54374422 384.8927673 -129.55012007 348.31832428 -129.54084742 311.7438587 C-129.53988525 307.84562262 -129.53894673 303.94738655 -129.53801823 300.04915047 C-129.53778099 299.08927927 -129.53754376 298.12940807 -129.53729934 297.14044987 C-129.53388509 282.63725595 -129.53788121 268.13407613 -129.54545689 253.63088417 C-129.55402745 237.14063969 -129.55190569 220.65043532 -129.53561465 204.16019584 C-129.52679524 194.92807927 -129.52624593 185.69604951 -129.53755318 176.46393516 C-129.54427068 170.30006037 -129.54011113 164.13625532 -129.52703887 157.97239088 C-129.51989054 154.45848957 -129.51748716 150.94476099 -129.52825682 147.430865 C-129.53733463 143.64673052 -129.52806725 139.8630735 -129.51409435 136.07896423 C-129.52111785 134.98667535 -129.52814135 133.89438646 -129.53537768 132.76899791 C-129.46820244 123.71160168 -127.84356801 117.41591587 -121.38657093 110.69476891 C-120.91630482 110.20081627 -120.4460387 109.70686363 -119.9615221 109.19794273 C-118.3679085 107.53607906 -116.75421373 105.89573972 -115.13657093 104.25726891 C-114.52571644 103.63271812 -113.91486195 103.00816734 -113.28549671 102.36469078 C-107.09812629 96.04714247 -100.91620488 89.77607271 -94.16391468 84.05805016 C-87.53425162 78.1692743 -81.27118399 71.76477036 -75.63444996 64.92552757 C-74.10271753 63.21956478 -72.49889176 61.80500472 -70.74081898 60.33466148 C-65.37268522 55.68688545 -60.42691955 50.62775259 -55.44297695 45.5777092 C-53.68409604 43.79654435 -51.92105399 42.01959608 -50.15675831 40.24379539 C-45.1467312 35.20040176 -40.1411205 30.15268518 -35.14560413 25.09491539 C-32.07594144 21.98759375 -28.99899892 18.88764251 -25.91727734 15.7922821 C-24.74912886 14.61609517 -23.5837604 13.43714027 -22.42127895 12.25535202 C-20.79912456 10.60669588 -19.16787398 8.96757362 -17.53427601 7.33026695 C-16.14816875 5.92964264 -16.14816875 5.92964264 -14.73405933 4.50072289 C-10.04896916 0.45420464 -6.09743316 0.00678229 0 0 Z M9.86342907 27.25726891 C9.53342907 60.58726891 9.20342907 93.91726891 8.86342907 128.25726891 C8.20342907 130.23726891 7.54342907 132.21726891 6.86342907 134.25726891 C-26.57462483 147.63249046 -65.12438193 136.907636 -101.13657093 137.25726891 C-101.13657093 357.69726891 -101.13657093 578.13726891 -101.13657093 805.25726891 C62.54342907 805.25726891 226.22342907 805.25726891 394.86342907 805.25726891 C394.86342907 762.68726891 394.86342907 720.11726891 394.86342907 676.25726891 C389.91342907 672.95726891 384.96342907 669.65726891 379.86342907 666.25726891 C375.23752178 667.41374573 373.54536772 669.38403909 370.55092907 672.81976891 C370.06164928 673.36262535 369.5723695 673.9054818 369.06826305 674.46478844 C366.97332849 676.80018204 364.94729639 679.15022307 363.01186657 681.62055016 C357.85009876 688.16811277 350.17039615 692.82072573 341.86342907 694.25726891 C329.80269983 695.13206615 319.3145534 693.85385007 309.64467907 686.02680016 C305.61458012 682.02321501 302.64284266 677.31096186 300.63296032 672.01508141 C300.04901501 671.10500328 299.46506969 670.19492516 298.86342907 669.25726891 C295.59646387 668.45804396 295.59646387 668.45804396 291.86342907 668.63226891 C281.50312101 668.41624706 272.36443461 665.69247616 264.86342907 658.25726891 C260.91746124 653.34274534 258.11030744 648.12411799 255.86342907 642.25726891 C254.41323376 642.21859703 254.41323376 642.21859703 252.93374157 642.17914391 C241.31396638 641.67293588 232.59132586 639.87974127 223.90639782 631.67133141 C218.90138133 625.7571819 216.19344085 618.56158491 213.86342907 611.25726891 C213.13639782 611.18250328 212.40936657 611.10773766 211.66030407 611.03070641 C201.32813488 609.67957659 191.50769495 606.19742876 184.32827282 598.31586266 C178.06221309 589.50996005 175.92461834 579.89265335 176.86342907 569.25726891 C178.49097345 561.09013357 181.29872795 554.82400656 186.57046032 548.37836266 C188.03656952 546.40261012 188.03656952 546.40261012 187.82046032 544.37055016 C186.45365171 541.35241359 184.64694236 538.69968477 182.73842907 536.00726891 C182.33825573 535.43532799 181.93808239 534.86338707 181.52578259 534.27411461 C178.26001322 529.67167032 174.72954865 525.37201354 170.86342907 521.25726891 C167.13322101 522.98529402 164.16421226 525.27255066 160.96108532 527.81976891 C154.72359926 532.09424725 148.1800443 532.54180813 140.86342907 531.25726891 C135.45872689 529.22946888 130.59867493 526.04370067 125.71596813 523.00873375 C123.03283628 521.36128528 120.32484961 519.76300529 117.60334301 518.1799221 C115.08165401 516.71136305 112.56865653 515.2283355 110.0570631 513.74258995 C108.81688526 513.01058705 107.57463318 512.28208546 106.33019543 511.55734825 C96.83503027 506.00532553 88.35454612 500.519247 85.29702282 489.40961266 C82.93891165 477.7040338 89.2361076 468.42960733 95.11342907 458.81976891 C96.19991234 457.02005594 97.28293123 455.21828997 98.36562634 453.41629601 C99.10608157 452.18399317 99.84746146 450.95224548 100.58974743 449.72104454 C104.26615633 443.61526253 107.82090727 437.44155116 111.36342907 431.25726891 C116.45995095 422.38134156 121.63041162 413.55339373 126.86342907 404.75726891 C132.70309669 394.93963183 138.45360707 385.07525531 144.14638805 375.17181969 C149.57041331 365.74348525 155.05766316 356.35328817 160.57558727 346.97968102 C164.01847317 341.12831623 167.43965108 335.26703021 170.80483532 329.37055016 C171.42737194 328.28532066 172.04990856 327.20009117 172.69130993 326.08197594 C173.84668509 324.06505285 174.99522157 322.04418849 176.13515759 320.01849937 C181.28657636 311.05307236 185.91818757 304.01042122 196.09389782 300.87836266 C207.44990417 298.33167012 215.92276119 303.02251376 225.55092907 308.63226891 C226.90057751 309.41368248 226.90057751 309.41368248 228.27749157 310.21088219 C231.14636434 311.88157283 234.00624006 313.56668136 236.86342907 315.25726891 C237.83360973 315.82961266 238.8037904 316.40195641 239.80337048 316.99164391 C242.66612649 318.6900754 245.51669411 320.40714201 248.36342907 322.13226891 C249.2408778 322.65482262 250.11832653 323.17737633 251.02236462 323.715765 C257.85329303 327.91088596 262.77386815 332.25736061 265.35561657 340.06195641 C267.27667682 348.36684764 265.32115675 354.68915009 261.86342907 362.25726891 C261.53342907 363.24726891 261.20342907 364.23726891 260.86342907 365.25726891 C277.01619264 373.89364635 294.28284075 380.25726891 312.86342907 380.25726891 C314.38892194 378.71817886 314.38892194 378.71817886 315.86342907 376.69476891 C333.51207936 355.81053273 369.84399395 350.59319359 394.86342907 347.25726891 C394.86342907 241.65726891 394.86342907 136.05726891 394.86342907 27.25726891 C267.81342907 27.25726891 140.76342907 27.25726891 9.86342907 27.25726891 Z M-22.32251453 50.30768394 C-22.91736652 50.90456017 -23.51221851 51.50143639 -24.12509632 52.11639977 C-24.74947086 52.73902199 -25.37384541 53.36164421 -26.01714039 54.00313377 C-28.09203582 56.07360749 -30.16322811 58.1477421 -32.23422718 60.22211266 C-33.66754709 61.65475962 -35.10101548 63.08725806 -36.53462696 64.51961327 C-39.54330299 67.52681189 -42.55015473 70.53581999 -45.55576038 73.54608727 C-49.41863276 77.41465694 -53.28597581 81.27872122 -57.1546917 85.14144611 C-60.11690634 88.1000563 -63.07674615 91.06103301 -66.03586102 94.02274323 C-67.46135835 95.44891015 -68.88760578 96.87432773 -70.31459713 98.29899979 C-72.30463412 100.28651214 -74.29146222 102.27717629 -76.27744007 104.26874352 C-76.87431629 104.8635955 -77.47119251 105.45844749 -78.08615589 106.0713253 C-80.85474049 108.30117185 -80.85474049 108.30117185 -82.13657093 111.25726891 C-60.68657093 111.25726891 -39.23657093 111.25726891 -17.13657093 111.25726891 C-17.13657093 89.80726891 -17.13657093 68.35726891 -17.13657093 46.25726891 C-19.35738177 46.25726891 -20.82795421 48.82092979 -22.32251453 50.30768394 Z M201.86342907 326.25726891 C195.94088572 335.60466959 190.42740493 345.17561099 184.91787243 354.7704525 C180.29698581 362.80475787 175.60355863 370.7925103 170.86342907 378.75726891 C165.0235913 388.57480351 159.27324959 398.43928506 153.58047009 408.34271812 C148.86091151 416.54651043 144.09289128 424.720657 139.30092907 432.88226891 C138.94533916 433.48793694 138.58974926 434.09360497 138.2233839 434.71762657 C136.80522276 437.13303382 135.38705849 439.54843921 133.96876049 441.9637661 C128.78474397 450.79467137 123.61232197 459.63292411 118.48354626 468.49603844 C117.30215347 470.50953338 116.09624495 472.50870266 114.87612438 474.49896812 C113.89917614 476.10989342 113.89917614 476.10989342 112.90249157 477.75336266 C111.9968446 479.22373985 111.9968446 479.22373985 111.07290173 480.72382164 C109.48840458 483.28901426 109.48840458 483.28901426 110.86342907 486.25726891 C113.15631986 487.83289354 115.41716871 489.24882505 117.82046032 490.63617516 C118.51983212 491.04891182 119.21920391 491.46164848 119.93976879 491.88689232 C122.18034624 493.2062438 124.42803927 494.51292326 126.67592907 495.81976891 C128.17964726 496.70374743 129.68290835 497.58850402 131.18569469 498.47406578 C138.90141199 503.09249891 138.90141199 503.09249891 146.86342907 507.25726891 C152.78597242 497.90986822 158.29945321 488.33892682 163.80898571 478.74408531 C168.4298717 470.70978103 173.12321861 462.72197862 177.86342907 454.75726891 C183.0966995 445.96127105 188.26577517 437.13255264 193.36342907 428.25726891 C198.46108479 419.381982 203.6303472 410.55338099 208.86342907 401.75726891 C216.06677339 389.64850955 223.13243109 377.46657094 230.13735485 365.24213219 C231.36243314 363.12363046 232.6019014 361.01342101 233.85122204 358.90912437 C234.4933363 357.82647301 235.13545055 356.74382164 235.79702282 355.62836266 C236.38411022 354.646661 236.97119762 353.66495934 237.57607555 352.65350914 C239.02118396 350.41698807 239.02118396 350.41698807 238.86342907 348.25726891 C236.78489274 346.82907923 234.72008514 345.53570153 232.54702282 344.26508141 C231.89774319 343.87786919 231.24846355 343.49065697 230.57950878 343.09171104 C228.49067256 341.84830738 226.39590858 340.61528791 224.30092907 339.38226891 C222.91446943 338.55870961 221.52839672 337.73449855 220.14272594 336.90961266 C214.07871021 333.30640741 207.99421534 329.74583906 201.86342907 326.25726891 Z M575.92202282 329.80023766 C575.3209219 330.16571205 574.71982098 330.53118645 574.10050488 330.90773582 C572.16604948 332.08468578 570.23351189 333.26474724 568.30092907 334.44476891 C567.02435304 335.22165337 565.74766167 335.99834834 564.47085094 336.77484703 C558.24460906 340.5646149 552.03270578 344.37521458 545.86342907 348.25726891 C546.74058872 352.18101552 548.43703889 355.35637207 550.42592907 358.81976891 C550.81377575 359.50248863 551.20162243 360.18520836 551.60122204 360.88861656 C556.15923619 368.86039519 560.87555534 376.74005808 565.57021618 384.63178062 C570.9093391 393.61272633 576.15297117 402.64595629 581.36245251 411.70282555 C591.31531231 429.00538903 601.4172665 446.22128535 611.52236462 463.43524742 C614.9766226 469.32116161 618.42170411 475.21201663 621.84389782 481.11664391 C622.47038219 482.19623375 623.09686657 483.27582359 623.74233532 484.38812828 C624.90495697 486.39321119 626.06530504 488.39961507 627.22280407 490.40765953 C630.56697079 496.17162256 634.09534754 501.76077926 637.86342907 507.25726891 C650.40031907 500.26094554 662.62528632 492.76020884 674.86342907 485.25726891 C673.51158845 481.6673855 671.90882529 478.41737645 669.98452282 475.10101891 C669.401786 474.09345543 668.81904919 473.08589195 668.21865368 472.04779625 C667.58580456 470.96192223 666.95295544 469.8760482 666.30092907 468.75726891 C665.30814953 467.04531334 665.30814953 467.04531334 664.29531384 465.29877281 C657.89988314 454.27736015 651.44858292 443.28839337 644.99624157 432.30023766 C641.21156991 425.85495762 637.44040168 419.40187035 633.67592907 412.94476891 C633.10777477 411.97031822 632.53962048 410.99586754 631.95424938 409.99188805 C629.69407551 406.11476589 627.43452466 402.23728082 625.17495251 398.35980797 C616.45972707 383.40578715 607.72742703 368.46187955 598.96198559 353.53723717 C596.61284007 349.53672573 594.27039796 345.53234184 591.92983532 341.52680016 C590.74121518 339.49934973 589.55242334 337.47199995 588.36342907 335.44476891 C587.81743053 334.50745934 587.271432 333.57014977 586.70888805 332.60443687 C586.21332409 331.76155113 585.71776012 330.91866539 585.20717907 330.05023766 C584.77598766 329.3131356 584.34479626 328.57603355 583.90053844 327.81659508 C583.3871693 327.04472862 583.3871693 327.04472862 582.86342907 326.25726891 C580.56996018 326.25726891 577.75173845 328.68561972 575.92202282 329.80023766 Z M346.23842907 387.50726891 C345.5994569 387.8291317 344.96048473 388.15099449 344.30214977 388.4826107 C335.44973619 393.45298022 330.90858635 403.62055707 325.98842907 412.13226891 C322.14733839 418.71848061 318.2627503 425.27304701 314.27749157 431.77289391 C313.69640133 432.72212227 313.69640133 432.72212227 313.10357189 433.69052696 C311.56010355 436.21081286 310.01621546 438.73075984 308.46212292 441.24451256 C307.37782844 442.9986342 306.29985222 444.75650424 305.22280407 446.51508141 C304.59857555 447.5271566 303.97434704 448.5392318 303.33120251 449.58197594 C302.06768745 451.88496961 301.31664898 453.69283772 300.86342907 456.25726891 C308.683475 458.86395088 315.5404797 457.21653288 322.86733532 453.84711266 C334.7345337 447.54991612 346.63852808 437.17127046 353.92592907 425.75726891 C359.1680489 418.27081643 370.51594286 415.56161891 379.03921032 413.74555016 C379.97120251 413.58441734 380.90319469 413.42328453 381.86342907 413.25726891 C382.68198376 413.10644859 383.50053844 412.95562828 384.34389782 412.80023766 C392.76546446 411.98967904 399.08744782 416.9368038 405.86342907 421.25726891 C407.63563824 422.36210623 409.40916904 423.46482534 411.18374157 424.56586266 C415.25206326 427.09502258 419.31205231 429.63694636 423.36733532 432.18695641 C429.90430211 436.29172448 436.47357894 440.34261352 443.05092907 444.38226891 C445.23323787 445.72338686 447.41552975 447.06453234 449.59780407 448.40570641 C450.6503236 449.05249352 451.70284313 449.69928062 452.78725719 450.36566734 C473.67127391 463.20768016 494.38756527 476.30386601 515.06508923 489.47504234 C520.57096067 492.98166087 526.07839997 496.4858176 531.58632946 499.9892025 C536.32185949 503.00168221 541.05523162 506.01747591 545.78530407 509.03851891 C546.76112438 509.66113609 547.73694469 510.28375328 548.74233532 510.92523766 C550.5893871 512.1038326 552.43579451 513.2834383 554.28139782 514.46430016 C560.08280558 518.1641325 565.94573615 521.74650507 571.86342907 525.25726891 C579.75853295 518.5156341 587.57086428 511.70097748 595.17592907 504.63226891 C595.81538464 504.04107262 596.4548402 503.44987633 597.11367321 502.840765 C597.70785046 502.28469566 598.3020277 501.72862633 598.91421032 501.15570641 C599.69792004 500.42359947 599.69792004 500.42359947 600.49746227 499.6767025 C602.09799328 498.09745521 602.09799328 498.09745521 603.86342907 495.25726891 C603.54817272 494.72698082 603.23291637 494.19669273 602.9081068 493.65033531 C596.38300211 482.66475099 589.91692683 471.6483897 583.55092907 460.56976891 C578.41350533 451.63073127 573.20169515 442.74032141 567.92592907 433.88226891 C560.25749539 421.00364451 552.81089038 408.00543635 545.41884899 394.96674156 C543.93205119 392.3768056 542.40904125 389.81245624 540.86342907 387.25726891 C539.60530407 387.42226891 538.34717907 387.58726891 537.05092907 387.75726891 C509.17342551 390.40485304 481.81420449 384.7101846 454.73452282 378.67133141 C417.44808138 370.40134167 380.88241343 369.17585548 346.23842907 387.50726891 Z M249.86342907 389.25726891 C242.24262682 401.92271091 234.6438896 414.60037118 227.11342907 427.31976891 C226.46003551 428.42328697 225.80664196 429.52680504 225.1334486 430.66376305 C222.65965524 434.84264514 220.18631005 439.02179237 217.71316051 443.20105553 C215.29632891 447.28478385 212.87770897 451.36744624 210.45763683 455.44925499 C209.24893162 457.48954067 208.04255098 459.53118796 206.83632946 461.57294273 C203.12234765 467.84858729 199.36963039 474.09075642 195.47671032 480.25726891 C194.47728405 481.85200035 194.47728405 481.85200035 193.45766735 483.47894859 C192.21865869 485.44676721 190.9664018 487.40632825 189.69887829 489.35590172 C189.15892223 490.21538414 188.61896618 491.07486656 188.06264782 491.96039391 C187.58658092 492.69934898 187.11051403 493.43830406 186.62002087 494.19965172 C185.61768087 496.25742115 185.61768087 496.25742115 186.58095837 498.34784508 C188.4942016 501.19640311 190.73044938 503.74462503 192.98842907 506.31976891 C197.95983422 512.0790328 202.50045515 518.0190913 206.86342907 524.25726891 C209.99221329 523.46976614 209.99221329 523.46976614 212.05092907 521.00726891 C219.98602791 513.24850559 228.6076246 510.88276929 239.48842907 509.94476891 C247.51012048 510.05444047 256.77871004 513.04179545 262.86342907 518.25726891 C264.72114421 520.24393607 266.50693197 522.26707353 268.25014782 524.35492516 C269.71549614 526.08282984 271.23802066 527.68096649 272.86342907 529.25726891 C273.38807751 529.04070641 273.91272594 528.82414391 274.45327282 528.60101891 C283.94917012 525.18818394 295.71971023 524.366899 305.36342907 527.75726891 C315.25657865 532.60289319 321.08326907 540.01880166 324.86342907 550.25726891 C325.78156484 553.90763478 326.43658606 557.51871286 326.86342907 561.25726891 C327.63686657 561.41582359 328.41030407 561.57437828 329.20717907 561.73773766 C340.34890154 564.2335938 348.17342259 568.44311656 354.55092907 578.19476891 C357.84044001 583.70134835 359.10046542 588.89923848 359.86342907 595.25726891 C360.70905407 595.48801109 361.55467907 595.71875328 362.42592907 595.95648766 C373.23956441 599.06540782 381.02510849 602.2784183 386.86342907 612.25726891 C392.52395104 624.12085489 392.52395104 624.12085489 391.25796032 630.13226891 C390.51408607 634.12622458 390.52836137 636.38471676 391.86342907 640.25726891 C396.68534055 645.14900121 403.09544327 648.29533905 409.03579235 651.62250328 C411.8169412 653.23039248 414.4771333 654.94683316 417.14077282 656.74164391 C417.97697155 657.30037193 418.81317028 657.85909996 419.67470837 658.43475914 C421.26142368 659.49855256 422.84266026 660.57057927 424.41738415 661.6520443 C429.51566089 664.96516442 432.77444024 665.99002262 438.86342907 665.25726891 C443.12009606 663.01564466 443.12009606 663.01564466 445.86342907 659.25726891 C446.36338399 654.92432628 446.33945978 652.92424477 443.76967907 649.32367516 C440.8906184 646.06603174 437.63794193 643.7684037 433.98842907 641.44476891 C433.34148083 641.0224398 432.69453259 640.6001107 432.02797985 640.16498375 C426.73030132 636.73587121 421.33321731 633.46894218 415.8756361 630.30097008 C409.97973997 626.85044769 405.13147387 623.93540082 402.86342907 617.25726891 C402.56379925 612.26931369 403.11546825 609.17783607 406.30092907 605.25726891 C410.42423699 602.03907736 413.72458937 601.716275 418.86342907 602.25726891 C421.89858532 603.47992516 421.89858532 603.47992516 424.92592907 605.31976891 C425.49609753 605.66193443 426.06626598 606.00409996 426.65371227 606.35663414 C434.6446433 611.22305847 442.440673 616.42343495 450.25014782 621.57367516 C454.11815204 624.11732678 457.9918274 626.6514535 461.88296032 629.15961266 C462.7670155 629.73058678 463.65107067 630.3015609 464.5619154 630.88983727 C469.14234688 633.61127534 473.65854294 634.04642541 478.86342907 633.25726891 C482.24067638 631.57214137 484.36638597 629.36830642 485.92592907 625.88226891 C485.81478604 621.21426175 484.50901514 617.94777171 481.28921032 614.64008141 C475.03303726 609.50239901 467.88048792 605.52076685 460.96108532 601.35492516 C453.5721691 596.89208337 446.31419985 592.22325149 439.04702282 587.56586266 C435.86864475 585.52906806 432.67839733 583.51710707 429.46108532 581.54242516 C428.81236462 581.13975426 428.16364391 580.73708336 427.49526501 580.32221031 C425.81634954 579.28178739 424.13117674 578.25148 422.44546032 577.22211266 C419.14601778 574.7113417 417.25984416 572.30929997 416.46499157 568.19476891 C416.51973178 563.66957855 417.18160385 561.0565213 419.86342907 557.25726891 C419.86342907 556.59726891 419.86342907 555.93726891 419.86342907 555.25726891 C425.13003724 552.96156791 429.36572198 552.97143734 434.86342907 554.25726891 C437.75469176 555.58419688 440.27096829 557.2983337 442.86342907 559.13226891 C444.3527046 560.14053619 445.84229696 561.14833564 447.33217907 562.15570641 C448.08370251 562.6722982 448.83522594 563.18889 449.60952282 563.72113609 C453.15050832 566.13446806 456.75771672 568.44229464 460.36342907 570.75726891 C461.78045412 571.67338147 463.19712016 572.59004957 464.61342907 573.50726891 C465.66530407 574.18789391 465.66530407 574.18789391 466.73842907 574.88226891 C473.11342907 579.00726891 473.11342907 579.00726891 475.2416029 580.38446617 C476.64751524 581.294079 478.05360037 582.20342483 479.45986462 583.11249352 C483.16758924 585.50983688 486.8715279 587.91278424 490.57046032 590.32367516 C491.34131969 590.82512047 492.11217907 591.32656578 492.90639782 591.84320641 C494.38277074 592.80373819 495.85808992 593.76589222 497.33217907 594.72992516 C497.99862438 595.16305016 498.66506969 595.59617516 499.35171032 596.04242516 C499.9347694 596.42277916 500.51782848 596.80313316 501.11855602 597.19501305 C505.65693801 599.95792056 509.48150444 601.15425634 514.86342907 600.25726891 C517.67346367 598.4636298 519.37283375 597.23845955 520.86342907 594.25726891 C521.53554482 589.15093113 521.53554482 589.15093113 519.80044079 584.48944664 C515.87466249 579.94209783 511.74774662 576.97148404 506.55092907 574.00726891 C504.93386722 573.05222677 503.31800827 572.09514539 501.70327282 571.13617516 C500.89100231 570.65680504 500.0787318 570.17743492 499.24184704 569.68353844 C495.64148236 567.52450226 492.12602937 565.24296013 488.61342907 562.94476891 C482.12104349 558.71159927 475.59506 554.5349897 469.05092907 550.38226891 C466.25956036 548.6049196 463.46887892 546.82649584 460.67837048 545.04779625 C458.78674097 543.84456895 456.89315123 542.64441835 454.99770641 541.44721031 C452.23949362 539.70430802 449.4884139 537.9506159 446.73842907 536.19476891 C445.90335827 535.67092613 445.06828747 535.14708336 444.20791149 534.60736656 C439.11328767 531.33644358 434.91770328 528.42009153 432.92592907 522.44476891 C432.84256487 518.1931946 433.76667016 514.95311243 435.86342907 511.25726891 C439.25540509 508.15603369 442.21717593 507.95838868 446.7337904 508.02924156 C450.20656835 508.4010832 453.08178969 509.82047916 456.11342907 511.44476891 C456.79324841 511.79716637 457.47306774 512.14956383 458.17348766 512.51264 C466.52433596 516.96379082 474.34242049 522.27292124 482.21303844 527.50873375 C486.68606714 530.45971307 491.2123378 533.32610254 495.73842907 536.19476891 C497.58481998 537.36658601 499.43117398 538.53846127 501.27749157 539.71039391 C502.1969154 540.29369469 503.11633923 540.87699547 504.06362438 541.47797203 C506.8827142 543.26952475 509.6978422 545.06714682 512.51186657 546.86664391 C517.07689414 549.78585265 521.65256334 552.68780306 526.23256969 555.58344078 C528.84423627 557.2450579 531.44009998 558.92946386 534.03530407 560.61664391 C535.64420774 561.64342449 537.25355976 562.66950299 538.86342907 563.69476891 C539.5869154 564.17389732 540.31040173 564.65302574 541.05581188 565.1466732 C544.38978875 567.24366079 546.14184526 568.27436805 550.16030407 568.17914391 C554.88051299 566.56936167 557.95129087 563.96257076 560.30092907 559.56976891 C561.0889248 554.92934961 561.2522291 550.79986765 559.86342907 546.25726891 C557.47120747 543.58272847 554.62877021 542.06673132 551.48842907 540.38226891 C549.73661378 539.36231651 547.98532558 538.34145837 546.23452282 537.31976891 C545.33717419 536.81187828 544.43982555 536.30398766 543.51528454 535.78070641 C539.44496363 533.44238911 535.50389172 530.912165 531.55092907 528.38226891 C529.96811091 527.38145369 528.38476836 526.38146736 526.80092907 525.38226891 C521.54497812 522.05828066 516.29725184 518.7214268 511.05092907 515.38226891 C509.6661134 514.5013961 509.6661134 514.5013961 508.25332165 513.60272789 C503.6843612 510.69513537 499.1194301 507.78157031 494.56264782 504.85492516 C481.49772361 496.47787576 468.27649031 488.37822752 454.99198437 480.35651207 C449.33658591 476.94132784 443.6927198 473.50737036 438.05092907 470.06976891 C432.33161325 466.58593183 426.61150931 463.10344177 420.88686657 459.62836266 C419.89807507 459.0272567 418.90928356 458.42615074 417.89052868 457.80682945 C415.93762289 456.62138363 413.98275061 455.43917042 412.02578259 454.26044273 C407.67287035 451.62896591 403.37533354 448.96241011 399.17983532 446.08539391 C398.4649696 445.60489586 397.75010387 445.12439781 397.01357555 444.62933922 C395.71705775 443.75092691 394.43476822 442.85089866 393.17226696 441.92426109 C390.63110635 440.21849678 388.60199247 439.20586256 385.51333141 439.42084312 C377.8964336 441.03784674 373.8415142 444.09474847 368.86342907 449.95258141 C357.50160287 463.04531082 344.61635098 472.28402191 328.86342907 479.25726891 C327.58919079 479.83347984 327.58919079 479.83347984 326.28921032 480.42133141 C314.40812946 484.85859372 300.27700836 483.2428107 288.74624157 478.74164391 C281.025105 474.76599093 277.83681918 469.23899385 274.86342907 461.25726891 C272.38190419 448.56977329 280.97504148 437.35098783 287.36342907 427.13226891 C288.87835556 424.69493474 290.3885376 422.25472856 291.89467907 419.81195641 C292.42823009 418.94773064 292.42823009 418.94773064 292.97255993 418.06604576 C295.52511229 413.89692726 297.7893423 409.68125185 299.86342907 405.25726891 C299.24113415 405.11740562 298.61883923 404.97754234 297.97768688 404.83344078 C284.04761615 401.65380629 270.97588016 397.7118074 257.84682751 392.07562828 C255.22921777 390.99559039 252.56476199 390.10305365 249.86342907 389.25726891 Z M212.38491344 555.46381187 C211.04451271 557.04381569 209.66756055 558.59265541 208.28530407 560.13617516 C204.40903196 564.5910994 201.70891531 568.15371709 201.55874157 574.21430016 C202.08019024 577.71068033 203.49528145 579.70216226 205.86342907 582.25726891 C209.37548075 584.5010797 212.71986905 584.65556674 216.82827282 583.97211266 C223.57546129 581.60217889 228.23462562 573.43839098 232.52358532 568.10101891 C234.82860601 565.29959143 237.22411088 562.61801567 239.67592907 559.94476891 C241.07684916 558.386828 242.47336616 556.82490472 243.86342907 555.25726891 C244.60012829 554.42775719 244.60012829 554.42775719 245.35171032 553.58148766 C247.52941337 550.80510336 248.12422201 548.62971443 247.92592907 545.19476891 C247.15793668 541.01881028 245.16869526 538.91760511 241.86342907 536.25726891 C229.18036375 529.91573625 219.30809277 547.21487294 212.38491344 555.46381187 Z M278.94155407 554.81586266 C274.3927506 559.49102178 270.23236371 564.38274652 266.14858532 569.46820641 C263.95882106 572.14084176 261.69231709 574.70561769 259.36342907 577.25726891 C246.29014194 589.85232721 246.29014194 589.85232721 238.80874157 605.28070641 C239.1798514 610.57309741 239.1798514 610.57309741 242.30092907 614.75726891 C246.53166768 617.23379882 248.86149097 617.90268027 253.86342907 617.25726891 C261.59374824 612.76486851 267.47933027 603.97196722 273.19204235 597.22699547 C274.79170525 595.34179532 276.40128102 593.46571275 278.01577282 591.59320641 C280.49464805 588.71785344 282.9641066 585.83473441 285.42592907 582.94476891 C286.39616586 581.80579528 287.36754801 580.66779649 288.33999157 579.53070641 C289.74852686 577.88113834 291.15065374 576.22635031 292.55092907 574.56976891 C293.35917126 573.61715172 294.16741344 572.66453453 295.00014782 571.68305016 C297.8130044 568.02102932 298.22563668 564.84053635 298.13296032 560.25726891 C297.67783012 556.88007088 296.42729856 555.43655797 293.86342907 553.25726891 C288.15406665 550.76612747 283.95730011 550.74821495 278.94155407 554.81586266 Z M305.05092907 597.81976891 C304.53103405 598.43892174 304.01113903 599.05807457 303.47548962 599.69598961 C301.92925419 601.54258489 300.3945455 603.39812887 298.86342907 605.25726891 C298.05131969 606.23953453 297.23921032 607.22180016 296.40249157 608.23383141 C294.94294717 610.01089073 293.48833034 611.79201122 292.03921032 613.57758141 C290.4819815 615.49546107 288.91584554 617.40612211 287.34389782 619.31195641 C286.52534313 620.30453453 285.70678844 621.29711266 284.86342907 622.31976891 C284.12092907 623.21824547 283.37842907 624.11672203 282.61342907 625.04242516 C279.91098992 628.46269971 279.51834746 630.82571075 279.58217907 635.22211266 C280.03333606 638.48673479 281.48220771 640.06911955 283.86342907 642.25726891 C286.92541342 644.07790825 288.71783933 644.25991599 292.30092907 644.19476891 C299.7925611 642.22328679 303.58597549 636.31216003 308.23452282 630.49164391 C311.21603189 626.78183612 314.35401654 623.21285478 317.48842907 619.63226891 C327.0103542 610.13019079 327.0103542 610.13019079 332.11342907 598.44476891 C331.82379045 594.7518765 331.18976205 593.12641291 328.86342907 590.25726891 C318.45951306 583.55252303 311.81683186 589.60331028 305.05092907 597.81976891 Z M339.61342907 632.19476891 C338.91661022 633.04204552 338.91661022 633.04204552 338.20571423 633.90643883 C337.23807043 635.08924184 336.27472382 636.27557262 335.31557751 637.46527672 C333.88368546 639.23227195 332.42612169 640.97536485 330.96499157 642.71820641 C330.05459138 643.8341344 329.14567995 644.95127901 328.23842907 646.06976891 C327.42116344 647.06621422 326.60389782 648.06265953 325.76186657 649.08930016 C323.35377874 653.10773478 323.01593997 655.59138845 322.86342907 660.25726891 C324.5615162 663.78406525 325.84584217 665.66813965 329.23842907 667.63226891 C333.35118311 668.61149606 336.44107518 668.96958738 340.29702282 667.03851891 C343.10094045 665.09242082 344.8326606 663.13496172 346.92592907 660.44476891 C349.57148801 657.09996291 352.23140339 653.8038808 355.04311657 650.59711266 C355.58315319 649.98005455 356.12318981 649.36299644 356.67959118 648.72723961 C357.74073081 647.51973589 358.80648531 646.31626827 359.87734509 645.11737633 C363.08322551 641.44891128 365.64313433 638.23972081 366.01577282 633.19476891 C365.60380831 629.47959802 364.9824326 627.4357742 362.86342907 624.25726891 C359.3666698 621.92609606 357.3418129 621.69819625 353.24233532 621.69086266 C347.23780055 623.12051379 343.3622082 627.57581188 339.61342907 632.19476891 Z " fill="#960C12" transform="translate(254.13657093048096,259.74273109436035)"/>
<path d="M0 0 C1.2681199 -0.00384115 2.53623979 -0.00768229 3.84278756 -0.01163983 C5.25287654 -0.01085959 6.66296546 -0.00998081 8.07305431 -0.00901413 C9.568821 -0.01159774 11.06458699 -0.01461089 12.56035203 -0.01801753 C16.67657509 -0.02609118 20.79278072 -0.0278773 24.90901077 -0.028615 C29.34606671 -0.0304649 33.78311359 -0.03801187 38.2201643 -0.04475021 C47.92463216 -0.05833622 57.62909589 -0.06435855 67.33357167 -0.06876087 C73.39147005 -0.0715226 79.44936684 -0.0757598 85.50726414 -0.08026505 C102.27553011 -0.0924576 119.04379481 -0.10275724 135.81206512 -0.10614014 C136.88540659 -0.1063597 137.95874806 -0.10657927 139.06461502 -0.10680549 C140.67850328 -0.10713291 140.67850328 -0.10713291 142.32499534 -0.10746694 C144.50527179 -0.1079104 146.68554825 -0.10835697 148.8658247 -0.10880661 C149.94731968 -0.10902804 151.02881467 -0.10924947 152.14308222 -0.10947761 C169.67210465 -0.11342669 187.20108553 -0.13088413 204.73009191 -0.15416613 C222.72118143 -0.17786929 240.7122501 -0.1903415 258.70335549 -0.19150805 C268.80702234 -0.19242535 278.91063505 -0.19819144 289.01428699 -0.21632767 C297.61668914 -0.23171461 306.21902041 -0.2368574 314.8214337 -0.22858956 C319.21113472 -0.2246782 323.60069295 -0.22563639 327.99037647 -0.23964691 C332.00916858 -0.25235649 336.02771016 -0.25121433 340.04650178 -0.2390562 C341.50006614 -0.2370941 342.95364808 -0.2402013 344.40718774 -0.24890056 C359.85793851 -0.33551436 359.85793851 -0.33551436 365.73325634 4.75642776 C368.13807152 9.83325981 368.24973063 14.53943232 366.92075634 19.94392776 C364.25726214 24.06023698 361.43817716 25.70638231 356.85825634 27.13142776 C351.96073505 27.70515884 347.07922962 27.66801433 342.15571117 27.63263321 C340.655775 27.63652911 339.15584252 27.64217187 337.65591872 27.64940411 C333.54667374 27.66413506 329.43781288 27.65399174 325.32858038 27.63966739 C320.89228129 27.62854821 316.45603566 27.64050325 312.0197401 27.64950943 C303.33453422 27.66343676 294.64947381 27.65588978 285.96427487 27.64083385 C275.85074934 27.62396939 265.73726001 27.6271845 255.62372477 27.63092793 C237.58045329 27.63680543 219.53725162 27.62263844 201.49399853 27.5979805 C183.98322973 27.57405293 166.47255417 27.56697916 148.96177197 27.57747269 C129.89329588 27.58887921 110.82486291 27.59081579 91.75638735 27.57637459 C89.72361827 27.57484874 87.69084919 27.57332839 85.6580801 27.57181358 C84.65791225 27.57105577 83.6577444 27.57029795 82.62726843 27.56951718 C75.57625063 27.56477285 68.52525208 27.56662679 61.47423458 27.57087898 C52.88396186 27.57580301 44.29377733 27.56983282 35.70352481 27.54998469 C31.32000673 27.5401062 26.936623 27.53501362 22.55309772 27.5428772 C18.54128376 27.54992681 14.52974106 27.54314636 10.51796289 27.52527357 C9.06588931 27.52122445 7.61379106 27.52223673 6.16172664 27.52879243 C4.18892717 27.5369376 2.21607517 27.52483949 0.24330235 27.5117445 C-0.85279059 27.51071537 -1.94888353 27.50968624 -3.0781914 27.50862592 C-8.57983832 26.83123872 -12.59820148 24.33118146 -16.14174366 20.13142776 C-17.72473951 15.38244021 -17.69382262 11.56683305 -15.89174366 6.88142776 C-13.83611913 3.65116064 -12.07302469 1.75783703 -8.39669639 0.56542325 C-5.56145649 0.01974382 -2.88870729 0.0032812 0 0 Z " fill="#960C12" transform="translate(225.14174365997314,478.8685722351074)"/>
<path d="M0 0 C1.0461337 -0.00311998 2.0922674 -0.00623996 3.17010212 -0.00945449 C6.68075991 -0.0174413 10.19124518 -0.01110808 13.7019043 -0.00482178 C16.21666566 -0.00753133 18.73142624 -0.01109206 21.2461853 -0.01544189 C27.37068303 -0.02362379 33.49511672 -0.02241388 39.61961532 -0.01661661 C44.5970511 -0.01210014 49.57447315 -0.01148715 54.5519104 -0.01366425 C55.26028181 -0.01397071 55.96865323 -0.01427718 56.69849044 -0.01459293 C58.13752612 -0.01523238 59.57656179 -0.01588081 61.01559746 -0.01653811 C74.50994604 -0.02224142 88.00426745 -0.01568351 101.49861157 -0.00493738 C113.07778265 0.00399813 124.65691363 0.00244609 136.23608398 -0.0067749 C149.68209462 -0.01747753 163.12808143 -0.02169209 176.57409573 -0.01555037 C178.00784238 -0.01491328 179.44158903 -0.01428453 180.87533569 -0.01366425 C181.58076942 -0.01335569 182.28620315 -0.01304714 183.01301366 -0.01272924 C187.98456253 -0.01100228 192.95609629 -0.01391744 197.92764282 -0.01862335 C204.61871955 -0.02481769 211.30970878 -0.02040854 218.00078201 -0.00883484 C220.45944721 -0.00618573 222.91811878 -0.0069576 225.37678146 -0.01136017 C228.72702315 -0.01680704 232.07702009 -0.00999169 235.42724609 0 C236.40535405 -0.00446144 237.38346201 -0.00892289 238.3912096 -0.01351953 C246.80750069 0.03532768 246.80750069 0.03532768 250.71362305 2.25396729 C253.86011522 6.07470778 254.85315779 10.36094895 254.71362305 15.25396729 C253.54377155 19.38285491 252.46887302 21.59008037 249.24294376 24.42576694 C244.47349698 26.89635688 240.60202268 26.80732517 235.30699158 26.75517273 C234.26000345 26.76070713 233.21301533 26.76624152 232.13430029 26.77194363 C228.6265641 26.78555516 225.11953878 26.77057754 221.61181641 26.75567627 C219.09690549 26.75945922 216.58199666 26.76495906 214.0670929 26.77204895 C207.94600318 26.78457186 201.82517705 26.77843154 195.70410054 26.76337337 C188.57535671 26.74650438 181.44666419 26.7497246 174.31790657 26.75346745 C161.59877751 26.75934445 148.87974749 26.74518019 136.16064453 26.72052002 C123.81913542 26.69659464 111.4777586 26.68951792 99.13623047 26.70001221 C85.69495969 26.71142117 72.25375007 26.71335215 58.81248003 26.69891411 C57.37931065 26.69738828 55.94614127 26.69586792 54.51297188 26.6943531 C53.80783314 26.69359529 53.10269439 26.69283748 52.37618781 26.6920567 C47.40712863 26.68731409 42.43809677 26.6891651 37.46903801 26.6934185 C30.78200389 26.69885914 24.09518028 26.68810509 17.4081707 26.66646385 C14.95112222 26.66088993 12.49405613 26.6604362 10.03700638 26.66541672 C6.68888949 26.67135335 3.34133686 26.65889495 -0.00672913 26.64164734 C-0.98415496 26.64765738 -1.9615808 26.65366743 -2.96862561 26.6598596 C-7.88592429 26.61364411 -11.3257359 26.50575848 -15.28637695 23.25396729 C-18.58122649 19.42481782 -19.95893065 16.41648364 -19.6730957 11.28131104 C-18.96624362 7.57569256 -17.54165006 5.30163364 -15.28637695 2.25396729 C-10.55840989 -0.53193412 -5.31445113 -0.0242408 0 0 Z " fill="#960C12" transform="translate(338.286376953125,383.74603271484375)"/>
<path d="M0 0 C0.90911092 -0.00297112 1.81822183 -0.00594224 2.75488156 -0.0090034 C5.80788503 -0.01769029 8.86084928 -0.01919864 11.91386414 -0.02069092 C14.10011377 -0.02531907 16.28636259 -0.03034372 18.47261047 -0.03573608 C24.41686861 -0.04886165 30.36111546 -0.05530525 36.30538583 -0.05974674 C40.01814886 -0.06267697 43.7309088 -0.06678166 47.44367027 -0.07125092 C59.72484712 -0.08571173 72.00601548 -0.09504156 84.28720007 -0.09911743 C85.28019908 -0.09945158 85.28019908 -0.09945158 86.29325867 -0.09979248 C87.28747204 -0.10012463 87.28747204 -0.10012463 88.30177053 -0.10046348 C99.04095234 -0.10441127 109.78006628 -0.12186561 120.51922188 -0.145152 C131.54943674 -0.16887615 142.57961585 -0.18107043 153.60985631 -0.18249393 C159.80114511 -0.18354269 165.99233817 -0.18946589 172.18360329 -0.20731354 C178.00713361 -0.22377454 183.83049601 -0.22595922 189.65404129 -0.21717453 C191.79097251 -0.21640313 193.92791269 -0.22076043 196.06482124 -0.23063278 C198.98319329 -0.24332437 201.90096808 -0.23749045 204.81933594 -0.22705078 C206.08618059 -0.23913539 206.08618059 -0.23913539 207.37861806 -0.25146413 C212.68754718 -0.20708198 216.3941393 0.62785129 221.10014343 3.14044189 C223.8821754 6.57161465 224.83683596 9.75198399 225.10014343 14.14044189 C224.17230814 19.03266435 223.08270652 22.06817894 219.10014343 25.14044189 C214.48383491 27.5659419 210.1643749 27.4237888 205.08003235 27.40113831 C204.17006701 27.40496385 203.26010167 27.4087894 202.32256162 27.41273087 C199.27261481 27.42305179 196.22285657 27.41907041 193.17289734 27.4151001 C190.98649928 27.41944708 188.80010276 27.42463019 186.6137085 27.43058777 C180.67362423 27.4439908 174.73360354 27.44455495 168.7935071 27.44202447 C163.83568094 27.44095559 158.8778677 27.44583604 153.9200443 27.45062989 C141.55494988 27.46236454 129.18988684 27.46149743 116.82479052 27.45507308 C106.09213392 27.44990497 95.35956812 27.46115673 84.62692948 27.4801713 C73.60119701 27.49955505 62.57550959 27.50751337 51.54976022 27.50404805 C45.36184736 27.50223414 39.17401764 27.50488209 32.98611832 27.51876259 C27.16666806 27.5313278 21.34739962 27.52940907 15.52795219 27.5163517 C13.39263663 27.51398349 11.25730833 27.51672934 9.12200737 27.52497482 C6.20586745 27.53542312 3.29033971 27.52735675 0.3742218 27.5146637 C-0.46965918 27.52203798 -1.31354016 27.52941227 -2.18299329 27.53701001 C-7.49199759 27.48843575 -11.18394799 26.62699613 -15.89985657 24.14044189 C-18.89237666 20.94842046 -19.81931159 18.20766287 -20.14985657 13.82794189 C-19.81877151 8.94443728 -18.56412449 5.6973377 -14.96235657 2.32794189 C-10.26557219 -0.37626729 -5.28126346 -0.00537573 0 0 Z " fill="#960C12" transform="translate(227.8998565673828,961.8595581054688)"/>
<path d="M0 0 C1.14812164 -0.00571014 2.29624329 -0.01142029 3.47915649 -0.01730347 C4.73482925 -0.01842133 5.99050201 -0.01953918 7.28422546 -0.02069092 C8.62319576 -0.02532149 9.96216474 -0.03034648 11.3011322 -0.03573608 C14.93554647 -0.04883883 18.56994227 -0.05530085 22.20437646 -0.05974674 C24.47655691 -0.06268083 26.74873234 -0.06678627 29.02091026 -0.07125092 C36.13453978 -0.0849201 43.2481578 -0.09458965 50.36179954 -0.09845281 C58.56516548 -0.10293263 66.76836472 -0.12047933 74.97167999 -0.1494534 C81.31831779 -0.17108935 87.66490875 -0.1811581 94.01158303 -0.18249393 C97.79956901 -0.18354056 101.58739817 -0.18941819 105.37534523 -0.20731354 C108.94013265 -0.22382749 112.5046459 -0.22593379 116.06945801 -0.21717453 C117.9944356 -0.21604066 119.91940424 -0.22973224 121.84432983 -0.243927 C128.97554533 -0.20958888 134.49255974 0.04246088 140.24003601 4.64044189 C143.17395232 8.5523303 142.82320554 13.49329379 142.36503601 18.14044189 C140.74672792 21.86255051 138.83118373 24.03974631 135.36503601 26.14044189 C132.12012413 27.18051488 129.11883578 27.27077126 125.7233429 27.28088379 C124.57377609 27.28659393 123.42420929 27.29230408 122.23980713 27.29818726 C120.35394142 27.29986404 120.35394142 27.29986404 118.42997742 27.30157471 C117.0893846 27.30620523 115.7487931 27.31123021 114.40820312 27.31661987 C110.7697239 27.32972187 107.13126311 27.33618433 103.492764 27.34063053 C101.21858123 27.34356434 98.94440347 27.34766969 96.67022324 27.3521347 C89.55179036 27.36580279 82.43336897 27.37547326 75.31492388 27.3793366 C67.10305798 27.38381816 58.89135845 27.40137344 50.67954314 27.43033719 C44.32782546 27.45196134 37.97615458 27.46204124 31.6244005 27.46337771 C27.83253412 27.46442506 24.0408243 27.47031806 20.24899673 27.48819733 C16.68175011 27.50469118 13.11477753 27.50682731 9.54750633 27.49805832 C7.61875795 27.49692247 5.6900186 27.51062903 3.76132202 27.52481079 C-3.48744623 27.48986509 -8.29603961 27.02816027 -13.94746399 22.14044189 C-17.09106666 18.41469058 -16.95372973 14.84223656 -16.63496399 10.14044189 C-15.04288228 6.00102944 -13.51076105 3.37196141 -9.63496399 1.14044189 C-6.38925328 0.10749506 -3.39489288 0.01012391 0 0 Z " fill="#960C12" transform="translate(224.6349639892578,864.8595581054688)"/>
<path d="M0 0 C1.09591713 -0.00744736 1.09591713 -0.00744736 2.213974 -0.01504517 C4.62597605 -0.02962464 7.03791233 -0.03646187 9.44995117 -0.04199219 C11.13140361 -0.04774727 12.81285605 -0.05350496 14.49430847 -0.05926514 C18.01899521 -0.06976325 21.54365921 -0.07561364 25.06835938 -0.07910156 C29.5741189 -0.08458265 34.07957569 -0.10860737 38.58524036 -0.13707352 C42.05890263 -0.15574203 45.5324926 -0.16090774 49.00620079 -0.16243744 C50.66671083 -0.16545518 52.32721987 -0.17345392 53.98768044 -0.18662262 C56.31623679 -0.20377115 58.64406152 -0.20178175 60.97265625 -0.1953125 C61.99146378 -0.20913467 61.99146378 -0.20913467 63.03085327 -0.22323608 C68.00150831 -0.1802055 71.32712048 0.93589418 75.68041992 3.16113281 C78.67294002 6.35315425 79.59987494 9.09391184 79.93041992 13.47363281 C79.59933486 18.35713743 78.34468785 21.60423701 74.74291992 24.97363281 C70.47075047 27.43336674 66.16831558 27.31441554 61.3449707 27.32226562 C60.61275299 27.32723053 59.88053528 27.33219543 59.12612915 27.33731079 C56.7093206 27.35188855 54.29257767 27.35872669 51.87573242 27.36425781 C50.19188435 27.3700124 48.50803629 27.3757701 46.82418823 27.38153076 C43.29530533 27.39202793 39.76644514 27.39787915 36.23754883 27.40136719 C31.72272324 27.40685251 27.20819914 27.43088666 22.69346809 27.45933914 C19.21555715 27.4779901 15.73771853 27.4831724 12.25976181 27.48470306 C10.59563421 27.48772403 8.93150771 27.49573376 7.26742935 27.50888824 C4.93627397 27.52600229 2.60585145 27.52405588 0.2746582 27.51757812 C-0.40814209 27.52679291 -1.09094238 27.53600769 -1.79443359 27.54550171 C-7.47613009 27.49621036 -11.36318316 25.85315177 -15.63208008 22.16113281 C-18.77568275 18.4353815 -18.63834582 14.86292748 -18.31958008 10.16113281 C-16.72749836 6.02172036 -15.19537714 3.39265233 -11.31958008 1.16113281 C-7.61100393 -0.09059924 -3.86953764 0.00631218 0 0 Z " fill="#960C12" transform="translate(226.319580078125,575.8388671875)"/>
<path d="M0 0 C1.46237091 -0.01441132 1.46237091 -0.01441132 2.95428467 -0.02911377 C4.00223206 -0.03336365 5.05017944 -0.03761353 6.12988281 -0.04199219 C7.75763641 -0.0505423 7.75763641 -0.0505423 9.41827393 -0.05926514 C11.71471178 -0.06870803 14.01116315 -0.0752463 16.30761719 -0.07910156 C19.80590725 -0.08879212 23.30360595 -0.11981678 26.80175781 -0.15136719 C29.03612934 -0.15789915 31.27050505 -0.16314886 33.50488281 -0.16699219 C34.54473328 -0.17933899 35.58458374 -0.19168579 36.65594482 -0.20440674 C43.41192197 -0.1838752 50.03387299 0.11199799 55.08300781 5.16113281 C56.94400213 10.74411578 56.98780127 16.60642187 55.02050781 22.16113281 C50.94731455 26.36571941 46.35994239 27.33449057 40.7019043 27.54931641 C38.61939348 27.56898675 36.53667114 27.57149438 34.45410156 27.55957031 C33.34623795 27.56244049 32.23837433 27.56531067 31.09693909 27.56826782 C28.7629444 27.57030284 26.42893245 27.56481246 24.0949707 27.55224609 C20.52874562 27.53616995 16.96365123 27.5521226 13.39746094 27.57128906 C11.12467199 27.56930683 8.85188374 27.56546357 6.57910156 27.55957031 C4.98514809 27.56867935 4.98514809 27.56867935 3.35899353 27.57797241 C-3.43020576 27.51364254 -7.94292686 26.73329742 -13.22949219 22.16113281 C-16.37309486 18.4353815 -16.23575793 14.86292748 -15.91699219 10.16113281 C-14.32491047 6.02172036 -12.79278925 3.39265233 -8.91699219 1.16113281 C-5.89973462 0.22668779 -3.15042852 0.02515238 0 0 Z " fill="#960C12" transform="translate(223.9169921875,766.8388671875)"/>
<path d="M0 0 C1.04135605 -0.00953201 2.0827121 -0.01906403 3.15562439 -0.02888489 C4.82764671 -0.02751778 4.82764671 -0.02751778 6.53344727 -0.02612305 C8.26607567 -0.03255074 8.26607567 -0.03255074 10.03370667 -0.03910828 C12.47379908 -0.04484516 14.9139086 -0.04535657 17.35400391 -0.04101562 C21.08273551 -0.0378563 24.81067312 -0.06132181 28.53930664 -0.08666992 C30.91235252 -0.08894306 33.28540052 -0.08964634 35.65844727 -0.08862305 C37.32743324 -0.10243767 37.32743324 -0.10243767 39.03013611 -0.11653137 C45.60272299 -0.0773366 50.59570923 0.24699669 55.50610352 5.0949707 C57.84216278 9.49875809 57.36358969 14.45607201 56.66235352 19.2746582 C55.29508499 22.0668196 54.08182674 23.19278589 51.66235352 25.2746582 C48.63226259 26.28468851 46.53977053 26.41887466 43.36816406 26.45166016 C42.28661545 26.46449539 41.20506683 26.47733063 40.09074402 26.49055481 C38.92199234 26.49794174 37.75324066 26.50532867 36.54907227 26.51293945 C34.74561089 26.52504707 34.74561089 26.52504707 32.90571594 26.53739929 C30.35952191 26.55123792 27.81330934 26.56196106 25.26708984 26.56982422 C21.37570029 26.58704383 17.4851587 26.63093467 13.59399414 26.67504883 C11.1206931 26.68517517 8.64738483 26.69369145 6.17407227 26.70043945 C5.01139328 26.71794754 3.84871429 26.73545563 2.65080261 26.75349426 C-3.63986358 26.73662563 -7.60898644 26.60354634 -12.33764648 22.2746582 C-15.4687747 17.93148036 -15.7139206 14.51465095 -14.91186523 9.3918457 C-14.05858161 6.24572511 -12.72617686 4.46414438 -10.33764648 2.2746582 C-6.78093031 0.56069801 -3.9306714 0.01985023 0 0 Z " fill="#960C12" transform="translate(223.337646484375,672.725341796875)"/>
</svg>
