<?xml version="1.0" encoding="UTF-8"?>
<svg version="1.1" xmlns="http://www.w3.org/2000/svg" width="1080" height="1350">
<path d="M0 0 C1.01223633 0.33370605 2.02447266 0.66741211 3.06738281 1.01123047 C41.20088264 13.7799406 77.16421517 33.03928141 108 59 C108.82999512 59.69005127 108.82999512 59.69005127 109.67675781 60.39404297 C133.05927455 79.85318633 133.05927455 79.85318633 142.2890625 90.98046875 C144.47325801 93.55861733 146.8048477 95.98106369 149.125 98.4375 C194.59148231 147.45358624 221.30976258 213.34525628 230 279 C230.11859375 279.87076172 230.2371875 280.74152344 230.359375 281.63867188 C234.12517112 310.71151454 233.85375903 342.09527306 229 371 C228.82839355 372.05316406 228.65678711 373.10632813 228.47998047 374.19140625 C219.04329698 430.79464089 195.50815866 483.01786409 160 528 C163.65698894 532.47981145 167.39486428 536.31243245 171.796875 540.05078125 C174.30594131 542.27068212 176.64750807 544.61503502 179 547 C181.91626603 549.95183025 184.84605835 552.80388859 188 555.5 C192.07623219 558.98452107 195.79550873 562.78081981 199.5625 566.59375 C201.65000635 568.65449345 203.77169223 570.59515626 206 572.5 C210.07623219 575.98452107 213.79550873 579.78081981 217.5625 583.59375 C219.65000635 585.65449345 221.77169223 587.59515626 224 589.5 C228.07623219 592.98452107 231.79550873 596.78081981 235.5625 600.59375 C237.65000635 602.65449345 239.77169223 604.59515626 242 606.5 C246.07623219 609.98452107 249.79550873 613.78081981 253.5625 617.59375 C255.65000635 619.65449345 257.77169223 621.59515626 260 623.5 C264.07623219 626.98452107 267.79550873 630.78081981 271.5625 634.59375 C273.65000635 636.65449345 275.77169223 638.59515626 278 640.5 C281.15394165 643.19611141 284.08373397 646.04816975 287 649 C289.85523683 651.88989828 292.71500196 654.68451745 295.8125 657.3125 C307.08637265 667.02183522 316.93566206 676.33427707 321 691 C321.226875 691.804375 321.45375 692.60875 321.6875 693.4375 C323.3089922 706.73373608 320.17360556 718.51488166 312.3203125 729.30859375 C305.13363951 738.15028894 295.33663943 744.0108269 283.94677734 745.2175293 C270.5807647 745.98578198 259.58943312 743.64625431 249 735 C243.23618536 729.66887966 237.90338621 724.00181261 232.80859375 718.02734375 C230.63041508 715.58571366 228.32751992 713.29951968 226 711 C223.06881809 708.10408042 220.23596826 705.19757429 217.5625 702.0625 C214.69827645 698.71074904 211.63665907 695.59443583 208.5 692.5 C204.7815401 688.8315278 201.26331808 685.06850774 197.875 681.09375 C195.06399689 677.95479653 192.04732203 675.02649319 189.04907227 672.06860352 C185.79999393 668.84633552 182.77556137 665.50659355 179.80859375 662.02734375 C177.63041508 659.58571366 175.32751992 657.29951968 173 655 C170.06881809 652.10408042 167.23596826 649.19757429 164.5625 646.0625 C161.69827645 642.71074904 158.63665907 639.59443583 155.5 636.5 C151.7815401 632.8315278 148.26331808 629.06850774 144.875 625.09375 C142.06399689 621.95479653 139.04732203 619.02649319 136.04907227 616.06860352 C132.79999393 612.84633552 129.77556137 609.50659355 126.80859375 606.02734375 C123.83316657 602.69203769 120.61321486 599.60389549 117.4296875 596.46875 C114.64290008 593.63715892 112.08021819 590.6712223 109.5703125 587.59375 C107.85125466 585.84903458 106.23542277 584.96771549 104 584 C103.23558594 584.60585938 102.47117187 585.21171875 101.68359375 585.8359375 C87.58037365 596.91257172 72.66856442 606.29557028 57 615 C56.12875488 615.48758789 55.25750977 615.97517578 54.35986328 616.47753906 C6.69916327 642.94133885 -48.02058352 656.20576226 -102.4375 656.25 C-103.19434082 656.25067474 -103.95118164 656.25134949 -104.73095703 656.25204468 C-137.20836341 656.20663538 -168.86374613 651.13541549 -200 642 C-201.3694353 641.60682955 -202.73919026 641.21476941 -204.109375 640.82421875 C-205.06328125 640.55222656 -206.0171875 640.28023437 -207 640 C-206.85552017 638.49986903 -206.70932785 636.99990298 -206.5625 635.5 C-206.44068359 634.24703125 -206.44068359 634.24703125 -206.31640625 632.96875 C-206.07366724 630.69119883 -205.78665106 628.41833044 -205.48046875 626.1484375 C-203.27387089 608.55366845 -205.96721896 591.36403175 -212.109375 574.84375 C-213 572 -213 572 -212 570 C-211.46858398 570.21092285 -210.93716797 570.4218457 -210.38964844 570.63916016 C-189.22382068 578.99218383 -168.40483709 584.95898211 -146 589 C-145.29166016 589.12890625 -144.58332031 589.2578125 -143.85351562 589.390625 C-77.36423548 601.26118724 -3.87930085 582.12597421 51 544 C56.46187559 540.15870656 61.77097782 536.1515089 67 532 C68.03382813 531.19046875 69.06765625 530.3809375 70.1328125 529.546875 C77.41805121 523.62179594 84.08788777 517.1133098 90.75 510.5 C91.62551514 509.63383057 92.50103027 508.76766113 93.40307617 507.87524414 C99.35653772 501.89250235 104.78196493 495.63112401 110 489 C110.59055176 488.25379395 111.18110352 487.50758789 111.78955078 486.73876953 C152.73790171 434.29741278 173.76735885 366.43905849 168 300 C167.91621094 299.02321289 167.83242188 298.04642578 167.74609375 297.04003906 C163.33429752 248.80543593 147.14639167 202.52279152 119 163 C118.5035498 162.30003906 118.00709961 161.60007812 117.49560547 160.87890625 C111.02378769 151.82552651 104.06009014 143.50229654 96.37548828 135.4609375 C94.27711284 133.23220505 92.26950419 130.9250871 90.25 128.625 C87.12006704 125.14357725 83.91043731 121.9681481 80.328125 118.95703125 C78.51989598 117.43702666 76.74784411 115.89484257 74.984375 114.32421875 C62.32017551 103.12511508 48.58170047 93.54071028 34 85 C33.40960937 84.64873047 32.81921875 84.29746094 32.2109375 83.93554688 C4.05796638 67.23812572 -27.63592049 55.90827149 -60 51 C-61.00417969 50.84063965 -62.00835938 50.6812793 -63.04296875 50.51708984 C-105.76977713 43.94425541 -150.07707592 48.26866903 -191 62 C-191.76940918 62.25475098 -192.53881836 62.50950195 -193.33154297 62.77197266 C-223.82842175 73.00603991 -252.53569518 89.10991276 -277 110 C-278.07335973 110.88905895 -279.14762425 111.77702636 -280.22265625 112.6640625 C-293.33627514 123.57617955 -305.58558282 135.46323384 -316 149 C-316.77214844 149.95519531 -317.54429687 150.91039062 -318.33984375 151.89453125 C-348.6859462 190.0069348 -365.71969681 235.40508654 -374 283 C-374.928125 282.195625 -375.85625 281.39125 -376.8125 280.5625 C-377.45703125 280.01464844 -378.1015625 279.46679688 -378.765625 278.90234375 C-380.32747611 277.5725859 -381.87876742 276.23036983 -383.421875 274.87890625 C-397.67833013 262.71030475 -413.8923183 255.37419032 -432 251 C-431.41462304 243.77284598 -429.87541762 237.14744358 -427.875 230.1875 C-427.40151123 228.53282715 -427.40151123 228.53282715 -426.91845703 226.84472656 C-408.40181827 163.04573528 -370.14830698 100.90670838 -317 60 C-315.89031176 59.11399854 -314.78233646 58.22584882 -313.67578125 57.3359375 C-238.07586026 -3.24482719 -138.22143975 -28.23578183 0 0 Z " fill="#960C12" transform="translate(704,308)"/>
<path d="M0 0 C1.46790404 -0.00599438 2.93580494 -0.012802 4.40370178 -0.02035522 C8.36880836 -0.03793069 12.33382845 -0.04270703 16.29897022 -0.0439868 C18.78279568 -0.04541385 21.26659955 -0.04969391 23.75041962 -0.05498123 C32.43437583 -0.07345409 41.11827088 -0.08165536 49.80224609 -0.08007812 C57.86671174 -0.07887772 65.93090934 -0.09996722 73.99530721 -0.13156545 C80.94426698 -0.15781215 87.89313965 -0.16844191 94.84214854 -0.16716731 C98.98127996 -0.1666601 103.12017291 -0.17220832 107.25925446 -0.19352341 C111.15660626 -0.21304792 115.0534956 -0.21293461 118.95086479 -0.19849014 C120.37091952 -0.19641836 121.7910043 -0.20100415 123.21100807 -0.21321106 C138.07404389 -0.33257579 151.52872336 2.89928451 162.53808594 13.40380859 C174.50031278 27.06508493 179.38875607 47.93620608 185.51074219 64.66552734 C186.84775706 68.30744854 188.18617662 71.94884681 189.5259552 75.5897522 C190.35260732 77.83741595 191.17750396 80.08572646 192.00028992 82.33480835 C193.0973062 85.3241276 194.20784447 88.30802529 195.32324219 91.29052734 C195.66803619 92.23333557 196.0128302 93.1761438 196.36807251 94.14752197 C196.70301727 95.03341003 197.03796204 95.9192981 197.38305664 96.83203125 C197.81676323 97.99673447 197.81676323 97.99673447 198.25923157 99.18496704 C200.57810455 103.77376231 204.52966287 106.69266757 209.32324219 108.29052734 C211.64688764 108.40741529 213.97344443 108.46923232 216.29980469 108.50146484 C217.70736788 108.52955938 219.11491979 108.55822398 220.52246094 108.58740234 C222.72736984 108.6284239 224.93207405 108.66533259 227.13720703 108.69189453 C245.84608687 108.93645505 245.84608687 108.93645505 252.62792969 114.01708984 C257.62177427 120.05442434 260.76391083 125.83836649 260.32324219 133.85302734 C259.33876579 139.97390232 256.24710841 144.50743182 251.76074219 148.66552734 C248.15030891 151.07248286 245.49012546 152.52817765 241.10546875 152.609375 C239.87464569 152.63917953 239.87464569 152.63917953 238.61895752 152.66958618 C237.74277771 152.68113739 236.8665979 152.6926886 235.96386719 152.70458984 C234.60730011 152.73363907 234.60730011 152.73363907 233.22332764 152.76327515 C230.3400612 152.82296566 227.45675461 152.8694142 224.57324219 152.91552734 C222.61619371 152.95371681 220.65916186 152.99276911 218.70214844 153.03271484 C213.90931508 153.12865859 209.11640304 153.21272861 204.32324219 153.29052734 C204.32324219 157.25052734 204.32324219 161.21052734 204.32324219 165.29052734 C206.11761719 165.82677734 207.91199219 166.36302734 209.76074219 166.91552734 C220.89989898 170.67663087 228.46479551 176.61457241 233.79589844 187.22021484 C241.75466401 205.45808581 242.68747724 227.3661276 236.26074219 246.29052734 C232.01454506 256.15266261 225.06243035 262.9430145 215.32324219 267.29052734 C214.39511719 267.72365234 213.46699219 268.15677734 212.51074219 268.60302734 C210.32324219 269.29052734 210.32324219 269.29052734 206.32324219 269.29052734 C206.21109375 270.59892578 206.09894531 271.90732422 205.98339844 273.25537109 C205.44835945 278.0186138 204.3114645 282.3287811 202.76074219 286.85302734 C202.49753174 287.62678711 202.23432129 288.40054687 201.96313477 289.19775391 C187.43674722 330.44209317 152.2151672 365.85242012 113.06933594 384.66162109 C82.78094967 398.17614538 47.84650105 399.41219989 16.67871094 388.02099609 C-4.49590036 379.83914517 -22.87386187 366.30505556 -39.19287109 350.70703125 C-40.18093556 349.76383447 -41.17411675 348.82596845 -42.17236328 347.89355469 C-61.68082833 329.642062 -83.8416747 299.30961746 -84.77441406 271.36474609 C-84.7421875 270.68025391 -84.70996094 269.99576172 -84.67675781 269.29052734 C-86.59488281 268.98115234 -86.59488281 268.98115234 -88.55175781 268.66552734 C-98.31531666 266.44305319 -106.09974476 260.5256268 -111.67675781 252.29052734 C-120.72610016 235.36618478 -120.33380053 213.41768243 -115.61425781 195.22021484 C-112.00104035 183.92891028 -105.77229847 175.35731036 -95.38769531 169.47802734 C-90.90144454 167.5128685 -86.52163587 166.91166556 -81.67675781 166.29052734 C-81.67675781 161.67052734 -81.67675781 157.05052734 -81.67675781 152.29052734 C-82.90716797 152.31671143 -84.13757813 152.34289551 -85.40527344 152.36987305 C-89.99720877 152.460796 -94.58906552 152.51792905 -99.18164062 152.56518555 C-101.1641989 152.59023417 -103.1466657 152.62428318 -105.12890625 152.66772461 C-107.98883707 152.72880353 -110.84754073 152.75683364 -113.70800781 152.77880859 C-115.02412048 152.81751823 -115.02412048 152.81751823 -116.36682129 152.85700989 C-123.43029431 152.86018454 -128.03293442 150.64986364 -133.20373535 145.88276672 C-137.78395095 140.89748429 -139.21354745 135.00897366 -138.98144531 128.32958984 C-137.96528513 121.52913326 -133.9583685 117.1587595 -128.96972656 112.73583984 C-123.77845786 109.46366025 -118.21107357 109.04043189 -112.20410156 108.98193359 C-110.79589401 108.9567898 -109.38769098 108.93139156 -107.97949219 108.90576172 C-105.79192124 108.87700699 -103.60442824 108.85294326 -101.41674805 108.83422852 C-99.28298328 108.81247736 -97.15006837 108.77305919 -95.01660156 108.73193359 C-93.11962524 108.71175171 -93.11962524 108.71175171 -91.18432617 108.69116211 C-86.14289579 108.11532949 -83.00204113 106.66355142 -79.47412109 103.00854492 C-77.49434445 100.01467731 -76.20720033 97.15326807 -74.91894531 93.80224609 C-74.54490067 92.8374659 -74.54490067 92.8374659 -74.16329956 91.85319519 C-73.32232655 89.67004978 -72.49777783 87.48125159 -71.67675781 85.29052734 C-71.37692993 84.4931012 -71.07710205 83.69567505 -70.76818848 82.87408447 C-68.07982372 75.70865355 -65.43172909 68.52841113 -62.78662109 61.34692383 C-59.0772485 51.28437835 -55.32287458 41.24147702 -51.39160156 31.26318359 C-51.07131989 30.43857132 -50.75103821 29.61395905 -50.42105103 28.76435852 C-48.04917919 22.80749728 -45.28365402 17.8340259 -40.67675781 13.29052734 C-40.13535156 12.73623047 -39.59394531 12.18193359 -39.03613281 11.61083984 C-27.89858348 1.14987061 -14.58172718 -0.01194705 0 0 Z M-41.67675781 152.29052734 C-43.53432129 159.10159343 -45.14384213 165.09772708 -45.86425781 171.97802734 C-45.98704102 173.04827148 -45.98704102 173.04827148 -46.11230469 174.14013672 C-46.30808351 175.85608048 -46.49360391 177.57319017 -46.67675781 179.29052734 C-45.42121094 179.01337891 -44.16566406 178.73623047 -42.87207031 178.45068359 C-25.07939166 174.57343055 -25.07939166 174.57343055 -17.67675781 174.29052734 C-16.68160156 174.23896484 -15.68644531 174.18740234 -14.66113281 174.13427734 C4.7629234 173.611657 23.8176493 177.00104416 42.54052734 181.86499023 C51.41601306 184.16962268 59.1449319 186.10451023 68.26074219 184.22802734 C69.24941284 184.03092163 69.24941284 184.03092163 70.25805664 183.82983398 C74.66374571 182.92713021 79.03196541 181.88497132 83.40136719 180.82177734 C97.04672942 177.51662638 110.28124945 174.95747693 124.32324219 174.29052734 C125.01450195 174.25733398 125.70576172 174.22414063 126.41796875 174.18994141 C140.34845315 173.63217115 153.92775781 175.48499201 167.32324219 179.29052734 C167.23353872 177.2273477 167.12541946 175.16496965 167.01074219 173.10302734 C166.92373047 171.38019531 166.92373047 171.38019531 166.83496094 169.62255859 C166.14345598 163.76852044 164.64873017 158.03430862 163.32324219 152.29052734 C95.67324219 152.29052734 28.02324219 152.29052734 -41.67675781 152.29052734 Z M-86.2956543 196.56591797 C-91.38360887 202.91934047 -91.14341304 212.1961206 -91.05175781 219.91552734 C-91.06335938 220.90037109 -91.07496094 221.88521484 -91.08691406 222.89990234 C-91.0600395 229.61854303 -90.69101088 235.93516942 -85.98535156 241.17333984 C-82.07206693 243.06707826 -77.84936815 243.75936495 -73.60839844 244.57568359 C-68.62162078 245.66931618 -66.01125893 247.21227133 -62.67675781 251.29052734 C-60.00841069 256.42956624 -58.76386196 261.65037525 -57.67675781 267.29052734 C-18.66923114 275.26110555 22.59058854 278.04629158 62.32324219 277.29052734 C63.93561768 277.26369873 63.93561768 277.26369873 65.58056641 277.23632812 C96.53043716 276.66832648 127.44744565 274.86954542 158.13574219 270.72802734 C158.92791138 270.62220337 159.72008057 270.51637939 160.53625488 270.40734863 C170.21843099 269.39989487 170.21843099 269.39989487 179.32324219 266.29052734 C180.43645284 263.64372778 180.43645284 263.64372778 180.88574219 260.54052734 C182.17414419 254.53038392 183.32855745 250.42730417 188.51855469 246.72412109 C192.7929718 244.53928672 197.24383815 244.08999998 201.94824219 243.32958984 C206.06061319 242.06351266 207.70385015 240.68638202 210.32324219 237.29052734 C212.58825331 231.70986741 212.62688318 226.34285659 212.57324219 220.41552734 C212.58097656 219.56861328 212.58871094 218.72169922 212.59667969 217.84912109 C212.57094955 209.44823248 211.73428197 202.01333435 206.32324219 195.29052734 C203.3694672 192.92072721 203.3694672 192.92072721 199.32324219 193.29052734 C199.24283691 193.84514648 199.16243164 194.39976562 199.07958984 194.97119141 C198.70956242 197.49540133 198.3290136 200.01791673 197.94824219 202.54052734 C197.82191406 203.41322266 197.69558594 204.28591797 197.56542969 205.18505859 C197.43652344 206.02939453 197.30761719 206.87373047 197.17480469 207.74365234 C197.05959473 208.51870117 196.94438477 209.29375 196.82568359 210.09228516 C196.28986047 212.43657641 195.56800205 214.23486815 194.32324219 216.29052734 C190.53857199 218.39238285 187.16300142 218.56067933 182.88574219 218.54052734 C181.79390625 218.54568359 180.70207031 218.55083984 179.57714844 218.55615234 C176.20622641 218.28097504 173.47448594 217.48828515 170.32324219 216.29052734 C169.88625 217.52416016 169.88625 217.52416016 169.44042969 218.78271484 C165.9230713 228.36143296 162.16681685 237.45253918 154.32324219 244.29052734 C153.20949219 245.31146484 153.20949219 245.31146484 152.07324219 246.35302734 C140.4510762 254.54137156 125.69705269 254.75634743 111.99316406 252.99023438 C103.29024765 251.46391861 95.40682181 248.70506316 88.32324219 243.29052734 C87.35837891 242.55576172 87.35837891 242.55576172 86.37402344 241.80615234 C77.49285365 234.02308815 74.73906869 223.01473612 73.94042969 211.70068359 C73.01078421 206.56409811 70.81790422 203.34358468 66.57324219 200.35302734 C62.62049807 199.06078407 59.20509367 198.80629001 55.32324219 200.29052734 C50.97046959 203.02421915 50.97046959 203.02421915 48.56542969 207.38085938 C48.04535378 209.86515054 47.66559785 212.33820125 47.32324219 214.85302734 C45.36406823 226.35654846 42.33438013 235.94945628 32.94042969 243.54052734 C18.48921517 253.20342899 1.24453867 255.4578665 -15.77441406 252.98583984 C-27.08039621 250.67271615 -34.27785156 244.87952778 -40.77832031 235.59130859 C-44.27761514 229.50714373 -46.47622607 222.93379929 -48.67675781 216.29052734 C-49.53269531 216.61408203 -50.38863281 216.93763672 -51.27050781 217.27099609 C-57.82266336 219.23213439 -64.80837708 219.11700993 -71.36425781 217.22802734 C-76.04379391 213.30733494 -76.10655432 206.15968604 -76.80175781 200.35302734 C-76.888125 199.66917969 -76.97449219 198.98533203 -77.06347656 198.28076172 C-77.27278067 196.61795689 -77.47547504 194.95432221 -77.67675781 193.29052734 C-81.8445755 193.29052734 -83.24832962 193.82404278 -86.2956543 196.56591797 Z " fill="#960C12" transform="translate(539.6767578125,438.70947265625)"/>
<path d="M0 0 C6.05016756 5.81968499 9.85576264 12.76297576 13.8125 20.0625 C14.52962158 21.37710205 14.52962158 21.37710205 15.26123047 22.71826172 C17.43055404 26.70026083 19.59177991 30.68642427 21.73803711 34.6809082 C25.46362191 41.61214124 29.28738302 48.47817447 33.1875 55.3125 C38.09637715 63.92791234 42.83637644 72.62532539 47.5 81.375 C52.71618992 91.160064 57.9998734 100.89972037 63.41943359 110.57373047 C71.79872866 125.54368032 80.10677224 140.54969033 88.25585938 155.64624023 C91.73032952 162.07860417 95.24656181 168.48521429 98.80737305 174.87011719 C103.39880928 183.10403841 107.94868474 191.36083232 112.50048828 199.61669922 C113.19694009 200.87988282 113.89339191 202.14306641 114.58984375 203.40625 C115.11212555 204.35360519 115.11212555 204.35360519 115.6449585 205.32009888 C118.07407649 209.7254948 120.50691079 214.12882389 122.94140625 218.53125 C131.30935383 233.66627476 139.65692551 248.81163511 147.8125 264.0625 C148.20856445 264.79581543 148.60462891 265.52913086 149.01269531 266.28466797 C152.81190969 273.3464364 156.06445897 279.97257474 156.8125 288.0625 C156.88210938 288.7740625 156.95171875 289.485625 157.0234375 290.21875 C157.60289201 302.52101508 153.28699651 314.19669498 145.69140625 323.72265625 C136.90675762 333.28623924 125.11958239 339.36860216 112.06458604 340.24749625 C108.91199418 340.32217439 105.76508423 340.33390026 102.61161804 340.32319641 C101.40774706 340.32702196 100.20387608 340.33084751 98.96352416 340.33478898 C95.64348491 340.34328704 92.32366855 340.34289882 89.003636 340.33860838 C85.41456238 340.33613287 81.82551434 340.34516558 78.2364502 340.35264587 C71.21313064 340.36537236 64.18984935 340.3671891 57.1665202 340.36484561 C51.4550675 340.36305987 45.74362638 340.36481758 40.03217506 340.36907005 C39.21812758 340.36966524 38.4040801 340.37026043 37.56536451 340.37087366 C35.91141209 340.37208546 34.25745967 340.37329959 32.60350726 340.37451603 C17.1045513 340.38538383 1.60561711 340.38323278 -13.89334007 340.37713119 C-28.05608132 340.37196362 -42.21875375 340.38321459 -56.38148139 340.40222941 C-70.94091053 340.42162622 -85.50030716 340.42986052 -100.05974931 340.42610615 C-108.22686572 340.42419679 -116.39392359 340.42665576 -124.56102943 340.44082069 C-131.51444758 340.45275903 -138.46777115 340.45411202 -145.42119066 340.44203053 C-148.96499262 340.43615878 -152.50862178 340.43499478 -156.05241203 340.44703293 C-159.90358175 340.45996256 -163.75449229 340.44938667 -167.60566711 340.4367218 C-168.71240369 340.44409609 -169.81914026 340.45147037 -170.9594143 340.45906812 C-186.05767373 340.35504127 -197.81601963 335.96792793 -208.82421875 325.64453125 C-218.51178158 315.06026839 -221.4470217 303.20008503 -221.68359375 289.2265625 C-220.90881442 278.78707892 -216.13562225 269.32138359 -211.0625 260.375 C-210.48411377 259.33174561 -209.90572754 258.28849121 -209.30981445 257.21362305 C-207.61290855 254.15722283 -205.90118579 251.10951315 -204.1875 248.0625 C-203.34874391 246.55292494 -202.51134174 245.04259618 -201.67578125 243.53125 C-200.10829366 240.69746015 -198.53497581 237.8670428 -196.95703125 235.0390625 C-192.77915602 227.54286743 -188.64298022 220.02354703 -184.49951172 212.50830078 C-183.80305991 211.24511718 -183.10660809 209.98193359 -182.41015625 208.71875 C-182.06196838 208.08717987 -181.71378052 207.45560974 -181.3550415 206.80490112 C-178.92592349 202.39950517 -176.49306734 197.99618822 -174.05859375 193.59375 C-167.21585165 181.21603711 -160.41321576 168.81877775 -153.69189453 156.37451172 C-150.2337281 149.97738755 -146.73425733 143.60549322 -143.19238281 137.25439453 C-138.60095541 129.02067669 -134.05122736 120.76400825 -129.49951172 112.50830078 C-128.80305991 111.24511718 -128.10660809 109.98193359 -127.41015625 108.71875 C-127.06196838 108.08717987 -126.71378052 107.45560974 -126.3550415 106.80490112 C-123.92592349 102.39950517 -121.49306734 97.99618822 -119.05859375 93.59375 C-112.76591255 82.21103236 -106.49436523 70.81847656 -100.3125 59.375 C-95.85504973 51.12490751 -91.3748849 42.89003504 -86.78125 34.71484375 C-84.82416445 31.22802064 -82.92208708 27.71456753 -81.03125 24.19140625 C-71.81398309 7.17626917 -63.62458969 -4.22804361 -44.6796875 -10.80859375 C-28.72392431 -14.95480461 -12.53253348 -10.29805077 0 0 Z M-52.71484375 72.76953125 C-56.89919005 79.28468053 -57.62607089 84.49279529 -57.57568359 92.09350586 C-57.58094055 93.0765419 -57.58619751 94.05957794 -57.59161377 95.07240295 C-57.60476925 98.30754699 -57.59609056 101.54219508 -57.5859375 104.77734375 C-57.58795967 107.03504022 -57.5908723 109.29273606 -57.59463501 111.5504303 C-57.59905248 116.2770918 -57.59264632 121.00358295 -57.57861328 125.73022461 C-57.56153176 131.77718405 -57.57135997 137.82374369 -57.58933067 143.87068844 C-57.60019235 148.53165171 -57.59671102 153.19252085 -57.5889473 157.85348701 C-57.58695138 160.08253591 -57.5893831 162.31159346 -57.59638596 164.54063225 C-57.60403844 167.66135024 -57.59234223 170.78142899 -57.57568359 173.90209961 C-57.58175629 174.81611542 -57.58782898 175.73013123 -57.59408569 176.67184448 C-57.50937493 185.27487824 -55.22824324 191.93340848 -49.265625 198.296875 C-43.6569006 203.06218219 -36.90633129 204.77299886 -29.640625 204.453125 C-22.03017353 203.24126967 -15.6377879 199.28287838 -11 193.1875 C-7.33258023 186.86436247 -6.89322327 181.46305883 -6.9128418 174.32861328 C-6.90773087 173.36523041 -6.90261993 172.40184753 -6.89735413 171.40927124 C-6.88348696 168.23372129 -6.88441284 165.05838908 -6.88671875 161.8828125 C-6.88283009 159.66852742 -6.87849507 157.45424309 -6.87373352 155.23995972 C-6.86627737 150.60151755 -6.86655812 145.9631515 -6.87182617 141.32470703 C-6.87761827 135.39095697 -6.86069292 129.45751931 -6.8374815 123.52382088 C-6.82272406 118.95122466 -6.82187524 114.37870331 -6.82499123 109.80608749 C-6.82447897 107.61889909 -6.8192593 105.4317064 -6.80917931 103.24454117 C-6.79679422 100.18121505 -6.80361942 97.11849279 -6.81518555 94.05517578 C-6.80754181 93.15829041 -6.79989807 92.26140503 -6.79202271 91.33734131 C-6.86731531 82.28050005 -9.7186014 74.57471711 -16.1875 68.0625 C-28.55379644 59.93540745 -43.08581832 61.29513976 -52.71484375 72.76953125 Z M-55.1875 241.0625 C-60.26180499 247.85333546 -61.7746321 254.93153101 -60.78515625 263.22265625 C-59.11800225 271.14436186 -54.83333759 278.35294968 -48.1875 283.0625 C-39.49246544 287.50223735 -31.89062246 288.44409737 -22.625 285.5 C-14.71092702 282.34102129 -9.35947629 277.66334371 -5.87890625 269.859375 C-3.23518967 262.98869913 -2.96150814 255.7755039 -5.28125 248.75 C-9.40732232 239.97112273 -14.64540344 234.41602467 -23.66796875 230.7578125 C-36.17422209 227.30647437 -46.66488454 231.88281214 -55.1875 241.0625 Z " fill="#960C12" transform="translate(282.1875,628.9375)"/>
</svg>
