<?xml version="1.0" encoding="UTF-8"?>
<svg version="1.1" xmlns="http://www.w3.org/2000/svg" width="1080" height="1350">
<path d="M0 0 C9.54402795 7.82292807 17.12791066 16.9547081 23.43505859 27.50048828 C24.5761765 29.37598085 25.71812047 31.25097104 26.86083984 33.12548828 C27.42883301 34.06134766 27.99682617 34.99720703 28.58203125 35.96142578 C31.05083157 40.0029916 33.58338971 44.00289418 36.12255859 48.00048828 C40.69231591 55.21224374 45.22717316 62.445189 49.74755859 69.68798828 C54.22857741 76.86678642 58.72169701 84.03737228 63.24755859 91.18798828 C68.4244008 99.36711839 73.55555124 107.57432801 78.68115234 115.78564453 C82.51904878 121.93098791 86.3726859 128.06589945 90.24755859 134.18798828 C94.7734206 141.33860495 99.26643838 148.50925294 103.74755859 155.68798828 C108.29336114 162.96945053 112.84935104 170.24408407 117.43505859 177.50048828 C117.91555664 178.26200195 118.39605469 179.02351562 118.89111328 179.80810547 C121.37114266 183.73495821 123.86459757 187.65251036 126.37646484 191.55908203 C139.51420123 212.03825419 153.90123834 235.55771773 148.52880859 261.10595703 C144.69056833 274.30764632 137.78419453 282.81591893 128.81201172 292.90576172 C126.72594163 295.28221485 124.73174287 297.72613001 122.74755859 300.18798828 C118.66934143 305.22227101 114.44138801 310.11309536 110.18725586 314.99829102 C106.20039527 319.57914917 102.25936779 324.19549115 98.34619141 328.83935547 C94.96273911 332.85183012 91.54655675 336.83509216 88.12255859 340.81298828 C84.62932003 344.87419704 81.18307153 348.96317799 77.81005859 353.12548828 C72.65304774 359.47401067 67.26811499 365.61892044 61.8984375 371.78710938 C54.99874127 379.73165756 48.18224586 387.74804094 41.39599609 395.78955078 C38.50289129 399.21472084 35.58984537 402.62192336 32.6652832 406.02026367 C27.91632168 411.53879895 23.1947119 417.06810081 18.68531704 422.78627777 C16.24755859 425.68798828 16.24755859 425.68798828 13.45397282 428.37589264 C6.57356071 435.1288186 4.06918246 440.56739828 3.84142601 450.20894623 C3.83755821 452.88249797 3.8875928 455.5520755 3.9387207 458.22509766 C3.93522859 460.16650295 3.92686188 462.10790459 3.91403198 464.04927063 C3.89280417 469.28776411 3.93849735 474.52375122 3.99615932 479.7618885 C4.04452251 485.26375763 4.02856967 490.7654365 4.0191803 496.26745605 C4.01070198 506.68549535 4.05629293 517.10252672 4.12305027 527.52032804 C4.21855123 542.78863353 4.23446155 558.05706498 4.24810886 573.32563019 C4.25023185 575.58659364 4.2523727 577.84755709 4.25453186 580.10852051 C4.25547665 581.2131868 4.25642143 582.3178531 4.25739485 583.45599413 C4.26482576 589.9897983 4.28842707 596.52328951 4.32678306 603.05698395 C4.3496526 607.1318116 4.36487582 611.20664867 4.37894821 615.28151512 C4.38738979 617.15955267 4.39936938 619.03757848 4.41530418 620.9155674 C4.56701268 639.03191729 3.83173521 655.99438222 -8.52197266 670.43408203 C-18.24393 680.25819654 -31.15984284 685.5715861 -44.95166016 685.72314453 C-52.47601379 685.35805755 -58.89764898 683.77998181 -65.75244141 680.68798828 C-66.92419922 680.16398437 -66.92419922 680.16398437 -68.11962891 679.62939453 C-79.64156928 673.86842434 -86.07724583 664.38245256 -90.75244141 652.68798828 C-92.53518175 646.66849245 -93.04223025 641.30132855 -93.01986694 635.04377747 C-93.02439806 634.10281383 -93.02892917 633.16185019 -93.03359759 632.1923725 C-93.04620679 629.05519965 -93.04462345 625.91820117 -93.04296875 622.78100586 C-93.04895622 620.52508319 -93.05576227 618.26916257 -93.06332397 616.01324463 C-93.08097019 609.89526102 -93.08567882 603.77733339 -93.08695555 597.65932679 C-93.08837863 593.83325448 -93.09265126 590.00719634 -93.09794998 586.18112755 C-93.11549271 573.51126666 -93.12479079 560.84144652 -93.12328903 548.17157678 C-93.12320912 547.48951943 -93.12312921 546.80746208 -93.12304688 546.10473633 C-93.12296511 545.42183836 -93.12288335 544.7389404 -93.12279911 544.03534856 C-93.12198684 532.97712086 -93.14111258 521.91902958 -93.16932361 510.86084131 C-93.19811493 499.48467636 -93.21149494 488.10859848 -93.21013606 476.73238868 C-93.2096272 470.35426866 -93.21526834 463.97630304 -93.23649216 457.5982151 C-93.25592144 451.59563824 -93.25596673 445.5933623 -93.24145889 439.59077454 C-93.23937544 437.39508307 -93.24404382 435.19937253 -93.25617981 433.00371361 C-93.37508113 409.99048289 -87.76558588 397.39480332 -72.72509766 380.12548828 C-70.19409575 377.21455495 -67.73951982 374.25107152 -65.31494141 371.25048828 C-60.16057349 364.90521947 -54.77881375 358.7628938 -49.41210938 352.59765625 C-43.29165681 345.55526437 -37.19213804 338.49796027 -31.31494141 331.25048828 C-26.16057349 324.90521947 -20.77881375 318.7628938 -15.41210938 312.59765625 C-8.3445839 304.46553147 -1.34937058 296.28789844 5.40771484 287.89501953 C6.94624005 286.04944258 8.5129803 284.34691518 10.24755859 282.68798828 C8.68565241 276.55192827 5.29168339 271.73509772 1.87255859 266.50048828 C0.59229206 264.51501661 -0.68765067 262.52933611 -1.96728516 260.54345703 C-2.92803955 259.05918213 -2.92803955 259.05918213 -3.90820312 257.54492188 C-6.52924867 253.48462601 -9.11308305 249.40142144 -11.68994141 245.31298828 C-12.17084229 244.55115234 -12.65174316 243.78931641 -13.1472168 243.00439453 C-20.36743438 231.55629236 -27.52238198 220.06716065 -34.68896484 208.58544922 C-41.49137857 197.68851231 -48.29626701 186.79368456 -55.17480469 175.94458008 C-58.04929743 171.40516796 -60.89636413 166.84982907 -63.72509766 162.28173828 C-64.40378906 161.18796875 -65.08248047 160.09419922 -65.78173828 158.96728516 C-67.11328819 156.81966528 -68.44154203 154.66999747 -69.76611328 152.51806641 C-70.67393555 151.05530273 -70.67393555 151.05530273 -71.60009766 149.56298828 C-72.13642822 148.69416016 -72.67275879 147.82533203 -73.2253418 146.93017578 C-74.59361466 144.92118809 -75.9673118 143.3256114 -77.75244141 141.68798828 C-83.69172271 150.82720889 -89.59348912 159.98907138 -95.43994141 169.18798828 C-96.01768311 170.09589111 -96.5954248 171.00379395 -97.19067383 171.93920898 C-100.45258062 177.06594926 -103.70718929 182.19719558 -106.95556641 187.33251953 C-108.36686804 189.55527528 -109.77832324 191.77793354 -111.18994141 194.00048828 C-111.83987061 195.03173828 -112.4897998 196.06298828 -113.15942383 197.12548828 C-122.3055918 211.4982057 -130.71492972 222.364724 -147.75244141 226.68798828 C-160.71655381 228.06491214 -171.39552257 225.218323 -183.52978516 220.93798828 C-185.37513777 220.30923817 -187.22144195 219.68327536 -189.06858826 219.05981445 C-193.11142494 217.69263303 -197.14967148 216.31283751 -201.18572998 214.92578125 C-208.11948846 212.55204239 -215.07820135 210.25703304 -222.04199219 207.97314453 C-223.88827493 207.36753693 -223.88827493 207.36753693 -225.77185631 206.74969482 C-227.66404699 206.12903612 -229.55623792 205.5083782 -231.44847572 204.88786316 C-239.81408582 202.14309872 -248.16974692 199.3683021 -256.52610207 196.59552002 C-263.13924581 194.40149462 -269.75387349 192.21217987 -276.37231445 190.03417969 C-282.27909194 188.09037133 -288.18297526 186.13805518 -294.08352512 184.17541981 C-297.16757073 183.14989583 -300.25317902 182.12961125 -303.34152412 181.11709595 C-306.75131408 179.99834408 -310.15573934 178.8645118 -313.55932617 177.72705078 C-314.54985489 177.40593826 -315.54038361 177.08482574 -316.56092834 176.75398254 C-329.25924262 172.46494752 -339.72807771 165.86976047 -346.12744141 153.81298828 C-351.4120926 142.30771225 -352.07987678 131.00428885 -348.06494141 118.87548828 C-343.78261232 108.32260589 -335.25100852 99.09384688 -324.76806641 94.43017578 C-313.89669506 90.42715145 -303.82871477 90.78998763 -292.88549805 94.20410156 C-292.01940194 94.46940233 -291.15330584 94.7347031 -290.26096439 95.00804329 C-280.21670572 98.11404703 -270.24830012 101.45243736 -260.28396416 104.80422592 C-256.85069803 105.95887571 -253.41602238 107.10924449 -249.98097229 108.25857544 C-240.23235702 111.52123834 -230.48643034 114.79190175 -220.7409668 118.06396484 C-214.74103243 120.07813831 -208.73966144 122.08798168 -202.73741341 124.09524918 C-199.35318186 125.22856168 -195.97071321 126.36703239 -192.58824158 127.50558472 C-190.53035813 128.19411091 -188.47238481 128.88236856 -186.41430664 129.5703125 C-185.47468582 129.88816208 -184.535065 130.20601166 -183.56697083 130.53349304 C-182.70826385 130.81931747 -181.84955688 131.10514191 -180.96482849 131.39962769 C-180.21926414 131.64993681 -179.47369978 131.90024593 -178.70554256 132.15814018 C-176.60716589 132.81889931 -176.60716589 132.81889931 -173.75244141 132.68798828 C-172.27425346 131.02156527 -172.27425346 131.02156527 -170.95947266 128.75439453 C-170.15050537 127.45924927 -170.15050537 127.45924927 -169.32519531 126.13793945 C-168.74431152 125.18508057 -168.16342773 124.23222168 -167.56494141 123.25048828 C-166.29865856 121.21623295 -165.03170634 119.18239417 -163.76416016 117.14892578 C-162.77488525 115.55129395 -162.77488525 115.55129395 -161.765625 113.92138672 C-158.51934239 108.70749309 -155.19675142 103.54307363 -151.87744141 98.37548828 C-150.52560353 96.26498756 -149.17404304 94.15430914 -147.82275391 92.04345703 C-147.15018555 90.99335449 -146.47761719 89.94325195 -145.78466797 88.86132812 C-143.77079398 85.71664599 -141.75756884 82.57154963 -139.74462891 79.42626953 C-139.0851123 78.39598633 -138.4255957 77.36570312 -137.74609375 76.30419922 C-136.41989981 74.23127006 -135.0946998 72.15770468 -133.77050781 70.08349609 C-130.36153398 64.7467639 -126.93334888 59.42399244 -123.47119141 54.12158203 C-117.23347664 44.53412924 -111.17726361 35.09518452 -106.27172852 24.75195312 C-103.72304129 19.43164892 -100.71551159 15.03976044 -96.75244141 10.68798828 C-96.07568359 9.93130859 -95.39892578 9.17462891 -94.70166016 8.39501953 C-70.55525313 -17.20960746 -28.32613239 -21.20710998 0 0 Z " fill="#960C12" transform="translate(406.75244140625,435.31201171875)"/>
<path d="M0 0 C28.71564602 27.72545133 44.91314909 66.10409127 46.09765625 105.66796875 C46.65104905 140.18437301 31.78853787 173.51064268 8.13671875 198.265625 C7.3478125 199.14927734 7.3478125 199.14927734 6.54296875 200.05078125 C-10.53184314 218.47589714 -34.94866547 228.65690942 -58.67578125 235.078125 C-59.39096924 235.2730957 -60.10615723 235.46806641 -60.84301758 235.66894531 C-72.78952016 238.72462004 -84.75379322 239.62974446 -97.05078125 239.578125 C-97.72182892 239.57696686 -98.39287659 239.57580872 -99.08425903 239.57461548 C-110.18852001 239.53688231 -121.05317623 238.9324834 -131.86328125 236.265625 C-132.89751221 236.01256592 -132.89751221 236.01256592 -133.95263672 235.75439453 C-139.8502713 233.98634635 -142.10563104 230.97495765 -145.11328125 225.765625 C-145.57162354 225.01587402 -146.02996582 224.26612305 -146.50219727 223.49365234 C-147.47541924 221.9015264 -148.44018152 220.30420235 -149.39697266 218.70214844 C-151.3136632 215.51723808 -153.30516788 212.38300727 -155.30102539 209.24731445 C-156.8213682 206.85827503 -158.33185895 204.46326256 -159.83984375 202.06640625 C-161.81007721 198.93643036 -163.78369709 195.8086537 -165.76171875 192.68359375 C-171.97199626 182.87041513 -178.1394841 173.03119513 -184.28955078 163.18017578 C-189.63488518 154.62188865 -195.01537568 146.08630897 -200.41162109 137.56005859 C-202.89801658 133.63016542 -205.380409 129.69774468 -207.86328125 125.765625 C-208.86326289 124.18228007 -209.86326287 122.59894672 -210.86328125 121.015625 C-212.86328125 117.84895833 -214.86328125 114.68229167 -216.86328125 111.515625 C-217.35803955 110.73227783 -217.85279785 109.94893066 -218.36254883 109.1418457 C-219.36506368 107.55448974 -220.36750479 105.96708721 -221.36987305 104.37963867 C-223.83080088 100.48247105 -226.29289837 96.58605399 -228.7578125 92.69140625 C-233.72463679 84.84040422 -238.67259548 76.97827555 -243.58959961 69.09594727 C-246.12457034 65.0336196 -248.66520683 60.97485167 -251.20654297 56.91650391 C-252.62001824 54.65486015 -254.02597762 52.38880046 -255.4296875 50.12109375 C-270.98944811 25.17672557 -290.73398986 7.26237098 -319.92578125 0.453125 C-340.82195706 -3.47367314 -359.04965302 -0.79006792 -378.86328125 6.265625 C-371.24996583 -15.24199105 -344.10908121 -31.19013745 -324.61523438 -40.84814453 C-319.43335507 -43.31076461 -314.17105534 -45.55872034 -308.86328125 -47.734375 C-308.22132813 -48.0020166 -307.579375 -48.2696582 -306.91796875 -48.54541016 C-279.03678634 -60.05806367 -248.75085096 -65.71685286 -218.86328125 -68.734375 C-218.15510254 -68.80640137 -217.44692383 -68.87842773 -216.71728516 -68.95263672 C-138.10212576 -76.45780641 -58.0803226 -54.06218707 0 0 Z M-93.86328125 -9.734375 C-95.57796266 -6.30501219 -95.21182241 -2.36991769 -95.38671875 1.41796875 C-95.92678036 4.64505819 -96.40957058 5.24324828 -98.86328125 7.265625 C-100.78930664 8.15356445 -100.78930664 8.15356445 -102.9609375 8.87890625 C-104.15626099 9.29160767 -104.15626099 9.29160767 -105.37573242 9.71264648 C-106.21724854 9.99825439 -107.05876465 10.2838623 -107.92578125 10.578125 C-122.50198749 15.76408788 -133.50452579 22.31373064 -140.671875 36.55078125 C-144.51897391 45.31712139 -144.93493548 54.67756817 -142.0390625 63.88671875 C-140.14238002 68.33230258 -137.79207248 72.41635653 -134.86328125 76.265625 C-134.45207031 76.80703125 -134.04085937 77.3484375 -133.6171875 77.90625 C-127.86177448 84.54366137 -119.67050602 87.64822828 -111.86328125 91.265625 C-110.5761987 91.87759512 -109.28971247 92.49082146 -108.00390625 93.10546875 C-102.65296487 96.01506425 -102.65296487 96.01506425 -96.86328125 97.265625 C-95.93684845 100.41061528 -95.74181152 103.22009749 -95.74975586 106.49316406 C-95.74983139 107.53394104 -95.74990692 108.57471802 -95.74998474 109.64703369 C-95.75514603 110.76382507 -95.76030731 111.88061646 -95.765625 113.03125 C-95.76703995 114.17978455 -95.7684549 115.32831909 -95.76991272 116.51165771 C-95.77550982 120.17967331 -95.78806181 123.84762785 -95.80078125 127.515625 C-95.80579662 130.00260329 -95.81035947 132.48958253 -95.81445312 134.9765625 C-95.8254783 141.0729375 -95.84221356 147.16927689 -95.86328125 153.265625 C-102.97625429 155.00079139 -108.62310425 151.4861381 -114.86328125 148.265625 C-119.2822702 145.38477201 -122.99266522 142.21722856 -126.55078125 138.328125 C-128.72806951 136.03095826 -128.72806951 136.03095826 -131.80078125 135.703125 C-136.74390317 136.61104535 -139.69881091 139.13179862 -143.23828125 142.578125 C-145.3774851 146.11603906 -145.44502109 148.1934461 -144.86328125 152.265625 C-135.93460175 165.17601293 -116.4983917 170.62357625 -102.18310547 175.31274414 C-96.96722331 177.05774088 -96.96722331 177.05774088 -95.86328125 179.265625 C-95.58756646 182.34662841 -95.41664592 185.42733976 -95.2421875 188.515625 C-95.12608959 191.40546508 -95.12608959 191.40546508 -92.86328125 193.265625 C-89.90476016 193.70922572 -86.91379674 193.58975152 -83.92578125 193.578125 C-83.10142578 193.59423828 -82.27707031 193.61035156 -81.42773438 193.62695312 C-80.23760742 193.62791992 -80.23760742 193.62791992 -79.0234375 193.62890625 C-78.29777588 193.63188721 -77.57211426 193.63486816 -76.82446289 193.63793945 C-74.29899791 193.15850038 -73.41633911 192.28043516 -71.86328125 190.265625 C-71.42267901 187.41442013 -71.36138047 184.64348812 -71.26953125 181.76171875 C-71.13546875 180.93800781 -71.00140625 180.11429688 -70.86328125 179.265625 C-68.0380473 177.3821357 -66.54578775 176.81480658 -63.328125 176.1171875 C-62.43544922 175.91609375 -61.54277344 175.715 -60.62304688 175.5078125 C-58.7692619 175.10241731 -56.9151051 174.69871798 -55.06054688 174.296875 C-41.51237574 171.23667337 -31.60002723 166.36908593 -23.42578125 154.703125 C-17.61804067 145.31886622 -15.54294688 135.51468652 -17.2890625 124.60546875 C-20.15702999 113.22157325 -29.87797393 105.42078985 -39.61108398 99.58789062 C-40.63310913 98.99524414 -40.63310913 98.99524414 -41.67578125 98.390625 C-42.39773682 97.96716797 -43.11969238 97.54371094 -43.86352539 97.10742188 C-50.09517295 93.53615441 -56.53257751 90.56056859 -63.1496582 87.77783203 C-68.6846776 85.44422865 -68.6846776 85.44422865 -70.86328125 83.265625 C-71.10379028 80.97506714 -71.10379028 80.97506714 -71.09033203 78.08154297 C-71.09018097 77.00057343 -71.09002991 75.91960388 -71.08987427 74.80587769 C-71.0795517 73.63501617 -71.06922913 72.46415466 -71.05859375 71.2578125 C-71.05576385 70.06205597 -71.05293396 68.86629944 -71.05001831 67.63430786 C-71.0387943 63.80297981 -71.01368556 59.97188278 -70.98828125 56.140625 C-70.97825433 53.54818045 -70.96912798 50.95573225 -70.9609375 48.36328125 C-70.93884771 41.99731658 -70.90534831 35.63148729 -70.86328125 29.265625 C-66.6890774 27.87422372 -64.64043155 29.16351033 -60.69140625 30.83203125 C-54.24876007 34.09784775 -48.41691917 38.48568864 -43.42578125 43.703125 C-40.57224894 46.5584627 -40.57224894 46.5584627 -36.86328125 47.265625 C-32.31066787 45.81625785 -27.60011353 43.20666348 -24.86328125 39.265625 C-23.49907507 35.25800955 -23.49907507 35.25800955 -23.86328125 31.265625 C-30.5733561 19.32719529 -46.37433913 12.15412346 -58.86328125 8.265625 C-62.84294406 7.16239637 -66.83150886 6.15915294 -70.86328125 5.265625 C-70.91226563 4.43417969 -70.96125 3.60273438 -71.01171875 2.74609375 C-71.12386719 1.11607422 -71.12386719 1.11607422 -71.23828125 -0.546875 C-71.34269531 -2.16529297 -71.34269531 -2.16529297 -71.44921875 -3.81640625 C-71.67523858 -6.92063686 -71.67523858 -6.92063686 -73.86328125 -9.734375 C-75.9902279 -10.14964624 -75.9902279 -10.14964624 -78.43359375 -10.02734375 C-79.32949219 -10.01767578 -80.22539063 -10.00800781 -81.1484375 -9.99804688 C-82.08558594 -9.97291016 -83.02273438 -9.94777344 -83.98828125 -9.921875 C-85.40560547 -9.90157227 -85.40560547 -9.90157227 -86.8515625 -9.88085938 C-89.18936904 -9.84543806 -91.52604362 -9.79604771 -93.86328125 -9.734375 Z " fill="#960C12" transform="translate(703.86328125,402.734375)"/>
<path d="M0 0 C2.99474494 2.78929856 5.06415607 5.50068225 7.07421875 9.05859375 C7.65123535 10.07066895 8.22825195 11.08274414 8.82275391 12.12548828 C9.43812012 13.21845215 10.05348633 14.31141602 10.6875 15.4375 C11.67740597 17.1747097 12.66734453 18.9119014 13.65875244 20.64825439 C14.35356444 21.86527393 15.04768478 23.08268858 15.7411499 24.30047607 C19.44841584 30.80540671 23.22402768 37.26984159 27.01235962 43.72781372 C28.10167436 45.58522697 29.188984 47.44380296 30.27612305 49.30249023 C33.1160047 54.14894129 35.96227177 58.98001645 38.9921875 63.7109375 C41 67 41 67 41 69 C41.72988129 69.10094278 42.45976257 69.20188557 43.21176147 69.30588722 C52.89521087 70.71381987 62.41360846 72.68862017 71.9765625 74.74365234 C73.7504035 75.12199106 75.52431088 75.50001869 77.29827881 75.87776184 C82.07998885 76.89703813 86.86067138 77.92105521 91.64110565 78.94629622 C95.64656818 79.80492554 99.65250598 80.66132602 103.65843391 81.5177809 C113.11483412 83.53962156 122.57037228 85.5654578 132.02539062 87.59375 C141.74952816 89.67969439 151.47515166 91.75860027 161.20152473 93.83409345 C169.58244052 95.62275993 177.96237867 97.41595569 186.34156609 99.21270144 C191.33289106 100.28293395 196.32456388 101.35146705 201.31719971 102.41556931 C206.01337621 103.41667993 210.70829876 104.42347899 215.40235138 105.43449974 C217.11545476 105.80250673 218.82897618 106.16857448 220.54296112 106.53245354 C240.27102345 110.72353748 257.51257038 115.18015352 269.75 132.625 C276.38341415 144.13790863 277.94846367 157.93580362 274.8125 170.75 C270.42994413 184.54394314 262.88059192 194.7208697 249.9453125 201.59375 C233.08387463 209.64430389 214.77674067 205.91660052 197.234375 202.0402832 C195.23322154 201.61325053 193.23170381 201.18792199 191.2298584 200.7641449 C185.84997345 199.62018101 180.47551507 198.45243458 175.1018219 197.27977777 C169.44155678 196.04871189 163.7766614 194.83931502 158.11230469 193.62724304 C148.60461694 191.58962458 139.10009436 189.53778536 129.59765625 187.47583008 C116.25305482 184.58020415 102.90263105 181.7121717 89.5510788 178.84879553 C80.23911027 176.85057797 70.92865528 174.84532249 61.61842346 172.83903098 C59.37839254 172.35640109 57.13831098 171.87400617 54.8981781 171.39184976 C48.5043633 170.0155498 42.11153657 168.63482458 35.72016907 167.24720192 C33.79660499 166.83019451 31.87274029 166.4145706 29.9485321 166.0005455 C20.43546476 163.95246651 10.96304552 161.80440508 1.54589844 159.34880066 C0.76555363 159.14642707 -0.01479118 158.94405348 -0.81878281 158.73554736 C-14.43894572 155.11155834 -24.71410351 147.92476068 -32.125 135.6875 C-33.2758271 133.66964095 -34.40699177 131.64183998 -35.53271484 129.60986328 C-38.38099482 124.54362152 -41.359833 119.55218254 -44.30960083 114.54458618 C-45.4333351 112.63208829 -46.55150255 110.71645132 -47.66772461 108.79956055 C-50.85027925 103.33698386 -54.04223916 97.88694281 -57.390625 92.5234375 C-58.11294312 91.35240479 -58.11294312 91.35240479 -58.84985352 90.15771484 C-59.71279997 88.76572346 -60.58996376 87.38239887 -61.48413086 86.01025391 C-63.16859222 83.27213318 -64.11755736 81.66582054 -63.546875 78.43359375 C-61.62588499 75.41143018 -59.43377676 72.73259786 -57.0625 70.0625 C-53.09402269 65.49124919 -49.26474281 60.85185592 -45.5625 56.0625 C-41.29095563 50.55724395 -36.83660162 45.24319303 -32.27636719 39.97558594 C-28.72142874 35.86337432 -25.28473261 31.67551041 -21.9140625 27.41015625 C-19.86698258 24.83250663 -17.78051753 22.29046474 -15.6875 19.75 C-10.35277042 13.24946414 -5.17589459 6.62707998 0 0 Z " fill="#960C12" transform="translate(563,721)"/>
<path d="M0 0 C18.29714083 15.53034172 29.82760643 37.75924772 32.9140625 61.5078125 C34.58637664 89.2241732 28.4447764 115.00602052 9.91894531 136.29541016 C-5.90475635 153.78211231 -28.07358922 167.22750264 -52.04296875 168.68798828 C-81.64845896 169.91277057 -106.54656877 163.49274132 -129.01953125 143.41015625 C-147.98446937 125.80534777 -157.69355963 101.86776293 -159.28515625 76.30859375 C-160.1463761 48.83865028 -149.2251314 23.85490269 -130.59228516 4.00537109 C-126.18332276 -0.3778664 -121.19096465 -3.97125797 -116.0859375 -7.4921875 C-115.26609375 -8.06582031 -114.44625 -8.63945312 -113.6015625 -9.23046875 C-78.11759822 -32.27123079 -31.71511626 -25.61296731 0 0 Z " fill="#960C12" transform="translate(287.0859375,281.4921875)"/>
<path d="M0 0 C1.96395592 -0.01059839 1.96395592 -0.01059839 3.96758771 -0.02141088 C5.42415093 -0.01915943 6.88071386 -0.01671292 8.33727646 -0.01409245 C9.88182992 -0.01854362 11.42638109 -0.02385727 12.97092891 -0.02996117 C17.22205432 -0.04416615 21.47310671 -0.04580399 25.72425246 -0.04536426 C30.30653384 -0.04701028 34.88878494 -0.06007276 39.47105026 -0.07155704 C49.49375774 -0.09442305 59.51644406 -0.10232939 69.53917408 -0.10738349 C75.79608412 -0.11063867 82.052988 -0.11716006 88.30989456 -0.12438488 C105.62974602 -0.14395294 122.94959174 -0.16035593 140.26945496 -0.16326141 C141.3781562 -0.16344898 142.48685743 -0.16363655 143.62915568 -0.16382981 C145.87681723 -0.16419606 148.12447877 -0.16455976 150.37214032 -0.16492092 C151.48790026 -0.16510373 152.6036602 -0.16528654 153.75323105 -0.16547489 C154.8703511 -0.16565544 155.98747115 -0.16583599 157.13844332 -0.16602201 C175.24234523 -0.16956412 193.34612821 -0.19658791 211.44998887 -0.23397278 C230.03208444 -0.27203849 248.61412097 -0.29141876 267.1962564 -0.29172093 C277.63142728 -0.29230589 288.06645632 -0.30082298 298.50159073 -0.32971859 C307.3869017 -0.35420924 316.2720191 -0.36153103 325.15735468 -0.34647106 C329.69106179 -0.33929266 334.22438648 -0.34019956 338.75805092 -0.36288166 C342.90965344 -0.38345333 347.06057911 -0.38088861 351.21217415 -0.36000682 C352.71286499 -0.35650841 354.21360449 -0.3614369 355.71423152 -0.37571125 C370.58165221 -0.50800274 370.58165221 -0.50800274 376.6736412 5.26006222 C381.21195236 11.07840986 382.5165881 16.02476801 381.6736412 23.26006222 C379.96994298 28.53782301 377.45068877 32.3028423 372.6736412 35.26006222 C368.36698803 36.95545002 364.78232176 37.51152405 360.16644955 37.51733112 C358.21834591 37.52700446 358.21834591 37.52700446 356.23088664 37.53687322 C354.79661787 37.53393118 353.36234948 37.53079576 351.92808151 37.52748775 C350.3990142 37.53122521 348.86994879 37.53582712 347.34088641 37.5412184 C343.14181221 37.55345198 338.94281767 37.55318751 334.74372971 37.55082965 C330.21395586 37.55042157 325.68420759 37.56145972 321.15444565 37.57094479 C312.2808453 37.5875576 303.40727152 37.59305446 294.53365692 37.59416954 C287.3208674 37.59511986 280.10808665 37.59922934 272.89529991 37.60557079 C252.44611228 37.62318378 231.99694565 37.63240955 211.54775038 37.63090985 C210.44533195 37.63082993 209.34291352 37.63075002 208.20708847 37.63066769 C207.10332419 37.63058593 205.99955992 37.63050416 204.86234824 37.63041992 C186.97266163 37.62960695 169.0830592 37.6487473 151.19339695 37.67694442 C132.82480596 37.70566799 114.45625603 37.71948501 96.08764201 37.71775687 C85.77489436 37.7170928 75.46223496 37.72259264 65.14950752 37.74411297 C56.36932645 37.76231779 47.58927364 37.76667781 38.80908187 37.75309412 C34.32997102 37.74656102 29.8511063 37.7464596 25.37201881 37.76380062 C21.2692489 37.77952126 17.16692048 37.77667819 13.0641614 37.75923236 C11.58235804 37.75616023 10.10052181 37.75980292 8.61875721 37.77095251 C-6.66539978 37.87831419 -6.66539978 37.87831419 -13.3263588 33.26006222 C-18.08285618 28.17261046 -19.71234364 23.43354674 -19.6076088 16.41631222 C-18.93985335 11.29685383 -16.5165659 7.39075897 -12.8263588 3.88506222 C-8.2896132 0.93617758 -5.50045212 0.00946872 0 0 Z " fill="#960C12" transform="translate(643.326358795166,686.7399377822876)"/>
<path d="M0 0 C1.26729446 -0.00708481 2.53458893 -0.01416962 3.84028625 -0.02146912 C5.23724401 -0.01917548 6.63420143 -0.01666581 8.03115845 -0.01396179 C9.50820676 -0.01831092 10.98525282 -0.02349474 12.46229553 -0.02944946 C16.4685655 -0.04282999 20.47474108 -0.04341913 24.48102903 -0.04088616 C27.82836497 -0.03981568 31.17568186 -0.04470187 34.52301371 -0.04949158 C42.42206475 -0.06058377 50.32106823 -0.06102598 58.22012329 -0.05497742 C66.36183343 -0.04893876 74.50337071 -0.0612465 82.64505136 -0.08254749 C89.64139321 -0.10017711 96.6376801 -0.10616265 103.63404334 -0.10290974 C107.80988301 -0.10109871 111.9855994 -0.10371497 116.16141891 -0.11762428 C120.0898311 -0.13021999 124.01797437 -0.12824218 127.94638252 -0.11521339 C129.38507364 -0.11285174 130.82378379 -0.11556757 132.26245308 -0.12383652 C147.47749077 -0.20495534 147.47749077 -0.20495534 154.46328735 5.51069641 C158.36348728 10.27760743 160.33177743 14.96138318 160.06484985 21.20991516 C159.19670302 26.27410502 156.90331506 30.13017009 153.21328735 33.63569641 C148.70059533 36.56894623 145.90884062 37.51217357 140.43966675 37.53485107 C138.50509109 37.54981377 138.50509109 37.54981377 136.53143311 37.56507874 C135.10409558 37.56597451 133.6767579 37.56663809 132.24942017 37.5670929 C130.74458403 37.57471541 129.2397518 37.58314307 127.73492432 37.59231567 C123.64796999 37.61426138 119.56109049 37.62305991 115.4740839 37.62814212 C112.91913276 37.63178628 110.36420119 37.63802672 107.80925751 37.64514351 C98.891191 37.66964041 89.97318266 37.68268996 81.05508423 37.68623352 C72.75029458 37.68986671 64.44587499 37.71974574 56.1411984 37.7616381 C49.00558245 37.79636757 41.87008894 37.81178244 34.73438907 37.81247956 C30.47511757 37.81327161 26.21622285 37.82197679 21.95703888 37.85047722 C17.94807809 37.87670295 13.93980518 37.87883846 9.93079758 37.86282158 C8.46348696 37.8610105 6.99613638 37.86766705 5.52891159 37.88364029 C-2.50889494 37.96577525 -9.18459983 38.01417612 -15.28671265 32.26069641 C-19.55733874 26.78553475 -20.97524148 22.17148577 -20.28671265 15.26069641 C-18.57799583 9.75483112 -15.89851313 5.6929811 -11.28671265 2.26069641 C-7.40108195 0.39505658 -4.2920606 0.00801131 0 0 Z " fill="#960C12" transform="translate(760.2867126464844,617.7393035888672)"/>
<path d="M0 0 C0.80922409 -0.0071553 1.61844818 -0.01431061 2.45219421 -0.02168274 C5.1027531 -0.03846579 7.75159568 -0.01923129 10.40209961 0.00219727 C12.25719848 0.00136769 14.11229726 -0.00109506 15.96739197 -0.00511169 C19.84502429 -0.00796247 23.72207668 0.00666223 27.59960938 0.03417969 C32.55833491 0.06828511 37.51602576 0.06222947 42.47480106 0.04351711 C46.30196183 0.03292648 50.12888369 0.04190326 53.95602226 0.05690193 C55.78397346 0.06206745 57.61194978 0.06162182 59.43989754 0.05535698 C61.9982342 0.04987872 64.55511116 0.07036106 67.11328125 0.09765625 C67.861008 0.09113037 68.60873474 0.08460449 69.37911987 0.07788086 C74.81270357 0.17597176 77.9881105 1.57309329 82.49194336 4.63110352 C86.57893143 8.93900986 88.28706903 12.54821452 88.86694336 18.44360352 C88.70470914 23.81761191 86.69187302 28.31055108 82.99584961 32.20922852 C78.00172927 36.54327808 73.86932591 36.78298424 67.53564453 36.79223633 C66.72554428 36.79720123 65.91544403 36.80216614 65.08079529 36.80728149 C62.3988256 36.82189497 59.71691508 36.82870398 57.03491211 36.83422852 C55.17027281 36.83998091 53.30563353 36.84573863 51.44099426 36.85150146 C47.52950769 36.86200932 43.61804167 36.86785331 39.70654297 36.87133789 C34.69958116 36.8768203 29.6928916 36.90084383 24.68601513 36.92930984 C20.83322868 36.94795355 16.98050757 36.95314276 13.12767982 36.95467377 C11.28213323 36.95769722 9.4365877 36.96571537 7.59108543 36.97885895 C5.00598956 36.99595471 2.42155558 36.99403061 -0.16357422 36.98754883 C-0.92275146 36.99676361 -1.68192871 37.00597839 -2.46411133 37.01547241 C-8.85497028 36.96539278 -12.75907353 35.38008663 -17.25805664 30.88110352 C-21.11950666 25.30345349 -22.03324944 20.37156482 -21.03540039 13.76782227 C-19.5473582 7.73849577 -15.77535158 4.74925737 -10.72796822 1.68962288 C-7.14975081 -0.01657679 -3.9101993 -0.06130975 0 0 Z " fill="#960C12" transform="translate(761.508056640625,755.368896484375)"/>
<path d="M0 0 C2.95265112 1.32994383 5.02350216 2.77779316 7.29980469 5.07275391 C7.92014587 5.69324615 8.54048706 6.3137384 9.17962646 6.95303345 C9.83706848 7.62079803 10.4945105 8.28856262 11.171875 8.9765625 C11.8542926 9.66181 12.53671021 10.3470575 13.23980713 11.05307007 C15.41461598 13.23905845 17.58236072 15.43190429 19.75 17.625 C21.2247999 19.10983255 22.70005506 20.59421306 24.17578125 22.078125 C27.78915448 25.7135291 31.39620853 29.35509824 35 33 C32.79654011 35.20345989 31.50687563 35.65396988 28.58203125 36.60400391 C27.66768311 36.90416412 26.75333496 37.20432434 25.8112793 37.51358032 C24.82168213 37.83136444 23.83208496 38.14914856 22.8125 38.4765625 C21.79905518 38.80667328 20.78561035 39.13678406 19.74145508 39.47689819 C17.59712588 40.17400329 15.45183251 40.86814841 13.30566406 41.55957031 C10.01138292 42.62133124 6.72034465 43.69269162 3.4296875 44.765625 C1.34914274 45.4406728 -0.73158054 46.11517065 -2.8125 46.7890625 C-3.80209717 47.11089508 -4.79169434 47.43272766 -5.8112793 47.76431274 C-6.72562744 48.05816864 -7.63997559 48.35202454 -8.58203125 48.65478516 C-9.38874268 48.91522614 -10.1954541 49.17566711 -11.02661133 49.44400024 C-13 50 -13 50 -15 50 C-13.78794464 43.23497479 -12.13024873 36.79109727 -9.9609375 30.2734375 C-9.67521881 29.39974518 -9.38950012 28.52605286 -9.09512329 27.62588501 C-8.1937752 24.87379597 -7.28454358 22.12438996 -6.375 19.375 C-5.75728604 17.49366236 -5.14009382 15.61215333 -4.5234375 13.73046875 C-3.021641 9.15164505 -1.51277538 4.57520758 0 0 Z " fill="#960C12" transform="translate(315,228)"/>
<path d="M0 0 C9.83549203 1.0954892 19.51344944 5.12472995 26 13 C29.44956913 18.75928063 30.65155176 24.0371153 29.609375 30.67578125 C28.05077058 36.62045837 25.02962528 40.46221273 20 44 C16.84375 45.265625 16.84375 45.265625 13.5 46.25 C12.3965625 46.58515625 11.293125 46.9203125 10.15625 47.265625 C7.25693022 47.94021921 4.95339363 48.3119782 2 48 C0 46 0 46 -0.24050903 44.01315308 C-0.23606781 43.20040924 -0.23162659 42.38766541 -0.22705078 41.55029297 C-0.22689972 40.62948944 -0.22674866 39.70868591 -0.22659302 38.75997925 C-0.21627045 37.76410797 -0.20594788 36.76823669 -0.1953125 35.7421875 C-0.1924826 34.72399933 -0.18965271 33.70581116 -0.18673706 32.6567688 C-0.1755177 29.396061 -0.15040996 26.13562516 -0.125 22.875 C-0.11497247 20.66797271 -0.10584623 18.46094112 -0.09765625 16.25390625 C-0.07557268 10.83584428 -0.04207795 5.41794157 0 0 Z " fill="#960C12" transform="translate(632,513)"/>
<path d="M0 0 C2 2 2 2 2.24050903 3.91091919 C2.2338472 5.07674026 2.2338472 5.07674026 2.22705078 6.26611328 C2.22689972 7.14687531 2.22674866 8.02763733 2.22659302 8.93508911 C2.21627045 9.88721283 2.20594788 10.83933655 2.1953125 11.8203125 C2.1924826 12.79410858 2.18965271 13.76790466 2.18673706 14.77120972 C2.17551913 17.88926349 2.1504117 21.00703268 2.125 24.125 C2.11497228 26.23567294 2.10584607 28.34635038 2.09765625 30.45703125 C2.07557458 35.63811835 2.04208129 40.81903885 2 46 C-4.78656594 47.65515531 -9.20328948 44.46192434 -15 41 C-19.52815884 37.2265343 -24.28362594 32.08917949 -25 26 C-25.47943993 18.68854113 -23.97045503 14.17815327 -20.0625 7.875 C-15.52860188 2.71717094 -6.81622923 -0.78102627 0 0 Z " fill="#960C12" transform="translate(607,429)"/>
</svg>
