<?xml version="1.0" encoding="UTF-8"?>
<svg version="1.1" xmlns="http://www.w3.org/2000/svg" width="1080" height="1350">
<path d="M0 0 C1.39034051 0.72645619 2.78096931 1.45236088 4.171875 2.17773438 C12.77751723 6.67770866 21.31982664 11.28829205 29.82128906 15.98217773 C38.38863238 20.69168839 47.08353001 25.14355353 55.78179932 29.60452271 C63.95615526 33.79920932 72.08332014 38.05429337 80.125 42.5 C89.24124819 47.53829289 98.4798485 52.31596785 107.75 57.0625 C117.88684382 62.25279868 127.95809748 67.52469095 137.92578125 73.03515625 C145.79089905 77.36155887 153.76341027 81.4665485 161.75 85.5625 C170.60276888 90.10267461 179.41690197 94.68587536 188.125 99.5 C197.9540547 104.93224092 207.92976372 110.05844509 217.92474365 115.17599487 C227.28879154 119.97313865 236.57777648 124.87170147 245.78515625 129.96484375 C254.02306488 134.49507964 262.38255129 138.77826575 270.75 143.0625 C280.88685562 148.25277391 290.9580986 153.52469157 300.92578125 159.03515625 C308.79089905 163.36155887 316.76341027 167.4665485 324.75 171.5625 C333.60276888 176.10267461 342.41690197 180.68587536 351.125 185.5 C360.24124819 190.53829289 369.4798485 195.31596785 378.75 200.0625 C388.88684382 205.25279868 398.95809748 210.52469095 408.92578125 216.03515625 C416.79090225 220.36156063 424.76344184 224.46648139 432.75 228.5625 C442.59910321 233.61402579 452.38390204 238.75025925 462.0703125 244.10961914 C467.13660715 246.90093069 472.2401392 249.60570534 477.390625 252.23828125 C478.00198303 252.5515033 478.61334106 252.86472534 479.2432251 253.18743896 C482.23824008 254.72067552 485.23705042 256.24488682 488.24316406 257.75634766 C499.09233138 263.29048631 506.20397838 269.11584159 511.13671875 280.6328125 C511.72660196 282.63255843 512.03797877 284.48772079 512.25 286.5625 C512.3428125 287.45453125 512.435625 288.3465625 512.53125 289.265625 C513.20762071 302.18430548 506.5758742 313.38451724 500.6875 324.5 C500.06443521 325.6884167 499.44180367 326.87706063 498.81958008 328.06591797 C494.64184282 336.02631836 490.34338281 343.91876536 486.00170898 351.79077148 C481.03499501 360.84772049 476.3442412 370.04274559 471.63705444 379.23614502 C466.83972851 388.60056115 461.94099746 397.88991685 456.84765625 407.09765625 C451.92466738 416.04975796 447.29076771 425.14690929 442.63522339 434.23980713 C438.30090371 442.70063745 433.9176475 451.11977572 429.3125 459.4375 C424.08802284 468.87668142 419.16059749 478.45776682 414.25 488.0625 C408.9025856 498.52161188 403.48728107 508.9213224 397.796875 519.19921875 C393.28104784 527.40194042 389.01707673 535.72872604 384.75 544.0625 C378.95686934 555.3750978 373.04553479 566.60311384 366.89453125 577.7265625 C364.71125325 581.68419964 362.63439566 585.68754333 360.58081055 589.71362305 C354.61430049 601.31920497 349.07267994 608.98626213 336.25 613.5625 C332.88687014 614.15441086 329.53561339 614.55109417 326.14453125 614.9453125 C322.35108325 615.75417186 320.70576266 617.35937979 318.02734375 620.03125 C311.66265753 625.51467198 303.12588064 626.02557415 295.09765625 626.19140625 C283.87864957 624.35763968 273.37974575 617.70903505 263.375 612.5 C261.89720376 611.73489401 260.41933831 610.96992171 258.94140625 610.20507812 C250.1412769 605.6405589 241.4085554 600.96759401 232.73266602 596.1706543 C222.98780439 590.81129925 213.08242405 585.76264391 203.18164062 580.69921875 C202.50564316 580.35308533 201.82964569 580.0069519 201.13316345 579.65032959 C197.39005364 577.73395762 197.39005364 577.73395762 193.63343924 575.84427094 C191.77984603 574.84744171 189.97825986 573.75367838 188.20236713 572.62421775 C177.91095972 566.26157851 169.33544095 565.42961574 157.42973328 565.5894165 C155.56774234 565.58465187 153.70575772 565.57636005 151.84379607 565.56488109 C146.76579975 565.54357015 141.68912568 565.5715765 136.61126077 565.60806823 C131.12046455 565.6386624 125.6297755 565.62268387 120.13893127 565.61235046 C110.63630949 565.60060042 101.13409153 565.6175133 91.63153648 565.65372467 C77.88179547 565.70572604 64.13236034 565.70956559 50.38253877 565.70110282 C28.05729182 565.68828963 5.73218025 565.7080524 -16.59301758 565.75146484 C-17.94117012 565.75407431 -19.28932267 565.75668303 -20.63747521 565.75929102 C-21.3054474 565.76058468 -21.97341958 565.76187834 -22.66163334 565.7632112 C-26.04108478 565.76975406 -29.42053626 565.77627848 -32.79998779 565.78277588 C-33.47011606 565.78406806 -34.14024433 565.78536025 -34.83067952 565.78669159 C-50.40672335 565.81655258 -65.98277414 565.83612756 -81.55883789 565.85205078 C-82.22635953 565.85274119 -82.89388116 565.85343159 -83.58163072 565.85414292 C-106.50586616 565.877719 -129.43009269 565.88471143 -152.35434026 565.88252425 C-166.07100429 565.88225979 -179.78747279 565.89852929 -193.5040861 565.93624249 C-202.89742586 565.96141867 -212.29071695 565.97311863 -221.68409023 565.97423014 C-227.10311313 565.97545927 -232.52191654 565.98344101 -237.94088364 566.0090313 C-242.90312217 566.03240348 -247.86502894 566.03736866 -252.82731023 566.02786514 C-254.6204463 566.02772351 -256.41359873 566.0343673 -258.20667867 566.04855731 C-270.7554069 566.14296981 -280.60884892 565.26383426 -290.0703125 556.27734375 C-300.4588378 545.6713842 -300.90113949 534.40296975 -300.88371277 520.25993347 C-300.88558248 518.89983425 -300.88788382 517.53973557 -300.89057809 516.17963773 C-300.89668265 512.45223378 -300.89656408 508.72485231 -300.89538372 504.99744451 C-300.89517937 500.97347696 -300.90070169 496.94951657 -300.90544128 492.92555237 C-300.91374094 485.04571138 -300.91649581 477.16587787 -300.91705366 469.28603288 C-300.91752913 462.87991493 -300.91958542 456.47379944 -300.92275429 450.06768227 C-300.93155886 431.89831031 -300.93617395 413.72894426 -300.93542381 395.55957016 C-300.93538386 394.58044667 -300.9353439 393.60132319 -300.93530273 392.5925293 C-300.93526185 391.61220804 -300.93522097 390.63188678 -300.93517885 389.62185881 C-300.9347724 373.73432728 -300.94434228 357.84681944 -300.9584411 341.95929476 C-300.97280917 325.63938408 -300.97971105 309.31948497 -300.97884732 292.99956781 C-300.97851551 283.83986778 -300.98125572 274.6801926 -300.99202538 265.52049828 C-301.00113601 257.72195125 -301.00330097 249.92344034 -300.99651595 242.12489029 C-300.99325365 238.14797921 -300.9931836 234.17113741 -301.0018692 230.19423294 C-301.00974789 226.54923029 -301.00828886 222.90435168 -300.99958507 219.25935201 C-300.99733081 217.32549971 -301.00486796 215.39164353 -301.01282471 213.45780629 C-300.96144563 200.44081126 -299.10015857 190.20721866 -290.1875 180.3125 C-278.24171281 169.55380016 -264.53028038 170.89757124 -249.390625 171.07421875 C-247.03123732 171.08355767 -244.67183986 171.09066868 -242.31243896 171.09565735 C-236.13749881 171.11464191 -229.96315757 171.16366911 -223.78845215 171.21917725 C-217.47363382 171.27055445 -211.15871762 171.29321073 -204.84375 171.31835938 C-192.47890521 171.3717961 -180.11450264 171.45700491 -167.75 171.5625 C-167.44726166 170.63046753 -167.14452332 169.69843506 -166.83261108 168.73815918 C-165.75801681 165.58601598 -164.45080751 162.79533119 -162.9140625 159.84375 C-162.35098389 158.75884277 -161.78790527 157.67393555 -161.20776367 156.55615234 C-160.60295166 155.40324707 -159.99813965 154.2503418 -159.375 153.0625 C-158.73853895 151.84203743 -158.10222922 150.62149594 -157.46606445 149.40087891 C-153.24583934 141.3231152 -148.90435418 133.31599577 -144.50244141 125.3359375 C-139.53559164 116.27749679 -134.84378179 107.08150968 -130.13604736 97.88684082 C-125.36626592 88.57594634 -120.49935332 79.33825601 -115.42675781 70.18774414 C-112.28142757 64.47308693 -109.26082211 58.70268498 -106.29296875 52.89453125 C-105.89896378 52.123974 -105.5049588 51.35341675 -105.09901428 50.55950928 C-103.13826279 46.72054068 -101.18535276 42.87780692 -99.24243164 39.02978516 C-83.38611803 7.76828523 -83.38611803 7.76828523 -70.359375 2.6171875 C-66.42446123 1.37394787 -62.74403007 0.50086431 -58.625 0.25 C-54.76953754 -0.43403366 -53.82184534 -0.90976038 -50.9375 -3.25 C-34.20461609 -16.81278676 -16.63849693 -8.79064557 0 0 Z " fill="#960C12" transform="translate(431.75,367.4375)"/>
<path d="M0 0 C2.35938768 0.00933892 4.71878514 0.01644993 7.07818604 0.0214386 C13.25312619 0.04042316 19.42746743 0.08945036 25.60217285 0.1449585 C31.91699118 0.1963357 38.23190738 0.21899198 44.546875 0.24414062 C56.91171979 0.29757735 69.27612236 0.38278616 81.640625 0.48828125 C80.37895962 3.01565201 79.11685007 5.54279937 77.85449219 8.06982422 C77.50160126 8.77684982 77.14871033 9.48387543 76.78512573 10.21232605 C73.53997242 16.70706913 70.23358742 23.16825563 66.890625 29.61328125 C66.28774658 30.77649902 65.68486816 31.9397168 65.0637207 33.13818359 C60.94778005 41.05912151 56.70320381 48.90159012 52.39160156 56.71728516 C47.81710359 65.06086949 43.47719171 73.5195812 39.140625 81.98828125 C34.22399405 91.58884183 29.26808335 101.15641647 24.078125 110.61328125 C23.59794922 111.48976318 23.11777344 112.36624512 22.62304688 113.26928711 C20.52380977 117.09126771 18.40831589 120.90314841 16.26953125 124.703125 C9.75699963 136.39142836 4.31026074 147.93537708 7.765625 161.42578125 C12.54893295 175.90919276 23.47190965 181.67505839 36.328125 188.42578125 C37.56094774 189.07938507 38.79352736 189.73344764 40.02587891 190.38793945 C49.43484281 195.37351964 58.89691986 200.25716998 68.36593628 205.12747192 C76.09825085 209.10497894 83.7785894 213.15958754 91.390625 217.36328125 C100.54951779 222.42049261 109.82956071 227.21969303 119.140625 231.98828125 C129.00403024 237.04253725 138.84129549 242.13031257 148.578125 247.42578125 C149.48304688 247.915625 150.38796875 248.40546875 151.3203125 248.91015625 C152.13628906 249.35746094 152.95226562 249.80476562 153.79296875 250.265625 C154.49413818 250.64968506 155.19530762 251.03374512 155.91772461 251.42944336 C157.640625 252.48828125 157.640625 252.48828125 159.640625 254.48828125 C158.30159717 254.4890984 158.30159717 254.4890984 156.93551826 254.48993206 C135.19265476 254.50491354 113.44999597 254.54741577 91.70724678 254.62037182 C81.19250301 254.6549928 70.67788995 254.68037355 60.16308594 254.68383789 C50.99604202 254.6868818 41.82923107 254.70742971 32.6622771 254.74880582 C27.81049416 254.7700987 22.9590421 254.7827555 18.10721207 254.77443504 C13.53519564 254.76687141 8.96384837 254.78281127 4.39195442 254.8163414 C2.71911528 254.82454688 1.04620925 254.82435754 -0.62662315 254.81487846 C-9.72615701 254.76844428 -17.66598231 254.94007019 -25.359375 260.48828125 C-27.64497625 262.68496435 -27.64497625 262.68496435 -28.921875 265.11328125 C-29.37691406 265.86867188 -29.83195312 266.6240625 -30.30078125 267.40234375 C-31.9077856 270.56891322 -32.48775515 273.13122931 -32.52050781 276.63330078 C-32.53011536 277.4649173 -32.5397229 278.29653381 -32.54962158 279.15335083 C-32.55387146 280.05020599 -32.55812134 280.94706116 -32.5625 281.87109375 C-32.57105011 283.26435379 -32.57105011 283.26435379 -32.57977295 284.6857605 C-32.58922252 286.65442772 -32.59575676 288.62311075 -32.59960938 290.59179688 C-32.60927072 293.58101696 -32.64027611 296.56953632 -32.671875 299.55859375 C-32.67840987 301.47525635 -32.68365844 303.39192386 -32.6875 305.30859375 C-32.6998468 306.19330353 -32.7121936 307.07801331 -32.72491455 307.98953247 C-32.70041198 314.93370848 -31.71786661 321.44131477 -27.37890625 327.046875 C-26.65058594 327.66691406 -25.92226562 328.28695313 -25.171875 328.92578125 C-24.45644531 329.56386719 -23.74101562 330.20195313 -23.00390625 330.859375 C-15.69443337 335.3616648 -7.38143452 334.75376178 0.9067688 334.68600464 C2.25092643 334.68241034 3.59508678 334.67973707 4.93924797 334.67790043 C7.85199442 334.67199451 10.76462072 334.65973801 13.67732239 334.64256859 C18.41819737 334.61469012 23.15905589 334.60080552 27.8999939 334.58872986 C33.89430629 334.57250452 39.88858872 334.5527133 45.88287531 334.52877684 C57.67776779 334.48194543 69.4725714 334.46240805 81.26754761 334.45291138 C83.12762965 334.4512885 84.98771168 334.44965668 86.8477937 334.44801605 C90.61363849 334.44475357 94.37948336 334.44160892 98.14532828 334.43850541 C107.82100954 334.43035047 117.4966872 334.42016656 127.17236328 334.40722656 C128.14299008 334.40593845 129.11361689 334.40465034 130.11365663 334.40332319 C145.81210147 334.38133995 161.51022815 334.3228398 177.20852138 334.25252412 C193.35683004 334.18123036 209.50477203 334.15614635 225.6532315 334.17152703 C235.5949398 334.1794305 245.53516886 334.15116241 255.47659527 334.07508607 C262.30577511 334.02615269 269.13410502 334.02192406 275.9633918 334.05146091 C279.89210088 334.0671295 283.81825058 334.06425626 287.74663544 334.00735664 C306.05101472 333.75700175 319.96145913 335.50554065 335.44280601 346.04284596 C338.75511428 348.22124522 342.24860902 349.98124118 345.796875 351.73828125 C347.02391727 352.36454672 348.25040664 352.99189798 349.47607422 353.62084961 C350.07385681 353.92538055 350.6716394 354.2299115 351.28753662 354.54367065 C361.62359401 359.81246918 371.87944494 365.19475427 382.02807617 370.81787109 C387.73363489 373.95787159 393.49439955 376.97404527 399.29296875 379.9375 C400.04761414 380.32354904 400.80225952 380.70959808 401.57977295 381.10734558 C405.36171325 383.04005383 409.14764557 384.96442013 412.93896484 386.87866211 C414.32527229 387.58432145 415.71150625 388.29012518 417.09765625 388.99609375 C417.74443832 389.31950241 418.3912204 389.64291107 419.05760193 389.97612 C423.52738574 392.26180273 423.52738574 392.26180273 424.640625 394.48828125 C367.61091356 394.57982074 310.58120939 394.65031994 253.55143894 394.69254257 C246.81977426 394.69753186 240.08810975 394.70271808 233.35644531 394.70800781 C232.35163014 394.70879237 232.35163014 394.70879237 231.32651568 394.70959277 C209.61907873 394.72663411 187.91168347 394.75667631 166.20427177 394.79347013 C143.26195573 394.83228641 120.31965629 394.85626829 97.37730682 394.86463523 C83.63479795 394.87012586 69.89240876 394.88747263 56.14993672 394.91994712 C46.728412 394.94107786 37.30694922 394.94748453 27.88540252 394.94228676 C22.44826612 394.93972277 17.01133899 394.94367544 11.57423973 394.96510315 C6.59473401 394.98458416 1.61557807 394.98554102 -3.36394383 394.97187683 C-5.16357853 394.9701883 -6.96323516 394.97524924 -8.76282679 394.98781398 C-21.32732828 395.07042515 -31.20562943 394.20157774 -40.6796875 385.203125 C-51.0682128 374.59716545 -51.51051449 363.328751 -51.49308777 349.18571472 C-51.49495748 347.8256155 -51.49725882 346.46551682 -51.49995309 345.10541898 C-51.50605765 341.37801503 -51.50593908 337.65063356 -51.50475872 333.92322576 C-51.50455437 329.89925821 -51.51007669 325.87529782 -51.51481628 321.85133362 C-51.52311594 313.97149263 -51.52587081 306.09165912 -51.52642866 298.21181413 C-51.52690413 291.80569618 -51.52896042 285.39958069 -51.53212929 278.99346352 C-51.54093386 260.82409156 -51.54554895 242.65472551 -51.54479881 224.48535141 C-51.54475886 223.50622792 -51.5447189 222.52710444 -51.54467773 221.51831055 C-51.54463685 220.53798929 -51.54459597 219.55766803 -51.54455385 218.54764006 C-51.5441474 202.66010853 -51.55371728 186.77260069 -51.5678161 170.88507601 C-51.58218417 154.56516533 -51.58908605 138.24526622 -51.58822232 121.92534906 C-51.58789051 112.76564903 -51.59063072 103.60597385 -51.60140038 94.44627953 C-51.61051101 86.6477325 -51.61267597 78.84922159 -51.60589095 71.05067154 C-51.60262865 67.07376046 -51.6025586 63.09691866 -51.6112442 59.12001419 C-51.61912289 55.47501154 -51.61766386 51.83013293 -51.60896007 48.18513326 C-51.60670581 46.25128096 -51.61424296 44.31742478 -51.62219971 42.38358754 C-51.57082063 29.36659251 -49.70953357 19.13299991 -40.796875 9.23828125 C-28.85108781 -1.52041859 -15.13965538 -0.17664751 0 0 Z " fill="#960C12" transform="translate(182.359375,538.51171875)"/>
<path d="M0 0 C-0.49338867 0.84820312 -0.98677734 1.69640625 -1.49511719 2.5703125 C-5.98854858 10.33822889 -10.25012831 18.19104423 -14.32611084 26.18835449 C-19.04757961 35.44663791 -23.84612299 44.65411019 -28.875 53.75 C-34.32628578 63.62134821 -39.47457582 73.63807445 -44.61322021 83.67419434 C-49.41045507 93.03842635 -54.30910201 102.32759666 -59.40234375 111.53515625 C-63.93257909 119.77306388 -68.21578623 128.13254172 -72.5 136.5 C-77.66641352 146.59047446 -82.91464956 156.61450575 -88.40234375 166.53515625 C-92.93257909 174.77306388 -97.21578623 183.13254172 -101.5 191.5 C-106.66641352 201.59047446 -111.91464956 211.61450575 -117.40234375 221.53515625 C-122.32184555 230.48091697 -126.95336783 239.57123732 -131.60470581 248.65817261 C-136.14509412 257.52382175 -140.75282673 266.33877469 -145.5625 275.0625 C-149.03762282 281.3684451 -152.45042046 287.69299616 -155.6875 294.125 C-156.01500244 294.77090088 -156.34250488 295.41680176 -156.67993164 296.08227539 C-160.63724525 304.04983965 -161.33839662 312.31908825 -159.28125 321.05078125 C-153.88810706 336.77353265 -142.32608661 342.02060062 -128.03741455 349.25094604 C-124.82196519 350.87882762 -121.61611863 352.52540791 -118.41015625 354.171875 C-117.77051941 354.50005722 -117.13088257 354.82823944 -116.47186279 355.16636658 C-110.97094578 357.99695056 -105.53886958 360.94387586 -100.125 363.9375 C-90.66618011 369.15858348 -81.08116358 374.11192007 -71.46875 379.04174805 C-63.29421007 383.23652584 -55.16685963 387.49169399 -47.125 391.9375 C-38.00875181 396.97579289 -28.7701515 401.75346785 -19.5 406.5 C-9.36315618 411.69029868 0.70809748 416.96219095 10.67578125 422.47265625 C18.54089905 426.79905887 26.51341027 430.9040485 34.5 435 C43.35276888 439.54017461 52.16690197 444.12337536 60.875 448.9375 C70.7040547 454.36974092 80.67976372 459.49594509 90.67474365 464.61349487 C100.03879154 469.41063865 109.32777648 474.30920147 118.53515625 479.40234375 C126.77306488 483.93257964 135.13255129 488.21576575 143.5 492.5 C153.63685562 497.69027391 163.7080986 502.96219157 173.67578125 508.47265625 C181.54089905 512.79905887 189.51341027 516.9040485 197.5 521 C206.35276888 525.54017461 215.16690197 530.12337536 223.875 534.9375 C232.99124819 539.97579289 242.2298485 544.75346785 251.5 549.5 C261.63684382 554.69029868 271.70809748 559.96219095 281.67578125 565.47265625 C289.54090332 569.79906121 297.51345237 573.90395899 305.5 578 C314.51787493 582.62531117 323.49616844 587.29839848 332.375 592.1875 C340.3115313 596.54109216 348.25755736 600.87471428 356.25 605.125 C357.27399902 605.6821167 358.29799805 606.2392334 359.35302734 606.81323242 C365.49997112 610.05619168 371.09387216 612.10110114 378 613 C375.49043205 618.71017635 370.57109577 621.58428675 364.9375 623.8125 C347.45295391 628.95676271 333.1138705 619.74155158 318.125 611.9375 C316.64720376 611.17239401 315.16933831 610.40742171 313.69140625 609.64257812 C304.89042822 605.0776187 296.15578676 600.40596341 287.48046875 595.60595703 C277.77239781 590.26397853 267.89612302 585.24606156 258.01953125 580.22460938 C249.12812647 575.6910651 240.40163411 570.91816273 231.72814941 565.98129272 C217.79560093 558.06999272 203.58920442 550.69099419 189.33139038 543.38943481 C179.93443505 538.57539636 170.6093633 533.66407964 161.37036133 528.55151367 C151.68327411 523.21934887 141.83449017 518.19887261 131.98974609 513.16577148 C131.33435349 512.82994049 130.67896088 512.4941095 130.00370789 512.14810181 C128.2067149 511.2276418 126.40844848 510.30966914 124.61010742 509.3918457 C122 508 122 508 121 507 C119.26217913 506.9003248 117.52027051 506.87152689 115.77959442 506.86971474 C114.07110266 506.86427822 114.07110266 506.86427822 112.32809591 506.85873187 C111.06091679 506.85980012 109.79373767 506.86086837 108.48815918 506.86196899 C107.14077499 506.85955312 105.79339154 506.85669154 104.44600916 506.85341966 C100.72592407 506.84563541 97.0058574 506.84404559 93.28576517 506.84336853 C89.28011414 506.84153425 85.27447402 506.83393031 81.26882935 506.82688904 C74.32091914 506.81534416 67.37301139 506.80710974 60.4250946 506.80076981 C49.44211215 506.79045828 38.45916012 506.76989741 27.47619629 506.74765015 C23.7206956 506.74016964 19.96519477 506.73275598 16.20969391 506.72536278 C15.27102131 506.72351221 14.33234871 506.72166165 13.36523148 506.719755 C2.67089948 506.69881187 -8.02343591 506.67999255 -18.71777344 506.66210938 C-19.69576879 506.66047119 -20.67376414 506.65883301 -21.68139571 506.65714519 C-37.51823691 506.63087937 -53.35508043 506.61222679 -69.19193417 506.59551747 C-85.44500506 506.57809194 -101.69803023 506.54923923 -117.95106459 506.5106281 C-127.97852871 506.48723325 -138.00591826 506.47323399 -148.03340989 506.47130047 C-154.90953982 506.46918979 -161.78559566 506.45624962 -168.66169232 506.43482114 C-172.62832945 506.42280224 -176.59481949 506.41563398 -180.56147385 506.42153358 C-184.19625202 506.4268427 -187.83073059 506.41830663 -191.46545881 506.39897721 C-193.39634651 506.39226239 -195.32726821 506.40020864 -197.25814867 506.40875494 C-207.38697824 506.33155811 -214.85366472 504.8905078 -222.33984375 497.8359375 C-226.54693728 493.18338701 -228.08405581 487.89043307 -228.19287109 481.75732422 C-228.20893402 480.92901093 -228.22499695 480.10069763 -228.24154663 479.24728394 C-228.28644007 475.45686016 -228.32708268 471.66660481 -228.35009766 467.87597656 C-228.36661107 465.88594836 -228.39383973 463.89597834 -228.43212891 461.90625 C-228.85915585 439.56717104 -228.85915585 439.56717104 -221.59179688 431.42163086 C-216.01931791 426.25818372 -209.96825219 424.62806192 -202.59046936 424.60127258 C-201.87803383 424.59462576 -201.1655983 424.58797893 -200.43157381 424.58113068 C-198.06238846 424.56259061 -195.69371214 424.56509979 -193.32446289 424.56762695 C-191.61901135 424.55860427 -189.9135663 424.54827581 -188.20812988 424.53674316 C-183.59090584 424.50920645 -178.97380496 424.49989316 -174.35650945 424.49388909 C-169.52647745 424.48449678 -164.69653714 424.45829267 -159.86656189 424.43388367 C-150.72595206 424.39023861 -141.58536005 424.36167938 -132.44467777 424.33856028 C-122.03595449 424.31149794 -111.62732352 424.26758705 -101.2186662 424.22227156 C-79.81249382 424.12945383 -58.4062938 424.05775992 -37 424 C-41.59911692 421.56167051 -46.19864429 419.12411752 -50.79852295 416.68722534 C-52.35714318 415.86137908 -53.9156589 415.03533552 -55.47406006 414.20907593 C-65.04307973 409.13580916 -74.6270238 404.09536065 -84.25 399.125 C-92.65605629 394.77251663 -100.9815509 390.29649713 -109.27246094 385.72900391 C-117.27658649 381.34402331 -125.38086735 377.16635661 -133.5 373 C-142.85073191 368.19575708 -152.18706464 363.37074617 -161.4375 358.375 C-162.29988281 357.91480469 -163.16226563 357.45460938 -164.05078125 356.98046875 C-175.17794266 350.91918753 -183.62123955 344.21443703 -188 332 C-191.67139245 318.98324493 -186.01051079 307.41092558 -179.8125 296.25 C-179.30041992 295.33718262 -178.78833984 294.42436523 -178.26074219 293.48388672 C-173.46057739 284.92639078 -168.96192167 276.23654333 -164.5 267.5 C-159.33640965 257.40815378 -154.08528591 247.38537759 -148.59765625 237.46484375 C-143.67803999 228.51887488 -139.04503065 219.42886568 -134.39529419 210.34082031 C-129.8648535 201.48968506 -125.2552693 192.69944352 -120.4375 184 C-117.07144932 177.91968033 -113.88765538 171.82192668 -111 165.5 C-107.70126155 158.27938076 -103.97158687 151.35985599 -100.125 144.41796875 C-95.23305321 135.53775992 -90.61217479 126.52737389 -86 117.5 C-80.6534013 107.04049298 -75.23726201 96.64114319 -69.546875 86.36328125 C-65.03103485 78.16053598 -60.76757289 69.83354015 -56.5 61.5 C-51.53117271 51.80224924 -46.53173993 42.12887035 -41.3125 32.5625 C-40.85617187 31.72460938 -40.39984375 30.88671875 -39.9296875 30.0234375 C-30.31788874 12.53966112 -30.31788874 12.53966112 -25 8 C-24.24976563 7.35611328 -24.24976563 7.35611328 -23.484375 6.69921875 C-16.31809231 1.02312101 -8.87850454 -0.06961535 0 0 Z " fill="#FEFCFC" transform="translate(377,368)"/>
<path d="M0 0 C6.38128094 2.58592565 12.46946589 5.5620454 18.54980469 8.7878418 C20.05341553 9.57831909 20.05341553 9.57831909 21.58740234 10.38476562 C29.03580623 14.31473104 36.42188275 18.35337592 43.7956543 22.42114258 C49.55283066 25.57568995 55.35794245 28.62294276 61.20214844 31.61206055 C61.93588684 31.9876561 62.66962524 32.36325165 63.42559814 32.75022888 C67.07710695 34.61735867 70.73240363 36.47656821 74.39306641 38.32568359 C95.64610674 49.11756321 95.64610674 49.11756321 98.79980469 55.2878418 C99.76591896 63.13395941 98.32620237 68.78786435 94.54980469 75.6003418 C94.09871338 76.45732666 93.64762207 77.31431152 93.18286133 78.19726562 C91.7467641 80.90841853 90.27806289 83.59947682 88.79980469 86.2878418 C87.88688287 87.96223297 86.97412053 89.63671111 86.06152344 91.3112793 C84.633516 93.92600067 83.20230039 96.5387505 81.76245117 99.14697266 C76.30357684 109.07587588 71.16082748 119.16590801 66.02612305 129.26513672 C62.46251668 136.25704608 58.82189997 143.20347593 55.03417969 150.0769043 C54.67113235 150.74841522 54.30808502 151.41992615 53.93403625 152.11178589 C51.56844393 156.35061651 49.26239081 159.36783871 45.01464844 161.7565918 C35.64376401 164.00428189 29.19546936 159.8995349 21.17480469 155.5378418 C19.86921496 154.84360484 18.56288928 154.15075027 17.25585938 153.45922852 C13.42454575 151.42515251 9.60956643 149.36195383 5.79980469 147.2878418 C4.82108398 146.75513672 3.84236328 146.22243164 2.83398438 145.67358398 C-0.61535426 143.79040423 -4.06235858 141.90321575 -7.50244141 140.00317383 C-17.45620419 134.53325218 -27.5823595 129.3938176 -37.70703125 124.24926758 C-61.20603075 112.27617092 -61.20603075 112.27617092 -65.20019531 104.2878418 C-65.73118049 97.79422602 -64.52964608 93.85284685 -61.46582031 88.1862793 C-61.07677017 87.4362262 -60.68772003 86.6861731 -60.28688049 85.91339111 C-59.02361916 83.48797691 -57.73746075 81.07558831 -56.45019531 78.6628418 C-55.56701703 76.97909506 -54.68510692 75.29468254 -53.80444336 73.60961914 C-48.85444953 64.16678069 -43.8268917 54.76252259 -38.63989258 45.44750977 C-35.68591454 40.11830065 -32.88952663 34.72692817 -30.16113281 29.2800293 C-29.4466716 27.86247907 -28.73207151 26.44499882 -28.01733398 25.02758789 C-26.62510904 22.26528893 -25.25373974 19.49389279 -23.89282227 16.71606445 C-19.00906102 6.92248339 -12.6587958 -4.09739318 0 0 Z " fill="#FEFEFE" transform="translate(703.2001953125,754.712158203125)"/>
<path d="M0 0 C0.99773437 0.31839844 1.99546875 0.63679688 3.0234375 0.96484375 C16.75529947 5.71818059 27.52751306 14.9718553 34.3125 27.875 C40.8554561 41.99494886 42.22059109 56.12922538 37 71 C31.81240125 84.03550456 22.31808078 95.92676371 9.2734375 101.7265625 C-6.0130968 108.12972768 -20.42353157 109.00492111 -36.0625 102.78125 C-50.81373703 96.00772279 -61.34576986 84.10739616 -67 69 C-71.74216026 55.26749425 -69.26954076 40.80724734 -63.375 27.9375 C-56.13540066 14.18759758 -44.46526525 5.19534565 -30.04296875 -0.08984375 C-20.40908642 -2.97135156 -9.55486087 -3.31814259 0 0 Z " fill="#FEFDFD" transform="translate(451,453)"/>
<path d="M0 0 C2.81672199 0.97544825 5.38105377 2.32664863 8.00390625 3.734375 C8.75555557 4.12351578 9.5072049 4.51265656 10.28163147 4.91358948 C12.71607227 6.17861389 15.13918742 7.46380593 17.5625 8.75 C19.24798615 9.63150301 20.9340249 10.51195018 22.62060547 11.39135742 C32.17636286 16.38800282 41.69358863 21.46005738 51.11914062 26.69873047 C56.07923412 29.44801186 61.08732339 32.07849219 66.15234375 34.62890625 C67.39439932 35.25799577 68.6364241 35.88714608 69.87841797 36.51635742 C72.27290092 37.72856885 74.67408784 38.92185064 77.08251953 40.10668945 C87.65696853 45.45343536 87.65696853 45.45343536 91 51 C91.60076596 54.20935502 91.0490371 56.92093436 90 60 C87.10718517 63.56038749 84.95872297 65.7920386 80.34179688 66.28222656 C76.19682306 65.93216887 73.13470988 64.41210348 69.53125 62.484375 C68.82275909 62.1175209 68.11426819 61.75066681 67.38430786 61.37269592 C65.08310636 60.17702097 62.79161686 58.96392873 60.5 57.75 C58.90328391 56.9153947 57.30611263 56.08165967 55.70849609 55.2487793 C46.45664482 50.41220678 37.24906155 45.49332428 28.12329102 40.42236328 C22.93350195 37.55035857 17.6919388 34.81076137 12.39453125 32.14453125 C11.06361193 31.4710014 9.73272002 30.79741737 8.40185547 30.1237793 C5.81831397 28.81698106 3.22666948 27.52850541 0.62939453 26.24926758 C-10.58345145 20.63926864 -10.58345145 20.63926864 -14 15 C-14.87812611 12.18999646 -14.72454474 9.8472344 -14 7 C-10.41318742 0.89450653 -6.91929389 -0.52833013 0 0 Z " fill="#FDFBFB" transform="translate(338,646)"/>
<path d="M0 0 C0.76957031 0.43006348 1.53914063 0.86012695 2.33203125 1.30322266 C3.14285156 1.7448877 3.95367187 2.18655273 4.7890625 2.64160156 C6.54036202 3.59664445 8.28896969 4.55663649 10.03515625 5.52099609 C12.96345094 7.12521899 15.91053208 8.6898243 18.86328125 10.24853516 C20.85312718 11.3079379 22.84271578 12.36782416 24.83203125 13.42822266 C25.78142578 13.92741211 26.73082031 14.42660156 27.70898438 14.94091797 C28.59521484 15.41883789 29.48144531 15.89675781 30.39453125 16.38916016 C31.17957031 16.8072998 31.96460938 17.22543945 32.7734375 17.65625 C35.09658863 19.2327527 36.38556535 20.65129823 37.83203125 23.05322266 C38.37662511 27.87676824 38.32191655 30.07345205 36.14453125 34.42822266 C33.66076528 37.24763268 32.48325254 38.28901355 28.83203125 39.05322266 C22.70185635 38.67774944 18.40113933 36.58797333 13.14453125 33.67822266 C12.33306641 33.23776611 11.52160156 32.79730957 10.68554688 32.34350586 C8.9607636 31.40572918 7.23832046 30.46363754 5.51806641 29.51757812 C2.77640112 28.02289458 0.01628425 26.56817524 -2.75 25.11962891 C-4.55633379 24.16064156 -6.36233285 23.2010234 -8.16796875 22.24072266 C-9.02221436 21.79744629 -9.87645996 21.35416992 -10.7565918 20.89746094 C-15.11043736 18.54796242 -18.23358993 16.8460965 -20.16796875 12.05322266 C-20.7175425 7.73514319 -20.46208025 5.60993371 -18.41796875 1.74072266 C-12.91743083 -4.8293643 -7.00369141 -3.76152965 0 0 Z " fill="#FDFBFB" transform="translate(490.16796875,658.94677734375)"/>
<path d="M0 0 C2.55457737 0.97700372 4.69787981 1.94340987 7.0625 3.25 C8.44528029 3.9818317 9.82809504 4.71359829 11.2109375 5.4453125 C11.96342773 5.85040039 12.71591797 6.25548828 13.49121094 6.67285156 C16.29826487 8.157782 19.13387791 9.5767092 21.9765625 10.9921875 C24.04711239 12.03598757 26.1174261 13.08025627 28.1875 14.125 C29.17951416 14.61516602 30.17152832 15.10533203 31.19360352 15.61035156 C36.65729058 18.40984163 40.69797148 20.74069232 44 26 C44.60076596 29.20935502 44.0490371 31.92093436 43 35 C40.80176185 37.70552388 39.10443333 39.44778333 36 41 C28.20008869 40.82307893 23.03962766 38.31825103 16.375 34.4375 C14.43803929 33.34019333 12.50053677 32.24384253 10.5625 31.1484375 C9.62019531 30.61057617 8.67789063 30.07271484 7.70703125 29.51855469 C5.2856726 28.16025285 2.84780718 26.86304306 0.375 25.6015625 C-0.30868652 25.2516626 -0.99237305 24.9017627 -1.69677734 24.54125977 C-3.495877 23.62804243 -5.29858628 22.72194599 -7.1015625 21.81640625 C-11.17356765 19.26454318 -13.4748668 16.64541736 -14.9375 12.0625 C-15.03215859 7.42422918 -13.37420792 4.52689769 -10.3125 1.125 C-6.92983823 -0.52061924 -3.66483987 -0.40669199 0 0 Z " fill="#FDFBFB" transform="translate(557,695)"/>
<path d="M0 0 C4.27264707 0.29288307 7.19305435 1.50935313 10.875 3.515625 C11.53927002 3.86407471 12.20354004 4.21252441 12.88793945 4.5715332 C14.37806508 5.35385336 15.86529578 6.14170422 17.35009766 6.93408203 C20.16890283 8.42061881 23.009956 9.85824505 25.85546875 11.29296875 C27.92476087 12.34580068 29.99377278 13.39918353 32.0625 14.453125 C33.05443359 14.95166992 34.04636719 15.45021484 35.06835938 15.96386719 C44.58800753 20.87376111 44.58800753 20.87376111 47.875 25.265625 C48.72732792 28.99786838 48.51336248 32.49928636 47.875 36.265625 C45.68881363 39.43182595 44.50608389 40.0552637 40.875 41.265625 C35.34947987 41.71723001 31.6483955 40.61696284 26.875 38.015625 C26.21145508 37.66717529 25.54791016 37.31872559 24.86425781 36.9597168 C23.37495982 36.17721285 21.88845783 35.38937198 20.40429688 34.59716797 C17.57386056 33.10709078 14.7191042 31.67130328 11.859375 30.23828125 C9.7809737 29.18544109 7.70284724 28.1320582 5.625 27.078125 C4.6246875 26.57958008 3.624375 26.08103516 2.59375 25.56738281 C-6.56894712 20.85773146 -6.56894712 20.85773146 -9.125 16.265625 C-9.89917251 12.8485877 -9.801777 9.70026828 -9.125 6.265625 C-6.6875 3.203125 -6.6875 3.203125 -4.125 1.265625 C-3.125 0.265625 -3.125 0.265625 0 0 Z " fill="#FDFBFB" transform="translate(407.125,617.734375)"/>
<path d="M0 0 C3.5698311 1.4315938 6.85319987 3.27903578 10.1875 5.1875 C11.52071289 5.91163086 11.52071289 5.91163086 12.88085938 6.65039062 C17.44030492 9.20244692 21.2523187 11.39536925 24 16 C24.91209748 22.38468233 24.91209748 22.38468233 22.9765625 25.8125 C19.96892152 29.60395045 17.6994877 30.78211696 12.953125 31.390625 C7.42319771 30.8441895 3.51481468 28.48767861 -1.25 25.75 C-2.1471875 25.25886719 -3.044375 24.76773438 -3.96875 24.26171875 C-11.37624916 20.10331728 -11.37624916 20.10331728 -14 16 C-14.82213804 12.23186729 -14.85842013 8.5324389 -12.9453125 5.1171875 C-9.16429752 0.48600347 -5.88150629 -0.98722873 0 0 Z " fill="#FCF9F9" transform="translate(359,590)"/>
<path d="M0 0 C2.83298183 0.99143843 5.42126803 2.33263099 8.0625 3.75 C8.74376953 4.09804688 9.42503906 4.44609375 10.12695312 4.8046875 C20.9438326 10.4157489 20.9438326 10.4157489 24 15 C24.42740092 20.29977145 24.52351458 23.74748241 21 28 C18.12110603 30.39907831 16.69893528 31.03027236 12.93359375 30.8671875 C7.94560932 30.03781591 3.72209854 27.62097295 -0.6875 25.25 C-1.52861328 24.81945312 -2.36972656 24.38890625 -3.23632812 23.9453125 C-7.75630476 21.55090775 -11.27991368 19.4991698 -14 15 C-14.48285388 11.13716896 -14.36312836 8.7988824 -12.75 5.25 C-8.86934928 0.26059193 -6.35517431 -0.50764284 0 0 Z " fill="#FDFAFA" transform="translate(629,733)"/>
</svg>
