<?xml version="1.0" encoding="UTF-8"?>
<svg version="1.1" xmlns="http://www.w3.org/2000/svg" width="1080" height="1350">
<path d="M0 0 C1.12067871 0.12890625 2.24135742 0.2578125 3.39599609 0.390625 C58.7277186 6.96017402 136.48824822 23.06716216 173.67578125 70.08203125 C184.92088419 86.36918624 191.04972149 104.13842911 189 124 C187.99331704 128.4822445 186.58758149 132.69631524 185 137 C184.06106868 139.56996149 183.81536483 140.50763956 184.78515625 143.09375 C185.20667969 143.8878125 185.62820313 144.681875 186.0625 145.5 C198.64196765 171.81205316 204.29861338 205.50792352 197 234 C196.30404126 235.90827396 195.57766313 237.80590668 194.8125 239.6875 C192.46757672 246.04421975 191.16953893 251.3212907 193 258 C196.25941112 263.98043118 200.69996762 269.21077805 204.97705078 274.48095703 C208.26185653 278.57130529 211.37067728 282.7903403 214.5 287 C215.75458356 288.67104216 217.00979194 290.34161542 218.265625 292.01171875 C223.1138349 298.4764199 227.90718349 304.98109554 232.6875 311.49609375 C234.86071067 314.45753862 237.04828412 317.40734772 239.25 320.34765625 C239.75756836 321.02916748 240.26513672 321.71067871 240.78808594 322.4128418 C241.72970574 323.67666918 242.67536638 324.937501 243.62597656 326.19458008 C248.47756204 332.73110809 249.9456227 337.95622206 249 346 C247.19829411 352.73212262 243.84070205 357.13764842 238 361 C233.2243609 363.34036498 228.3191126 365.30305768 223.375 367.25 C222.05158225 367.78261077 220.72866082 368.31645654 219.40625 368.8515625 C215.00571648 370.6277127 210.60418914 372.40066898 206.15869141 374.06152344 C203.92121655 374.80877686 203.92121655 374.80877686 202.875 376.625 C202.58625 377.40875 202.2975 378.1925 202 379 C201.46375 380.19625 200.9275 381.3925 200.375 382.625 C197.6651896 390.05290668 198.91633457 397.20344129 200.53515625 404.7421875 C201.13602256 407.66068101 201.49279088 410.04325474 201 413 C197.26831928 416.57125 193.11981466 418.4158077 188.36328125 420.234375 C187.64262985 420.51726379 186.92197845 420.80015259 186.17948914 421.09161377 C184.66579125 421.68387726 183.15043886 422.27192784 181.63354492 422.85595703 C179.3059128 423.75253732 176.98374123 424.66222785 174.66210938 425.57421875 C173.18779912 426.14920505 171.71319958 426.72345028 170.23828125 427.296875 C169.54245438 427.56868591 168.8466275 427.84049683 168.12971497 428.12054443 C163.23354268 430 163.23354268 430 161 430 C161 430.66 161 431.32 161 432 C162.06758545 432.39964966 162.06758545 432.39964966 163.15673828 432.80737305 C166.09228916 434.03871136 168.74183635 435.48070199 171.4921875 437.08203125 C172.52730469 437.68466797 173.56242187 438.28730469 174.62890625 438.90820312 C175.70011719 439.53662109 176.77132813 440.16503906 177.875 440.8125 C178.93847656 441.42931641 180.00195312 442.04613281 181.09765625 442.68164062 C184.08294142 444.42645636 187.04439346 446.20548703 190 448 C190.75313477 448.43489746 191.50626953 448.86979492 192.28222656 449.31787109 C195.59705412 451.38646562 196.89100718 452.67744016 198.15625 456.421875 C197.96767771 460.7401805 196.87073602 462.65851185 194.5 466.25 C187.01461711 478.29645193 182.55686878 492.09456749 180 506 C179.82082031 506.91652344 179.64164063 507.83304688 179.45703125 508.77734375 C178.86767569 512.93305605 178.72623855 517.05936808 178.5625 521.25 C177.91283458 534.6921914 176.11885836 547.10600516 166 557 C153.57516487 565.8873601 141.82246714 567.29404692 126.9375 566.75 C124.98118652 566.67894043 124.98118652 566.67894043 122.98535156 566.60644531 C98.06463725 565.62776995 73.29803906 563.62076817 48.68457031 559.53808594 C47.66970551 559.37415344 47.66970551 559.37415344 46.63433838 559.20690918 C44.82123682 558.91235194 43.01013052 558.60558489 41.19921875 558.29785156 C37.86311939 557.98725623 35.24518529 558.18870368 32 559 C27.00045472 563.44404025 26.26954684 569.23757532 25.8125 575.6171875 C25.3136764 598.12660244 30.77679386 621.25329604 37.70239258 642.53320312 C38.67118925 645.69351945 39.08319294 647.67676075 38.25 650.9140625 C37 653 37 653 35 654 C33.53849226 654.0956462 32.07269606 654.12916172 30.6080637 654.13142776 C29.67934847 654.13526891 28.75063325 654.13911005 27.79377514 654.1430676 C26.76665494 654.14220112 25.73953473 654.14133463 24.68128967 654.14044189 C23.59547259 654.14341302 22.50965551 654.14638414 21.39093488 654.1494453 C17.72814489 654.1581634 14.06538746 654.15964315 10.40258789 654.16113281 C7.78650339 654.16575872 5.17041957 654.17078307 2.55433655 654.17617798 C-4.56948449 654.18977162 -11.69329991 654.19578743 -18.81713176 654.20018864 C-23.26253997 654.20294893 -27.707946 654.20718585 -32.15335274 654.21169281 C-44.45393583 654.22388609 -56.75451716 654.23418577 -69.05510616 654.2375679 C-69.84266583 654.23778747 -70.63022549 654.23800703 -71.4416506 654.23823325 C-72.23112419 654.23845153 -73.02059778 654.23866981 -73.83399481 654.2388947 C-75.43384485 654.23933817 -77.03369488 654.23978474 -78.63354492 654.24023438 C-79.42713052 654.2404558 -80.22071611 654.24067723 -81.03834976 654.24090537 C-93.9046097 654.24485554 -106.77081308 654.26231594 -119.63705116 654.2855939 C-132.83680608 654.30928317 -146.03653258 654.32176862 -159.23630911 654.32293582 C-166.65151236 654.32385387 -174.06664189 654.32963889 -181.48182487 654.34775543 C-188.45275245 654.36472626 -195.42353762 654.36642725 -202.39447975 654.35761642 C-204.95880381 654.35684217 -207.52313518 654.36123941 -210.08744049 654.37107468 C-213.57656584 654.38367658 -217.06518516 654.37798157 -220.55430603 654.36749268 C-221.57919551 654.37554908 -222.604085 654.38360548 -223.66003174 654.39190602 C-224.59135471 654.38531618 -225.52267768 654.37872633 -226.48222256 654.3719368 C-227.69095489 654.37283243 -227.69095489 654.37283243 -228.92410606 654.37374616 C-231.54301038 653.90223583 -232.42995555 653.12152733 -234 651 C-234.56463502 645.37477409 -233.33954433 640.34050801 -231.98828125 634.9296875 C-231.55772077 633.14181776 -231.12739135 631.35389236 -230.69726562 629.56591797 C-230.47079346 628.6366449 -230.24432129 627.70737183 -230.01098633 626.74993896 C-224.2594897 603.07703213 -219.21389822 579.3013944 -217 555 C-216.88914062 553.783125 -216.77828125 552.56625 -216.6640625 551.3125 C-214.67729548 525.9677964 -214.37975048 498.27853836 -226.73046875 475.390625 C-228 473 -228 473 -229 470 C-230.33271144 469.332091 -231.66621864 468.66576986 -233 468 C-235.11771752 466.18278858 -237.16119646 464.35100085 -239.1875 462.4375 C-239.76338867 461.89810791 -240.33927734 461.35871582 -240.93261719 460.80297852 C-242.62804851 459.20848824 -244.31536509 457.60588479 -246 456 C-246.83660156 455.2059375 -247.67320312 454.411875 -248.53515625 453.59375 C-253.31592235 448.93945919 -257.59559029 444.00633442 -261.76171875 438.796875 C-263.20115625 436.99820615 -264.66069712 435.21534695 -266.14453125 433.453125 C-282.02166539 414.57220873 -294.62449834 393.34366601 -305 371 C-305.35658691 370.23316895 -305.71317383 369.46633789 -306.08056641 368.67626953 C-319.24014411 340.01269001 -327.50648833 309.33583819 -331 278 C-331.0942627 277.20650146 -331.18852539 276.41300293 -331.28564453 275.59545898 C-332.22959509 266.72755849 -332.24352919 257.84593946 -332.25 248.9375 C-332.25067474 248.0991864 -332.25134949 247.2608728 -332.25204468 246.39715576 C-332.17650399 186.99958438 -313.79119548 129.67958375 -274 85 C-273.54238281 84.48066895 -273.08476562 83.96133789 -272.61328125 83.42626953 C-233.02605707 38.61342087 -175.52438857 15.26667353 -118 4 C-117.1961084 3.83806152 -116.3922168 3.67612305 -115.56396484 3.50927734 C-78.23075456 -3.84510921 -37.70268667 -4.38860942 0 0 Z " fill="#960C12" transform="translate(506,376)"/>
<path d="M0 0 C5.68144174 3.84129866 8.57868314 8.6357342 11.875 14.5625 C12.39457275 15.48708008 12.91414551 16.41166016 13.44946289 17.36425781 C18.51420463 26.58940708 22.53581146 36.0725241 26 46 C26.3724585 47.05767578 26.3724585 47.05767578 26.75244141 48.13671875 C42.24077935 93.21712026 38.06746159 144.42306379 17.53710938 187.14379883 C6.88782322 208.55608839 6.88782322 208.55608839 -2 213 C-7.34012755 213.3501723 -10.67913597 213.48069602 -15 210 C-18.75863338 206.24136662 -19.90824169 203.32198182 -20 198 C-17.94372803 192.50316839 -15.11503615 187.57127476 -12.1875 182.5 C8.1167266 146.5120009 12.67337922 103.54660966 2.20166016 63.67382812 C-2.03115961 48.67485925 -8.67904184 33.67364109 -17.77709961 20.99145508 C-19.89515909 17.54226139 -20.06539578 15.05453854 -20 11 C-18.72863397 6.51282579 -17.66855054 4.52926918 -14 1.625 C-9.26065053 -0.94214763 -5.17823708 -1.72305612 0 0 Z " fill="#960C12" transform="translate(868,719)"/>
<path d="M0 0 C9.93260937 4.31481095 15.49101402 20.16713393 19.3125 29.5625 C31.93154504 62.80546906 31.49316736 99.15089979 18 132 C7.41020578 155.16204885 7.41020578 155.16204885 0 158 C-5.07290292 158.61976642 -9.40638616 158.83000721 -14 156.4375 C-17.50817891 152.16190695 -19.09082689 148.77294092 -18.8046875 143.1875 C-18.18381557 138.94601589 -16.5265906 135.89596841 -14.25 132.25 C0.23252296 108.13937692 3.7695207 79.87185841 -2.74609375 52.578125 C-5.59931875 41.72547821 -10.15840177 32.02032782 -16.10424805 22.54003906 C-18.71694504 18.21487922 -19.57739119 15.1902447 -19 10 C-14.98709422 2.12853097 -8.76814651 -1.87998923 0 0 Z " fill="#960C12" transform="translate(826,746)"/>
<path d="M0 0 C10.51455057 7.82478182 15.79786432 24.16943189 17.71875 36.63671875 C19.56651385 58.73289478 17.4200506 82.06581942 3 100 C0.14817257 103.20362766 -1.96625604 103.92198159 -6.3125 104.25 C-11.51745094 103.89712197 -14.54174615 102.37942932 -18.3125 98.8125 C-20.43428346 95.27619423 -21.12831822 92.07852425 -21 88 C-20.09997064 85.05199123 -18.71458731 82.45392559 -17.25 79.75 C-9.29799091 63.88897494 -7.65648965 48.77714421 -12.640625 31.67578125 C-14.08477345 27.77077064 -15.8486132 24.22244848 -17.8125 20.5625 C-21.54217087 13.44805255 -21.54217087 13.44805255 -21.25 9.5 C-19.38800642 4.28641797 -17.25278779 1.22879334 -12.25 -1.5 C-7.78007317 -2.18768105 -4.21300552 -1.62098911 0 0 Z " fill="#960C12" transform="translate(788,774)"/>
</svg>
